<svg width="167" height="203" viewBox="0 0 167 203" fill="none" xmlns="http://www.w3.org/2000/svg">
<path d="M134.351 186.724H27.5617C27.5617 186.724 27.4451 175.783 29.5445 159.536C29.9188 156.62 30.3669 153.53 30.9055 150.301C33.2618 136.063 37.2678 119.131 44.0901 102.298C45.1154 99.7661 46.2062 97.24 47.3625 94.7195C48.2831 92.7198 49.2464 90.7312 50.2526 88.7537C50.9865 87.3055 51.746 85.8642 52.5312 84.4297H109.379C110.164 85.8647 110.923 87.306 111.658 88.7537C112.679 90.7534 113.653 92.7658 114.579 94.7909C115.901 97.6736 117.138 100.566 118.292 103.468C124.829 119.912 128.707 136.392 131.007 150.298C131.546 153.537 131.994 156.638 132.372 159.564C134.467 175.798 134.351 186.724 134.351 186.724Z" fill="white"/>
<g opacity="0.35">
<path d="M134.351 186.721H27.5617C27.5617 186.721 27.4451 175.781 29.5445 159.533C29.9188 156.618 30.3669 153.528 30.9055 150.298C31.9199 144.168 33.242 137.534 34.9622 130.629C40.5402 148.497 58.5105 162.101 80.5225 162.101H81.4742C103.427 162.101 121.346 148.568 126.979 130.768C128.683 137.624 129.993 144.209 130.997 150.296C131.535 153.536 131.983 156.637 132.362 159.562C134.467 175.795 134.351 186.721 134.351 186.721Z" fill="#371A45"/>
</g>
<path d="M135.607 187.99H26.3077L26.2943 186.734C26.2943 186.594 26.1808 172.497 29.2097 152.881C32.0054 134.771 38.1283 108.087 51.4168 83.8182C51.495 83.6686 51.6021 83.5361 51.7321 83.4285C51.8621 83.3208 52.0122 83.2402 52.1737 83.1912C52.3352 83.1423 52.5048 83.1261 52.6727 83.1435C52.8405 83.1609 53.0032 83.2117 53.1512 83.2927C53.2992 83.3738 53.4296 83.4836 53.5346 83.6156C53.6397 83.7477 53.7174 83.8994 53.7631 84.0618C53.8088 84.2243 53.8217 84.3942 53.801 84.5617C53.7802 84.7292 53.7263 84.8908 53.6423 85.0372C30.6421 127.04 28.9536 176.951 28.8362 185.451H133.076C133.028 181.61 132.673 169.294 130.188 153.216C127.421 135.32 121.372 108.966 108.268 85.0372C108.106 84.742 108.068 84.3946 108.163 84.0716C108.257 83.7485 108.476 83.4762 108.771 83.3146C109.067 83.1529 109.414 83.1151 109.737 83.2096C110.06 83.304 110.332 83.523 110.494 83.8182C123.785 108.087 129.908 134.771 132.701 152.881C135.729 172.497 135.617 186.594 135.617 186.734L135.607 187.99Z" fill="#371A45"/>
<path d="M113.043 183.273H48.8711C37.5153 183.273 28.2764 174.034 28.2764 162.679V111.305C28.2764 99.9491 37.5153 90.7109 48.8711 90.7109H113.043C124.399 90.7109 133.638 99.9491 133.638 111.305V162.679C133.638 174.034 124.399 183.273 113.043 183.273ZM48.8711 93.2489C38.9144 93.2489 30.8143 101.349 30.8143 111.305V162.679C30.8143 172.635 38.9144 180.735 48.8711 180.735H113.043C123 180.735 131.099 172.635 131.099 162.679V111.305C131.099 101.349 123 93.2489 113.043 93.2489H48.8711Z" fill="#371A45"/>
<path d="M163.032 158.083C163.032 158.083 154.222 200.118 151.351 201.05C147.24 202.386 137.358 200.98 137.358 200.98C137.358 200.98 116.81 198.198 98.4096 196.936C93.0101 196.565 87.7946 196.323 83.3405 196.323C78.2328 196.323 72.1227 196.641 65.8825 197.107C48.139 198.433 29.3264 200.98 29.3264 200.98C29.3264 200.98 19.4411 202.386 15.3296 201.05C12.4554 200.118 3.64551 158.083 3.64551 158.083C8.88638 150.504 20.9988 151.306 26.7694 164.682C26.9185 164.444 27.074 164.206 27.2326 163.977C29.4533 160.717 32.6194 157.823 37.1211 156.198C37.8127 155.948 38.5043 155.735 39.1896 155.557C48.7291 153.064 57.4216 157.302 63.5507 161.918C64.1123 162.337 64.6421 162.762 65.1528 163.181C65.2068 163.225 65.2575 163.266 65.3115 163.311C65.7175 163.647 66.1077 163.981 66.4821 164.313C68.3204 165.923 70.3736 167.269 72.5827 168.314C72.8999 168.457 73.2108 168.599 73.5344 168.733C76.6375 170.045 79.9722 170.721 83.3412 170.721C89.5561 170.721 95.533 168.415 100.2 164.313C105.377 159.764 113.384 154.513 122.534 154.83C124.934 154.914 127.307 155.376 129.564 156.197C133.241 157.527 136.023 159.7 138.129 162.225C138.778 163.002 139.374 163.821 139.912 164.678C145.685 151.306 157.791 150.503 163.032 158.083Z" fill="white"/>
<g opacity="0.35">
<path d="M163.033 158.087C163.033 158.087 154.223 200.121 151.352 201.051C147.24 202.393 137.355 200.984 137.355 200.984C137.355 200.984 116.813 198.202 98.4132 196.939C97.7375 196.892 97.066 196.848 96.3987 196.807C95.9799 196.781 95.5644 196.752 95.1488 196.728C94.3208 196.675 93.5012 196.629 92.6901 196.591L91.4814 196.534C91.1642 196.518 90.8469 196.506 90.5297 196.493C90.2124 196.48 89.8952 196.464 89.5843 196.455C89.2734 196.445 88.9593 196.43 88.6516 196.42L87.7316 196.391C87.1225 196.376 86.5229 196.36 85.9328 196.35C85.0477 196.334 84.188 196.325 83.3505 196.325C82.9825 196.325 82.6113 196.325 82.2338 196.331C81.6659 196.331 81.0885 196.344 80.4984 196.353C80.4572 196.353 80.4191 196.353 80.3779 196.353C79.902 196.363 79.4261 196.376 78.9503 196.388C78.4744 196.401 77.9795 196.42 77.4846 196.436C75.616 196.502 73.6682 196.594 71.6822 196.715C71.3015 196.737 70.9208 196.759 70.537 196.785C69.7724 196.832 69.0026 196.883 68.2274 196.937C67.4523 196.991 66.675 197.047 65.8957 197.105C48.1554 198.431 29.3333 200.979 29.3333 200.979C29.3333 200.979 19.4511 202.387 15.3396 201.045C12.459 200.121 3.64917 158.087 3.64917 158.087C4.47377 156.884 5.52168 155.851 6.73596 155.044C9.55943 167.366 13.5694 183.457 15.3301 184.031C19.4416 185.366 29.3238 183.959 29.3238 183.959C29.3238 183.959 31.1075 183.475 34.0935 182.729C37.9417 181.768 39.2487 176.958 36.4142 174.184C33.0831 170.927 29.967 167.512 27.2331 163.981C29.4538 160.72 32.6199 157.826 37.1216 156.202C37.8132 155.952 38.5048 155.739 39.1901 155.561C48.7296 153.068 57.4221 157.306 63.5512 161.922C64.1128 162.341 64.6426 162.766 65.1533 163.185C65.2073 163.229 65.258 163.27 65.312 163.315C65.718 163.651 66.1082 163.985 66.4826 164.317C68.3209 165.927 70.3741 167.273 72.5832 168.318C72.9004 168.46 73.2113 168.603 73.5349 168.736C76.638 170.049 79.9727 170.725 83.3417 170.725C89.5565 170.725 95.5334 168.418 100.2 164.316C105.378 159.768 113.385 154.517 122.534 154.834C124.935 154.918 127.307 155.38 129.564 156.201C133.241 157.531 136.023 159.704 138.13 162.229C135.221 166.141 131.813 169.935 128.143 173.555L128.076 173.622C125.231 176.418 126.538 181.243 130.412 182.188C134.685 183.231 137.353 183.954 137.353 183.954C137.353 183.954 147.238 185.362 151.349 184.026C153.113 183.452 157.12 167.361 159.947 155.039C161.161 155.848 162.209 156.882 163.033 158.087Z" fill="#371A45"/>
</g>
<path d="M20.6274 202.896C18.486 202.896 16.4017 202.737 14.9368 202.261C13.8947 201.922 12.4678 201.457 7.17938 179.519C4.64143 168.999 2.42944 158.456 2.40724 158.351L2.29541 157.817L2.60551 157.369C5.20295 153.612 9.42627 151.63 13.8883 152.075C19.172 152.598 23.8561 156.241 26.9746 162.172C29.5459 158.819 32.804 156.414 36.6839 155.011C44.5658 152.155 52.8515 153.441 61.3108 158.826C61.5947 159.007 61.7953 159.293 61.8682 159.622C61.9412 159.951 61.8806 160.295 61.6998 160.579C61.519 160.863 61.2328 161.063 60.9042 161.136C60.5756 161.209 60.2314 161.149 59.9474 160.968C52.1876 156.027 44.6515 154.827 37.5476 157.399C33.5345 158.85 30.2692 161.531 27.8415 165.366L26.5559 167.397L25.6041 165.19C22.9076 158.948 18.5455 155.088 13.6377 154.602C10.2733 154.268 7.08739 155.676 5.00626 158.383C8.99085 177.322 14.0779 197.701 15.8965 199.903C19.1355 200.845 26.5242 200.104 29.1414 199.731C29.4944 199.683 63.8424 195.063 83.3363 195.063C102.83 195.063 137.177 199.683 137.522 199.729C140.152 200.104 147.54 200.845 150.78 199.903C152.599 197.701 157.685 177.322 161.67 158.383C159.59 155.676 156.4 154.269 153.039 154.602C148.128 155.088 143.766 158.948 141.072 165.19L140.121 167.397L138.835 165.366C136.408 161.531 133.142 158.85 129.129 157.399C121.963 154.805 114.362 156.05 106.536 161.093C106.253 161.272 105.91 161.332 105.583 161.26C105.256 161.188 104.971 160.99 104.79 160.708C104.608 160.427 104.546 160.085 104.615 159.757C104.685 159.43 104.881 159.143 105.161 158.96C113.568 153.541 122.154 152.175 129.993 155.012C133.872 156.416 137.131 158.819 139.702 162.174C142.822 156.243 147.506 152.6 152.788 152.077C157.254 151.633 161.474 153.613 164.071 157.371L164.381 157.819L164.269 158.353C164.247 158.458 162.033 169 159.497 179.521C154.209 201.458 152.782 201.923 151.74 202.263C147.397 203.678 137.588 202.303 137.173 202.244C136.838 202.198 102.658 197.602 83.3355 197.602C64.0129 197.602 29.833 202.202 29.4904 202.244C29.2263 202.278 24.8277 202.896 20.6274 202.896Z" fill="#371A45"/>
<path d="M148.799 201.05H151.353C152.82 201.051 154.256 200.627 155.487 199.829C156.718 199.031 157.691 197.894 158.289 196.554C162.112 187.994 169.081 169.186 162.553 157.709C162.363 157.374 162.161 157.052 161.945 156.742C161.945 156.742 155.679 151.042 151.175 159.107C146.969 166.64 138.145 198.85 148.799 201.05Z" fill="#AFAFB2"/>
<g opacity="0.7">
<path d="M148.87 164.473C148.982 164.292 149.095 164.122 149.204 163.964C154.741 155.901 162.449 161.601 162.449 161.601C162.713 161.91 162.965 162.235 163.197 162.567C163.958 163.657 164.587 164.833 165.071 166.071C164.759 163.057 163.979 160.206 162.556 157.707C162.366 157.372 162.163 157.05 161.947 156.74C161.947 156.74 155.682 151.04 151.178 159.105C150.493 160.325 149.691 162.19 148.87 164.473Z" fill="white"/>
</g>
<path d="M165.032 167.019C164.961 167.019 164.89 167.014 164.821 167.002L149.157 164.385C148.991 164.359 148.831 164.301 148.688 164.214C148.544 164.126 148.419 164.011 148.321 163.875C148.222 163.738 148.152 163.584 148.113 163.42C148.075 163.257 148.069 163.087 148.097 162.921C148.125 162.755 148.185 162.597 148.274 162.455C148.364 162.312 148.481 162.189 148.618 162.092C148.756 161.996 148.911 161.927 149.075 161.891C149.24 161.855 149.409 161.852 149.575 161.882L165.239 164.499C165.553 164.551 165.836 164.72 166.031 164.971C166.227 165.222 166.321 165.538 166.294 165.855C166.268 166.172 166.124 166.468 165.89 166.683C165.656 166.899 165.35 167.019 165.032 167.019Z" fill="#371A45"/>
<path d="M164.935 175.484C164.878 175.483 164.821 175.48 164.764 175.472L146.44 173.008C146.11 172.959 145.813 172.782 145.613 172.515C145.413 172.249 145.326 171.914 145.371 171.584C145.415 171.254 145.588 170.954 145.851 170.75C146.114 170.546 146.447 170.454 146.778 170.493L165.099 172.957C165.418 172.999 165.709 173.161 165.913 173.411C166.117 173.66 166.219 173.977 166.198 174.298C166.177 174.62 166.034 174.921 165.799 175.141C165.564 175.361 165.254 175.483 164.932 175.484H164.935Z" fill="#371A45"/>
<path d="M163.318 183.774C163.265 183.774 163.212 183.77 163.16 183.764L144.558 181.487C144.228 181.441 143.929 181.268 143.726 181.004C143.523 180.74 143.432 180.407 143.472 180.076C143.512 179.745 143.681 179.444 143.942 179.237C144.203 179.029 144.535 178.933 144.866 178.968L163.471 181.244C163.791 181.284 164.084 181.444 164.291 181.692C164.497 181.94 164.602 182.258 164.582 182.58C164.563 182.902 164.421 183.205 164.187 183.427C163.952 183.648 163.641 183.772 163.318 183.773V183.774Z" fill="#371A45"/>
<path d="M160.368 192.811C160.33 192.812 160.291 192.81 160.253 192.806L143.622 191.305C143.289 191.273 142.982 191.11 142.769 190.852C142.555 190.594 142.452 190.262 142.482 189.929C142.512 189.595 142.673 189.287 142.929 189.072C143.185 188.856 143.516 188.75 143.85 188.778L160.481 190.278C160.807 190.307 161.109 190.46 161.325 190.706C161.541 190.952 161.653 191.272 161.639 191.599C161.624 191.926 161.484 192.235 161.247 192.46C161.01 192.686 160.695 192.812 160.368 192.811Z" fill="#371A45"/>
<g opacity="0.35">
<path d="M148.799 201.051H151.353C152.82 201.052 154.256 200.628 155.487 199.83C156.718 199.032 157.691 197.894 158.289 196.554C159.278 194.334 160.479 191.434 161.604 188.147C160.071 190.692 156.956 192.305 153.536 192.305H150.493C146.161 191.555 144.532 187.308 144.466 181.738C143.002 191.134 143.404 199.936 148.799 201.051Z" fill="#371A45"/>
</g>
<path d="M151.353 202.318H148.669L148.543 202.292C146.45 201.86 144.869 200.505 143.844 198.265C139.473 188.709 146.62 164.667 150.067 158.487C151.66 155.632 153.671 153.99 156.042 153.603C159.676 153.01 162.673 155.689 162.799 155.803L162.904 155.899L162.984 156.016C163.222 156.356 163.447 156.715 163.655 157.082C170.306 168.779 163.873 187.157 159.446 197.071C158.747 198.633 157.611 199.96 156.175 200.891C154.739 201.822 153.064 202.318 151.353 202.318ZM148.938 199.781H151.353C152.574 199.781 153.77 199.427 154.795 198.763C155.82 198.099 156.631 197.152 157.13 196.037C160.541 188.407 167.779 169.461 161.451 158.336C161.307 158.083 161.154 157.836 160.995 157.6C160.542 157.232 158.564 155.755 156.437 156.11C154.874 156.371 153.477 157.587 152.283 159.724C148.677 166.184 142.444 189.1 146.152 197.209C146.811 198.648 147.723 199.49 148.938 199.781Z" fill="#371A45"/>
<path d="M17.8835 201.05H15.3297C13.8626 201.051 12.4267 200.627 11.1956 199.829C9.96458 199.031 8.99115 197.894 8.39314 196.554C4.57034 187.994 -2.39872 169.186 4.12937 157.709C4.31919 157.374 4.52196 157.052 4.73769 156.742C4.73769 156.742 11.0033 151.042 15.5073 159.107C19.7132 166.64 28.5374 198.85 17.8835 201.05Z" fill="#AFAFB2"/>
<g opacity="0.7">
<path d="M17.813 164.473C17.7004 164.292 17.5878 164.122 17.4783 163.964C11.9416 155.901 4.23335 161.601 4.23335 161.601C3.96925 161.91 3.71783 162.235 3.48545 162.567C2.72497 163.657 2.09591 164.833 1.61133 166.071C1.92381 163.057 2.70344 160.206 4.12707 157.707C4.31689 157.372 4.51967 157.05 4.73539 156.74C4.73539 156.74 11.001 151.04 15.505 159.105C16.1895 160.325 16.9913 162.19 17.813 164.473Z" fill="white"/>
</g>
<path d="M1.65062 167.019C1.33244 167.019 1.02606 166.899 0.792177 166.683C0.558295 166.468 0.41398 166.172 0.387838 165.855C0.361695 165.538 0.455634 165.222 0.65103 164.971C0.846426 164.72 1.12902 164.551 1.44282 164.499L17.1076 161.882C17.273 161.852 17.4427 161.855 17.6069 161.891C17.771 161.927 17.9264 161.996 18.0639 162.092C18.2014 162.189 18.3183 162.312 18.4078 162.455C18.4973 162.597 18.5577 162.755 18.5854 162.921C18.6131 163.087 18.6075 163.257 18.5691 163.42C18.5307 163.584 18.4601 163.738 18.3615 163.875C18.2629 164.011 18.1382 164.126 17.9947 164.214C17.8512 164.301 17.6917 164.359 17.5255 164.385L1.8608 167.002C1.79134 167.014 1.72104 167.019 1.65062 167.019Z" fill="#371A45"/>
<path d="M1.7474 175.483C1.42532 175.483 1.11523 175.361 0.879992 175.141C0.644753 174.921 0.501969 174.62 0.480585 174.298C0.459201 173.977 0.560818 173.659 0.764835 173.41C0.968851 173.161 1.26 172.999 1.57926 172.956L19.9041 170.493C20.0705 170.468 20.2402 170.476 20.4034 170.517C20.5666 170.558 20.7199 170.632 20.8545 170.733C20.9891 170.834 21.1023 170.96 21.1874 171.106C21.2725 171.251 21.328 171.411 21.3504 171.578C21.3729 171.745 21.3619 171.915 21.3182 172.077C21.2745 172.24 21.1989 172.392 21.0959 172.525C20.9928 172.658 20.8643 172.769 20.7178 172.852C20.5713 172.935 20.4099 172.988 20.2427 173.008L1.91792 175.472C1.86136 175.479 1.80441 175.483 1.7474 175.483Z" fill="#371A45"/>
<path d="M3.36405 183.772C3.04119 183.772 2.73075 183.648 2.49594 183.426C2.26113 183.205 2.11961 182.902 2.1002 182.58C2.08079 182.257 2.18495 181.94 2.39147 181.692C2.59799 181.444 2.89134 181.283 3.21178 181.244L21.8134 178.967C21.9801 178.944 22.1498 178.954 22.3124 178.998C22.4751 179.041 22.6276 179.116 22.7609 179.218C22.8943 179.321 23.0059 179.449 23.0893 179.596C23.1726 179.742 23.2261 179.903 23.2465 180.07C23.2669 180.237 23.2539 180.407 23.2082 180.569C23.1625 180.731 23.085 180.882 22.9802 181.014C22.8755 181.145 22.7456 181.255 22.5981 181.336C22.4506 181.417 22.2885 181.468 22.1211 181.486L3.5203 183.763C3.46846 183.769 3.41628 183.772 3.36405 183.772Z" fill="#371A45"/>
<path d="M6.31433 192.812C5.98704 192.813 5.67212 192.687 5.43535 192.461C5.19858 192.235 5.05827 191.927 5.04373 191.6C5.0292 191.273 5.14156 190.953 5.35734 190.707C5.57312 190.461 5.87564 190.307 6.2017 190.279L22.8324 188.778C23.1661 188.75 23.4971 188.856 23.7532 189.072C24.0094 189.287 24.1699 189.595 24.2 189.929C24.23 190.262 24.127 190.594 23.9135 190.852C23.7 191.11 23.3932 191.273 23.0601 191.305L6.42933 192.806C6.39112 192.81 6.35274 192.812 6.31433 192.812Z" fill="#371A45"/>
<g opacity="0.35">
<path d="M17.8836 201.051H15.3298C13.8628 201.052 12.4268 200.628 11.1958 199.83C9.96471 199.032 8.99128 197.894 8.39327 196.554C7.40426 194.334 6.20349 191.434 5.07886 188.147C6.61194 190.692 9.72648 192.305 13.1464 192.305H16.1896C20.5215 191.555 22.1506 187.308 22.2172 181.738C23.6805 191.134 23.2784 199.936 17.8836 201.051Z" fill="#371A45"/>
</g>
<path d="M18.0137 202.319H15.3298C13.6179 202.318 11.9426 201.823 10.5061 200.891C9.06953 199.96 7.93306 198.633 7.23372 197.071C2.80737 187.157 -3.62714 168.779 3.02627 157.081C3.23248 156.717 3.45851 156.358 3.69644 156.016L3.77575 155.9L3.88124 155.804C4.00734 155.689 7.00531 153.009 10.6378 153.604C13.0092 153.991 15.0197 155.634 16.6123 158.488C20.0631 164.668 27.2066 188.705 22.8358 198.265C21.8111 200.506 20.2304 201.86 18.1382 202.293L18.0137 202.319ZM5.68715 157.601C5.52853 157.839 5.37546 158.083 5.23349 158.334C-1.09632 169.462 6.14478 188.408 9.55198 196.037C10.0509 197.152 10.862 198.099 11.8872 198.763C12.9125 199.428 14.1081 199.781 15.3298 199.781H17.7456C18.9599 199.491 19.8719 198.648 20.5294 197.21C24.2388 189.101 18.0057 166.184 14.3987 159.725C13.209 157.588 11.8084 156.372 10.246 156.111C8.122 155.756 6.14637 157.228 5.68715 157.601Z" fill="#371A45"/>
<path d="M46.7084 199.847C46.5447 199.847 46.3838 199.805 46.2412 199.724C46.0987 199.644 45.9793 199.528 45.8946 199.388C45.8099 199.248 45.7628 199.088 45.7578 198.924C45.7528 198.761 45.7901 198.599 45.8661 198.454C50.375 189.839 50.4416 180.154 46.0652 169.668C42.7682 161.77 38.05 156.368 38.0032 156.314C37.9205 156.22 37.8571 156.111 37.8166 155.993C37.776 155.875 37.7592 155.75 37.767 155.625C37.7748 155.5 37.8071 155.378 37.8621 155.266C37.917 155.154 37.9936 155.053 38.0873 154.97C38.181 154.888 38.2901 154.824 38.4084 154.784C38.5266 154.743 38.6517 154.726 38.7765 154.734C38.9012 154.742 39.0232 154.774 39.1355 154.829C39.2478 154.884 39.3481 154.961 39.4308 155.055C39.6315 155.281 44.3774 160.709 47.7997 168.882C52.3625 179.779 52.2776 190.31 47.5531 199.337C47.4723 199.491 47.3509 199.62 47.202 199.71C47.0531 199.8 46.8824 199.847 46.7084 199.847Z" fill="#371A45"/>
<path d="M120.41 199.848C120.237 199.848 120.066 199.8 119.917 199.71C119.768 199.62 119.647 199.491 119.567 199.337C114.843 190.311 114.757 179.78 119.32 168.882C122.742 160.713 127.489 155.281 127.689 155.055C127.772 154.961 127.872 154.884 127.984 154.829C128.096 154.774 128.218 154.742 128.343 154.734C128.468 154.726 128.593 154.743 128.711 154.784C128.83 154.824 128.939 154.888 129.032 154.97C129.126 155.053 129.203 155.154 129.258 155.266C129.313 155.378 129.345 155.5 129.353 155.625C129.36 155.75 129.344 155.875 129.303 155.993C129.263 156.111 129.199 156.22 129.116 156.314C129.069 156.368 124.351 161.77 121.054 169.668C116.678 180.154 116.745 189.839 121.253 198.454C121.329 198.599 121.366 198.761 121.361 198.924C121.356 199.088 121.309 199.248 121.224 199.388C121.14 199.528 121.02 199.644 120.878 199.724C120.735 199.805 120.574 199.847 120.41 199.847V199.848Z" fill="#371A45"/>
<g opacity="0.35">
<path d="M84.6101 150.188C84.9998 150.785 85.3773 151.372 85.7427 151.947C85.3755 151.372 84.9964 150.782 84.6101 150.188Z" fill="#371A45"/>
</g>
<path d="M62.6346 150.518C56.8647 152.854 47.9367 152.365 41.8496 151.628C40.983 151.523 40.1464 151.245 39.389 150.811C38.6316 150.377 37.9688 149.796 37.4397 149.102C36.9106 148.407 36.5259 147.614 36.3084 146.769C36.0909 145.923 36.045 145.043 36.1733 144.179C36.4089 142.577 37.2316 141.118 38.4817 140.088C39.7318 139.057 41.3201 138.528 42.9385 138.602C48.6322 138.87 57.1725 138.994 62.5807 137.795" fill="white"/>
<g opacity="0.35">
<path d="M62.6363 150.519C56.8648 152.858 47.936 152.364 41.8496 151.629C40.8004 151.499 39.7982 151.118 38.9287 150.516C38.0592 149.915 37.3482 149.112 36.8565 148.176C36.3649 147.24 36.1072 146.199 36.1055 145.142C36.1038 144.085 36.3581 143.043 36.8467 142.105C37.337 143.045 38.0488 143.851 38.9205 144.453C39.7922 145.055 40.7976 145.436 41.8496 145.563C47.9257 146.3 56.8394 146.788 62.6109 144.464L62.6363 150.519Z" fill="#371A45"/>
</g>
<path d="M51.1697 153.506C47.8426 153.506 44.5321 153.231 41.6968 152.888C39.6903 152.645 37.8562 151.634 36.58 150.066C35.3037 148.499 34.6848 146.498 34.8534 144.484C35.0219 142.47 35.9648 140.6 37.4837 139.267C39.0026 137.933 40.9793 137.241 42.9982 137.335C48.9466 137.614 57.1267 137.705 62.3057 136.556C63.0417 136.398 64.8746 136.397 65.9929 139.997C67.1659 143.769 67.0604 150.095 63.1108 151.694C59.7622 153.05 55.4533 153.506 51.1697 153.506ZM42.6271 139.865C41.2855 139.869 39.9957 140.383 39.0205 141.305C38.0453 142.226 37.4581 143.484 37.3784 144.824C37.2987 146.163 37.7326 147.482 38.5917 148.513C39.4508 149.543 40.6704 150.207 42.0021 150.37C48.1884 151.118 56.7111 151.548 62.1582 149.343C63.7175 148.708 64.022 146.17 64.0799 145.111C64.2497 142.021 63.2638 139.508 62.7237 139.063C57.2679 140.242 48.9323 140.154 42.8793 139.871C42.7952 139.867 42.7104 139.864 42.6271 139.864V139.865Z" fill="#371A45"/>
<path d="M127.549 151.628C124.693 151.974 121.204 152.262 117.714 152.233C117.476 152.233 117.238 152.233 117 152.222C116.762 152.211 116.494 152.211 116.243 152.199C116.071 152.199 115.904 152.189 115.74 152.181L115.147 152.149C114.895 152.134 114.644 152.116 114.396 152.098H114.378C114.13 152.08 113.879 152.057 113.631 152.032C113.468 152.018 113.303 152 113.143 151.981C113.004 151.97 112.866 151.952 112.732 151.938C112.517 151.912 112.302 151.883 112.097 151.854C111.893 151.824 111.701 151.796 111.507 151.762C111.468 151.76 111.429 151.754 111.39 151.744C111.161 151.712 110.935 151.671 110.713 151.628C110.491 151.584 110.265 151.544 110.046 151.497L109.992 151.486C109.868 151.457 109.744 151.431 109.624 151.402C109.489 151.373 109.355 151.34 109.22 151.304C108.808 151.202 108.404 151.085 108.011 150.961C107.799 150.896 107.588 150.823 107.381 150.75C107.173 150.678 106.969 150.597 106.772 150.517L106.798 144.41L106.827 137.795C108.211 138.105 109.803 138.323 111.497 138.476C116.421 138.924 122.231 138.801 126.468 138.604C126.569 138.6 126.671 138.597 126.777 138.597C128.44 138.602 130.039 139.241 131.249 140.383C132.458 141.526 133.186 143.086 133.285 144.747C133.385 146.408 132.848 148.044 131.783 149.322C130.719 150.601 129.208 151.426 127.556 151.629L127.549 151.628Z" fill="white"/>
<g opacity="0.35">
<path d="M127.548 151.627C124.693 151.974 121.208 152.262 117.718 152.233C117.48 152.233 117.242 152.233 117 152.221C116.758 152.21 116.494 152.21 116.243 152.199C116.071 152.199 115.904 152.189 115.74 152.181L115.146 152.148C114.894 152.134 114.644 152.116 114.395 152.098H114.377C114.13 152.079 113.878 152.057 113.631 152.032C113.467 152.018 113.303 151.999 113.142 151.981C113.004 151.97 112.866 151.952 112.731 151.938C112.516 151.911 112.301 151.883 112.096 151.853C111.892 151.824 111.7 151.796 111.506 151.762C111.467 151.76 111.428 151.754 111.39 151.744C111.16 151.711 110.934 151.671 110.711 151.627C110.489 151.584 110.264 151.544 110.045 151.497L109.991 151.485C109.867 151.456 109.743 151.431 109.623 151.402C109.488 151.373 109.353 151.339 109.218 151.304C108.806 151.201 108.402 151.085 108.009 150.961C107.798 150.895 107.586 150.822 107.379 150.749C107.172 150.676 106.967 150.597 106.771 150.516L106.796 144.409V143.968C106.982 144.048 107.179 144.121 107.376 144.19C107.572 144.259 107.794 144.336 108.005 144.401C108.402 144.526 108.803 144.639 109.215 144.744C109.35 144.78 109.485 144.813 109.619 144.842C109.74 144.872 109.864 144.897 109.987 144.926L110.042 144.938C110.261 144.985 110.483 145.028 110.708 145.068C110.931 145.112 111.156 145.152 111.386 145.185C111.425 145.195 111.464 145.201 111.503 145.203C111.696 145.236 111.892 145.265 112.093 145.294C112.294 145.324 112.515 145.352 112.728 145.378C112.862 145.393 113.001 145.411 113.139 145.421C113.298 145.44 113.464 145.458 113.628 145.473C113.875 145.498 114.127 145.52 114.374 145.538H114.392C114.641 145.556 114.891 145.574 115.143 145.589L115.737 145.622C115.901 145.629 116.068 145.636 116.239 145.64C116.491 145.651 116.745 145.658 116.997 145.662C117.248 145.665 117.473 145.673 117.715 145.673C121.204 145.706 124.69 145.414 127.545 145.068C128.55 144.948 129.514 144.595 130.358 144.037C131.203 143.48 131.906 142.733 132.412 141.855C132.953 142.792 133.254 143.847 133.287 144.928C133.321 146.009 133.086 147.081 132.604 148.049C132.122 149.017 131.408 149.851 130.525 150.475C129.642 151.1 128.618 151.496 127.545 151.628L127.548 151.627Z" fill="#371A45"/>
</g>
<path d="M118.228 153.506C113.946 153.506 109.637 153.05 106.287 151.694C102.337 150.095 102.232 143.768 103.405 139.995C104.523 136.402 106.356 136.392 107.092 136.556C112.271 137.705 120.451 137.614 126.4 137.334C128.419 137.24 130.395 137.933 131.914 139.266C133.433 140.599 134.376 142.47 134.545 144.484C134.713 146.498 134.094 148.499 132.818 150.066C131.542 151.633 129.708 152.644 127.701 152.887C124.867 153.231 121.555 153.506 118.228 153.506ZM106.674 139.062C106.134 139.507 105.148 142.02 105.318 145.11C105.376 146.172 105.681 148.71 107.24 149.341C112.687 151.546 121.207 151.117 127.396 150.368C128.747 150.2 129.98 149.516 130.838 148.459C131.696 147.402 132.112 146.054 131.998 144.698C131.885 143.341 131.251 142.081 130.23 141.181C129.209 140.281 127.879 139.812 126.519 139.87C120.463 140.153 112.131 140.239 106.674 139.062Z" fill="#371A45"/>
<path d="M108.994 133.59V153.98C108.994 157.762 105.897 160.859 102.113 160.859H64.5628C60.7853 160.859 57.689 157.766 57.689 153.98V133.59C57.6944 131.768 58.4203 130.023 59.7082 128.735C60.9961 127.447 62.7414 126.72 64.5628 126.715H102.113C103.936 126.72 105.682 127.446 106.971 128.734C108.26 130.022 108.987 131.767 108.994 133.59Z" fill="white"/>
<g opacity="0.35">
<path d="M108.994 133.59V153.98C108.994 157.761 105.901 160.857 102.113 160.857H64.5628C62.7415 160.852 60.9963 160.126 59.7083 158.839C58.4204 157.551 57.6944 155.806 57.689 153.984V146.353C61.7116 154.175 75.3801 157.25 86.6256 156.108C89.1374 155.854 90.9338 153.467 90.335 151.015C90.151 150.258 90.0586 149.482 90.0598 148.703C90.0598 144.255 93.007 140.65 96.6426 140.65C100.158 140.65 103.035 144.022 103.221 148.27C107.727 142.379 107.971 134.498 107.592 129.438C108.502 130.631 108.994 132.09 108.994 133.59Z" fill="#371A45"/>
</g>
<path d="M102.116 162.128H64.5641C62.4048 162.126 60.3346 161.267 58.8077 159.74C57.2808 158.213 56.422 156.143 56.4197 153.983V133.589C56.422 131.429 57.2808 129.359 58.8076 127.832C60.3345 126.305 62.4047 125.446 64.5641 125.443H102.116C104.276 125.446 106.346 126.305 107.873 127.832C109.4 129.359 110.258 131.429 110.261 133.589V153.981C110.259 156.141 109.401 158.212 107.874 159.739C106.347 161.266 104.276 162.126 102.116 162.128ZM64.5641 127.984C63.0776 127.986 61.6526 128.577 60.6015 129.628C59.5505 130.679 58.9593 132.104 58.9576 133.591V153.983C58.9593 155.47 59.5505 156.895 60.6016 157.946C61.6526 158.997 63.0777 159.588 64.5641 159.59H102.116C103.603 159.588 105.028 158.997 106.079 157.946C107.13 156.895 107.721 155.47 107.723 153.983V133.589C107.721 132.102 107.13 130.677 106.079 129.626C105.028 128.575 103.603 127.983 102.116 127.981L64.5641 127.984Z" fill="#371A45"/>
<path d="M100.836 147.978C103.152 145.663 103.152 141.908 100.836 139.592C98.5204 137.276 94.7656 137.276 92.4498 139.592C90.134 141.908 90.134 145.663 92.4498 147.978C94.7656 150.294 98.5204 150.294 100.836 147.978Z" fill="#22A7F0"/>
<path d="M102.574 143.786C102.574 144.103 102.548 144.419 102.495 144.731C102.271 143.34 101.559 142.074 100.486 141.16C99.4134 140.246 98.0503 139.744 96.641 139.744C95.2318 139.744 93.8687 140.246 92.7959 141.16C91.7232 142.074 91.011 143.34 90.7871 144.731C90.7341 144.419 90.7076 144.103 90.7078 143.786C90.7078 142.213 91.3326 140.705 92.4449 139.593C93.5571 138.48 95.0657 137.855 96.6386 137.855C98.2116 137.855 99.7202 138.48 100.832 139.593C101.945 140.705 102.57 142.213 102.57 143.786H102.574Z" fill="white"/>
<g opacity="0.35">
<path d="M102.571 143.78C102.571 145.352 101.946 146.86 100.834 147.972C99.7227 149.084 98.2147 149.709 96.6424 149.709C95.07 149.709 93.5621 149.084 92.4503 147.972C91.3385 146.86 90.7139 145.352 90.7139 143.78C90.7125 143.047 90.8506 142.32 91.1208 141.639C91.5533 142.751 92.312 143.708 93.2974 144.382C94.2828 145.056 95.4488 145.417 96.6428 145.417C97.8367 145.417 99.0028 145.056 99.9882 144.382C100.974 143.708 101.732 142.751 102.165 141.639C102.434 142.32 102.572 143.047 102.571 143.78Z" fill="#371A45"/>
</g>
<path d="M96.6433 150.666C95.2822 150.666 93.9516 150.262 92.8199 149.506C91.6882 148.75 90.8061 147.675 90.2853 146.418C89.7644 145.16 89.6282 143.776 89.8938 142.441C90.1594 141.106 90.8149 139.88 91.7774 138.918C92.7399 137.955 93.9662 137.3 95.3012 137.034C96.6362 136.769 98.0199 136.905 99.2774 137.426C100.535 137.947 101.61 138.83 102.366 139.961C103.122 141.093 103.525 142.424 103.525 143.785C103.523 145.609 102.797 147.358 101.507 148.648C100.217 149.938 98.4677 150.664 96.6433 150.666ZM96.6433 138.807C95.6586 138.806 94.6961 139.098 93.8773 139.645C93.0585 140.192 92.4203 140.97 92.0433 141.879C91.6664 142.789 91.5677 143.79 91.7597 144.756C91.9517 145.721 92.4258 146.609 93.122 147.305C93.8182 148.001 94.7053 148.475 95.671 148.668C96.6367 148.86 97.6377 148.761 98.5475 148.384C99.4572 148.008 100.235 147.37 100.782 146.551C101.329 145.732 101.621 144.77 101.621 143.785C101.619 142.466 101.093 141.201 100.16 140.269C99.2272 139.336 97.9624 138.812 96.6433 138.811V138.807Z" fill="#371A45"/>
<path d="M79.8389 161.81C79.5865 161.81 79.3444 161.71 79.1659 161.531C78.9874 161.353 78.8872 161.111 78.8872 160.858V146.791L71.7571 141.423C71.6391 141.334 71.5434 141.219 71.4775 141.087C71.4116 140.955 71.3772 140.81 71.3772 140.662V126.711C71.3772 126.459 71.4775 126.217 71.6559 126.039C71.8344 125.86 72.0765 125.76 72.3289 125.76C72.5813 125.76 72.8234 125.86 73.0019 126.039C73.1804 126.217 73.2807 126.459 73.2807 126.711V140.188L80.4107 145.556C80.5285 145.645 80.6241 145.759 80.6899 145.891C80.7557 146.023 80.7899 146.169 80.7898 146.316V160.858C80.7898 161.11 80.6897 161.352 80.5114 161.531C80.333 161.709 80.0912 161.81 79.8389 161.81Z" fill="#371A45"/>
<path d="M135.896 69.5823C135.602 69.6042 135.312 69.5085 135.089 69.3163C134.866 69.1242 134.728 68.8513 134.706 68.5576L132.327 36.6595C132.305 36.3659 132.401 36.0756 132.593 35.8525C132.785 35.6294 133.058 35.4917 133.352 35.4698C134.877 35.3559 136.411 35.5436 137.864 36.0222C139.317 36.5009 140.662 37.261 141.821 38.2593C142.98 39.2576 143.932 40.4745 144.621 41.8405C145.31 43.2064 145.723 44.6948 145.837 46.2205L146.65 57.0972C146.764 58.6231 146.576 60.1565 146.097 61.6099C145.618 63.0632 144.858 64.408 143.859 65.5674C142.861 66.7268 141.643 67.6781 140.277 68.367C138.911 69.0559 137.422 69.4689 135.896 69.5823Z" fill="white"/>
<path d="M135.811 69.8118C135.474 69.811 135.149 69.683 134.902 69.4533C134.655 69.2237 134.504 68.9093 134.478 68.573L132.099 36.6741C132.073 36.3202 132.188 35.9704 132.42 35.7016C132.651 35.4327 132.98 35.2667 133.334 35.2401C134.89 35.1237 136.453 35.3149 137.934 35.8027C139.416 36.2905 140.787 37.0655 141.969 38.0832C143.151 39.101 144.122 40.3417 144.824 41.7344C145.527 43.1271 145.948 44.6446 146.064 46.2002L146.876 57.0777C146.993 58.6337 146.802 60.1976 146.314 61.6798C145.826 63.162 145.051 64.5336 144.033 65.7162C143.015 66.8988 141.774 67.8691 140.381 68.5719C138.987 69.2746 137.469 69.696 135.913 69.8118C135.879 69.8118 135.845 69.8118 135.811 69.8118ZM134.233 35.6621C133.945 35.6621 133.655 35.6724 133.365 35.6946C133.132 35.712 132.915 35.8214 132.762 35.9987C132.609 36.176 132.533 36.4066 132.55 36.64L134.93 68.5389C134.947 68.7723 135.057 68.9892 135.234 69.1419C135.412 69.2946 135.642 69.3707 135.876 69.3534C137.372 69.2419 138.831 68.8367 140.17 68.1611C141.51 67.4855 142.703 66.5526 143.682 65.4159C144.66 64.2791 145.406 62.9606 145.875 61.5358C146.344 60.1109 146.528 58.6076 146.416 57.1118L145.603 46.2342C145.389 43.363 144.098 40.6786 141.989 38.7182C139.881 36.7579 137.109 35.6663 134.23 35.6621H134.233Z" fill="#371A45"/>
<g opacity="0.35">
<path d="M146.265 51.9941L146.647 57.0962C146.875 60.1773 145.871 63.223 143.855 65.5643C141.839 67.9056 138.977 69.351 135.896 69.583C135.75 69.5938 135.603 69.5756 135.464 69.5296C135.325 69.4835 135.197 69.4105 135.087 69.3147C134.976 69.2189 134.885 69.1022 134.82 68.9713C134.755 68.8404 134.716 68.6979 134.706 68.5519L134.072 60.0728C134.173 60.2611 134.327 60.4162 134.514 60.5193C134.701 60.6225 134.915 60.6693 135.128 60.6541L135.885 60.5954C138.293 60.416 140.587 59.4917 142.447 57.9505C144.307 56.4093 145.641 54.3277 146.265 51.9941Z" fill="#371A45"/>
</g>
<path d="M135.809 70.8543C135.21 70.8534 134.632 70.626 134.193 70.2176C133.754 69.8092 133.485 69.25 133.44 68.6519L131.061 36.7537C131.014 36.1245 131.219 35.5024 131.631 35.0242C132.042 34.546 132.627 34.2509 133.256 34.2039C136.673 33.9487 140.052 35.0613 142.648 37.2969C145.245 39.5326 146.847 42.7082 147.103 46.1251L147.915 57.0018C148.17 60.4188 147.057 63.7972 144.822 66.3938C142.586 68.9905 139.41 70.5927 135.993 70.848C135.93 70.8519 135.87 70.8543 135.809 70.8543ZM133.601 36.7236L135.959 68.3037C138.674 68.0591 141.184 66.7566 142.946 64.6776C144.709 62.5985 145.583 59.9096 145.381 57.1914L144.569 46.3139C144.367 43.5955 143.103 41.0659 141.051 39.2715C138.999 37.4771 136.323 36.5619 133.602 36.7236H133.601Z" fill="#371A45"/>
<path d="M28.0613 43.3331C28.3549 43.3113 28.6452 43.407 28.8683 43.5991C29.0914 43.7913 29.229 44.0642 29.2509 44.3578L31.6303 76.256C31.6521 76.5496 31.5564 76.8399 31.3643 77.063C31.1721 77.2861 30.8992 77.4237 30.6056 77.4456C29.0799 77.5597 27.5467 77.3721 26.0935 76.8935C24.6403 76.415 23.2956 75.6549 22.1362 74.6567C20.9767 73.6585 20.0253 72.4417 19.3361 71.0757C18.6469 69.7098 18.2336 68.2215 18.1196 66.6958L17.3075 55.8183C17.1936 54.2923 17.3814 52.7589 17.8602 51.3056C18.339 49.8523 19.0995 48.5075 20.0981 47.3481C21.0967 46.1887 22.3139 45.2374 23.6803 44.5485C25.0466 43.8596 26.5353 43.4466 28.0613 43.3331Z" fill="white"/>
<path d="M29.731 77.7057C23.5797 77.7057 18.3602 72.947 17.8946 66.7124L17.0817 55.8349C16.5939 49.3036 21.5112 43.5924 28.0425 43.1046C28.3959 43.0807 28.7445 43.1969 29.013 43.428C29.2815 43.659 29.4482 43.9865 29.4772 44.3395L31.8566 76.2376C31.8697 76.413 31.8481 76.5892 31.7931 76.7562C31.738 76.9232 31.6507 77.0777 31.5359 77.2109C31.4212 77.3442 31.2813 77.4535 31.1243 77.5327C30.9673 77.6118 30.7962 77.6593 30.6209 77.6724C30.3251 77.6946 30.0269 77.7057 29.731 77.7057ZM28.0758 43.5567C21.796 44.0262 17.0674 49.5177 17.5362 55.7984L18.3491 66.6759C18.8186 72.9565 24.3165 77.6811 30.59 77.2155C30.7056 77.2069 30.8184 77.1756 30.9219 77.1233C31.0254 77.0711 31.1176 76.999 31.1932 76.9112C31.2689 76.8233 31.3264 76.7214 31.3627 76.6113C31.3989 76.5012 31.4131 76.385 31.4045 76.2694L29.0252 44.3712C29.0073 44.1379 28.8977 43.9212 28.7204 43.7685C28.543 43.6158 28.3124 43.5397 28.079 43.5567H28.0758Z" fill="#371A45"/>
<g opacity="0.35">
<path d="M30.9737 67.4077L31.6336 76.2572C31.6444 76.4031 31.6263 76.5497 31.5802 76.6885C31.5342 76.8274 31.4612 76.9558 31.3654 77.0663C31.2696 77.1769 31.1528 77.2674 31.0219 77.3327C30.891 77.398 30.7485 77.4368 30.6026 77.4469C29.0771 77.5612 27.544 77.3739 26.0909 76.8955C24.6378 76.4172 23.2932 75.6573 22.1339 74.6591C20.9746 73.661 20.0234 72.4442 19.3345 71.0783C18.6456 69.7124 18.2326 68.2242 18.119 66.6986L17.7764 62.1152C18.8515 64.0801 20.4698 65.6937 22.4377 66.763C24.4057 67.8324 26.6401 68.3123 28.8736 68.1453L30.0379 68.058C30.2377 68.043 30.4299 67.9747 30.5944 67.8604C30.759 67.746 30.89 67.5897 30.9737 67.4077Z" fill="#371A45"/>
</g>
<path d="M29.7268 78.7478C23.0361 78.7478 17.3591 73.5688 16.8531 66.7901L16.0401 55.9133C15.5103 48.8087 20.8575 42.5978 27.9614 42.0672C28.2731 42.0438 28.5863 42.0821 28.8832 42.1798C29.1801 42.2776 29.4548 42.4329 29.6917 42.6368C29.9286 42.8408 30.1229 43.0894 30.2637 43.3685C30.4044 43.6475 30.4888 43.9516 30.512 44.2633L32.8913 76.1614C32.9146 76.4731 32.8762 76.7862 32.7784 77.0831C32.6807 77.3799 32.5254 77.6545 32.3214 77.8913C32.1175 78.1281 31.8689 78.3223 31.5899 78.463C31.3109 78.6038 31.0068 78.6881 30.6952 78.7113C30.3737 78.7362 30.0509 78.7483 29.7268 78.7478ZM27.9923 44.6115C25.2785 44.8583 22.7703 46.1614 21.0082 48.24C19.246 50.3185 18.371 53.0062 18.5717 55.7238L19.3839 66.6013C19.8066 72.257 24.7033 76.5326 30.3518 76.1908L27.9923 44.6115Z" fill="#371A45"/>
<path d="M81.9843 110.967C112.089 110.967 136.493 86.5626 136.493 56.4581C136.493 26.3537 112.089 1.94922 81.9843 1.94922C51.8798 1.94922 27.4753 26.3537 27.4753 56.4581C27.4753 86.5626 51.8798 110.967 81.9843 110.967Z" fill="white"/>
<path d="M81.9813 111.194C51.8875 111.194 27.3558 86.766 27.2479 56.6523C27.1408 26.4705 51.6075 1.82857 81.7894 1.7207H81.9884C112.081 1.7207 136.614 26.1485 136.721 56.2621C136.829 86.444 112.361 111.087 82.1796 111.194H81.9813ZM81.9884 2.17595H81.7909C51.8605 2.28222 27.5969 26.7196 27.7008 56.65C27.8078 86.5146 52.1381 110.74 81.9781 110.74H82.1748C112.105 110.633 136.369 86.1957 136.265 56.2653C136.163 26.3983 111.828 2.17595 81.9884 2.17595Z" fill="#371A45"/>
<g opacity="0.35">
<path d="M135.944 48.7188C136.303 51.2175 136.487 53.7384 136.494 56.2628C136.597 86.3661 112.281 110.857 82.1787 110.968C52.0762 111.079 27.5857 86.7548 27.4739 56.6514C27.4739 55.7862 27.4874 54.9193 27.5262 54.0659C31.2951 80.5875 54.1359 100.939 81.6798 100.837C110.917 100.731 134.691 77.6276 135.944 48.7188Z" fill="#371A45"/>
</g>
<path d="M81.9808 112.235C51.3152 112.235 26.3164 87.3469 26.2069 56.6567C26.0967 25.9006 51.0313 0.78993 81.7849 0.679688H81.988C112.654 0.679688 137.652 25.5683 137.762 56.2585C137.871 87.0138 112.938 112.125 82.1831 112.235H81.9808ZM81.988 3.21764H81.7945C52.4382 3.32233 28.6402 27.2909 28.7449 56.6471C28.8496 85.9391 52.7127 109.698 81.9808 109.698H82.1736C111.531 109.593 135.328 85.6242 135.224 56.268C135.119 26.9753 111.259 3.21764 81.988 3.21764Z" fill="#371A45"/>
<path d="M136.321 57.6633C136.52 68.3283 133.243 78.2945 127.475 86.5968C123.151 92.8212 105.106 103.91 82.5773 104.534C61.6892 105.112 42.4729 94.3281 37.9197 88.2695C31.846 80.1877 28.1993 70.3515 28.0002 59.6866C27.4728 31.4653 51.5017 19.3125 81.4146 18.7541C111.328 18.1958 135.796 29.4413 136.321 57.6633Z" fill="#371A45"/>
<path d="M80.924 105.825C60.0184 105.825 41.5492 95.2063 36.9063 89.0311C30.448 80.4386 26.9298 70.2994 26.7323 59.7098C26.4745 45.9184 31.8082 35.1821 42.5763 27.7998C51.9865 21.351 65.4091 17.782 81.3943 17.4846C97.3794 17.1872 110.925 20.2494 120.568 26.3429C131.607 33.3222 137.335 43.8484 137.592 57.6398C137.79 68.2294 134.653 78.4931 128.52 87.3212C124.27 93.44 106.441 105.144 82.6157 105.801C82.051 105.817 81.4847 105.825 80.924 105.825ZM83.3414 20.0027C82.6799 20.0027 82.0454 20.0091 81.4379 20.0202C65.5352 20.3176 28.6167 24.7789 29.2679 59.6615C29.4558 69.7133 32.798 79.3417 38.9335 87.5052C43.179 93.1545 61.1446 103.288 80.9533 103.288C81.4823 103.288 82.0105 103.281 82.5395 103.267C105.179 102.64 122.56 91.4493 126.43 85.8738C132.256 77.4866 135.234 67.7401 135.049 57.6882C134.428 24.1269 100.105 20.0027 83.3414 20.0027Z" fill="#371A45"/>
<g opacity="0.7">
<path d="M125.547 55.277C126.399 50.0178 124 45.2541 120.19 44.6369C116.379 44.0198 112.599 47.7828 111.748 53.0419C110.896 58.3011 113.294 63.0648 117.105 63.682C120.916 64.2992 124.695 60.5361 125.547 55.277Z" fill="white"/>
</g>
<g opacity="0.7">
<path d="M114.068 74.5338C114.789 72.1969 113.748 69.8011 111.742 69.1826C109.737 68.5642 107.527 69.9572 106.806 72.2941C106.085 74.631 107.127 77.0268 109.132 77.6452C111.138 78.2637 113.348 76.8706 114.068 74.5338Z" fill="white"/>
</g>
<g opacity="0.35">
<path d="M125.297 31.5312C132.038 37.7254 136.108 46.3267 136.321 57.6611C136.521 68.3284 133.241 78.2931 127.478 86.5961C123.152 92.8205 105.105 103.91 82.5774 104.536C74.6233 104.758 66.9142 103.329 60.1609 101.139C87.8357 99.78 109.817 86.1726 115.179 78.4564C122.499 67.9192 126.658 55.2691 126.403 41.7354C126.353 38.307 125.982 34.8908 125.297 31.5312Z" fill="#111A28"/>
</g>
<path d="M31.6304 36.81C31.3983 36.809 31.1709 36.7443 30.973 36.623C30.7751 36.5018 30.6142 36.3286 30.5079 36.1222C30.4016 35.9159 30.3539 35.6843 30.37 35.4528C30.3861 35.2212 30.4655 34.9985 30.5994 34.8089C39.8788 20.6234 58.2369 12.2449 80.9818 11.8198C103.585 11.3971 122.254 18.8317 132.197 32.2178C132.388 32.4625 132.482 32.7687 132.463 33.0783C132.443 33.388 132.311 33.6797 132.09 33.8984C131.87 34.1171 131.578 34.2475 131.268 34.265C130.958 34.2826 130.653 34.186 130.409 33.9936L130.281 33.8905L130.175 33.7525C120.73 21.0199 102.813 13.9525 81.0293 14.357C59.1196 14.767 41.5039 22.7402 32.7011 36.2318L32.6083 36.3555C32.4885 36.4982 32.3388 36.6128 32.1698 36.6913C32.0009 36.7698 31.8168 36.8103 31.6304 36.81Z" fill="#371A45"/>
<g opacity="0.7">
<path d="M40.4789 76.2462C40.4789 76.2462 31.2186 48.5666 46.0156 37.1934C60.8127 25.8202 82.4012 25.4601 81.9221 26.8536C81.9221 26.8536 58.1288 33.0859 49.1333 52.1538C42.1952 66.8573 40.4789 76.2462 40.4789 76.2462Z" fill="white"/>
</g>
<g opacity="0.3">
<path d="M90.8021 187.078C90.7577 187.107 90.7132 187.135 90.6688 187.157H75.9709C75.9265 187.132 75.8821 187.104 75.8345 187.078H90.8021Z" fill="#390075"/>
</g>
<path d="M147.742 132.423C147.742 133.354 147.694 134.284 147.596 135.209C146.431 146.617 138.304 157.984 128.145 167.997C111.664 184.233 89.844 196.88 83.7846 200.248C83.2892 200.525 82.7316 200.672 82.164 200.675C81.5963 200.677 81.0373 200.536 80.5392 200.264C73.4012 196.397 44.5542 180.005 28.1463 159.577C21.2748 151.024 16.5859 141.764 16.5859 132.421C16.584 130.007 16.8446 127.6 17.3632 125.242C20.8338 109.386 35.573 97.4766 53.2245 97.4766C64.9911 97.4766 75.4633 102.765 82.1667 110.988C88.87 102.765 99.3391 97.4766 111.103 97.4766C131.34 97.4789 147.742 113.122 147.742 132.423Z" fill="#F9195A"/>
<g opacity="0.35">
<path d="M147.618 132.424C147.618 137.04 146.475 141.634 144.486 146.129C142.393 150.729 139.395 155.256 135.835 159.612C133.422 162.542 130.854 165.341 128.142 167.997C111.658 184.233 89.8347 196.88 83.7785 200.248C83.2831 200.525 82.7255 200.672 82.1579 200.675C81.5902 200.677 81.0312 200.536 80.5331 200.264C73.3951 196.397 44.5481 180.005 28.1434 159.577C27.9277 159.311 27.7151 159.041 27.5089 158.775C27.3027 158.508 27.0901 158.235 26.8839 157.966C26.627 157.629 26.3732 157.29 26.1225 156.95C24.53 154.798 23.0732 152.549 21.7604 150.215C21.6653 150.041 21.5669 149.863 21.4717 149.69C21.3385 149.442 21.2084 149.197 21.0752 148.95C20.313 147.496 19.6289 146.003 19.0258 144.476C18.9274 144.226 18.8323 143.975 18.7403 143.725C18.6356 143.439 18.5309 143.15 18.4325 142.865C18.385 142.722 18.3342 142.576 18.2866 142.433C18.2263 142.253 18.1692 142.076 18.1121 141.894C17.944 141.353 17.7875 140.812 17.6426 140.273C17.5633 139.984 17.4967 139.692 17.4269 139.4C17.3254 138.966 17.2302 138.528 17.1445 138.097C17.0906 137.808 17.0367 137.516 16.9859 137.225C16.9637 137.079 16.9383 136.933 16.9161 136.787C16.8749 136.495 16.8368 136.207 16.7987 135.915C16.7797 135.769 16.7638 135.623 16.748 135.478C16.7353 135.366 16.7258 135.255 16.7131 135.144L16.694 134.915C16.6718 134.665 16.6528 134.417 16.6369 134.167C16.6179 133.875 16.6052 133.584 16.5957 133.294L16.5862 132.857C16.5862 132.784 16.5862 132.711 16.5862 132.638V132.419C16.5859 131.2 16.6515 129.982 16.7829 128.77C16.8146 128.479 16.8495 128.191 16.8907 127.898C16.8914 127.885 16.8935 127.872 16.8971 127.86C16.9351 127.568 16.9764 127.279 17.0271 126.988C17.0271 126.968 17.0335 126.949 17.0367 126.927C17.1318 126.359 17.2408 125.796 17.3634 125.236C24.4348 127.06 31.3476 128.609 33.7015 129.268C41.0774 131.337 47.0099 133.244 46.0169 147.291C45.6775 152.104 42.5494 155.914 38.3555 158.004C39.5716 159.115 40.811 160.206 42.0736 161.278C65.5433 181.322 100.405 180.757 123.187 159.94C123.957 159.235 124.721 158.527 125.477 157.814C121.473 155.685 118.517 151.961 118.187 147.291C117.194 133.244 123.129 131.337 130.502 129.268C132.856 128.609 139.769 127.057 146.84 125.236C146.98 125.871 147.104 126.521 147.205 127.172C147.481 128.909 147.619 130.665 147.618 132.424Z" fill="#371A45"/>
</g>
<g opacity="0.35">
<path d="M16.7824 128.777C16.6511 129.989 16.5854 131.207 16.5857 132.426V132.645C16.5857 132.572 16.5857 132.499 16.5857 132.426C16.5839 131.207 16.6496 129.989 16.7824 128.777Z" fill="#371A45"/>
</g>
<g opacity="0.35">
<path d="M17.4266 139.405C17.3188 138.97 17.2268 138.532 17.1443 138.102C17.2299 138.535 17.3251 138.968 17.4266 139.405Z" fill="#371A45"/>
</g>
<g opacity="0.35">
<path d="M18.1121 141.897C17.9408 141.357 17.7822 140.818 17.6426 140.275C17.7885 140.815 17.945 141.355 18.1121 141.897Z" fill="#371A45"/>
</g>
<g opacity="0.35">
<path d="M21.075 148.95C20.309 147.498 19.6248 146.005 19.0256 144.477C19.6287 146.003 20.3129 147.496 21.075 148.95Z" fill="#371A45"/>
</g>
<g opacity="0.35">
<path d="M26.1224 156.952C24.5269 154.802 23.07 152.552 21.7603 150.217C23.073 152.55 24.5298 154.8 26.1224 156.952Z" fill="#371A45"/>
</g>
<g opacity="0.35">
<path d="M147.742 132.423C147.742 133.353 147.693 134.283 147.596 135.208C147.225 138.866 146.133 142.521 144.49 146.128C146.479 141.632 147.621 137.039 147.621 132.423C147.622 130.667 147.484 128.913 147.209 127.179C147.234 127.078 147.256 126.973 147.279 126.871C147.587 128.706 147.742 130.563 147.742 132.423Z" fill="#371A45"/>
</g>
<g opacity="0.5">
<path d="M147.742 132.427C147.742 133.252 147.705 134.075 147.624 134.9C146.123 116.916 130.348 102.77 111.103 102.77C100.634 102.77 91.1959 106.957 84.5187 113.671C84.0881 114.104 86.9671 117.373 86.8719 117.976C86.243 121.956 82.8128 117.183 82.1664 116.282C75.4646 108.059 64.9924 102.77 53.225 102.77C33.9722 102.77 18.1774 116.941 16.6998 134.949C16.6205 134.107 16.5864 133.269 16.5864 132.427C16.5864 113.125 32.9951 97.4805 53.2281 97.4805C64.9955 97.4805 75.4678 102.77 82.1696 110.993C88.8745 102.77 99.3436 97.4805 111.106 97.4805C131.34 97.4805 147.742 113.125 147.742 132.427Z" fill="white"/>
</g>
<path d="M82.1517 201.949C81.3761 201.95 80.6126 201.757 79.931 201.387C69.1446 195.533 15.3154 164.698 15.3154 132.427C15.3154 112.459 32.3205 96.2129 53.2261 96.2129C64.478 96.2129 74.9399 100.867 82.1683 109.034C89.3936 100.864 99.8547 96.2129 111.104 96.2129C132.007 96.2129 149.015 112.459 149.015 132.427C149.015 163.865 95.1952 195.368 84.4065 201.364C83.7169 201.748 82.9408 201.949 82.1517 201.949ZM53.2253 98.7477C33.7227 98.7477 17.8526 113.855 17.8526 132.424C17.8526 163.257 70.5723 193.42 81.1428 199.153C81.4538 199.323 81.8029 199.411 82.1574 199.41C82.5118 199.408 82.86 199.316 83.1692 199.143C87.7835 196.579 103.983 187.246 118.732 174.828C137.14 159.329 146.473 145.061 146.473 132.424C146.473 113.855 130.605 98.7477 111.1 98.7477C100.093 98.7477 89.9043 103.506 83.1478 111.792L82.1652 112.999L81.1809 111.793C74.4236 103.502 64.2337 98.7477 53.2253 98.7477Z" fill="#371A45"/>
<path d="M86.121 118.11C85.9042 118.11 85.691 118.055 85.5016 117.949C85.3122 117.844 85.153 117.691 85.0392 117.507C83.2825 114.657 81.1641 111.768 81.1426 111.739C80.9433 111.468 80.86 111.129 80.9108 110.796C80.9617 110.463 81.1426 110.164 81.4139 109.965C81.6851 109.766 82.0244 109.682 82.3572 109.733C82.6899 109.784 82.9888 109.965 83.1881 110.236C83.2777 110.358 85.3897 113.238 87.1996 116.174C87.3182 116.367 87.3833 116.587 87.3883 116.813C87.3933 117.038 87.3379 117.261 87.228 117.458C87.1181 117.656 86.9576 117.82 86.763 117.934C86.5684 118.049 86.3468 118.109 86.121 118.11Z" fill="#371A45"/>
<g opacity="0.5">
<path d="M98.6236 110.399C104.232 104.972 120.64 104.095 127.99 111.496C134.277 117.826 123.563 116.809 115.087 116.318C107.74 115.893 93.0171 115.824 98.6236 110.399Z" fill="white"/>
</g>
<path d="M38.839 100.236C38.839 100.236 9.70881 113.107 14.0083 138.249C18.1071 162.214 44.9824 156.902 46.0174 142.243C47.0104 128.194 41.0755 126.289 33.7012 124.221C28.2359 122.688 25.9287 118.253 26.4664 114.914C27.5625 108.132 38.839 100.236 38.839 100.236Z" fill="white"/>
<g opacity="0.35">
<path d="M46.0165 142.238C44.9854 156.898 18.1053 162.208 14.0065 138.244C13.4857 135.277 13.4354 132.248 13.8574 129.266C13.9018 129.583 13.9526 129.906 14.0065 130.23C17.9879 153.516 43.4785 149.16 45.8674 135.446C46.1442 137.327 46.2068 139.563 46.0165 142.238Z" fill="#371A45"/>
</g>
<g opacity="0.35">
<path d="M144.49 146.131C142.457 150.744 139.538 155.252 136.061 159.582C135.988 159.595 135.915 159.604 135.839 159.617C139.394 155.258 142.392 150.734 144.49 146.131Z" fill="#371A45"/>
</g>
<path d="M125.363 100.236C125.363 100.236 154.494 113.107 150.194 138.249C146.095 162.214 119.22 156.902 118.185 142.243C117.193 128.194 123.128 126.289 130.501 124.221C135.966 122.688 138.274 118.253 137.736 114.914C136.638 108.132 125.363 100.236 125.363 100.236Z" fill="white"/>
<g opacity="0.35">
<path d="M118.185 142.238C119.216 156.898 146.096 162.208 150.195 138.244C150.716 135.277 150.766 132.248 150.344 129.266C150.3 129.583 150.249 129.906 150.195 130.23C146.214 153.516 120.723 149.16 118.334 135.446C118.058 137.327 117.995 139.563 118.185 142.238Z" fill="#371A45"/>
</g>
<path d="M30.7858 156C23.3583 156 14.9759 151.429 12.7576 138.46C10.9247 127.741 14.7911 117.516 23.9404 108.888C30.7612 102.452 38.0205 99.2074 38.3259 99.0726C38.6141 98.9456 38.9393 98.9303 39.2381 99.0297C39.537 99.1292 39.7882 99.3362 39.9429 99.6106C40.0976 99.885 40.1447 100.207 40.0751 100.514C40.0055 100.821 39.8241 101.092 39.5663 101.273C39.4584 101.352 28.7157 108.941 27.7188 115.113C27.2612 117.946 29.3225 121.672 34.0431 122.997C41.0843 124.971 48.3651 127.013 47.2832 142.33C46.763 149.697 40.0548 155.564 31.6796 155.978C31.3846 155.993 31.0848 156 30.7858 156ZM28.2153 108.507C27.3548 109.215 26.4871 109.973 25.6305 110.783C17.0451 118.904 13.5554 128.073 15.259 138.032C17.287 149.889 25.0048 153.772 31.5551 153.443C37.5827 153.145 44.2623 149.086 44.7516 142.151C45.6883 128.898 40.2476 127.372 33.3586 125.44C27.2207 123.718 24.5812 118.626 25.2141 114.709C25.5488 112.638 26.7131 110.503 28.2153 108.507Z" fill="#371A45"/>
<path d="M133.417 156.001C133.117 156.001 132.819 155.994 132.522 155.979C124.148 155.565 117.439 149.698 116.919 142.331C115.837 127.014 123.117 124.972 130.159 122.998C134.88 121.673 136.94 117.947 136.484 115.114C135.487 108.942 124.746 101.35 124.635 101.274C124.377 101.093 124.195 100.822 124.125 100.515C124.056 100.207 124.103 99.8849 124.258 99.6103C124.413 99.3357 124.664 99.1286 124.963 99.0293C125.263 98.9301 125.588 98.9458 125.877 99.0735C126.182 99.2083 133.437 102.453 140.262 108.889C149.411 117.516 153.278 127.742 151.445 138.461C149.227 151.429 140.842 156.001 133.417 156.001ZM135.988 108.508C137.489 110.504 138.654 112.633 138.989 114.71C139.624 118.627 136.982 123.719 130.844 125.441C123.956 127.373 118.515 128.899 119.451 142.152C119.941 149.087 126.616 153.146 132.648 153.444C139.201 153.775 146.915 149.89 148.943 138.033C150.647 128.072 147.157 118.904 138.572 110.784C137.715 109.974 136.848 109.216 135.988 108.508Z" fill="#371A45"/>
<path d="M149.453 126.2C149.279 126.2 149.108 126.152 148.959 126.062C148.81 125.971 148.688 125.841 148.608 125.687C144.813 118.382 137.395 115.447 137.32 115.418C137.085 115.328 136.895 115.147 136.792 114.916C136.69 114.686 136.683 114.424 136.774 114.188C136.865 113.952 137.045 113.763 137.276 113.66C137.507 113.558 137.768 113.551 138.004 113.642C138.335 113.769 146.16 116.846 150.297 124.809C150.373 124.954 150.41 125.116 150.404 125.279C150.399 125.443 150.352 125.602 150.267 125.742C150.182 125.881 150.063 125.997 149.92 126.077C149.778 126.157 149.617 126.2 149.453 126.2Z" fill="#371A45"/>
<path d="M14.6989 126.201C14.5354 126.201 14.3747 126.159 14.2322 126.078C14.0898 125.998 13.9704 125.883 13.8856 125.743C13.8008 125.603 13.7534 125.444 13.7481 125.28C13.7427 125.117 13.7796 124.955 13.8551 124.81C17.9919 116.847 25.8168 113.77 26.1483 113.643C26.383 113.556 26.6423 113.566 26.8702 113.669C27.0981 113.772 27.2762 113.961 27.3659 114.194C27.4557 114.428 27.4499 114.687 27.3498 114.916C27.2497 115.146 27.0634 115.326 26.8311 115.419C26.7566 115.448 19.3386 118.383 15.5444 125.688C15.464 125.843 15.3426 125.972 15.1935 126.063C15.0444 126.153 14.8733 126.201 14.6989 126.201Z" fill="#371A45"/>
</svg>
