<svg width="33" height="33" viewBox="0 0 33 33" fill="none" xmlns="http://www.w3.org/2000/svg">
<circle cx="16.3953" cy="16.7688" r="15.3215" transform="rotate(90 16.3953 16.7688)" stroke="#C6A9DB"/>
<path d="M17.3945 8.53125C17.3945 7.97897 16.9468 7.53125 16.3945 7.53125C15.8422 7.53125 15.3945 7.97897 15.3945 8.53125L17.3945 8.53125ZM15.6874 25.712C16.0779 26.1025 16.7111 26.1025 17.1016 25.712L23.4656 19.348C23.8561 18.9575 23.8561 18.3243 23.4656 17.9338C23.0751 17.5433 22.4419 17.5433 22.0514 17.9338L16.3945 23.5907L10.7377 17.9338C10.3472 17.5433 9.71399 17.5433 9.32346 17.9338C8.93294 18.3243 8.93294 18.9575 9.32346 19.348L15.6874 25.712ZM15.3945 8.53125L15.3945 25.0049L17.3945 25.0049L17.3945 8.53125L15.3945 8.53125Z" fill="#C6A9DB"/>
</svg>
