<svg width="406" height="537" viewBox="0 0 406 537" fill="none" xmlns="http://www.w3.org/2000/svg">
<g opacity="0.7">
<circle cx="438.397" cy="268.261" r="268.121" fill="#1D193B"/>
<path fill-rule="evenodd" clip-rule="evenodd" d="M342.089 15.4596C370.093 5.53948 400.235 0.140625 431.639 0.140625C579.718 0.140625 699.759 120.182 699.759 268.261C699.759 372.767 639.97 463.308 552.732 507.544C524.728 517.464 494.586 522.863 463.182 522.863C315.103 522.863 195.062 402.821 195.062 254.742C195.062 150.236 254.851 59.6957 342.089 15.4596Z" fill="url(#paint0_radial_912_21398)"/>
<g style="mix-blend-mode:screen">
<path fill-rule="evenodd" clip-rule="evenodd" d="M342.089 15.4596C370.093 5.53948 400.235 0.140625 431.639 0.140625C579.718 0.140625 699.759 120.182 699.759 268.261C699.759 372.767 639.97 463.308 552.732 507.544C524.728 517.464 494.586 522.863 463.182 522.863C315.103 522.863 195.062 402.821 195.062 254.742C195.062 150.236 254.851 59.6957 342.089 15.4596Z" fill="url(#paint1_linear_912_21398)"/>
</g>
<path d="M687.533 166.129C739.385 163.786 772.082 168.907 775.316 182.308C782.739 213.069 632.101 275.809 438.857 322.442C245.613 369.075 82.9404 381.941 75.5173 351.18C71.799 335.771 107.739 312.339 168.828 286.926" stroke="url(#paint2_linear_912_21398)" stroke-width="8"/>
<path opacity="0.1" d="M211.156 225.359C210.153 227.363 209.485 229.367 208.483 231.371C205.811 237.717 210.821 246.068 218.504 245.066C221.844 244.732 224.182 242.06 227.189 240.39C229.861 238.72 233.869 237.717 236.207 240.056C238.211 242.06 238.211 245.066 237.877 247.738C237.543 257.759 239.214 268.782 246.228 276.13C252.909 283.479 265.935 286.151 273.284 279.136C275.956 276.798 277.626 273.124 276.624 269.784C275.288 265.107 269.276 262.769 268.608 257.759C268.274 253.751 271.28 250.744 274.954 248.74C278.294 247.07 282.303 246.068 285.309 243.396C289.651 239.388 290.653 233.041 290.319 227.029C290.319 224.691 289.985 222.686 288.315 221.016C284.975 217.008 278.294 219.68 273.618 222.018C268.942 224.691 261.927 226.027 259.589 221.35C258.253 218.678 259.589 215.672 260.257 212.666C260.925 209.659 260.591 205.985 257.919 204.983C256.583 204.315 254.913 204.983 253.577 205.317C246.896 208.657 243.556 217.008 236.875 220.348C236.207 220.682 235.539 221.016 234.871 221.016C233.535 221.016 232.533 219.68 232.199 218.344C230.863 215.004 233.201 211.33 232.533 207.655C232.533 206.987 232.199 206.319 231.865 205.985C231.531 205.651 230.863 205.651 230.529 205.651C225.853 205.651 221.844 209.325 219.172 213C215.832 217.008 213.16 221.016 211.156 225.359Z" fill="url(#paint3_linear_912_21398)"/>
<path opacity="0.1" d="M299.338 251.414C303.346 246.069 304.015 238.721 303.68 232.04C303.346 225.36 301.676 218.679 301.676 211.999C301.676 197.302 309.025 182.605 321.05 173.92C325.058 170.914 330.736 168.576 335.413 170.58C344.431 174.588 342.093 189.619 349.776 195.298C353.116 197.636 357.792 197.97 361.801 196.634C365.809 195.632 369.483 193.293 372.824 190.955C390.861 179.932 410.234 170.58 430.944 166.572C437.624 165.235 444.639 164.567 450.985 166.572C457.332 168.576 463.344 173.586 464.68 180.267C465.682 185.611 463.678 190.955 461.006 195.632C457.332 202.646 452.321 208.993 445.641 213.669C439.294 218.345 431.278 221.017 423.261 220.349C415.579 219.681 408.564 215.673 400.882 213.669C393.867 211.665 386.184 210.997 379.504 213.669C372.824 216.341 367.479 222.688 367.479 230.036C367.479 236.383 371.153 241.727 371.821 248.073C372.155 253.752 369.483 259.43 364.807 262.102C360.131 265.109 353.45 265.109 349.108 261.768C345.099 258.762 342.761 253.752 342.093 248.407C341.425 243.397 341.759 238.053 341.425 233.042C341.091 227.03 339.087 219.681 333.075 218.011C327.396 216.341 322.052 221.351 319.046 226.362C315.705 232.04 314.369 238.721 314.703 245.067C315.037 251.08 316.707 257.092 317.375 263.104C317.71 269.117 316.373 276.131 311.697 279.806C306.353 284.148 298.002 283.146 292.324 279.472C286.645 275.797 282.637 269.785 278.629 264.107C277.627 262.436 275.622 258.762 278.295 257.426C279.631 256.758 283.305 258.428 284.975 258.094C290.654 259.096 295.998 256.09 299.338 251.414Z" fill="url(#paint4_linear_912_21398)"/>
<path opacity="0.1" d="M480.379 184.943C483.719 197.97 482.049 212.667 474.366 223.356C466.684 234.379 452.321 240.725 439.294 238.053C435.953 237.385 432.613 236.049 429.273 235.715C419.92 235.381 411.904 243.063 407.561 251.414C399.879 266.111 398.877 285.15 407.561 299.513C416.246 313.876 434.617 322.227 450.651 317.551C464.346 313.542 474.032 301.517 481.047 288.824C488.061 276.466 493.072 262.771 502.424 251.748C508.103 245.067 516.119 239.389 524.47 241.393C529.814 242.729 534.157 246.737 537.831 250.746C544.845 257.76 552.528 264.441 561.547 269.117C570.565 273.459 580.92 275.464 590.607 272.791C600.627 270.119 608.644 262.771 613.988 254.086C619.333 245.401 622.339 235.381 624.677 225.36C629.688 203.982 631.024 180.267 620.669 161.227C617.997 156.551 613.988 151.875 608.978 151.875C605.972 151.875 602.966 153.545 600.627 155.549C590.607 163.231 583.258 174.254 574.574 183.607C571.233 187.281 567.559 190.621 562.883 192.626C558.206 194.63 552.862 194.63 548.52 191.957C543.175 188.617 541.505 181.269 542.507 174.922C543.509 168.576 546.85 163.231 549.856 157.553C559.542 139.182 564.887 117.47 560.545 97.0946C559.542 91.7502 557.538 86.4058 553.53 82.7315C549.522 79.0573 543.509 77.0531 538.833 79.7253C533.823 82.3975 531.818 88.744 530.816 94.4224C527.81 110.122 527.142 127.157 518.791 140.852C516.787 144.192 513.781 147.532 509.773 147.866C505.765 148.534 501.756 145.528 498.416 143.19C493.406 139.182 487.727 135.507 481.381 134.171C471.026 131.833 454.325 138.848 459.669 151.541C461.673 155.883 466.684 159.557 469.69 163.565C474.7 169.912 478.375 177.26 480.379 184.943Z" fill="url(#paint5_linear_912_21398)"/>
<path opacity="0.1" d="M348.774 165.569C349.442 162.563 352.448 158.889 355.12 160.559C356.122 161.227 356.791 162.563 357.125 163.899C359.129 168.909 363.805 173.586 369.149 172.918C372.156 172.584 374.828 170.914 377.166 169.243C389.859 160.559 403.888 153.544 418.251 148.2C421.925 146.864 426.602 145.862 428.94 149.202C430.61 151.54 429.608 154.88 427.27 156.884C425.265 158.889 422.259 159.557 419.587 160.225C406.56 164.233 394.201 169.911 382.51 176.926C376.164 180.934 367.479 186.613 359.797 184.274C352.448 181.936 347.772 172.918 348.774 165.569Z" fill="url(#paint6_linear_912_21398)"/>
<path opacity="0.1" d="M235.205 296.508C238.546 301.852 242.554 307.197 248.232 310.537C253.577 313.877 260.591 315.213 266.604 313.209C271.614 311.539 275.622 307.197 280.967 306.863C286.311 306.529 290.987 309.869 294.662 313.877C298.336 317.885 301.342 322.228 305.684 325.234C310.361 328.24 316.039 329.576 321.384 328.24C326.728 326.904 331.404 322.562 333.074 317.551C335.747 309.869 332.072 300.85 334.745 292.834C337.083 285.819 344.765 281.143 351.78 282.479C361.466 284.149 366.477 294.504 371.153 303.188C378.168 316.883 387.854 330.244 402.217 335.923C406.894 337.927 412.572 339.263 414.91 343.605C417.917 349.284 413.908 355.964 409.566 360.64C399.211 371.663 385.85 380.348 370.819 380.682C350.444 381.35 332.406 367.321 320.382 350.954C316.707 345.943 313.367 340.599 308.691 336.925C304.014 333.25 298.002 331.914 292.323 330.244C286.979 328.908 281.635 327.572 276.624 328.574C270.946 329.91 266.27 333.918 260.925 335.923C252.909 339.263 243.222 338.261 236.207 333.584C232.533 330.912 229.193 327.572 226.521 324.232C221.51 318.219 217.168 311.873 213.494 304.858C209.819 298.512 206.479 291.497 205.811 284.149C204.809 276.8 206.479 268.784 211.824 263.439C214.162 261.101 217.168 259.097 220.508 259.431C226.855 260.433 225.519 270.454 226.855 275.13C228.191 282.479 231.197 289.827 235.205 296.508Z" fill="url(#paint7_linear_912_21398)"/>
<path opacity="0.1" d="M258.921 167.572C260.591 166.904 262.262 166.236 264.266 166.236C268.608 166.57 271.28 171.581 271.948 175.923C272.95 180.265 272.95 184.942 275.957 188.282C279.965 192.958 287.647 192.624 292.992 189.284C298.336 185.944 301.676 180.265 305.017 175.255C311.029 166.236 318.378 157.552 326.394 150.203C332.073 144.859 339.421 139.514 347.104 141.519C351.446 142.521 355.12 146.195 359.129 147.865C369.483 152.207 381.174 145.861 389.859 138.512C398.543 131.164 406.56 122.145 417.917 120.141C428.94 118.471 440.965 124.483 451.653 120.809C458.668 118.471 463.678 111.79 464.68 104.442C465.348 97.7614 462.676 90.0788 466.684 84.0664C470.693 78.388 478.709 78.054 485.39 76.0498C497.749 72.7096 508.103 61.3527 508.437 48.6598C508.771 35.9669 497.749 23.274 485.056 23.608C480.713 23.608 476.371 25.2781 472.363 27.2823C458 34.6308 447.979 49.6619 446.309 66.0291C445.307 76.7179 447.645 88.4087 442.635 97.7614C439.962 102.772 435.62 106.78 430.276 108.784C422.593 111.456 413.575 109.786 405.892 112.458C394.535 116.133 387.521 127.49 379.17 136.174C376.832 138.512 374.494 140.516 371.153 141.185C368.815 141.519 366.143 140.851 363.805 140.182C352.448 135.506 344.432 122.145 332.073 122.813C321.384 123.481 314.369 134.504 311.363 145.193C308.357 155.548 307.021 167.238 299.672 174.921C297.668 177.259 294.328 178.929 291.322 177.927C287.313 176.591 286.311 171.915 286.311 167.572C285.977 162.896 285.643 157.886 285.309 153.209C284.975 147.865 284.307 141.853 280.299 137.844C276.625 134.17 270.946 133.502 265.936 134.504C260.925 135.506 256.583 138.512 252.575 141.185C243.89 147.197 224.517 161.56 225.519 174.253C226.187 181.267 233.201 184.274 239.214 181.601C246.562 178.929 251.573 171.581 258.921 167.572Z" fill="url(#paint8_linear_912_21398)"/>
<path opacity="0.1" d="M290.653 42.6487C263.931 61.02 241.886 84.4017 225.185 110.122C226.187 111.124 227.189 111.792 228.525 112.46C233.535 114.464 239.548 113.128 244.224 110.79C248.9 108.451 253.243 104.777 257.585 101.437C263.597 97.0946 269.944 93.0863 276.958 90.0801C282.637 87.4079 290.653 86.0718 294.328 91.0822C295.998 93.7544 295.998 97.0946 295.664 100.435C294.662 110.122 293.66 120.142 292.657 129.829C292.323 133.503 291.989 137.512 294.662 139.85C298.67 143.858 305.35 140.518 309.025 136.175C318.377 125.153 321.384 108.785 332.406 99.4328C335.413 97.0946 339.421 95.0905 343.095 96.0925C347.103 97.4286 349.108 101.771 351.112 105.779C353.45 110.79 356.456 115.132 359.796 119.474C367.813 129.495 374.827 124.819 378.502 114.464C381.842 104.443 390.861 98.0967 400.881 96.7606C408.564 95.7585 415.912 93.0863 421.591 87.7419C426.935 82.3976 427.937 74.381 427.937 67.0324C427.937 57.6798 428.605 48.9951 434.618 41.3126C440.63 33.964 448.981 27.6176 457.999 24.2773C463.01 22.6072 468.688 22.2732 473.365 19.601C478.375 16.9288 481.381 11.9184 482.383 6.57405C418.251 -8.45704 348.774 2.56576 290.653 42.6487Z" fill="url(#paint9_linear_912_21398)"/>
<path opacity="0.1" d="M264.599 125.487C248.9 130.497 236.541 143.19 228.859 157.887C225.519 164.568 222.512 171.582 216.5 176.258C215.164 177.26 213.828 178.263 212.158 177.928C210.487 177.594 209.485 175.924 208.817 174.254C207.481 170.58 207.815 166.238 209.151 162.563C210.487 158.889 212.826 155.549 215.498 152.209C223.514 142.856 233.869 135.841 243.222 127.825C249.902 122.146 256.583 115.8 262.261 109.454C265.601 105.779 268.608 102.105 272.95 100.101C277.292 98.0967 282.971 97.7627 286.311 101.103C289.317 104.109 289.651 109.12 289.317 113.462C288.983 117.804 288.315 122.146 287.313 126.489C286.645 129.495 285.309 133.837 282.303 129.495C280.299 126.823 279.965 125.153 276.29 124.485C272.282 123.817 268.274 124.485 264.599 125.487Z" fill="url(#paint10_linear_912_21398)"/>
</g>
<g filter="url(#filter0_d_912_21398)">
<path d="M6.07658 302.08C6.13732 302.281 6.19893 302.482 6.26935 302.677C6.32128 302.835 6.37147 302.987 6.4322 303.134C6.47533 303.263 6.52374 303.386 6.57655 303.509C6.65753 303.712 6.74292 303.91 6.82831 304.104C6.90488 304.263 6.97617 304.424 7.05715 304.578C7.19095 304.856 7.33267 305.122 7.48407 305.382C7.56417 305.526 7.64866 305.671 7.73228 305.81C7.84671 306.005 7.97083 306.189 8.09406 306.373C8.21202 306.553 8.33437 306.728 8.462 306.901C8.58963 307.076 8.71639 307.245 8.84755 307.413C9.16795 307.818 9.50067 308.207 9.8466 308.575C9.94695 308.682 10.0473 308.79 10.1521 308.892C10.3572 309.103 10.5666 309.302 10.7805 309.502C10.8844 309.599 10.9944 309.696 11.1036 309.793C11.2946 309.96 11.49 310.127 11.6854 310.289C11.7505 310.34 11.8148 310.393 11.8799 310.445C12.2796 310.763 12.6871 311.064 13.092 311.342C13.188 311.411 13.2892 311.479 13.3851 311.543C13.4336 311.577 13.4864 311.611 13.5339 311.641C13.5339 311.641 13.5392 311.641 13.5339 311.646C13.5656 311.663 13.592 311.684 13.6237 311.7C14.4581 312.248 15.2926 312.711 16.091 313.109C16.201 313.166 16.3049 313.219 16.414 313.266C17.0548 313.578 17.6657 313.843 18.2334 314.068C18.4192 314.142 18.6049 314.216 18.7845 314.28C18.9755 314.353 19.1603 314.423 19.3346 314.483C19.4834 314.536 19.6269 314.585 19.7651 314.629C20.5071 314.875 21.0872 315.029 21.4375 315.12C21.4877 315.13 21.5282 315.14 21.5695 315.15C21.7218 315.188 21.8072 315.204 21.8072 315.204L47.3533 336.388L78.7326 362.406L87.6265 330.341C87.6265 330.341 76.8762 322.625 64.4667 313.764C59.5726 310.271 54.4224 306.599 49.5688 303.156C47.2001 301.47 44.9018 299.841 42.7364 298.307C42.4961 298.14 42.2602 297.968 42.0252 297.801C39.2991 295.872 36.8098 294.12 34.6902 292.64C34.4341 292.46 34.1876 292.284 33.9473 292.117C32.517 291.121 31.2785 290.262 30.2821 289.578C30.1597 289.497 30.0417 289.412 29.9247 289.336C29.9212 289.333 29.9176 289.33 29.9141 289.327C29.7222 289.199 29.5418 289.076 29.3701 288.955C29.0717 288.755 28.8068 288.581 28.5779 288.428C28.4873 288.369 28.4019 288.308 28.3227 288.258C28.0832 288.101 27.8931 287.983 27.7558 287.9C23.536 285.391 2.96673 291.555 6.07482 302.084L6.07658 302.08Z" fill="white"/>
<path d="M6.07663 302.08C6.13736 302.281 6.19897 302.482 6.26939 302.677C6.32133 302.835 6.37151 302.987 6.43224 303.134C6.47538 303.263 6.52378 303.386 6.5766 303.509C6.65757 303.712 6.74297 303.91 6.82835 304.104C6.90493 304.263 6.97622 304.424 7.0572 304.578C7.19099 304.856 7.33272 305.122 7.48412 305.382C7.56422 305.526 7.6487 305.671 7.73233 305.81C7.84676 306.005 7.97088 306.189 8.09411 306.373C8.21206 306.553 8.3344 306.728 8.46204 306.901C8.58967 307.076 8.71644 307.245 8.84759 307.413C9.168 307.818 9.50071 308.207 9.84664 308.575C9.94699 308.682 10.0474 308.79 10.1521 308.892C10.3572 309.103 10.5667 309.302 10.7806 309.502C10.8844 309.599 10.9945 309.696 11.1036 309.793C11.2946 309.965 11.49 310.127 11.6855 310.289C11.7506 310.34 11.8148 310.393 11.88 310.445C12.2796 310.763 12.6872 311.064 13.0921 311.342C13.188 311.411 13.2892 311.479 13.3852 311.543C13.4336 311.577 13.4864 311.611 13.5339 311.641C13.5656 311.662 13.5929 311.684 13.6246 311.7C14.4591 312.248 15.2935 312.711 16.0919 313.109C16.2019 313.166 16.3058 313.219 16.4149 313.266C17.0557 313.578 17.6666 313.843 18.2344 314.068C18.4254 314.147 18.6102 314.215 18.7854 314.28C18.9764 314.353 19.1613 314.423 19.3355 314.483C19.4843 314.536 19.6278 314.585 19.766 314.629C20.508 314.875 21.0881 315.029 21.4384 315.12C21.4886 315.13 21.5291 315.14 21.5705 315.15C21.7227 315.188 21.8081 315.204 21.8081 315.204L47.3542 336.388C49.9746 333.208 51.581 329.87 52.4771 326.589C55.8017 314.489 49.5706 303.156 49.5706 303.156C47.2019 301.47 44.9036 299.841 42.7382 298.307C42.4979 298.14 42.262 297.968 42.027 297.801C39.3009 295.872 36.8116 294.12 34.692 292.64C34.4359 292.46 34.1894 292.284 33.9491 292.117C32.5188 291.121 31.2803 290.262 30.2839 289.578C30.1615 289.497 30.0436 289.412 29.9265 289.336C29.923 289.333 29.9194 289.33 29.9159 289.327C29.724 289.199 29.5436 289.076 29.3719 288.955C29.0735 288.755 28.8086 288.581 28.5797 288.428C28.4891 288.369 28.4037 288.308 28.3245 288.258C28.085 288.101 27.8949 287.983 27.7576 287.9C23.5378 285.391 2.96853 291.555 6.07663 302.084V302.08Z" fill="#F92323"/>
<g opacity="0.6">
<path d="M5.58535 301.592C6.67243 305.272 8.91966 307.983 11.3887 309.954C9.79373 306.555 8.9311 302.674 10.3148 299.009C12.7786 292.493 24.0781 291.208 32.0601 290.652C30.9994 289.927 27.6307 287.625 27.2672 287.408C23.0474 284.899 2.47813 291.062 5.58623 301.592H5.58535Z" fill="white"/>
</g>
<path d="M79.5101 364.877L89.248 329.768L88.4488 329.195C86.1743 327.563 32.7011 289.198 28.4778 286.687C24.9401 284.585 14.8606 287.092 9.21832 291.478C5.1587 294.634 3.56372 298.541 4.72562 302.48C7.77122 312.796 18.9722 315.972 21.1683 316.5L79.5101 364.876V364.877ZM86.0079 330.91L77.9582 359.932L22.4359 313.894L22.0908 313.823C21.9746 313.799 10.2526 311.256 7.42705 301.683C6.59083 298.852 7.77562 296.167 10.9462 293.702C16.4899 289.393 25.1364 287.982 27.0377 289.109C30.8852 291.396 79.1703 326.008 86.007 330.911L86.0079 330.91Z" fill="#371A45"/>
<path d="M26.9762 299.133C24.9455 299.053 22.95 299.323 20.9835 299.83C20.0003 300.086 19.0277 300.417 18.0718 300.854C17.1141 301.287 16.1643 301.81 15.2849 302.602C14.8483 302.996 14.4197 303.459 14.0949 304.072C13.7648 304.668 13.5509 305.418 13.5887 306.172C13.6081 306.355 13.6327 306.538 13.6609 306.72C13.6882 306.906 13.734 307.023 13.7709 307.177C13.8061 307.323 13.8581 307.469 13.9109 307.614C13.9611 307.76 14.0165 307.905 14.087 308.05C14.3466 308.625 14.7278 309.193 15.2277 309.652C15.7251 310.113 16.3271 310.452 16.9318 310.654C17.5383 310.86 18.1483 310.949 18.7319 310.973C19.3182 310.997 19.885 310.955 20.4369 310.869C20.7124 310.825 20.9853 310.774 21.2564 310.712C21.5363 310.646 21.7749 310.586 22.0997 310.476L20.4149 309.132C20.3788 309.419 20.3665 309.619 20.3542 309.858C20.3427 310.087 20.3384 310.314 20.3384 310.54C20.3366 310.993 20.3639 311.446 20.4096 311.899C20.5091 312.804 20.6896 313.716 21.0197 314.604C21.3506 315.489 21.8189 316.355 22.4544 317.107C23.0803 317.867 23.8725 318.495 24.7289 318.955C25.5819 319.434 26.5132 319.682 27.4163 319.851C28.3273 320.031 29.2313 320.019 30.1124 319.963C30.5481 319.907 30.9847 319.858 31.4099 319.77C31.8315 319.669 32.2558 319.587 32.6633 319.445C33.4837 319.193 34.2707 318.85 35.018 318.43C35.121 318.372 35.157 318.242 35.0998 318.14C35.0629 318.075 34.9968 318.036 34.9273 318.032H34.9229C33.2311 317.936 31.6335 317.941 30.1124 317.786C28.6072 317.611 27.1628 317.339 26.022 316.64C24.8812 315.96 24.0424 314.935 23.5274 313.645C23.2695 313.005 23.0952 312.306 22.9914 311.587C22.9421 311.228 22.906 310.863 22.8945 310.498C22.8875 310.316 22.8857 310.132 22.8893 309.953C22.8919 309.782 22.9033 309.573 22.9139 309.455L22.9183 309.403C22.9826 308.713 22.4755 308.101 21.7854 308.037C21.5927 308.018 21.3999 308.047 21.2291 308.111C21.0918 308.162 20.8586 308.234 20.6632 308.284C20.4589 308.338 20.2503 308.382 20.0435 308.416C19.6289 308.486 19.2152 308.517 18.8226 308.506C18.0339 308.479 17.357 308.256 16.9451 307.826C16.7312 307.614 16.5604 307.349 16.4336 307.028C16.3984 306.951 16.3703 306.867 16.3456 306.779C16.3183 306.693 16.2902 306.608 16.2734 306.514C16.2585 306.429 16.2206 306.313 16.2233 306.256C16.2224 306.194 16.2162 306.134 16.2065 306.075C16.218 305.845 16.2814 305.626 16.4266 305.369C16.5665 305.117 16.8042 304.842 17.0903 304.581C17.3693 304.318 17.7135 304.067 18.0647 303.821C18.4309 303.587 18.805 303.349 19.2055 303.13C20.0021 302.694 20.8471 302.289 21.7106 301.897C23.4403 301.113 25.2395 300.377 27.0484 299.538L27.0545 299.535C27.1601 299.486 27.2059 299.361 27.1566 299.255C27.1223 299.181 27.0501 299.137 26.9744 299.134L26.9762 299.133Z" fill="#371A45"/>
<path d="M21.0976 295.065C20.6803 296.134 20.3221 297.142 19.9207 298.085C19.7288 298.558 19.5123 299.008 19.3371 299.455C19.1672 299.91 18.9833 300.333 18.8952 300.818L18.8715 300.949C18.7482 301.629 19.198 302.279 19.8776 302.403C20.3529 302.49 20.8141 302.294 21.0914 301.938C21.4725 301.444 21.7331 300.873 21.8836 300.288C22.0438 299.704 22.1028 299.099 22.109 298.505C22.1142 297.91 22.0694 297.32 21.9681 296.741C21.8572 296.161 21.7093 295.594 21.4505 295.043C21.4065 294.949 21.2939 294.907 21.1988 294.951C21.153 294.972 21.1205 295.01 21.1029 295.053L21.0985 295.064L21.0976 295.065Z" fill="#371A45"/>
<g opacity="0.2">
<path d="M13.5344 311.637C13.5344 311.637 13.5397 311.637 13.5344 311.643C13.5661 311.659 13.5925 311.681 13.6242 311.697C14.4586 312.245 15.2931 312.708 16.0915 313.106C16.2015 313.163 16.3054 313.216 16.4145 313.263C17.0553 313.575 17.6662 313.84 18.2339 314.065C18.4249 314.144 18.6098 314.212 18.785 314.277C18.976 314.35 19.1608 314.42 19.3351 314.48C19.4839 314.533 19.6273 314.582 19.7655 314.626C20.5076 314.871 21.0877 315.026 21.438 315.117C21.4882 315.127 21.5286 315.137 21.57 315.147C21.7223 315.185 21.8077 315.201 21.8077 315.201L47.3537 336.385L78.7331 362.403L87.627 330.338C87.627 330.338 76.8767 322.622 64.4672 313.761C61.9119 323.146 57.2255 326.262 52.4758 326.586C45.1426 327.088 37.6615 320.931 37.6615 320.931C41.7203 319.324 38.4396 314.399 38.4396 314.399C26.6349 314.825 26.1261 306.199 24.5725 305.522C23.018 304.845 14.9515 306.557 14.9515 306.557C13.0194 307.55 12.9068 309.532 13.5326 311.637H13.5344Z" fill="#390075"/>
</g>
<path d="M134.229 355.904C136.262 360.208 139.349 365.263 143.899 371.158C153.924 384.156 166.127 392.116 177.455 396.665C190.765 402.013 202.876 402.645 208.854 401.202C219.923 398.53 212.926 383.976 231.338 389.895C249.751 395.813 248.701 386.052 236.266 376.033C236.168 375.954 236.071 375.876 235.969 375.798C223.55 366.014 205.982 365.929 197.818 362.887C189.588 359.822 178.88 352.087 165.731 344.614C152.582 337.141 133.905 334.035 133.905 334.035C133.905 334.035 130.688 336.445 130.711 342.764C130.722 346.031 131.596 350.341 134.229 355.904V355.904Z" fill="#F92323"/>
<g opacity="0.3">
<path d="M134.229 355.904C136.262 360.208 139.349 365.263 143.899 371.158C153.924 384.156 166.127 392.116 177.455 396.665C204.832 401.363 213.558 386.594 216.507 384.824C220.386 382.501 237.163 387.999 237.01 385.478C236.857 382.961 227.621 376.01 209.118 375.167C190.62 374.328 178.627 363.19 173.362 359.92C168.097 356.65 149.862 352.193 149.862 352.193C149.862 352.193 141.556 353.196 134.228 355.905L134.229 355.904Z" fill="#371A45"/>
</g>
<g opacity="0.6">
<path d="M130.712 342.762C136.925 343.006 133.785 333.106 163.624 347.967C171.406 351.843 180.733 361.761 196.286 367C203.25 369.346 221.442 371.522 235.97 375.796C223.551 366.012 205.983 365.927 197.819 362.885C189.589 359.82 178.881 352.085 165.732 344.612C152.583 337.139 133.905 334.033 133.905 334.033C133.905 334.033 130.688 336.443 130.712 342.762Z" fill="white"/>
</g>
<path d="M202.091 403.277C204.987 403.277 207.393 403.003 209.185 402.571C214.268 401.344 216.075 397.802 217.527 394.955C219.568 390.954 221.045 388.064 230.908 391.235C239.397 393.963 244.578 393.718 246.31 390.507C248.209 386.985 244.7 381.018 237.151 374.936C228.247 367.761 216.96 365.59 207.892 363.845C204.043 363.104 200.718 362.465 198.311 361.568C193.174 359.655 186.939 355.81 179.721 351.358C175.523 348.769 171.184 346.092 166.429 343.39C153.215 335.88 134.908 332.776 134.135 332.648C133.755 332.585 133.367 332.679 133.059 332.91C132.941 332.998 130.162 335.136 129.464 340.268C128.7 345.884 130.391 355.951 142.786 372.02C154.985 387.834 169.72 395.48 179.933 399.11C188.599 402.191 196.319 403.278 202.092 403.278L202.091 403.277ZM224.084 387.109C218.368 387.109 216.614 390.547 215.018 393.675C213.644 396.367 212.347 398.91 208.524 399.833C203.146 401.132 192.509 400.592 180.875 396.456C171.018 392.952 156.796 385.57 145.016 370.298C134.187 356.26 132.028 347.369 132.123 342.381C132.198 338.442 133.635 336.354 134.358 335.549C137.821 336.191 153.664 339.374 165.037 345.839C169.748 348.517 174.067 351.18 178.243 353.756C185.588 358.285 191.931 362.198 197.329 364.208C199.956 365.186 203.387 365.847 207.361 366.611C216.122 368.297 227.026 370.396 235.384 377.129C242.149 382.581 244.785 387.402 243.831 389.171C243.14 390.453 239.566 391.061 231.771 388.555C228.606 387.537 226.1 387.11 224.085 387.11L224.084 387.109Z" fill="#371A45"/>
<path d="M132.422 335.571C135.318 339.355 138.382 342.909 141.682 346.31C143.336 348.001 145.045 349.645 146.859 351.188C148.665 352.735 150.578 354.186 152.656 355.435C153.703 356.047 154.798 356.605 155.958 357.053L156.838 357.365L157.629 357.633C158.153 357.828 158.678 358.027 159.193 358.259C161.265 359.163 163.259 360.319 165.218 361.544C169.133 364.011 172.924 366.764 176.881 369.291C180.83 371.824 184.954 374.165 189.369 375.863C193.781 377.563 198.46 378.532 203.157 378.772C207.86 379.047 212.529 378.58 217.185 378.625C219.513 378.647 221.842 378.812 224.138 379.218C226.437 379.602 228.688 380.249 230.879 381.056C228.71 380.195 226.469 379.489 224.169 379.044C221.875 378.58 219.532 378.354 217.193 378.273C212.51 378.111 207.832 378.457 203.204 378.069C198.58 377.716 194.023 376.647 189.759 374.881C185.488 373.113 181.499 370.716 177.656 368.114C173.803 365.514 170.099 362.677 166.173 360.063C164.205 358.763 162.179 357.514 159.992 356.492C159.449 356.231 158.886 356.001 158.322 355.775L157.462 355.459L156.698 355.166C155.69 354.746 154.708 354.218 153.754 353.628C151.857 352.422 150.066 350.997 148.366 349.464C146.659 347.936 145.038 346.298 143.467 344.611C140.343 341.23 137.388 337.618 134.698 333.915L134.679 333.888C134.221 333.258 133.341 333.118 132.712 333.576C132.082 334.034 131.942 334.914 132.4 335.543C132.405 335.551 132.416 335.564 132.421 335.571H132.422Z" fill="#371A45"/>
<path d="M211.567 401.929L244.543 417.024L212.838 399.416C212.158 399.038 211.3 399.283 210.922 399.963C210.545 400.644 210.789 401.502 211.47 401.88C211.5 401.897 211.536 401.915 211.567 401.929Z" fill="#371A45"/>
<path d="M186.129 401.378L231.483 422.731L187.4 398.864C186.715 398.493 185.861 398.747 185.49 399.432C185.119 400.116 185.374 400.972 186.059 401.342C186.081 401.354 186.107 401.368 186.129 401.378V401.378Z" fill="#371A45"/>
<path d="M68.437 354.381C69.7785 361.099 72.5142 368.567 77.0281 376.753C95.3087 409.92 130.021 428.405 159.71 436.563C161.217 436.975 167.576 438.186 167.576 438.186C167.576 438.186 175.716 449.02 184.011 444.858C189.134 442.288 191.078 437.334 188.589 428.542C186.539 421.303 183.508 417.075 175.494 411.983C166.572 406.315 159.46 399.196 157.636 397.305C157.34 396.995 157.182 396.826 157.182 396.826C157.182 396.826 161.027 389.58 160.023 378.359C159.763 375.426 159.171 372.222 158.09 368.803C155.95 362.018 151.886 354.392 144.69 346.382C143.637 345.209 142.612 344.072 141.612 342.966C140.19 341.392 138.82 339.882 137.496 338.438C117.962 317.105 108.776 309.757 94.0095 311.345C79.5948 312.898 63.1275 327.802 68.437 354.381Z" fill="white"/>
<path d="M174.075 411.059C174.543 411.37 175.016 411.679 175.495 411.984C183.508 417.075 186.54 421.304 188.589 428.543C191.078 437.334 189.135 442.288 184.012 444.859C175.717 449.02 167.576 438.186 167.576 438.186C167.576 438.186 161.217 436.975 159.71 436.563C158.411 436.206 157.1 435.822 155.783 435.425C169.465 432.224 173.6 413.455 174.075 411.059Z" fill="#F92323"/>
<g opacity="0.3">
<path d="M75.6408 374.149C76.081 375.009 76.5457 375.878 77.0281 376.755C95.3087 409.922 130.021 428.407 159.71 436.565C161.217 436.977 167.576 438.188 167.576 438.188C167.576 438.188 175.716 449.022 184.011 444.86C189.134 442.29 191.078 437.336 188.589 428.544C186.539 421.305 183.508 417.077 175.494 411.985C166.572 406.317 159.46 399.197 157.636 397.307C157.34 396.997 157.182 396.828 157.182 396.828C157.182 396.828 166.607 379.061 152.101 356.098C161.798 376.163 153.932 390.99 153.932 390.99C153.932 390.99 154.643 391.127 154.386 391.469C136.775 415.024 157.967 407.633 166.805 410.7C175.526 413.728 180.881 419.108 183.177 424.488C185.62 430.213 185.687 438.033 180.659 440.783C175.772 443.455 172.188 439.466 172.188 439.466C172.188 439.466 175.298 438.777 177.415 436.576C180.086 433.8 178.733 429.725 178.733 429.725C178.733 429.725 171.086 432.292 157.184 429.41C143.28 426.528 94.344 405.291 75.6408 374.149V374.149Z" fill="#371A45"/>
</g>
<path d="M180.013 447.236C181.514 447.236 183.069 446.907 184.645 446.116C190.762 443.047 192.496 437.172 189.944 428.158C187.708 420.26 184.252 415.878 176.25 410.794C167.82 405.438 160.951 398.682 158.866 396.546C159.747 394.506 161.63 389.276 161.599 381.897C161.563 373.279 158.782 359.958 145.737 345.442C121.793 318.798 111.381 308.061 93.8593 309.946C84.0799 310.999 74.9801 317.465 70.1098 326.821C66.8582 333.069 65.529 340.289 66.1593 348.279C66.8732 357.322 70.1142 367.131 75.7934 377.434L77.0266 376.754L75.7934 377.434C84.3281 392.915 96.9507 406.297 113.31 417.208C126.766 426.182 142.682 433.344 159.338 437.92C160.637 438.278 165.233 439.171 166.795 439.471C168.202 441.195 173.591 447.234 180.013 447.234V447.236ZM97.7156 312.548C111.63 312.548 121.204 322.356 143.643 347.324C156.035 361.114 158.716 373.655 158.782 381.747C158.855 390.51 155.967 396.113 155.938 396.168C155.66 396.696 155.745 397.345 156.15 397.783C156.479 398.137 164.323 406.553 174.74 413.172C182.155 417.883 185.192 421.711 187.233 428.924C190.064 438.924 186.39 442.088 183.381 443.598C176.238 447.182 168.774 437.439 168.7 437.34C168.49 437.061 168.182 436.869 167.838 436.804C165.657 436.389 161.23 435.521 160.084 435.206C142.641 430.413 99.7498 415.058 78.2598 376.074C68.1064 357.656 66.0994 340.627 72.6079 328.122C77.0477 319.591 85.307 313.7 94.1603 312.747C95.3803 312.616 96.5634 312.548 97.7147 312.548H97.7156Z" fill="#371A45"/>
<path d="M187.185 426.528L232.539 447.881L188.456 424.014C187.772 423.643 186.916 423.898 186.546 424.583C186.175 425.267 186.429 426.122 187.114 426.493C187.136 426.504 187.163 426.518 187.185 426.529V426.528Z" fill="#371A45"/>
<path d="M183.553 447.066L219.357 463.591L184.824 444.552C184.142 444.176 183.285 444.425 182.909 445.106C182.533 445.787 182.782 446.645 183.463 447.02C183.491 447.036 183.524 447.052 183.553 447.066Z" fill="#371A45"/>
<path d="M178.672 429.34C177.967 430.384 177.19 431.37 176.36 432.257C175.535 433.149 174.642 433.942 173.698 434.592C173.231 434.925 172.738 435.202 172.244 435.447C171.748 435.693 171.252 435.914 170.741 436.084C169.727 436.454 168.68 436.619 167.58 436.78L167.506 436.791C166.733 436.903 166.198 437.622 166.311 438.394C166.407 439.05 166.94 439.535 167.572 439.597C168.998 439.737 170.496 439.502 171.837 438.937C173.194 438.396 174.37 437.513 175.347 436.524C176.332 435.532 177.117 434.402 177.736 433.217C178.346 432.023 178.817 430.788 179.051 429.48C179.07 429.369 178.996 429.263 178.885 429.244C178.803 429.229 178.724 429.266 178.68 429.33L178.672 429.341V429.34Z" fill="#371A45"/>
<path d="M168.801 424.185C168.996 424.185 169.191 424.131 169.367 424.02C174.599 420.691 174.599 411.1 174.598 410.694C174.594 410.113 174.121 409.645 173.541 409.645H173.535C172.952 409.648 172.482 410.123 172.485 410.707C172.485 410.795 172.481 419.536 168.234 422.238C167.741 422.551 167.596 423.204 167.91 423.697C168.111 424.013 168.453 424.186 168.801 424.186V424.185Z" fill="#371A45"/>
<path d="M243.986 391.695L276.962 406.789L245.257 389.181C244.576 388.804 243.718 389.048 243.341 389.729C242.963 390.409 243.208 391.268 243.888 391.645C243.92 391.663 243.954 391.679 243.986 391.694V391.695Z" fill="#371A45"/>
<path d="M48.3753 333.206C48.7819 333.206 49.1851 333.031 49.4632 332.693C54.7464 326.277 56.8281 318.214 55.4814 309.375C54.4744 302.759 51.9332 298.08 51.8258 297.885C51.4508 297.203 50.5961 296.954 49.913 297.328C49.2317 297.702 48.9826 298.558 49.3558 299.239C49.4518 299.414 58.8007 316.92 47.2873 330.902C46.7926 331.502 46.8789 332.39 47.4792 332.884C47.7415 333.1 48.0584 333.206 48.3735 333.206L48.3753 333.206Z" fill="#390075"/>
<path d="M125.777 390.883C101.966 406.873 116.311 424.638 135.065 429.41C137.704 430.081 143.281 431.111 143.281 431.111C143.281 431.111 154.607 446.131 166.85 439.752C173.587 436.243 172.775 423.834 169.42 418.415C164.591 410.614 157.227 406.892 157.325 406.797C167.802 397.286 164.669 385.217 164.669 385.217" fill="white"/>
<path d="M150.692 404.008C150.692 404.008 149.303 429.935 127.164 426.972C127.164 426.972 135.172 430.391 143.975 431.271C143.975 431.271 150.38 443.357 165.442 440.395C165.442 440.395 176.033 435.179 170.347 420.242C170.347 420.242 164.451 407.993 150.692 404.009V404.008Z" fill="#F92323"/>
<g opacity="0.3">
<path d="M127.641 426.729C129.972 427.845 132.475 428.75 135.063 429.408C137.704 430.08 143.281 431.109 143.281 431.109C143.281 431.109 154.608 446.129 166.85 439.752C173.586 436.242 172.776 423.834 169.421 418.412C164.59 410.613 157.228 406.892 157.326 406.797C167.801 397.283 164.671 385.217 164.671 385.217L158.819 386.069C158.499 391.259 156.488 400.656 146.292 402.019C139.405 405.156 158.543 408.164 163.565 415.838C168.8 423.838 168.445 435.696 160.995 437.179C151.809 439.006 147.517 432.823 147.517 432.823C147.517 432.823 155.073 433.112 157.678 428.239C159.78 424.306 156.474 420.239 156.474 420.239C156.474 420.239 147.565 429.409 129.212 426.834C128.688 426.761 128.162 426.778 127.641 426.729Z" fill="#371A45"/>
</g>
<path d="M125.515 390.493C123.228 391.85 121.049 393.421 119.045 395.237C117.062 397.066 115.26 399.177 113.952 401.651C112.634 404.109 111.905 406.984 112.063 409.87C112.213 412.759 113.255 415.539 114.771 417.914C116.301 420.295 118.275 422.314 120.436 424.029C122.596 425.757 124.982 427.152 127.464 428.297C129.948 429.445 132.539 430.333 135.196 430.963C137.828 431.567 140.405 432.046 143.018 432.529L142.128 431.978C142.788 432.817 143.426 433.528 144.118 434.256C144.804 434.972 145.518 435.66 146.259 436.322C147.744 437.64 149.342 438.848 151.079 439.875C152.811 440.903 154.694 441.746 156.708 442.252C158.718 442.756 160.869 442.892 162.955 442.538C163.998 442.37 165.017 442.072 165.992 441.687C166.48 441.497 166.954 441.275 167.419 441.04C167.909 440.791 168.4 440.482 168.844 440.139C170.652 438.747 171.787 436.758 172.444 434.777C173.103 432.776 173.349 430.722 173.355 428.698C173.355 426.671 173.112 424.66 172.625 422.69C172.381 421.705 172.072 420.731 171.676 419.772C171.478 419.293 171.257 418.819 171.007 418.351C170.882 418.117 170.745 417.883 170.606 417.655L170.203 417.023C169.111 415.351 167.86 413.792 166.498 412.348C165.134 410.906 163.656 409.581 162.092 408.372C161.311 407.767 160.505 407.192 159.681 406.647C159.271 406.375 158.849 406.108 158.444 405.858L158.195 405.699C158.189 405.696 158.203 405.704 158.204 405.707L158.256 405.748C158.233 405.727 158.382 405.852 158.476 405.991C159.059 406.983 157.789 408.622 158.295 407.817L158.312 407.801L158.345 407.769L158.48 407.641L159.017 407.129C161.899 404.347 164.156 400.811 165.374 396.944C165.984 395.011 166.351 393.006 166.472 390.989C166.532 389.98 166.53 388.968 166.465 387.955C166.435 387.449 166.383 386.944 166.317 386.436C166.283 386.183 166.244 385.928 166.2 385.672C166.153 385.407 166.11 385.178 166.032 384.861C165.849 384.105 165.088 383.641 164.332 383.825C163.576 384.009 163.113 384.77 163.296 385.526L163.306 385.569C163.341 385.715 163.391 385.955 163.426 386.16C163.463 386.373 163.497 386.59 163.525 386.809C163.583 387.248 163.628 387.691 163.655 388.137C163.712 389.028 163.715 389.927 163.662 390.822C163.554 392.613 163.229 394.388 162.69 396.093C161.609 399.507 159.645 402.605 157.043 405.12L156.544 405.594L156.42 405.713L156.389 405.743L156.374 405.758C156.867 404.961 155.584 406.613 156.181 407.62C156.285 407.769 156.444 407.905 156.433 407.893L156.52 407.962L156.602 408.021C156.76 408.127 156.849 408.18 156.956 408.247C157.362 408.499 157.745 408.742 158.131 408.997C158.897 409.504 159.645 410.039 160.372 410.6C161.827 411.724 163.196 412.954 164.453 414.284C165.709 415.614 166.854 417.044 167.848 418.566L168.214 419.14C168.324 419.32 168.428 419.498 168.528 419.684C168.728 420.057 168.91 420.447 169.077 420.85C169.41 421.654 169.679 422.503 169.895 423.369C170.324 425.102 170.542 426.907 170.542 428.694C170.538 430.479 170.313 432.261 169.775 433.888C169.238 435.509 168.361 436.964 167.125 437.911C166.814 438.151 166.495 438.353 166.135 438.536C165.749 438.731 165.358 438.916 164.958 439.07C164.16 439.384 163.337 439.625 162.496 439.76C160.818 440.043 159.081 439.941 157.393 439.519C155.704 439.095 154.064 438.371 152.519 437.453C150.975 436.53 149.521 435.42 148.162 434.199C147.483 433.587 146.827 432.947 146.198 432.281C145.578 431.625 144.946 430.908 144.435 430.242C144.207 429.945 143.886 429.758 143.545 429.692C140.984 429.196 138.386 428.687 135.891 428.09C133.433 427.472 131.016 426.651 128.722 425.582C126.429 424.513 124.243 423.223 122.254 421.704C120.271 420.183 118.489 418.404 117.138 416.37C115.773 414.353 114.84 412.066 114.633 409.683C114.512 408.496 114.578 407.29 114.798 406.101C115.034 404.917 115.408 403.745 115.923 402.62C116.96 400.37 118.477 398.298 120.229 396.428C121.1 395.485 122.03 394.585 123.008 393.732C123.989 392.885 125.005 392.068 126.042 391.272L126.044 391.27C126.25 391.112 126.289 390.817 126.131 390.611C125.984 390.42 125.72 390.373 125.519 390.493H125.515Z" fill="#371A45"/>
<path d="M158.272 406.016C157.671 405.632 157.089 405.339 156.495 405.06C155.904 404.779 155.308 404.526 154.708 404.285C153.512 403.794 152.288 403.382 151.07 402.961L147.407 401.737C146.188 401.332 144.954 400.953 143.79 400.453L143.773 400.446C143.683 400.407 143.579 400.449 143.54 400.539C143.511 400.609 143.529 400.687 143.58 400.737C144.557 401.676 145.682 402.37 146.788 403.068C147.905 403.749 149.039 404.389 150.184 404.999C151.33 405.605 152.477 406.206 153.646 406.738C154.805 407.271 156.012 407.784 157.124 408.197L157.175 408.216C157.815 408.454 158.526 408.129 158.765 407.489C158.972 406.933 158.753 406.322 158.271 406.015L158.272 406.016Z" fill="#371A45"/>
<path d="M143.215 432.519C143.722 432.573 144.12 432.583 144.565 432.578C144.998 432.569 145.43 432.543 145.859 432.494C146.718 432.402 147.57 432.225 148.407 431.976C150.079 431.488 151.691 430.656 153.051 429.496C153.733 428.922 154.344 428.259 154.855 427.535C155.367 426.81 155.769 426.02 156.078 425.213C156.663 423.58 156.831 421.877 156.675 420.254C156.665 420.143 156.565 420.061 156.453 420.071C156.364 420.08 156.294 420.144 156.274 420.226V420.229C155.898 421.777 155.361 423.237 154.568 424.479C154.177 425.103 153.701 425.652 153.207 426.159C152.706 426.664 152.126 427.077 151.538 427.457C150.345 428.208 148.988 428.676 147.596 429.031C146.897 429.204 146.184 429.339 145.465 429.453C145.104 429.501 144.743 429.558 144.382 429.596L143.346 429.705L143.218 429.719C142.444 429.8 141.883 430.493 141.965 431.267C142.036 431.938 142.569 432.45 143.214 432.519H143.215Z" fill="#371A45"/>
<path d="M131.632 428.026C136.113 428.026 139.949 426.699 143.067 424.062C150.698 417.609 151.258 405.703 151.278 405.2C151.301 404.617 150.848 404.126 150.266 404.102C149.683 404.081 149.191 404.532 149.167 405.115C149.163 405.229 148.616 416.611 141.696 422.455C138.336 425.293 133.969 426.391 128.719 425.721C128.146 425.649 127.611 426.056 127.537 426.634C127.463 427.213 127.873 427.743 128.452 427.817C129.545 427.956 130.607 428.026 131.633 428.026H131.632Z" fill="#371A45"/>
<path d="M61.1871 361.783L75.644 389.278L94.0479 394.225L103.78 396.841C103.78 396.841 111.892 395.189 113.857 394.76C116.522 394.182 116.015 390.985 115.131 389.112C113.621 385.905 112.529 382.778 111.695 379.821C110.35 375.046 109.674 370.701 108.973 367.124C108.399 364.188 105.92 361.998 102.931 361.822C85.0906 360.779 67.8592 357.818 67.8592 357.818L61.1871 361.783Z" fill="white"/>
<path d="M103.78 398.249C103.875 398.249 103.969 398.24 104.061 398.221C104.393 398.153 112.205 396.562 114.155 396.138C115.373 395.873 116.287 395.183 116.799 394.145C117.652 392.417 117.155 390.102 116.406 388.512C113.069 381.424 111.823 374.716 110.823 369.326C110.664 368.467 110.511 367.642 110.357 366.853C109.656 363.275 106.637 360.627 103.014 360.415C85.4618 359.388 68.2683 356.46 68.0966 356.43C67.7665 356.374 67.4268 356.436 67.1398 356.607L60.4685 360.569C59.8242 360.952 59.5918 361.772 59.9413 362.435L74.3964 389.933C74.5795 390.28 74.8982 390.536 75.2775 390.638L103.414 398.2C103.534 398.233 103.657 398.248 103.78 398.248V398.249ZM68.1354 359.294C71.144 359.789 86.8455 362.292 102.85 363.227C105.189 363.365 107.139 365.078 107.593 367.394C107.745 368.174 107.896 368.99 108.054 369.84C109.084 375.389 110.365 382.296 113.859 389.712C114.421 390.905 114.596 392.245 114.274 392.897C114.183 393.081 114.027 393.282 113.556 393.384C111.848 393.756 105.359 395.08 103.824 395.394L76.6032 388.077L63.0564 362.309L68.1354 359.293V359.294Z" fill="#371A45"/>
<path d="M99.3236 371.289C99.6247 371.289 99.9283 371.194 100.184 370.995L108.078 364.891C108.694 364.415 108.807 363.531 108.331 362.916C107.856 362.301 106.97 362.188 106.356 362.663L98.4619 368.768C97.8466 369.244 97.733 370.128 98.2093 370.743C98.4865 371.102 98.9038 371.289 99.3245 371.289H99.3236Z" fill="#371A45"/>
<g opacity="0.3">
<path d="M94.0479 394.224L103.78 396.84C103.78 396.84 111.892 395.189 113.857 394.76C115.892 394.319 116.078 392.348 115.659 390.608C115.529 390.07 115.339 389.556 115.131 389.112C113.621 385.904 112.529 382.778 111.695 379.82C111.086 381.007 109.346 383.398 105.35 382.884C103.928 382.704 102.22 382.155 100.174 381.053C94.2063 377.835 93.6289 386.894 94.0479 394.224Z" fill="#371A45"/>
</g>
<g opacity="0.3">
<path d="M105.35 382.883C109.346 383.397 111.086 381.006 111.695 379.819C112.529 382.777 113.621 385.903 115.131 389.111C115.339 389.555 115.529 390.069 115.659 390.607C126.859 392.776 145.288 390.882 159.794 378.562C159.872 378.495 159.949 378.429 160.023 378.358C159.762 375.425 159.171 372.221 158.09 368.802C156.558 368.172 154.745 368.253 153.21 369.232C131.401 383.161 110.082 376.837 110.082 376.837C110.082 376.837 105.392 378.355 105.35 382.883Z" fill="#371A45"/>
</g>
<path d="M161.32 368.736C162.13 370.843 161.515 373.229 159.795 374.69C138.127 393.093 107.706 388.234 105.689 381.32C103.841 374.982 110.084 372.965 110.084 372.965C110.084 372.965 131.402 379.288 153.211 365.358C156.036 363.554 159.806 364.796 161.008 367.925L161.32 368.736Z" fill="white"/>
<g opacity="0.3">
<path d="M105.688 381.319C107.706 388.234 138.126 393.093 159.794 374.689C161.512 373.228 162.128 370.845 161.319 368.736L161.009 367.926C160.572 366.789 159.798 365.901 158.851 365.32C158.738 366.69 158.09 367.996 156.995 368.929C138.429 384.699 113.438 383.39 105.392 378.341C105.287 379.207 105.361 380.196 105.688 381.319Z" fill="#371A45"/>
</g>
<path d="M124.192 388.887C135.098 388.887 149.069 385.648 160.706 375.764C162.881 373.917 163.655 370.89 162.634 368.232L162.322 367.422C161.596 365.533 160.077 364.087 158.156 363.455C156.236 362.823 154.157 363.086 152.453 364.174C131.478 377.57 110.688 371.677 110.482 371.616L110.065 371.494L109.651 371.626C107.041 372.47 102.572 375.663 104.338 381.716C105.012 384.027 107.796 386.023 112.176 387.338C115.311 388.279 119.464 388.887 124.192 388.887ZM156.057 365.934C156.466 365.934 156.877 365.999 157.276 366.13C158.392 366.497 159.273 367.335 159.694 368.431L160.005 369.243C160.598 370.786 160.148 372.544 158.884 373.618C143.058 387.059 122.763 387.573 112.986 384.639C109.058 383.461 107.34 381.949 107.043 380.926C105.814 376.715 108.982 374.944 110.154 374.445C113.523 375.324 133.398 379.685 153.97 366.546C154.604 366.141 155.328 365.933 156.058 365.933L156.057 365.934Z" fill="#371A45"/>
<path d="M119.708 372.265C119.997 375.445 121.089 378.068 122.075 379.43C123.951 382.025 142.58 396.405 157.636 397.306C164.368 397.704 170.385 395.415 173.874 388.176C173.896 388.141 173.913 388.099 173.927 388.064C182.018 370.969 156.868 351.2 142.7 341.77C140.707 340.443 138.933 339.32 137.496 338.44C135.25 337.063 133.838 336.274 133.725 336.211L139.366 345.249L150.355 362.864L150.474 363.054L151.619 364.896C150.545 363.417 149.46 362.238 148.393 361.312C147.732 360.738 147.077 360.255 146.432 359.861C146.401 359.836 146.383 359.826 146.383 359.826C143.654 358.143 141.165 357.914 139.457 358.051C138.517 358.129 137.806 358.319 137.429 358.442H137.426C137.222 358.509 137.112 358.555 137.112 358.555L131.63 356.664C130.792 356.372 129.923 356.263 129.064 356.326L129.046 356.33C127.592 356.435 126.194 357.034 125.11 358.086C120.381 362.671 119.318 367.977 119.708 372.265Z" fill="white"/>
<g opacity="0.3">
<path d="M155.361 397.072C155.361 397.072 167.494 400.595 173.876 388.177C173.897 388.142 173.915 388.099 173.929 388.064C175.654 384.42 175.869 380.653 174.996 376.889C174.879 377.181 174.753 377.47 174.615 377.758C174.601 377.797 174.584 377.836 174.562 377.875C172.264 384.878 164.519 386.483 164.519 386.483C164.519 386.483 166.361 389.839 162.121 394.12C158.641 397.634 155.362 397.072 155.362 397.072H155.361Z" fill="#371A45"/>
</g>
<g opacity="0.3">
<path d="M133.725 353.413C135.228 352.214 136.943 351.172 138.851 350.924C140.669 350.689 142.499 351.193 144.226 351.808C152.999 354.936 162.399 361.73 165.442 370.04C163.932 370.702 162.193 369.426 160.59 369.037C157.908 368.386 155.17 367.713 152.841 366.231C151.549 365.409 150.419 364.359 149.197 363.435C147.687 362.295 146.033 361.346 144.287 360.62C142.837 360.017 141.292 359.562 139.723 359.611C136.947 359.696 132.594 362.753 130.207 360.257C127.858 357.8 131.899 354.868 133.723 353.412L133.725 353.413Z" fill="#371A45"/>
</g>
<path d="M154.058 397.255C139.793 394.955 123.848 382.828 122.076 379.431C115.256 366.357 122.992 353.356 132.83 357.076L137.112 358.556C137.112 358.556 139.859 348.763 151.62 364.896" fill="white"/>
<path d="M154.95 366.136C154.95 366.136 157.912 366.665 160.737 371.791C160.737 371.791 172.618 385.788 157.637 397.306C157.637 397.306 127.02 392.009 120.094 374.23C120.094 374.23 115.369 357.86 130.553 356.275L136.935 358.652C136.935 358.652 138.171 353.836 142.877 355.791C142.877 355.791 148.703 360.199 151.621 365.367L154.951 366.136H154.95Z" fill="#F92323"/>
<g opacity="0.6">
<path d="M136.274 359.75L130.454 359.138C128.655 358.948 126.888 359.691 125.764 361.109C123.185 364.359 119.708 371.041 123.95 380.436C123.95 380.436 117.888 374.47 119.049 365.68C119.049 365.68 121.879 353.793 131.827 356.442L135.614 358.65L136.274 359.75H136.274Z" fill="white"/>
</g>
<g opacity="0.6">
<path d="M159.6 369.874C159.6 369.874 152.423 368.908 150.357 367.234C150.357 367.234 143.976 357.97 138.694 357.97L139.404 355.791L142.655 355.77L147.565 360.747L151.457 365.452L158.128 367.776L159.6 369.874Z" fill="white"/>
</g>
<path d="M158.527 399.042C158.661 399.042 158.792 399.041 158.926 399.038C166.464 398.92 171.922 395.472 175.144 388.788C186.879 364.457 137.479 335.375 135.37 334.148C134.698 333.757 133.836 333.986 133.445 334.658C133.054 335.331 133.281 336.192 133.955 336.584C134.448 336.871 183.217 365.567 172.607 387.565C169.885 393.209 165.267 396.122 158.882 396.222C158.768 396.224 158.651 396.225 158.537 396.225C144.122 396.227 125.136 382.251 123.325 378.78C119.344 371.146 120.836 363.943 123.909 360.481C126.166 357.934 129.158 357.194 132.332 358.394L136.653 359.886C137.02 360.013 137.422 359.983 137.766 359.803C138.11 359.622 138.364 359.309 138.468 358.935C138.47 358.929 138.978 357.271 140.281 357.047C141.312 356.866 144.383 357.357 150.483 365.724C150.941 366.353 151.822 366.492 152.45 366.032C153.079 365.574 153.217 364.693 152.759 364.064C147.5 356.85 143.252 353.65 139.768 354.277C138.102 354.577 136.998 355.716 136.356 356.803L133.291 355.744C129.111 354.162 124.802 355.229 121.802 358.61C117.986 362.911 116.205 371.218 120.829 380.082C122.925 384.102 142.523 399.039 158.529 399.041L158.527 399.042Z" fill="#371A45"/>
<path d="M151.128 366.215C152.277 366.8 153.477 367.248 154.687 367.667C155.895 368.091 157.137 368.427 158.378 368.766C159.619 369.104 160.87 369.414 162.128 369.703C163.391 369.983 164.658 370.25 165.952 370.446C166.064 370.463 166.17 370.386 166.186 370.273C166.199 370.191 166.159 370.111 166.093 370.069C164.986 369.371 163.853 368.745 162.715 368.131C161.573 367.526 160.423 366.943 159.264 366.386C158.104 365.832 156.945 365.274 155.754 364.804C154.564 364.329 153.363 363.883 152.111 363.575C151.351 363.387 150.583 363.852 150.396 364.613C150.236 365.265 150.555 365.922 151.128 366.215Z" fill="#371A45"/>
<path d="M157.804 398.364C158.006 398.364 158.209 398.306 158.39 398.186C162.909 395.175 165.487 391.322 166.051 386.736C167.294 376.64 158.346 366.674 157.964 366.254C157.572 365.822 156.905 365.791 156.473 366.182C156.041 366.575 156.009 367.242 156.401 367.674C156.488 367.77 165.081 377.356 163.953 386.483C163.466 390.427 161.2 393.773 157.218 396.426C156.733 396.749 156.601 397.405 156.925 397.891C157.128 398.196 157.464 398.362 157.805 398.362L157.804 398.364Z" fill="#371A45"/>
<g opacity="0.3">
<path d="M68.4364 354.383C69.0349 354.721 69.637 355.045 70.2461 355.358C73.0981 356.837 76.0416 358.063 79.0485 359.048C80.1435 359.404 81.2455 359.728 82.3546 360.024C102.03 365.224 123.792 360.26 139.365 345.25C139.865 344.768 140.362 344.275 140.848 343.771C141.105 343.507 141.358 343.239 141.612 342.968C141.981 342.574 142.344 342.176 142.7 341.771C140.707 340.444 138.932 339.321 137.496 338.44C117.962 317.107 108.776 309.759 94.0089 311.347C79.5942 312.9 63.1268 327.804 68.4364 354.383Z" fill="#371A45"/>
</g>
<path d="M35.4439 301.76C36.7484 311.707 40.5422 321.368 46.8077 329.755C48.0866 331.465 49.4607 333.119 50.9404 334.711C51.6577 335.487 52.4077 336.25 53.1761 337.003C55.5061 339.261 57.9707 341.29 60.5472 343.092C62.7645 344.65 65.0681 346.038 67.4297 347.259C70.2808 348.735 73.2261 349.961 76.2303 350.947C77.327 351.302 78.43 351.628 79.5391 351.924C99.8469 357.291 122.377 351.83 138.032 335.67C161.099 311.872 160.499 273.881 136.705 250.816C132.119 246.377 127.006 242.804 121.574 240.12C120.942 239.801 120.298 239.498 119.649 239.209C117.918 238.426 116.159 237.729 114.379 237.12C110.259 235.713 106.018 234.77 101.743 234.288C97.4694 233.801 93.1501 233.776 88.8783 234.209C87.5201 234.346 86.1663 234.527 84.8152 234.759C82.7906 235.107 80.7837 235.552 78.7926 236.111C68.8733 238.866 59.5314 244.217 51.8488 252.147C38.5793 265.836 33.1447 284.22 35.4439 301.759V301.76Z" fill="white"/>
<path d="M94.8796 354.06C110.972 354.06 126.665 347.609 138.135 335.77C161.216 311.955 160.62 273.8 136.805 250.716C132.284 246.34 127.181 242.733 121.638 239.995C121.032 239.689 120.4 239.39 119.708 239.082C117.984 238.301 116.207 237.596 114.427 236.988C110.337 235.591 106.076 234.636 101.761 234.15C97.4877 233.663 93.1482 233.637 88.8668 234.07C87.4892 234.21 86.1178 234.395 84.7939 234.621C82.7245 234.977 80.6938 235.433 78.7573 235.977C68.522 238.82 59.1827 244.379 51.75 252.051C38.8951 265.313 32.9016 283.438 35.3064 301.78C36.64 311.948 40.5782 321.651 46.6975 329.841C47.9959 331.576 49.3893 333.248 50.8399 334.809C51.4992 335.522 52.2315 336.273 53.0801 337.105C55.381 339.335 57.8668 341.388 60.4696 343.209C62.6447 344.738 64.9658 346.143 67.3689 347.386C70.1777 348.841 73.1458 350.085 76.1897 351.083C77.2829 351.438 78.399 351.767 79.5064 352.062C84.5897 353.405 89.7567 354.06 94.8823 354.06H94.8796ZM94.9456 234.047C97.2131 234.047 99.4788 234.175 101.729 234.431C106.023 234.916 110.265 235.866 114.334 237.256C116.106 237.862 117.875 238.563 119.592 239.34C120.281 239.647 120.909 239.943 121.511 240.248C127.029 242.973 132.108 246.564 136.608 250.919C160.311 273.895 160.905 311.87 137.932 335.573C122.881 351.109 100.521 357.322 79.5768 351.787C78.4748 351.493 77.3639 351.165 76.2759 350.813C73.2471 349.819 70.293 348.581 67.4965 347.133C65.1049 345.898 62.7952 344.499 60.6298 342.976C58.0393 341.164 55.565 339.121 53.2764 336.902C52.4314 336.074 51.7016 335.326 51.0459 334.616C49.6014 333.062 48.215 331.398 46.9229 329.671C40.8334 321.521 36.9129 311.864 35.5864 301.744L35.4455 301.762L35.5864 301.744C33.193 283.488 39.1583 265.448 51.9525 252.249C59.35 244.612 68.6452 239.081 78.8321 236.251C80.7598 235.709 82.7817 235.255 84.8415 234.901C86.16 234.676 87.5235 234.491 88.8949 234.353C90.9045 234.15 92.9255 234.048 94.9465 234.048L94.9456 234.047Z" fill="#371A45"/>
<g opacity="0.35">
<path d="M138.033 335.672C122.379 351.834 99.8453 357.295 79.5392 351.926C78.4301 351.632 77.3281 351.306 76.2331 350.951C73.2271 349.966 70.2836 348.738 67.4317 347.264C65.0709 346.041 62.7655 344.655 60.5491 343.097C57.97 341.294 55.5072 339.266 53.1754 337.008C52.4096 336.252 51.6597 335.493 50.9396 334.716C49.4609 333.123 48.0895 331.467 46.8096 329.758C40.5441 321.371 36.7477 311.712 35.4449 301.762C34.7275 296.299 34.7619 290.749 35.5497 285.286C37.01 294.75 40.7404 303.909 46.7181 311.911C47.9944 313.623 49.3702 315.276 50.849 316.869C51.5646 317.644 52.3155 318.404 53.0848 319.16C55.4165 321.419 57.8794 323.447 60.4549 325.25C62.6749 326.807 64.9767 328.193 67.3375 329.417C70.1894 330.89 73.1364 332.119 76.1389 333.103C77.2374 333.459 78.3403 333.784 79.4494 334.078C99.7555 339.449 122.286 333.987 137.943 317.825C147.08 308.399 152.499 296.746 154.238 284.68C157.02 302.632 151.65 321.626 138.035 335.671L138.033 335.672Z" fill="#371A45"/>
</g>
<path d="M94.879 355.01C111.227 355.01 127.167 348.458 138.817 336.432C162.262 312.242 161.656 273.483 137.465 250.035C132.873 245.59 127.69 241.926 122.058 239.145C121.446 238.835 120.8 238.529 120.093 238.215C118.348 237.425 116.541 236.708 114.733 236.09C110.579 234.671 106.251 233.701 101.867 233.207C97.5276 232.712 93.1203 232.685 88.7702 233.126C87.3706 233.267 85.979 233.457 84.6331 233.686C82.5311 234.047 80.4679 234.511 78.4988 235.063C68.1033 237.951 58.6161 243.597 51.0664 251.39C38.009 264.861 31.9205 283.273 34.3631 301.904C35.7178 312.233 39.7184 322.09 45.9346 330.41C47.2532 332.173 48.6686 333.871 50.1421 335.456C50.8094 336.179 51.554 336.942 52.414 337.784C54.7546 340.052 57.2799 342.139 59.9233 343.988C62.1318 345.541 64.4899 346.968 66.9299 348.231C69.7845 349.709 72.7993 350.973 75.8915 351.987C77.0042 352.348 78.1361 352.681 79.2593 352.981C84.4227 354.346 89.6724 355.011 94.8799 355.011L94.879 355.01ZM94.945 234.997C97.1764 234.997 99.4069 235.123 101.62 235.375C105.848 235.852 110.022 236.787 114.026 238.154C115.769 238.75 117.509 239.44 119.198 240.205C119.878 240.508 120.492 240.798 121.08 241.095C126.518 243.781 131.516 247.314 135.944 251.601C159.271 274.211 159.855 311.584 137.247 334.91C122.435 350.201 100.428 356.315 79.8174 350.868C78.7338 350.579 77.6388 350.255 76.5667 349.908C73.5888 348.931 70.6823 347.714 67.9316 346.289C65.5779 345.072 63.3051 343.696 61.175 342.198C58.6241 340.413 56.1885 338.402 53.9359 336.218C53.1068 335.405 52.3876 334.669 51.7424 333.97C50.3191 332.438 48.9538 330.801 47.6819 329.101C41.6893 321.08 37.8321 311.577 36.5258 301.618L35.444 301.76L36.5258 301.618C34.1703 283.652 40.0415 265.897 52.6323 252.908C59.9127 245.392 69.0601 239.948 79.0841 237.164C80.9828 236.631 82.9721 236.184 84.9993 235.836C86.2959 235.614 87.6373 235.433 88.9876 235.296C90.9655 235.095 92.9548 234.995 94.9441 234.995L94.945 234.997Z" fill="#371A45"/>
<path d="M94.879 355.326C111.311 355.326 127.333 348.739 139.044 336.651C162.611 312.334 162.002 273.376 137.686 249.805C133.07 245.337 127.859 241.654 122.198 238.859C121.584 238.548 120.934 238.24 120.222 237.924C118.468 237.13 116.653 236.411 114.835 235.789C110.659 234.363 106.307 233.387 101.902 232.89C97.5391 232.394 93.1098 232.366 88.7368 232.809C87.3311 232.951 85.9315 233.14 84.5777 233.371C82.4651 233.734 80.3904 234.201 78.4117 234.756C67.9625 237.658 58.426 243.334 50.8367 251.169C37.7116 264.709 31.5922 283.216 34.0472 301.944C35.408 312.326 39.4307 322.235 45.6794 330.598C47.0042 332.37 48.4275 334.076 49.9089 335.669C50.5788 336.395 51.3261 337.162 52.1905 338.008C54.5442 340.29 57.0828 342.385 59.7402 344.244C61.9593 345.805 64.3306 347.241 66.783 348.509C69.6516 349.995 72.6831 351.265 75.7912 352.284C76.91 352.647 78.0464 352.983 79.1757 353.284C84.3664 354.656 89.6434 355.324 94.8773 355.324L94.879 355.326ZM94.9451 235.312C97.1641 235.312 99.3823 235.438 101.584 235.688C105.79 236.163 109.941 237.093 113.924 238.453C115.657 239.045 117.388 239.732 119.068 240.493C119.746 240.794 120.354 241.081 120.937 241.377C126.349 244.05 131.32 247.564 135.725 251.828C158.926 274.317 159.507 311.488 137.021 334.69C122.288 349.897 100.401 355.98 79.8993 350.562C78.821 350.274 77.7321 349.953 76.6653 349.607C73.7042 348.636 70.8135 347.425 68.0778 346.008C65.7364 344.797 63.4759 343.428 61.3572 341.939C58.8195 340.164 56.3971 338.163 54.156 335.991C53.3313 335.183 52.6165 334.45 51.9748 333.756C50.5585 332.231 49.2003 330.603 47.9355 328.912C41.9754 320.935 38.1385 311.482 36.8401 301.578L35.4441 301.761L36.8401 301.578C34.497 283.708 40.3364 266.049 52.8595 253.129C60.1011 245.654 69.1983 240.239 79.1687 237.47C81.0576 236.939 83.0364 236.495 85.053 236.149C86.3417 235.929 87.6761 235.747 89.0194 235.612C90.9867 235.412 92.9654 235.312 94.9442 235.312H94.9451Z" fill="#371A45"/>
<path d="M39.3822 316.628C63.4169 352.15 114.342 352.912 131.874 314.219C143.802 287.896 127.238 255.892 101.223 246.055C82.2882 238.895 60.6697 240.188 41.5238 266.538C41.5238 266.538 34.849 279.512 35.0647 289.935C35.2794 300.357 37.2476 310.458 37.2476 310.458L39.3822 316.628Z" fill="#371A45"/>
<path d="M131.872 314.218C114.341 352.91 63.4149 352.147 39.3802 316.629L38.9489 315.377C72.5983 335.669 116.881 327.839 135.336 289.049C136.522 297.431 135.552 306.095 131.872 314.218Z" fill="#220F2D"/>
<path d="M87.7428 350.854C94.3991 350.854 100.963 349.754 107.119 347.532C121.303 342.413 132.296 331.996 138.908 317.408C144.99 303.987 144.992 288.497 138.914 273.788C132.298 257.78 119.124 244.734 103.671 238.891C94.9959 235.61 86.5932 234.202 78.7028 234.708L78.5567 234.717L78.4158 234.755C67.9631 237.659 58.4267 243.335 50.8373 251.169C37.7122 264.71 31.5928 283.217 34.0478 301.944C35.4087 312.327 39.4313 322.235 45.6801 330.598C47.0048 332.37 48.4281 334.076 49.9096 335.67C50.5794 336.397 51.3267 337.162 52.1911 338.009C54.5449 340.291 57.0834 342.387 59.7409 344.246L59.9319 344.358C68.7976 348.668 78.3622 350.853 87.7428 350.853V350.854ZM81.8602 237.424C88.4804 237.424 95.4668 238.799 102.675 241.525C117.413 247.098 129.987 259.561 136.31 274.864C142.088 288.845 142.1 303.541 136.342 316.245C130.051 330.124 119.615 340.027 106.162 344.882C92.077 349.965 75.7179 348.869 61.2637 341.874C58.7621 340.116 56.3705 338.138 54.1567 335.993C53.3319 335.184 52.6172 334.451 51.9755 333.757C50.5592 332.232 49.201 330.604 47.9361 328.913C41.9761 320.936 38.1391 311.483 36.8408 301.579L35.4447 301.762L36.8408 301.579C34.4976 283.709 40.3371 266.05 52.8601 253.13C60.0674 245.691 69.1127 240.291 79.0285 237.511C79.9633 237.453 80.9087 237.425 81.8593 237.425L81.8602 237.424Z" fill="#371A45"/>
<path d="M87.4055 344.668C88.9151 344.668 90.4273 344.604 91.9404 344.476C110.294 342.918 125.317 332.101 133.157 314.8C138.586 302.82 138.587 288.994 133.163 275.869C127.261 261.588 115.507 249.95 101.72 244.737C77.7229 235.663 57.0877 242.719 40.3836 265.709L40.2709 265.893C39.9919 266.435 33.4359 279.306 33.6559 289.962C33.8707 300.386 35.8442 310.624 35.8644 310.726L35.9155 310.917L38.1108 317.263L38.2147 317.417C49.7809 334.511 68.3089 344.668 87.4046 344.668H87.4055ZM82.3996 243.767C88.254 243.767 94.3646 244.967 100.724 247.371C113.797 252.314 124.95 263.37 130.561 276.944C135.684 289.342 135.695 302.373 130.591 313.637C123.184 329.982 109.01 340.2 91.7019 341.669C72.115 343.33 52.5704 333.497 40.6512 315.99L38.6108 310.092C38.4136 309.046 36.6707 299.548 36.4718 289.903C36.2764 280.414 42.1423 268.445 42.7294 267.272C54.1275 251.626 67.4207 243.766 82.3996 243.766V243.767Z" fill="#371A45"/>
<path d="M136.123 337.731C144.471 339.935 154.115 332.569 157.667 321.278C157.678 321.25 157.685 321.221 157.692 321.193C161.199 309.93 157.315 299.036 148.992 296.839C140.644 294.635 131 302.001 127.444 313.292C127.218 314.004 127.025 314.715 126.859 315.422C124.398 325.929 128.303 335.664 136.123 337.731Z" fill="white"/>
<g opacity="0.35">
<path d="M126.86 315.422C124.399 325.928 128.303 335.664 136.123 337.73C144.471 339.935 154.115 332.569 157.668 321.277C157.678 321.249 157.685 321.221 157.692 321.193L135.926 316.151C130.528 321.098 127.93 317.823 126.86 315.422Z" fill="#371A45"/>
</g>
<path d="M99.3221 335.366C99.3221 335.366 99.3256 335.369 99.3291 335.369C99.3115 335.359 99.3115 335.355 99.3221 335.366Z" fill="white"/>
<path d="M139.112 339.524C147.252 339.524 155.701 332.224 159.012 321.7C161.206 314.727 160.796 307.702 157.886 302.425C155.905 298.833 152.954 296.431 149.35 295.48C140.3 293.088 129.872 300.892 126.102 312.873C123.909 319.846 124.319 326.871 127.228 332.149C129.209 335.741 132.16 338.143 135.764 339.094C136.864 339.385 137.985 339.525 139.112 339.525V339.524ZM156.325 320.855C153 331.422 144.097 338.381 136.484 336.37C133.642 335.619 131.295 333.69 129.695 330.788C127.193 326.249 126.854 319.868 128.79 313.717C132.114 303.15 141.016 296.19 148.631 298.202C151.473 298.953 153.82 300.884 155.419 303.785C157.922 308.323 158.261 314.705 156.325 320.855Z" fill="#371A45"/>
<path d="M140.317 336.249C133.831 333.572 131.482 324.353 135.071 315.658C138.66 306.964 146.828 302.086 153.314 304.763C159.801 307.441 162.15 316.66 158.561 325.354C154.972 334.049 146.804 338.927 140.317 336.249Z" fill="white"/>
<path d="M144.028 337.126C144.325 337.126 144.625 337.113 144.928 337.089C149.074 336.752 153.184 334.136 156.204 329.913C161.597 322.37 161.786 312.01 156.626 306.819C154.492 304.673 151.753 303.672 148.7 303.917C144.554 304.253 140.443 306.87 137.424 311.093C132.031 318.636 131.843 328.996 137.003 334.187C138.924 336.12 141.339 337.126 144.028 337.126ZM149.598 304.175C152.209 304.175 154.552 305.151 156.417 307.027C161.48 312.12 161.278 322.31 155.965 329.741C152.996 333.894 148.965 336.466 144.905 336.795C141.939 337.036 139.283 336.062 137.212 333.979C132.148 328.886 132.351 318.696 137.663 311.265C140.632 307.112 144.664 304.54 148.723 304.211C149.017 304.187 149.309 304.175 149.597 304.175H149.598Z" fill="#371A45"/>
<g opacity="0.35">
<path d="M133.201 323.779C133.39 320.558 134.463 317.377 136.132 314.598C136.319 321.979 141.524 326.604 148.278 325.08C152.642 324.097 156.649 320.768 159.229 316.466C159.244 316.932 159.233 317.413 159.205 317.901C158.72 326.104 152.506 334.07 145.324 335.692C138.142 337.315 132.717 331.978 133.201 323.779Z" fill="#371A45"/>
</g>
<path d="M143.723 338.405C150.139 338.405 156.987 332.232 159.789 323.449C161.672 317.546 161.391 311.488 159.039 307.243C157.549 304.552 155.345 302.768 152.67 302.084C145.652 300.291 137.383 306.867 134.232 316.745C132.349 322.648 132.63 328.705 134.982 332.951C136.472 335.642 138.676 337.426 141.352 338.11C142.13 338.309 142.923 338.405 143.722 338.405H143.723ZM157.106 322.592C154.4 331.074 147.646 336.811 142.05 335.381C140.144 334.893 138.551 333.581 137.447 331.586C135.465 328.007 135.266 322.778 136.917 317.6C139.623 309.118 146.382 303.383 151.972 304.812C153.879 305.299 155.471 306.612 156.576 308.607C158.558 312.187 158.757 317.415 157.106 322.592Z" fill="#371A45"/>
<g opacity="0.7">
<path d="M110.854 260.981C110.854 260.981 84.7919 252.982 65.2543 262.34C65.2341 262.349 65.2129 262.359 65.1927 262.37C61.082 264.342 57.5805 267.393 55.0313 271.173C51.66 276.172 50.0694 280.111 48.8028 283.632C44.9553 294.343 45.156 300.082 45.156 300.082C41.0964 292.234 39.9714 284.576 43.0875 275.622C43.3973 274.74 43.7485 273.843 44.1393 272.932C44.2282 272.722 44.3215 272.516 44.4184 272.31C44.4148 272.307 44.4184 272.302 44.4263 272.299C45.3461 270.511 46.6436 268.206 48.324 265.73C53.3879 258.258 61.9174 249.201 74.0293 247.928C96.6768 245.547 112.138 260.18 110.854 260.982V260.981Z" fill="white"/>
</g>
<g opacity="0.7">
<path d="M119.655 303.521C115.24 303.152 112.01 298.683 112.44 293.538C112.87 288.394 116.798 284.523 121.212 284.892C125.627 285.261 128.857 289.731 128.427 294.875C127.997 300.02 124.069 303.891 119.655 303.521Z" fill="white"/>
</g>
<g opacity="0.7">
<path d="M115.705 311.124C115.703 308.992 117.184 307.262 119.014 307.26C120.843 307.258 122.328 308.985 122.33 311.117C122.332 313.248 120.851 314.978 119.022 314.98C117.192 314.982 115.708 313.255 115.705 311.124Z" fill="white"/>
</g>
<path d="M70.2697 379.626C70.7432 382.102 71.0548 385.213 71.0548 385.213C71.0548 385.213 76.1637 384.737 76.5703 384.659C77.9171 384.402 78.4593 381.315 77.7807 377.766C77.102 374.217 75.4604 371.548 74.1136 371.806C73.1278 371.995 69.0206 372.334 69.0206 372.334C69.0206 372.334 70.0875 378.674 70.2697 379.626Z" fill="white"/>
<path d="M66.8696 379.373C66.1912 375.824 67.0948 372.669 68.8878 372.326C70.6808 371.984 72.6843 374.583 73.3626 378.132C74.0409 381.681 73.1373 384.836 71.3443 385.179C69.5513 385.522 67.5479 382.922 66.8696 379.373Z" fill="white"/>
<g opacity="0.3">
<path d="M122.564 379.38C124.442 381.972 143.059 396.348 158.114 397.255C163.608 393.573 165.339 390.969 165.172 386.301C156.217 389.094 145.042 378.504 145.042 378.504C136.957 386.975 122.024 378.632 122.564 379.379V379.38Z" fill="#371A45"/>
</g>
<path d="M61.4124 363.188C62.3454 365.794 63.8136 369.938 65.4861 374.23C67.8803 380.37 70.6865 386.807 72.9223 389.43C76.8129 393.993 93.157 396.493 103.783 396.841C106.572 396.933 108.617 394.331 107.47 391.785C105.593 387.62 104.061 383.539 102.861 379.987C101.723 376.624 100.882 373.737 100.329 371.695C99.8221 369.822 98.1321 368.519 96.1921 368.487C79.3304 368.227 67.9754 363.938 63.0918 361.653C62.0989 361.188 61.0427 362.153 61.4124 363.188Z" fill="white"/>
<g opacity="0.3">
<path d="M68.6343 381.785C69.8419 384.451 71.0461 386.803 72.1552 388.412C72.4157 388.795 72.6728 389.137 72.9227 389.429C76.8134 393.992 93.1575 396.492 103.784 396.841C106.572 396.932 108.618 394.33 107.47 391.785C105.593 387.619 104.062 383.539 102.861 379.986C101.84 382.845 98.4248 388.81 87.6261 389.281C84.8305 389.401 82.0666 388.577 79.4294 387.176C80.042 385.979 80.1829 383.672 79.697 381.13C79.021 377.581 77.3767 374.912 76.0317 375.169C75.2078 375.328 72.208 375.588 71.2398 375.673C71.0919 375.662 70.944 375.669 70.7961 375.698C69.8455 375.877 69.1448 376.856 68.7962 378.261C68.5498 379.264 68.4829 380.483 68.6343 381.785Z" fill="#371A45"/>
</g>
<g opacity="0.3">
<path d="M68.6339 381.786C68.4825 380.484 68.5494 379.265 68.7959 378.262C67.5953 376.906 66.4826 375.537 65.4862 374.23C66.4862 376.797 67.56 379.417 68.6339 381.786Z" fill="#371A45"/>
</g>
<path d="M103.927 398.253C105.748 398.253 107.403 397.395 108.382 395.932C109.333 394.513 109.468 392.791 108.754 391.207C105.101 383.104 102.758 375.274 101.688 371.328C101.02 368.867 98.7683 367.12 96.213 367.081C79.8363 366.825 68.807 362.772 63.6911 360.379C62.7229 359.926 61.5856 360.098 60.7952 360.817C60.0038 361.537 59.7257 362.654 60.0866 363.663L60.311 364.292C62.81 371.285 68.0095 385.835 71.8517 390.343C76.2661 395.521 93.3382 397.908 103.736 398.251C103.801 398.252 103.864 398.254 103.927 398.254V398.253ZM98.9699 372.066C100.062 376.093 102.453 384.085 106.186 392.365C106.604 393.293 106.275 394.017 106.042 394.365C105.573 395.065 104.748 395.465 103.829 395.435C91.9861 395.046 77.2123 392.29 73.9951 388.515C70.4874 384.4 65.2139 369.645 62.9632 363.344L62.8778 363.107C68.3528 365.613 79.6594 369.64 96.1681 369.897C97.4761 369.918 98.6275 370.809 98.969 372.066L98.9699 372.066Z" fill="#371A45"/>
<path d="M70.2697 379.624C70.7432 382.1 71.0548 385.211 71.0548 385.211C71.0548 385.211 76.1637 384.735 76.5703 384.657C77.9171 384.4 78.4593 381.313 77.7807 377.764C77.102 374.215 75.4604 371.546 74.1136 371.804C73.1278 371.993 69.0206 372.332 69.0206 372.332C69.0206 372.332 70.0875 378.672 70.2697 379.624Z" fill="#22A7F0"/>
<g opacity="0.8">
<path d="M69.0219 372.334C69.0219 372.334 70.0887 378.672 70.2683 379.626C70.7436 382.101 71.0534 385.214 71.0534 385.214C71.0534 385.214 71.1556 385.203 71.3281 385.189C71.1908 384.168 71.0147 382.939 70.8035 381.841C70.6204 380.887 69.5535 374.545 69.5535 374.545C69.5535 374.545 73.6625 374.207 74.6483 374.021C75.7398 373.81 77.032 375.531 77.8418 378.091C77.8207 377.982 77.8031 377.876 77.7819 377.767C77.1024 374.218 75.4616 371.549 74.1131 371.806C73.1273 371.993 69.0219 372.334 69.0219 372.334Z" fill="white"/>
</g>
<g opacity="0.3">
<path d="M70.4724 380.807C70.8315 382.99 71.0534 385.212 71.0534 385.212C71.0534 385.212 76.1622 384.733 76.5706 384.656C77.9156 384.399 78.4579 381.314 77.7818 377.765C77.553 376.568 77.215 375.47 76.8136 374.551C77.1868 377.6 76.6234 380.079 75.4263 380.307C75.1024 380.367 71.8139 380.681 70.4724 380.807Z" fill="#371A45"/>
</g>
<path d="M71.053 386.313C71.0874 386.313 71.1217 386.311 71.1569 386.308C72.3672 386.196 76.352 385.821 76.7781 385.739C77.433 385.614 78.5966 385.043 79.0191 382.637C79.27 381.206 79.2145 379.404 78.8616 377.559C78.1697 373.943 76.3239 370.265 73.9076 370.725C73.1471 370.87 70.0575 371.144 68.9308 371.236C68.6236 371.262 68.3419 371.414 68.1527 371.658C67.9634 371.901 67.8851 372.212 67.9362 372.516C67.9802 372.776 69.0074 378.878 69.1896 379.832C69.6482 382.23 69.958 385.292 69.9607 385.323C70.017 385.89 70.495 386.313 71.0539 386.313L71.053 386.313ZM74.3196 372.886C74.7087 372.954 76.0475 374.566 76.6997 377.972C77.3511 381.377 76.6997 383.369 76.3318 383.587C76.1038 383.622 74.1004 383.819 72.0301 384.015C71.8963 382.874 71.6586 381.029 71.3514 379.419C71.222 378.74 70.6226 375.206 70.3057 373.327C71.6261 373.21 73.6251 373.02 74.3214 372.886L74.3196 372.886Z" fill="#371A45"/>
<path d="M66.8701 379.371C66.1917 375.822 67.0953 372.667 68.8883 372.324C70.6813 371.982 72.6847 374.581 73.3631 378.13C74.0414 381.679 73.1378 384.834 71.3448 385.177C69.5518 385.52 67.5484 382.92 66.8701 379.371Z" fill="#22A7F0"/>
<g opacity="0.8">
<path d="M66.8629 379.381C66.9087 379.613 66.958 379.838 67.0144 380.06C66.8876 377.303 67.7643 375.099 69.2431 374.814C70.919 374.494 72.7816 376.747 73.5703 379.944C73.5421 379.363 73.4717 378.758 73.3555 378.141C72.676 374.592 70.6726 371.99 68.8804 372.335C67.0883 372.677 66.1834 375.832 66.8629 379.381Z" fill="white"/>
</g>
<g opacity="0.3">
<path d="M66.9263 379.68C67.6551 383.074 69.5952 385.514 71.338 385.183C73.1302 384.842 74.0315 381.687 73.3555 378.138C72.9999 376.283 72.2852 374.688 71.426 373.635C71.4472 373.733 71.4683 373.832 71.4859 373.931C72.1619 377.48 71.2606 380.634 69.4649 380.976C68.6128 381.141 67.7115 380.634 66.9263 379.68Z" fill="#371A45"/>
</g>
<path d="M71.0111 386.317C71.1881 386.317 71.3659 386.3 71.5437 386.267C72.8394 386.019 73.8296 384.918 74.3305 383.168C74.7583 381.674 74.7952 379.815 74.4352 377.932C74.0752 376.05 73.3552 374.335 72.4063 373.105C71.2946 371.663 69.9725 371.004 68.6732 371.253C67.3775 371.5 66.3873 372.601 65.8864 374.352C65.4586 375.846 65.4217 377.705 65.7817 379.588C66.5404 383.558 68.7287 386.318 71.0111 386.318V386.317ZM69.1978 373.403C69.6089 373.403 70.1573 373.79 70.6643 374.448C71.3958 375.397 71.9829 376.818 72.2743 378.345C72.5665 379.873 72.5454 381.41 72.2153 382.561C71.9653 383.432 71.5498 384.024 71.1308 384.104C70.2462 384.271 68.5676 382.435 67.9435 379.172C67.6513 377.644 67.6733 376.107 68.0025 374.956C68.2525 374.084 68.6679 373.493 69.0869 373.413C69.123 373.406 69.16 373.402 69.1978 373.402V373.403Z" fill="#371A45"/>
<path d="M91.5243 397.041C91.6774 397.041 91.8323 397.014 91.9837 396.958C92.6677 396.704 93.0154 395.944 92.7619 395.261L88.623 384.126L91.7989 382.115C92.2786 381.811 92.511 381.234 92.3737 380.683L89.1626 367.699C88.9874 366.992 88.2736 366.559 87.5641 366.735C86.8564 366.91 86.4242 367.625 86.5994 368.333L89.5825 380.393L86.3063 382.468C85.779 382.801 85.5581 383.459 85.7746 384.043L90.2858 396.181C90.4838 396.713 90.9873 397.042 91.5234 397.042L91.5243 397.041Z" fill="#371A45"/>
</g>
<defs>
<filter id="filter0_d_912_21398" x="0.355469" y="232.496" width="280.606" height="239.096" filterUnits="userSpaceOnUse" color-interpolation-filters="sRGB">
<feFlood flood-opacity="0" result="BackgroundImageFix"/>
<feColorMatrix in="SourceAlpha" type="matrix" values="0 0 0 0 0 0 0 0 0 0 0 0 0 0 0 0 0 0 127 0" result="hardAlpha"/>
<feOffset dy="4"/>
<feGaussianBlur stdDeviation="2"/>
<feComposite in2="hardAlpha" operator="out"/>
<feColorMatrix type="matrix" values="0 0 0 0 0 0 0 0 0 0 0 0 0 0 0 0 0 0 0.25 0"/>
<feBlend mode="normal" in2="BackgroundImageFix" result="effect1_dropShadow_912_21398"/>
<feBlend mode="normal" in="SourceGraphic" in2="effect1_dropShadow_912_21398" result="shape"/>
</filter>
<radialGradient id="paint0_radial_912_21398" cx="0" cy="0" r="1" gradientUnits="userSpaceOnUse" gradientTransform="translate(456.423 262.065) rotate(-20.2064) scale(259.295 250.353)">
<stop stop-color="#E2C7FF"/>
<stop offset="0.471875" stop-color="#8767A9"/>
<stop offset="1" stop-color="#1D193B"/>
</radialGradient>
<linearGradient id="paint1_linear_912_21398" x1="320.436" y1="294.93" x2="742.935" y2="103.429" gradientUnits="userSpaceOnUse">
<stop stop-opacity="0"/>
<stop offset="0.8" stop-color="#FEB68C"/>
</linearGradient>
<linearGradient id="paint2_linear_912_21398" x1="415.899" y1="227.304" x2="438.857" y2="322.442" gradientUnits="userSpaceOnUse">
<stop stop-color="white" stop-opacity="0"/>
<stop offset="1" stop-color="#FFD9CF"/>
</linearGradient>
<linearGradient id="paint3_linear_912_21398" x1="249.068" y1="204.697" x2="249.068" y2="283.225" gradientUnits="userSpaceOnUse">
<stop offset="0.367708"/>
<stop offset="1" stop-color="#340C24" stop-opacity="0"/>
</linearGradient>
<linearGradient id="paint4_linear_912_21398" x1="370.952" y1="165.307" x2="370.952" y2="282.666" gradientUnits="userSpaceOnUse">
<stop offset="0.367708"/>
<stop offset="1" stop-color="#340C24" stop-opacity="0"/>
</linearGradient>
<linearGradient id="paint5_linear_912_21398" x1="514.949" y1="78.498" x2="514.949" y2="318.853" gradientUnits="userSpaceOnUse">
<stop offset="0.367708"/>
<stop offset="1" stop-color="#340C24" stop-opacity="0"/>
</linearGradient>
<linearGradient id="paint6_linear_912_21398" x1="389.204" y1="146.947" x2="389.204" y2="184.821" gradientUnits="userSpaceOnUse">
<stop offset="0.367708"/>
<stop offset="1" stop-color="#340C24" stop-opacity="0"/>
</linearGradient>
<linearGradient id="paint7_linear_912_21398" x1="310.745" y1="259.395" x2="310.745" y2="380.705" gradientUnits="userSpaceOnUse">
<stop offset="0.367708"/>
<stop offset="1" stop-color="#340C24" stop-opacity="0"/>
</linearGradient>
<linearGradient id="paint8_linear_912_21398" x1="366.963" y1="23.6016" x2="366.963" y2="191.794" gradientUnits="userSpaceOnUse">
<stop offset="0.367708"/>
<stop offset="1" stop-color="#340C24" stop-opacity="0"/>
</linearGradient>
<linearGradient id="paint9_linear_912_21398" x1="353.784" y1="0.140625" x2="353.784" y2="141.648" gradientUnits="userSpaceOnUse">
<stop offset="0.367708"/>
<stop offset="1" stop-color="#340C24" stop-opacity="0"/>
</linearGradient>
<linearGradient id="paint10_linear_912_21398" x1="248.694" y1="98.5898" x2="248.694" y2="177.994" gradientUnits="userSpaceOnUse">
<stop offset="0.367708"/>
<stop offset="1" stop-color="#340C24" stop-opacity="0"/>
</linearGradient>
</defs>
</svg>
