<svg width="42" height="42" viewBox="0 0 42 42" fill="none" xmlns="http://www.w3.org/2000/svg">
<path d="M21.0001 39.813C19.9501 39.813 18.9176 39.568 18.0776 39.0955L9.80008 34.318C6.37008 32.008 6.14258 31.588 6.14258 27.9655V19.2855C6.14258 15.663 6.37008 15.243 9.73008 12.9855L18.0951 8.15547C19.7576 7.19297 22.2601 7.19297 23.9226 8.15547L32.2001 12.933C35.6301 15.243 35.8576 15.663 35.8576 19.2855V27.9655C35.8576 31.588 35.6301 32.008 32.2701 34.2655L23.9051 39.0955C23.0826 39.5855 22.0326 39.813 21.0001 39.813ZM21.0001 10.063C20.4051 10.063 19.8101 10.1855 19.3901 10.4305L11.1126 15.208C8.76758 16.8005 8.76758 16.8005 8.76758 19.2855V27.9655C8.76758 30.4505 8.76758 30.4505 11.2001 32.0955L19.4076 36.8205C20.2476 37.3105 21.7701 37.3105 22.6101 36.8205L30.8876 32.043C33.2326 30.4505 33.2326 30.4505 33.2326 27.9655V19.2855C33.2326 16.8005 33.2326 16.8005 30.8001 15.1555L22.5926 10.4305C22.1901 10.1855 21.5951 10.063 21.0001 10.063Z" fill="#3A3A3A"/>
<path d="M30.625 14.665C29.9075 14.665 29.3125 14.07 29.3125 13.3525V8.75C29.3125 5.985 28.14 4.8125 25.375 4.8125H16.625C13.86 4.8125 12.6875 5.985 12.6875 8.75V13.23C12.6875 13.9475 12.0925 14.5425 11.375 14.5425C10.6575 14.5425 10.0625 13.965 10.0625 13.23V8.75C10.0625 4.515 12.39 2.1875 16.625 2.1875H25.375C29.61 2.1875 31.9375 4.515 31.9375 8.75V13.3525C31.9375 14.07 31.3425 14.665 30.625 14.665Z" fill="#3A3A3A"/>
<path d="M23.8524 30.8534C23.4849 30.8534 23.0999 30.7834 22.7149 30.6259L20.9999 29.9609L19.2849 30.6434C18.3574 31.0109 17.4124 30.9234 16.7124 30.4159C16.0124 29.9084 15.6449 29.0334 15.6974 28.0359L15.8024 26.1984L14.6299 24.7809C13.9999 23.9934 13.7899 23.0834 14.0699 22.2434C14.3324 21.4209 15.0499 20.7909 16.0124 20.5459L17.7974 20.0909L18.7949 18.5334C19.8624 16.8534 22.1549 16.8534 23.2224 18.5334L24.2199 20.0909L26.0049 20.5459C26.9674 20.7909 27.6849 21.4209 27.9474 22.2434C28.2099 23.0659 27.9999 23.9934 27.3699 24.7634L26.1974 26.1809L26.3024 28.0184C26.3549 29.0159 25.9874 29.8734 25.2874 30.3984C24.8674 30.6959 24.3774 30.8534 23.8524 30.8534ZM16.6599 23.1009L17.8324 24.5184C18.2349 24.9909 18.4624 25.7434 18.4274 26.3559L18.3224 28.1934L20.0374 27.5109C20.6149 27.2834 21.3849 27.2834 21.9624 27.5109L23.6774 28.1934L23.5724 26.3559C23.5374 25.7434 23.7649 25.0084 24.1674 24.5184L25.3399 23.1009L23.5549 22.6459C22.9599 22.4884 22.3299 22.0334 21.9974 21.5259L21.0174 19.9859L20.0199 21.5259C19.6874 22.0509 19.0574 22.5059 18.4624 22.6634L16.6599 23.1009Z" fill="#3A3A3A"/>
</svg>
