<svg width="90" height="81" viewBox="0 0 90 81" fill="none" xmlns="http://www.w3.org/2000/svg">
<path d="M31.6438 73.8755C31.4124 73.8733 31.1691 73.8883 30.9107 73.9227C30.8447 73.9334 30.7766 73.9442 30.7117 73.956C30.6447 73.9656 30.5809 73.9775 30.5117 73.9882C30.3776 74.014 30.236 74.0462 30.0954 74.0838C29.5277 74.2362 28.9059 74.4853 28.2841 74.7699C27.6753 75.0351 27.0611 75.3346 26.5096 75.616C25.9603 75.8962 25.4715 76.1646 25.1276 76.345C24.7838 76.5276 24.5762 76.6446 24.5762 76.6446C24.5762 76.6446 24.6302 76.6639 24.7384 76.7037C24.8433 76.738 24.9936 76.7981 25.186 76.8508C25.5732 76.9603 26.116 77.1031 26.7302 77.2255C26.8848 77.2566 27.0395 77.291 27.2039 77.3135C27.3693 77.3382 27.538 77.3565 27.7056 77.3748C28.0451 77.4102 28.3912 77.437 28.7383 77.4456C29.4249 77.4746 30.1181 77.3887 30.7128 77.2255C31.9023 76.9044 32.709 76.1775 33.2096 75.573C33.7135 74.9653 33.9277 74.4542 33.9277 74.4542C33.9277 74.4542 33.52 74.1922 32.8409 74.0354C32.5024 73.9549 32.1034 73.8755 31.6438 73.8755Z" fill="#FFAA01"/>
<path d="M33.4676 69.1793C33.1897 68.7402 32.8231 68.3579 32.4436 67.9821C32.2554 67.7953 32.0586 67.6256 31.8586 67.4667C31.7569 67.3862 31.6596 67.311 31.5666 67.238C31.4736 67.1596 31.3796 67.0845 31.2876 67.0136C30.9211 66.7323 30.5858 66.5068 30.3436 66.3554C30.1014 66.1911 29.9532 66.1009 29.9532 66.1009C29.9532 66.1009 29.9511 66.3135 29.9651 66.6636C29.9738 67.0211 30.0116 67.4925 30.0884 68.0347C30.1663 68.577 30.2863 69.1826 30.4593 69.7753C30.6377 70.3486 30.8767 70.907 31.1687 71.3698C31.239 71.4857 31.3158 71.5952 31.3947 71.6972C31.4325 71.7498 31.4736 71.7971 31.5158 71.8443C31.5569 71.8905 31.5969 71.9345 31.6391 71.9775C31.8099 72.1471 31.9883 72.2921 32.1678 72.4156C32.3463 72.5401 32.5247 72.6453 32.6999 72.728C32.8729 72.8107 33.0427 72.8848 33.2038 72.9277C33.8504 73.1092 34.3219 73.078 34.3219 73.078C34.3219 73.078 34.3965 72.5294 34.3186 71.7734C34.2797 71.3944 34.2073 70.9639 34.071 70.5236C34.0375 70.4141 34.0007 70.3014 33.9564 70.1918C33.9185 70.078 33.8742 69.9631 33.8223 69.8493C33.7217 69.6238 33.6071 69.3973 33.4676 69.1793Z" fill="#FFAA01"/>
<path d="M24.2617 70.4767C24.2217 70.4391 24.1601 70.3886 24.0855 70.3221C23.9308 70.1889 23.7016 70.0129 23.4031 69.8453C23.2506 69.7595 23.0863 69.6778 22.8971 69.6027C22.7111 69.5264 22.5024 69.4599 22.2872 69.3912C21.8503 69.2645 21.3378 69.185 20.7398 69.1968C20.4381 69.2043 20.1288 69.2194 19.8044 69.2505C19.4821 69.2816 19.148 69.3278 18.8139 69.3826C18.4754 69.4363 18.1348 69.5007 17.805 69.563C17.4827 69.6285 17.1616 69.6929 16.8577 69.7541C16.2522 69.8819 15.7137 70.0043 15.3298 70.0966C14.9394 70.19 14.708 70.2523 14.708 70.2523C14.708 70.2523 14.907 70.3887 15.2465 70.598C15.4109 70.7043 15.6163 70.8257 15.8467 70.9577C15.9591 71.0232 16.0824 71.092 16.2111 71.1617C16.3398 71.2294 16.4771 71.2949 16.6187 71.3615C16.9021 71.4935 17.2048 71.6256 17.5173 71.7523C17.6763 71.8124 17.832 71.8726 17.9953 71.9295C18.0764 71.9606 18.1564 71.9896 18.2375 72.0154C18.3197 72.0379 18.403 72.0626 18.4873 72.0862C19.1545 72.2677 19.8314 72.3869 20.4446 72.3847C21.7 72.3493 22.6646 71.8833 23.3166 71.4313C23.6421 71.2101 23.8962 70.9803 24.066 70.8117C24.2347 70.6442 24.3223 70.5347 24.3223 70.5347C24.3223 70.5347 24.3017 70.5143 24.2617 70.4767Z" fill="#FFAA01"/>
<path d="M22.5314 66.8539C22.6882 67.3617 22.9304 67.7826 23.1997 68.1187C23.3316 68.2927 23.4787 68.4322 23.6257 68.5525C23.7717 68.6749 23.921 68.778 24.0626 68.8682C24.3438 69.0453 24.6011 69.157 24.7849 69.2268C24.8769 69.2622 24.958 69.2794 25.0077 69.2923C25.065 69.3052 25.0921 69.3105 25.0921 69.3105C25.0921 69.3105 25.1494 69.1828 25.2196 68.9648C25.2921 68.7447 25.3808 68.4344 25.451 68.0554C25.5959 67.2995 25.6587 66.3073 25.3602 65.3367C25.2218 64.8385 24.9861 64.3585 24.7103 63.9151C24.4454 63.4662 24.1524 63.0389 23.8647 62.6856C23.7187 62.5117 23.5933 62.3367 23.4711 62.1874C23.3522 62.036 23.2386 61.9072 23.1445 61.7998C22.9575 61.584 22.8331 61.4637 22.8331 61.4637C22.8331 61.4637 22.7715 61.6667 22.6904 62.0038C22.6093 62.341 22.5076 62.8177 22.4265 63.3599C22.3876 63.6337 22.3476 63.9279 22.3249 64.2254C22.3076 64.5185 22.2978 64.8213 22.3033 65.123C22.3076 65.4258 22.3249 65.7297 22.3616 66.0239C22.4006 66.3138 22.4481 66.6015 22.5314 66.8539Z" fill="#FFAA01"/>
<path d="M15.6644 63.685C15.5508 63.5228 15.3897 63.2898 15.1497 63.0471C14.9118 62.8045 14.5982 62.5522 14.2056 62.317C13.825 62.0765 13.3568 61.8617 12.7804 61.7136C12.589 61.6631 12.3825 61.6212 12.176 61.5794C11.9694 61.5364 11.7575 61.501 11.5369 61.4666C10.4512 61.3045 9.21847 61.2444 8.29176 61.1853C7.35206 61.1338 6.68164 61.123 6.68164 61.123C6.68164 61.123 6.91088 61.4076 7.30125 61.8295C7.67972 62.2558 8.26472 62.7819 8.91245 63.2941C9.0141 63.3703 9.11575 63.4455 9.21523 63.5228C9.26822 63.5604 9.31904 63.5969 9.37419 63.6355C9.42717 63.672 9.48232 63.7064 9.53639 63.7419C9.7559 63.8804 9.97974 64.0146 10.2068 64.1359C10.4317 64.2583 10.6588 64.37 10.8892 64.4634C11.1162 64.56 11.3379 64.6449 11.5715 64.6996C12.7848 64.9992 13.8423 64.8134 14.6025 64.5504C15.3692 64.2809 15.832 63.9523 15.832 63.9523C15.832 63.9523 15.779 63.8482 15.6644 63.685Z" fill="#FFAA01"/>
<path d="M16.0659 62.2856C16.2854 62.5315 16.493 62.714 16.6574 62.8224C16.8207 62.933 16.9288 62.9824 16.9288 62.9824C16.9288 62.9824 17.2921 62.5561 17.6392 61.8786C17.9939 61.1925 18.3508 60.2476 18.3432 59.2405C18.3475 58.8679 18.3064 58.4803 18.2307 58.1077C18.194 57.9219 18.1453 57.7383 18.0923 57.5558C18.0393 57.3797 17.995 57.1929 17.9377 57.0189C17.8436 56.7161 17.7376 56.4305 17.6328 56.175C17.6046 56.1116 17.5765 56.0494 17.5527 55.9871C17.5257 55.9259 17.5051 55.8668 17.4803 55.8067C17.4349 55.6896 17.3916 55.5823 17.3483 55.4835C17.1775 55.0873 17.0466 54.8468 17.0466 54.8468C17.0466 54.8468 16.7147 55.345 16.3276 56.1009C16.2292 56.2899 16.1275 56.4939 16.028 56.7118C15.9794 56.8203 15.9296 56.9341 15.882 57.0447C15.8334 57.1574 15.7923 57.2723 15.7447 57.3894C15.5717 57.8532 15.4171 58.3525 15.3132 58.8464C15.27 59.0365 15.2386 59.2265 15.2138 59.4101C15.1911 59.5937 15.1846 59.7709 15.1846 59.9416C15.1846 60.4774 15.2949 60.9423 15.4527 61.3385C15.6225 61.7304 15.8496 62.0397 16.0659 62.2856Z" fill="#FFAA01"/>
<path d="M7.5836 55.6283C7.81826 55.639 8.03886 55.6358 8.2454 55.6229C9.05858 55.5692 9.59709 55.3781 9.59709 55.3781C9.59709 55.3781 9.57654 55.2632 9.5149 55.0743C9.48571 54.9809 9.44138 54.8713 9.38839 54.7457C9.34081 54.6169 9.28024 54.4773 9.20238 54.3291C9.04342 54.0306 8.82608 53.701 8.51141 53.3745C8.43896 53.3005 8.35894 53.2199 8.26919 53.1276C8.18484 53.0438 8.09184 52.9622 7.99452 52.8806C7.7988 52.7185 7.57605 52.5607 7.32409 52.4103C7.06997 52.2622 6.79099 52.1204 6.48929 51.9841C6.2049 51.8445 5.8967 51.7124 5.58636 51.5825C4.96458 51.3269 4.31145 51.0939 3.71995 50.8942C3.1371 50.6902 2.62456 50.5163 2.24717 50.396C1.87194 50.2758 1.6416 50.207 1.6416 50.207C1.6416 50.207 1.72703 50.425 1.8914 50.775C1.9725 50.9501 2.06983 51.1637 2.19418 51.3903C2.32286 51.619 2.46777 51.8649 2.62889 52.1247C2.79001 52.3846 2.9695 52.653 3.15982 52.9225C3.2074 52.988 3.25607 53.0556 3.30798 53.1211C3.35772 53.1845 3.40962 53.2489 3.46693 53.3166C3.57398 53.4465 3.68643 53.5732 3.79997 53.6967C4.0303 53.9479 4.26928 54.1852 4.51475 54.3978C4.63802 54.5073 4.76021 54.6082 4.89106 54.7017C5.02298 54.7919 5.1549 54.8778 5.29007 54.9561C5.82425 55.2632 6.36061 55.4425 6.86127 55.5403C7.11214 55.5907 7.35544 55.6154 7.5836 55.6283Z" fill="#FFAA01"/>
<path d="M10 52.7671C10.0519 53.1805 10.1709 53.5434 10.3061 53.8387C10.3742 53.9869 10.4466 54.1168 10.5158 54.2295C10.5861 54.3423 10.6629 54.4357 10.7234 54.5087C10.8478 54.659 10.9354 54.7363 10.9354 54.7363C10.9354 54.7363 11.409 54.4239 11.9421 53.8634C12.0751 53.726 12.2092 53.5703 12.3466 53.4006C12.4893 53.2288 12.6255 53.043 12.7553 52.8466C13.0137 52.4514 13.2441 52.008 13.3901 51.5227C13.4279 51.4003 13.4549 51.2779 13.4852 51.1512C13.5155 51.0245 13.5404 50.8956 13.5631 50.7678C13.6042 50.5091 13.6312 50.2481 13.6388 49.9904C13.6474 49.4793 13.6561 48.9661 13.6182 48.5227C13.6009 48.2993 13.5782 48.0899 13.5534 47.9042C13.5382 47.7152 13.522 47.5477 13.5014 47.4103C13.4701 47.13 13.4366 46.9647 13.4366 46.9647C13.4366 46.9647 13.27 47.1032 13.0094 47.3469C12.7488 47.5885 12.392 47.9375 12.0124 48.3595C11.6459 48.775 11.262 49.2625 10.9289 49.7789C10.7581 50.0377 10.6023 50.3029 10.465 50.5702C10.3331 50.8322 10.2314 51.0953 10.1514 51.3541C10.0736 51.6086 10.0271 51.8577 10 52.0928C9.98706 52.212 9.97949 52.328 9.97949 52.4396C9.97949 52.4965 9.97949 52.5524 9.98166 52.606C9.98706 52.6586 9.99246 52.7123 10 52.7671Z" fill="#FFAA01"/>
<path d="M2.84936 44.984C3.07969 45.144 3.31217 45.2761 3.54358 45.3877C4.0064 45.6089 4.4573 45.7421 4.85199 45.8226C5.64462 45.9826 6.21667 45.9375 6.21667 45.9375C6.21667 45.9375 6.28371 45.4715 6.13449 44.823C6.10204 44.6587 6.03934 44.4858 5.98419 44.3022C5.9258 44.1165 5.849 43.9221 5.7506 43.7267C5.65328 43.528 5.52893 43.323 5.38079 43.1168C5.30618 43.0148 5.22724 42.9107 5.13857 42.8076C5.09423 42.756 5.04881 42.7045 5.00015 42.6508C4.9569 42.5993 4.91039 42.5488 4.85957 42.4951C4.08208 41.6619 2.82339 40.8061 1.8318 40.1104C1.32789 39.7668 0.871565 39.4704 0.539592 39.2568C0.207618 39.0442 0 38.9207 0 38.9207C0 38.9207 0.0281013 39.1515 0.0940636 39.5316C0.161107 39.9117 0.260614 40.4357 0.415247 41.0155C0.592588 41.5964 0.821821 42.2321 1.10513 42.8301C1.17326 42.9794 1.25435 43.1254 1.34086 43.2693C1.42629 43.4099 1.5139 43.5517 1.60473 43.6848C1.78748 43.9532 1.98428 44.2034 2.19298 44.4182C2.40708 44.6383 2.61687 44.8262 2.84936 44.984Z" fill="#FFAA01"/>
<path d="M7.68685 45.6641C7.68685 45.6641 8.23399 45.4848 8.90875 45.0821C9.25154 44.8792 9.62246 44.6236 9.97714 44.3122C10.1545 44.1544 10.3253 43.9848 10.4875 43.8001C10.6573 43.6133 10.8206 43.4135 10.9633 43.1977C11.1082 42.9808 11.2326 42.751 11.3429 42.5127C11.4532 42.2765 11.531 42.0338 11.6273 41.7858C11.8079 41.294 11.9279 40.8001 12.0133 40.3631C12.1215 39.9196 12.1853 39.532 12.2242 39.255C12.261 38.9758 12.2718 38.8083 12.2718 38.8083C12.2718 38.8083 12.076 38.8996 11.7592 39.0671C11.4424 39.2378 11.0109 39.4805 10.5319 39.7897C10.0582 40.0978 9.52621 40.4715 9.0742 40.8827C8.61247 41.294 8.18966 41.746 7.88147 42.2034C7.72252 42.4289 7.62303 42.6555 7.5322 42.8767C7.44894 43.0968 7.39055 43.3137 7.35162 43.523C7.3127 43.7303 7.29214 43.93 7.28998 44.1168C7.28349 44.3026 7.31271 44.4787 7.33758 44.6365C7.44896 45.2721 7.68685 45.6641 7.68685 45.6641Z" fill="#FFAA01"/>
<path d="M1.60535 30.8924C1.64319 31.1394 1.68859 31.3874 1.74265 31.6301C1.85944 32.1133 1.99679 32.5728 2.22279 32.9744C2.51043 33.508 2.86619 33.9311 3.24141 34.2661C3.61772 34.6 4.00159 34.8459 4.36492 35.0273C5.08942 35.3935 5.65391 35.502 5.65391 35.502C5.65391 35.502 5.70147 35.3946 5.74905 35.2045C5.79447 35.0113 5.86909 34.7407 5.89721 34.411C5.92857 34.0782 5.92207 33.6863 5.83556 33.2525C5.75987 32.8187 5.62254 32.3441 5.35221 31.8351C5.26245 31.6666 5.1608 31.4926 5.04942 31.3165C4.99536 31.2317 4.93804 31.1426 4.87856 31.0524C4.82233 30.9665 4.76396 30.8742 4.70664 30.7872C4.40603 30.3459 4.06756 29.8992 3.72585 29.4729C3.38631 29.0467 3.04245 28.6376 2.75481 28.2908C2.17088 27.5907 1.72861 27.1043 1.72861 27.1043C1.72861 27.1043 1.66048 27.4618 1.59019 28.018C1.54802 28.2972 1.53398 28.6301 1.52316 28.9908C1.51343 29.3516 1.51341 29.7446 1.53071 30.1451C1.5372 30.3888 1.56966 30.6422 1.60535 30.8924Z" fill="#FFAA01"/>
<path d="M11.0011 34.1276C11.0736 34.0675 11.1417 34.0009 11.2098 33.9365C11.2801 33.8678 11.3526 33.7991 11.4186 33.7293C11.5591 33.5897 11.6845 33.4415 11.8057 33.289C11.9235 33.1387 12.0371 32.983 12.1431 32.8252C12.2544 32.6577 12.355 32.5009 12.4512 32.3549C12.6264 32.0875 12.7778 31.8202 12.9086 31.5754C12.9746 31.4508 13.0341 31.3316 13.0882 31.221C13.1379 31.1072 13.2017 31.0063 13.2504 30.9086C13.4472 30.5274 13.5466 30.274 13.5466 30.274C13.5466 30.274 12.9389 30.3696 12.0836 30.5983C11.8749 30.6541 11.6402 30.7175 11.4131 30.7958C11.1828 30.8699 10.9438 30.9548 10.7027 31.0482C10.2204 31.235 9.7284 31.4573 9.27099 31.7107C8.91306 31.9061 8.61243 32.1273 8.33993 32.3581C7.92578 32.7135 7.62842 33.1033 7.43378 33.4823C7.24887 33.8635 7.15154 34.2318 7.10721 34.5507C7.06395 34.8717 7.05639 35.1391 7.08667 35.3302C7.11046 35.5203 7.14507 35.6309 7.14507 35.6309C7.14507 35.6309 7.71816 35.6029 8.47943 35.3936C9.23962 35.1863 10.2237 34.8084 11.0011 34.1276Z" fill="#FFAA01"/>
<path d="M6.19189 23.4997C6.46115 23.9238 6.76825 24.2674 7.05913 24.5401C7.6409 25.0824 8.15128 25.3379 8.15128 25.3379C8.15128 25.3379 8.22808 25.2466 8.33513 25.0802C8.44435 24.9116 8.57085 24.6604 8.69845 24.3511C8.83037 24.043 8.94067 23.6682 8.99257 23.228C9.01744 23.0122 9.01744 22.7728 9.01744 22.5269C9.01636 22.2788 8.99041 22.0168 8.94067 21.7377C8.88985 21.4596 8.81415 21.1654 8.7244 20.8647C8.67898 20.7144 8.62817 20.5598 8.57627 20.4073C8.52328 20.257 8.4746 20.1024 8.42053 19.9499C8.20643 19.3379 7.95447 18.7205 7.71766 18.1675C7.59763 17.8937 7.48518 17.6328 7.38246 17.3966C7.27973 17.1647 7.18781 16.9574 7.10995 16.7846C6.95532 16.4345 6.85799 16.2262 6.85799 16.2262C6.85799 16.2262 6.74339 16.4345 6.57794 16.7846C6.48819 16.9553 6.40493 17.1722 6.30977 17.4116C6.21677 17.6554 6.11835 17.9249 6.02319 18.2105C5.97778 18.3533 5.93127 18.5014 5.88261 18.6528C5.83936 18.8042 5.79395 18.9578 5.75935 19.1199C5.68906 19.4367 5.62958 19.7685 5.58524 20.0949C5.54199 20.4224 5.51172 20.7509 5.51172 21.0655C5.51713 21.3887 5.54741 21.7012 5.60364 21.9922C5.71827 22.5773 5.93129 23.0777 6.19189 23.4997Z" fill="#FFAA01"/>
<path d="M14.3827 25.0714C14.613 24.9318 14.839 24.775 15.0477 24.6129C15.2585 24.4475 15.4521 24.2768 15.6381 24.1072C15.8252 23.9386 16.0133 23.7733 16.1745 23.6122C16.3399 23.4511 16.487 23.2954 16.6178 23.1559C16.6827 23.0828 16.7443 23.0152 16.8005 22.954C16.8578 22.8917 16.9119 22.8359 16.9595 22.7833C17.1585 22.5728 17.2655 22.4407 17.2655 22.4407C17.2655 22.4407 17.046 22.4139 16.6794 22.3913C16.3161 22.3677 15.7992 22.343 15.2326 22.3624C14.6649 22.3817 14.0226 22.4332 13.3943 22.5363C13.2343 22.5632 13.0764 22.5921 12.9218 22.6243C12.7715 22.6619 12.6233 22.6995 12.4773 22.7425C12.1864 22.8262 11.9064 22.9271 11.6533 23.0431C11.3992 23.1559 11.1721 23.2858 10.971 23.4264C10.7666 23.566 10.6055 23.7239 10.4563 23.8785C10.1665 24.1942 9.96103 24.5195 9.81613 24.8126C9.6788 25.1057 9.61931 25.372 9.58471 25.5578C9.54794 25.7478 9.54688 25.8617 9.54688 25.8617C9.54688 25.8617 10.1049 25.9905 10.8986 25.9937C11.2976 25.998 11.7485 25.9701 12.2232 25.8863C12.7077 25.809 13.2094 25.6759 13.6917 25.4601C13.9296 25.3495 14.1577 25.2185 14.3827 25.0714Z" fill="#FFAA01"/>
<path d="M11.8736 14.3557C12.011 14.8314 12.2078 15.2405 12.41 15.5755C12.8144 16.2423 13.2297 16.6191 13.2297 16.6191C13.2297 16.6191 13.6384 16.355 14.0471 15.8181C14.1509 15.6829 14.2537 15.5315 14.351 15.3597C14.4494 15.1943 14.5532 15.0096 14.6397 14.8088C14.8171 14.4051 14.9479 13.9187 15.0009 13.3529C15.0636 12.7934 15.0517 12.1567 15.0052 11.5039C14.9555 10.8446 14.8971 10.1993 14.8268 9.60767C14.7543 9.01712 14.6787 8.49423 14.6235 8.1152C14.563 7.74154 14.5273 7.51068 14.5273 7.51068C14.5273 7.51068 14.4819 7.54935 14.4105 7.6331C14.3402 7.71577 14.2375 7.83389 14.112 7.98421C13.8612 8.287 13.5216 8.71111 13.1723 9.20932C12.8415 9.72364 12.5008 10.3121 12.2283 10.9123C11.9645 11.5254 11.7795 12.1632 11.7179 12.7473C11.7028 12.8954 11.6963 13.0372 11.6963 13.1789C11.6963 13.3196 11.7082 13.4592 11.7222 13.5944C11.7525 13.865 11.8066 14.1195 11.8736 14.3557Z" fill="#FFAA01"/>
<path d="M19.3292 17.9649C19.4579 17.9241 19.5822 17.8779 19.7109 17.8275C19.7714 17.8038 19.8331 17.7791 19.8958 17.7534C19.9607 17.7265 20.0212 17.704 20.085 17.6793C20.59 17.4785 21.0507 17.2315 21.4518 16.9996C21.866 16.7838 22.2067 16.5669 22.4478 16.4101C22.5689 16.3285 22.664 16.2609 22.7268 16.2169C22.797 16.1707 22.8327 16.1482 22.8327 16.1482C22.8327 16.1482 22.7808 16.1299 22.6857 16.0923C22.5884 16.0558 22.4521 16.0086 22.2823 15.9538C21.9428 15.8432 21.4594 15.6982 20.9015 15.5662C20.6203 15.5007 20.324 15.4373 20.0137 15.3826C19.8601 15.3579 19.7022 15.331 19.5465 15.3096C19.3897 15.2913 19.2329 15.2752 19.0772 15.2623C18.4468 15.2097 17.8153 15.2118 17.2541 15.301C16.7015 15.3933 16.2495 15.5866 15.8732 15.8067C15.684 15.9184 15.5131 16.0375 15.3693 16.1632C15.2244 16.2899 15.1043 16.4209 14.9995 16.5454C14.5745 17.0469 14.4307 17.4763 14.4307 17.4763C14.4307 17.4763 14.9346 17.7469 15.7045 17.9574C16.0884 18.0647 16.5371 18.1571 17.0194 18.2011C17.5038 18.2473 18.0056 18.2301 18.5409 18.1539C18.8101 18.112 19.0718 18.0454 19.3292 17.9649Z" fill="#FFAA01"/>
<path d="M20.792 8.90173C20.8926 9.11433 20.9629 9.23242 20.9629 9.23242C20.9629 9.23242 20.9931 9.22385 21.044 9.20023C21.097 9.1809 21.1715 9.15083 21.2656 9.1068C21.4527 9.02091 21.7079 8.88562 21.9837 8.67946C22.5232 8.25856 23.1893 7.6358 23.6143 6.56529C23.7592 6.21418 23.8911 5.82869 24.0025 5.41638C24.1442 4.90421 24.261 4.35878 24.3626 3.82835C24.4697 3.31082 24.5627 2.80507 24.6384 2.3584C24.7876 1.46935 24.8687 0.828331 24.8687 0.827257C24.8687 0.827257 24.5486 1.01947 24.0707 1.35125C23.8349 1.51446 23.557 1.71417 23.264 1.94073C22.9774 2.1791 22.6757 2.44539 22.3794 2.72993C22.1956 2.90602 22.0183 3.08746 21.8452 3.27429C21.8031 3.32154 21.7577 3.36771 21.7155 3.41603C21.6766 3.46435 21.6354 3.51373 21.5944 3.56527C21.5165 3.6662 21.4397 3.76714 21.3619 3.86914C21.0634 4.27501 20.8104 4.69485 20.6363 5.11038C20.5195 5.37882 20.447 5.66334 20.3962 5.92748C20.3476 6.19376 20.3227 6.45148 20.3194 6.69843C20.3086 7.19128 20.38 7.63365 20.4784 8.00838C20.5746 8.38526 20.6947 8.68806 20.792 8.90173Z" fill="#FFAA01"/>
<path d="M27.9654 11.9648C28.2898 11.9025 28.5948 11.8274 28.8749 11.7544C29.1571 11.691 29.4134 11.6234 29.6275 11.5622C30.0524 11.4387 30.3152 11.3356 30.3152 11.3356C30.3152 11.3356 29.8318 10.9705 29.0879 10.526C28.7191 10.3048 28.2823 10.0622 27.8054 9.83776C27.3382 9.61872 26.8398 9.42438 26.3402 9.27405C25.9552 9.16131 25.5702 9.07219 25.2069 9.03354C24.0985 8.93476 23.2237 9.25041 22.6809 9.63159C22.403 9.81627 22.1986 10.002 22.0613 10.1405C21.9932 10.2093 21.9423 10.2683 21.9099 10.308C21.8774 10.3521 21.8623 10.3746 21.8623 10.3746C21.8623 10.3746 21.9618 10.4723 22.1478 10.6205C22.3338 10.7687 22.6063 10.9684 22.9447 11.1713C23.2832 11.3786 23.6876 11.5869 24.1364 11.7587C24.3624 11.8424 24.6003 11.9208 24.8458 11.9777C25.0912 12.04 25.3432 12.0808 25.6135 12.1162C26.3975 12.2129 27.2106 12.0861 27.9654 11.9648Z" fill="#FFAA01"/>
<path d="M39.5433 74.6966C39.3303 74.6708 39.0664 74.6397 38.7691 74.6042C38.6177 74.5817 38.4576 74.572 38.2911 74.5409C38.1257 74.5119 37.9505 74.4808 37.7688 74.4486C37.4023 74.3874 37.0065 74.3208 36.5858 74.2488C36.1706 74.1576 35.7337 74.0609 35.2828 73.9643C35.0536 73.9106 34.8221 73.8677 34.5929 73.8054C34.3637 73.742 34.1312 73.6798 33.8954 73.6153C33.4272 73.4854 32.946 73.3705 32.4799 73.2084C30.5843 72.6458 28.772 71.8673 27.4355 71.2478C27.1078 71.0856 26.8007 70.9364 26.5336 70.8064C26.3974 70.741 26.2741 70.6787 26.1584 70.6218C26.0427 70.5627 25.94 70.5026 25.8459 70.4532C25.4685 70.246 25.2566 70.1268 25.2566 70.1268C25.2566 70.1268 25.0425 70.0108 24.664 69.8036C24.2909 69.5899 23.7751 69.2614 23.1501 68.8813C21.9249 68.0813 20.3191 66.9614 18.8539 65.6837C17.3822 64.4113 16.0305 63.0219 15.0789 61.9321C14.9535 61.8022 14.8486 61.6647 14.7415 61.5369C14.6366 61.4092 14.5393 61.2911 14.4452 61.1762C14.2582 60.9507 14.0949 60.752 13.9608 60.5878C13.8245 60.4278 13.7315 60.2903 13.6645 60.2012C13.5974 60.1089 13.5596 60.0627 13.5596 60.0627C13.5596 60.0627 13.418 59.8705 13.166 59.5312C13.0427 59.3626 12.8827 59.1618 12.7183 58.9192C12.5561 58.6765 12.3701 58.4017 12.1712 58.1032C12.0695 57.955 11.9646 57.7993 11.8586 57.6372C11.7483 57.4761 11.6532 57.3011 11.5451 57.1271C11.3299 56.7728 11.1093 56.4002 10.8789 56.0147C10.6692 55.6196 10.4486 55.2116 10.2258 54.7971C10.1685 54.693 10.1134 54.5888 10.0571 54.4857C10.0074 54.3773 9.95871 54.2699 9.90572 54.1636C9.80408 53.9478 9.70245 53.7331 9.59864 53.5162C8.7952 51.7875 8.13016 49.9986 7.7506 48.6232C7.6987 48.4525 7.65114 48.2882 7.60356 48.1325C7.55814 47.9779 7.51163 47.8308 7.48243 47.6912C7.41539 47.4099 7.3516 47.1629 7.30619 46.9611C7.20886 46.5573 7.15045 46.3265 7.15045 46.3265C7.15045 46.3265 7.13749 46.2685 7.10937 46.1601C7.08558 46.0538 7.05854 45.8916 7.01853 45.6865C6.98068 45.4836 6.93527 45.2377 6.88444 44.9521C6.83146 44.6697 6.75901 44.3497 6.72116 43.9954C6.67358 43.6432 6.62277 43.2621 6.56978 42.8583C6.55681 42.7585 6.54057 42.6554 6.52976 42.5523C6.5157 42.4492 6.51029 42.344 6.50056 42.2356C6.4865 42.024 6.46596 41.805 6.44974 41.5838C6.35674 40.6991 6.35676 39.752 6.32756 38.8061C6.35676 37.858 6.35674 36.9109 6.44974 36.0262C6.46596 35.8061 6.4865 35.5881 6.50056 35.3755C6.51029 35.2681 6.5157 35.1629 6.52976 35.0598C6.54057 34.9557 6.55681 34.8526 6.56978 34.7517C6.62277 34.349 6.67358 33.9657 6.72116 33.6146C6.75901 33.2603 6.83146 32.9435 6.88444 32.6579C6.93527 32.3744 6.98068 32.1275 7.01853 31.9235C7.05854 31.7194 7.08558 31.5573 7.10937 31.4499C7.13749 31.3415 7.15045 31.2835 7.15045 31.2835C7.15045 31.2835 7.20886 31.0537 7.30619 30.65C7.3516 30.4481 7.41539 30.2034 7.48243 29.921C7.51163 29.7814 7.55814 29.6321 7.60356 29.4764C7.65114 29.3207 7.6987 29.1586 7.7506 28.9868C8.13016 27.6135 8.7952 25.8247 9.59864 24.0938C9.70245 23.8801 9.80408 23.6611 9.90572 23.4474C9.95871 23.339 10.0074 23.2348 10.0571 23.1264C10.1134 23.0222 10.1685 22.9181 10.2258 22.8118C10.4486 22.3973 10.6692 21.9893 10.8789 21.5952C11.1093 21.2108 11.3299 20.8383 11.5451 20.4839C11.6532 20.3111 11.7483 20.135 11.8586 19.9739C11.9646 19.8118 12.0695 19.6571 12.1712 19.5068C12.3701 19.2083 12.5561 18.9335 12.7183 18.6919C12.8827 18.4503 13.0427 18.2495 13.166 18.0799C13.418 17.7406 13.5596 17.5494 13.5596 17.5494C13.5596 17.5494 13.5974 17.5011 13.6645 17.4098C13.7315 17.3207 13.8245 17.1833 13.9608 17.0233C14.0949 16.8601 14.2582 16.6625 14.4452 16.4349C14.5393 16.3211 14.6366 16.2008 14.7415 16.0709C14.8486 15.9463 14.9535 15.81 15.0789 15.6779C16.0305 14.5902 17.3822 13.1997 18.8539 11.9263C20.3191 10.6496 21.9249 9.5308 23.1501 8.72765C23.7751 8.34863 24.2909 8.02006 24.664 7.80853C25.0425 7.6013 25.2566 7.48211 25.2566 7.48211C25.2566 7.48211 25.4685 7.3651 25.8459 7.15787C25.94 7.10741 26.0427 7.05156 26.1584 6.98821C26.2741 6.93238 26.3974 6.8701 26.5336 6.8046C26.6244 6.75951 26.7175 6.71441 26.8148 6.66717C26.8223 6.66717 26.8299 6.66717 26.8386 6.66717C27.0775 6.68864 27.416 6.69936 27.8129 6.67789C28.6141 6.64246 29.6501 6.47818 30.5627 5.98211C31.0353 5.7416 31.4808 5.4152 31.8679 5.06302C32.0571 4.88371 32.254 4.70547 32.4367 4.52723C32.6173 4.35114 32.7827 4.17288 32.9352 4.00108C33.225 3.65534 33.4964 3.35684 33.6738 3.1335C33.8489 2.9091 33.9484 2.76952 33.9484 2.76952C33.9484 2.76952 33.7289 2.75984 33.3656 2.7577C33.0023 2.75448 32.4918 2.76521 31.9166 2.81031C31.7717 2.8232 31.6225 2.83395 31.4721 2.8522C31.3229 2.87045 31.1715 2.89086 31.0201 2.91556C30.7152 2.96173 30.4038 3.02077 30.0956 3.09271C29.4825 3.23766 28.8607 3.4245 28.3849 3.68971C27.8983 3.95171 27.5241 4.26952 27.2387 4.59486C26.9651 4.9245 26.7942 5.26595 26.6699 5.56767C26.5552 5.86831 26.4936 6.13245 26.4709 6.3225C26.4644 6.36008 26.4633 6.39444 26.4612 6.42665C26.4255 6.44491 26.3898 6.46423 26.353 6.47819C26.2189 6.54691 26.0924 6.60811 25.9735 6.66609C25.8599 6.72837 25.754 6.78526 25.6577 6.83788C25.2803 7.04617 25.0641 7.16644 25.0641 7.16644C25.0641 7.16644 24.8456 7.28455 24.465 7.49286C24.0919 7.7076 23.5697 8.03831 22.9349 8.42485C21.6968 9.23122 20.0769 10.364 18.5944 11.6546C17.1097 12.9388 15.7461 14.3433 14.7815 15.4428C14.6561 15.5759 14.5512 15.7155 14.4452 15.8422C14.336 15.971 14.2376 16.0924 14.1446 16.2083C13.9554 16.437 13.7899 16.6367 13.6559 16.8021C13.5174 16.9642 13.4244 17.1028 13.3542 17.193C13.2871 17.2831 13.2493 17.3315 13.2493 17.3315C13.2493 17.3315 13.1044 17.528 12.8503 17.8673C12.7259 18.0412 12.5648 18.2431 12.3982 18.4857C12.2317 18.7327 12.0479 19.0097 11.8468 19.3103C11.7419 19.4617 11.6391 19.6185 11.5288 19.7817C11.4218 19.9449 11.3223 20.1232 11.2109 20.2992C11.0001 20.6536 10.7719 21.0305 10.5405 21.4213C10.3264 21.8186 10.1047 22.2309 9.88194 22.6507C9.82571 22.757 9.76841 22.8612 9.7111 22.9675C9.66136 23.0738 9.60836 23.1822 9.55862 23.2907C9.45589 23.5086 9.35209 23.7277 9.25045 23.9456C8.43511 25.6926 7.76143 27.4997 7.38187 28.8869C7.32781 29.0598 7.28022 29.2241 7.2348 29.383C7.18722 29.5419 7.13749 29.688 7.10829 29.8318C7.04017 30.1142 6.97852 30.3633 6.93202 30.5673C6.83145 30.9732 6.77523 31.2073 6.77523 31.2073C6.77523 31.2073 6.76118 31.2663 6.73523 31.3748C6.7082 31.4843 6.68223 31.6475 6.64222 31.8526C6.60546 32.0588 6.55679 32.31 6.50489 32.5967C6.45407 32.8823 6.38053 33.2055 6.34052 33.563C6.29294 33.9184 6.24105 34.3039 6.18806 34.7109C6.17617 34.8139 6.15888 34.917 6.14698 35.0201C6.13401 35.1275 6.1286 35.2338 6.11779 35.3401C6.10157 35.5548 6.08532 35.7728 6.06694 36.0015C5.97286 36.8916 5.97287 37.8483 5.94043 38.8061C5.97287 39.7628 5.97286 40.7184 6.06694 41.6128C6.08532 41.8361 6.10157 42.0541 6.11779 42.271C6.1286 42.3794 6.13401 42.4857 6.14698 42.5878C6.15888 42.693 6.17617 42.7993 6.18806 42.9002C6.24105 43.3061 6.29294 43.6948 6.34052 44.0491C6.38053 44.4045 6.45407 44.7277 6.50489 45.0154C6.55679 45.3021 6.60546 45.5502 6.64222 45.7574C6.68223 45.9636 6.7082 46.1257 6.73523 46.2363C6.76118 46.3447 6.77523 46.4027 6.77523 46.4027C6.77523 46.4027 6.83145 46.6357 6.93202 47.0427C6.97852 47.2467 7.04017 47.4968 7.10829 47.7782C7.13749 47.921 7.18722 48.0713 7.2348 48.227C7.28022 48.3859 7.32781 48.5502 7.38187 48.7241C7.76143 50.1114 8.43511 51.9174 9.25045 53.6676C9.35209 53.8834 9.45589 54.1024 9.55862 54.3193C9.60836 54.4289 9.66136 54.5362 9.7111 54.6436C9.76841 54.7467 9.82571 54.8551 9.88194 54.9604C10.1047 55.378 10.3264 55.7903 10.5405 56.1898C10.7719 56.5785 11.0001 56.9553 11.2109 57.3107C11.3223 57.4879 11.4218 57.6651 11.5288 57.8294C11.6391 57.9904 11.7419 58.1504 11.8468 58.3007C12.0479 58.6014 12.2317 58.8795 12.3982 59.1243C12.5648 59.368 12.7259 59.571 12.8503 59.7427C13.1044 60.0831 13.2493 60.2785 13.2493 60.2785C13.2493 60.2785 13.2871 60.3279 13.3542 60.4192C13.4244 60.5094 13.5174 60.6468 13.6559 60.809C13.7899 60.9732 13.9554 61.174 14.1446 61.4049C14.2376 61.5187 14.336 61.6411 14.4452 61.7689C14.5512 61.8934 14.6561 62.0351 14.7815 62.1683C15.7461 63.2689 17.1097 64.6722 18.5944 65.9564C20.0769 67.2449 21.6968 68.3766 22.9349 69.1873C23.5697 69.5727 24.0919 69.9024 24.465 70.1182C24.8456 70.3276 25.0641 70.4446 25.0641 70.4446C25.0641 70.4446 25.2803 70.566 25.6577 70.7721C25.754 70.8247 25.8599 70.8827 25.9735 70.945C26.0924 71.0029 26.2189 71.0641 26.353 71.1296C26.6245 71.2628 26.9305 71.4131 27.2657 71.5774C28.6163 72.2023 30.4481 72.9883 32.3621 73.5574C32.8325 73.7206 33.318 73.8355 33.7938 73.9675C34.0274 74.033 34.2642 74.0974 34.4967 74.1597C34.7259 74.2241 34.9606 74.266 35.1898 74.3197C35.6472 74.4196 36.0906 74.5162 36.509 74.6096C36.9319 74.6805 37.333 74.7481 37.7029 74.8115C37.8878 74.8426 38.063 74.8748 38.2306 74.9027C38.4014 74.935 38.5625 74.9468 38.7128 74.9682C39.0167 75.0047 39.2806 75.0348 39.499 75.0627C39.9315 75.1164 40.1802 75.1465 40.1802 75.1465L40.2202 74.7793C40.2202 74.7793 39.9726 74.7503 39.5433 74.6966Z" fill="#FFAA01"/>
<path d="M35.2832 74.3424C35.2832 74.3424 40.5072 75.6653 41.6815 80.4434L41.5345 74.8138L35.6314 74.0439L35.2832 74.3424Z" fill="#FFAA01"/>
<path d="M58.355 73.8755C58.5875 73.8733 58.8319 73.8883 59.0925 73.9227C59.1573 73.9334 59.2201 73.9442 59.2882 73.956C59.3531 73.9656 59.4212 73.9775 59.4915 73.9882C59.6223 74.014 59.7629 74.0462 59.9046 74.0838C60.4733 74.2362 61.0919 74.4853 61.7136 74.7699C62.3235 75.0351 62.9388 75.3346 63.4892 75.616C64.0407 75.8962 64.5273 76.1646 64.8723 76.345C65.2161 76.5276 65.4227 76.6446 65.4227 76.6446C65.4227 76.6446 65.3686 76.6639 65.2626 76.7037C65.1545 76.738 65.0085 76.7981 64.8139 76.8508C64.4257 76.9603 63.8839 77.1031 63.2697 77.2255C63.1151 77.2566 62.9594 77.291 62.7961 77.3135C62.6317 77.3382 62.463 77.3565 62.2933 77.3748C61.9548 77.4102 61.6088 77.437 61.2627 77.4456C60.5782 77.4746 59.8819 77.3887 59.2871 77.2255C58.0987 76.9044 57.2888 76.1775 56.7903 75.573C56.2864 74.9653 56.0723 74.4542 56.0723 74.4542C56.0723 74.4542 56.4799 74.1922 57.1579 74.0354C57.4975 73.9549 57.8954 73.8755 58.355 73.8755Z" fill="#FFAA01"/>
<path d="M56.5336 69.1774C56.8104 68.7382 57.1792 68.356 57.5576 67.9802C57.749 67.7933 57.9469 67.6237 58.1437 67.4648C58.2443 67.3842 58.3448 67.3091 58.4368 67.2361C58.5297 67.1577 58.6238 67.0825 58.7168 67.0117C59.0802 66.7303 59.4143 66.5049 59.6608 66.3535C59.8977 66.1892 60.048 66.099 60.048 66.099C60.048 66.099 60.0512 66.3116 60.0372 66.6616C60.0307 67.0192 59.9896 67.4906 59.9139 68.0328C59.836 68.575 59.7181 69.1806 59.543 69.7733C59.3635 70.3467 59.1256 70.905 58.8358 71.3678C58.7623 71.4838 58.6855 71.5933 58.6087 71.6953C58.5698 71.7479 58.5287 71.7951 58.4865 71.8424C58.4476 71.8885 58.4043 71.9326 58.3621 71.9755C58.1924 72.1452 58.0129 72.2901 57.8334 72.4136C57.656 72.5382 57.4776 72.6434 57.3024 72.7261C57.1294 72.8087 56.9618 72.8828 56.7985 72.9258C56.153 73.1072 55.6761 73.0761 55.6761 73.0761C55.6761 73.0761 55.6047 72.5274 55.6836 71.7715C55.7237 71.3925 55.7972 70.9619 55.9313 70.5217C55.9637 70.4122 56.0016 70.2994 56.0437 70.1899C56.0848 70.0761 56.1303 69.9612 56.1789 69.8474C56.2773 69.6219 56.3973 69.3953 56.5336 69.1774Z" fill="#FFAA01"/>
<path d="M65.737 70.4767C65.7792 70.4391 65.8397 70.3886 65.9165 70.3221C66.0701 70.1889 66.2993 70.0129 66.5978 69.8453C66.7502 69.7595 66.9189 69.6778 67.1071 69.6027C67.2909 69.5264 67.4974 69.4599 67.7148 69.3912C68.1506 69.2645 68.6631 69.185 69.2633 69.1968C69.5628 69.2043 69.8721 69.2194 70.1965 69.2505C70.5176 69.2816 70.8507 69.3278 71.187 69.3826C71.5255 69.4363 71.8639 69.5007 72.1959 69.563C72.5181 69.6285 72.8393 69.6929 73.1442 69.7541C73.7487 69.8819 74.2872 70.0043 74.6733 70.0966C75.0572 70.19 75.294 70.2523 75.294 70.2523C75.294 70.2523 75.0939 70.3887 74.7576 70.598C74.5868 70.7043 74.3856 70.8257 74.1542 70.9577C74.0385 71.0232 73.9185 71.092 73.792 71.1617C73.6622 71.2294 73.5259 71.2949 73.3821 71.3615C73.0988 71.4935 72.7971 71.6256 72.4835 71.7523C72.3268 71.8124 72.1678 71.8726 72.0056 71.9295C71.9245 71.9606 71.8445 71.9896 71.7634 72.0154C71.6812 72.0379 71.599 72.0626 71.5147 72.0862C70.8453 72.2677 70.1695 72.3869 69.5585 72.3847C68.302 72.3493 67.3342 71.8833 66.6832 71.4313C66.3577 71.2101 66.1079 70.9803 65.936 70.8117C65.7662 70.6442 65.6797 70.5347 65.6797 70.5347C65.6797 70.5347 65.6981 70.5143 65.737 70.4767Z" fill="#FFAA01"/>
<path d="M67.4695 66.8539C67.3127 67.3617 67.0726 67.7826 66.8012 68.1187C66.6682 68.2927 66.5233 68.4322 66.3763 68.5525C66.226 68.6749 66.0821 68.778 65.9394 68.8682C65.6593 69.0453 65.3987 69.157 65.216 69.2268C65.1251 69.2622 65.0462 69.2794 64.9932 69.2923C64.9381 69.3052 64.9078 69.3105 64.9078 69.3105C64.9078 69.3105 64.8516 69.1828 64.7813 68.9648C64.7056 68.7447 64.6212 68.4344 64.5488 68.0554C64.4028 67.2995 64.3422 66.3073 64.6396 65.3367C64.7802 64.8385 65.0148 64.3585 65.2895 63.9151C65.5566 63.4662 65.8486 63.0389 66.1351 62.6856C66.2811 62.5117 66.4076 62.3367 66.5287 62.1874C66.6498 62.036 66.7623 61.9072 66.8564 61.7998C67.0445 61.584 67.1689 61.4637 67.1689 61.4637C67.1689 61.4637 67.2294 61.6667 67.3095 62.0038C67.3927 62.341 67.4922 62.8177 67.5755 63.3599C67.6165 63.6337 67.6533 63.9279 67.6739 64.2254C67.6944 64.5185 67.7031 64.8213 67.6977 65.123C67.6944 65.4258 67.6739 65.7297 67.6393 66.0239C67.6003 66.3138 67.5528 66.6015 67.4695 66.8539Z" fill="#FFAA01"/>
<path d="M74.3367 63.685C74.4502 63.5228 74.6124 63.2898 74.8503 63.0471C75.0882 62.8045 75.4018 62.5522 75.7943 62.317C76.1739 62.0765 76.6432 61.8617 77.2195 61.7136C77.4098 61.6631 77.6164 61.6212 77.824 61.5794C78.0284 61.5364 78.2446 61.501 78.4631 61.4666C79.5488 61.3045 80.7815 61.2444 81.7082 61.1853C82.6458 61.1338 83.3194 61.123 83.3194 61.123C83.3194 61.123 83.0891 61.4076 82.6987 61.8295C82.3213 62.2558 81.7353 62.7819 81.0886 63.2941C80.9859 63.3703 80.8864 63.4455 80.7836 63.5228C80.7328 63.5604 80.6809 63.5969 80.6279 63.6355C80.5739 63.672 80.5176 63.7064 80.4657 63.7419C80.2441 63.8804 80.0213 64.0146 79.7932 64.1359C79.5682 64.2583 79.3401 64.37 79.1119 64.4634C78.8848 64.56 78.661 64.6449 78.4296 64.6996C77.2152 64.9992 76.1577 64.8134 75.3975 64.5504C74.6308 64.2809 74.168 63.9523 74.168 63.9523C74.168 63.9523 74.221 63.8482 74.3367 63.685Z" fill="#FFAA01"/>
<path d="M73.9347 62.2875C73.7142 62.5334 73.5087 62.7159 73.3422 62.8244C73.1789 62.935 73.0718 62.9844 73.0718 62.9844C73.0718 62.9844 72.7074 62.5581 72.3635 61.8806C72.0078 61.1945 71.6509 60.2496 71.6563 59.2424C71.6542 58.8698 71.691 58.4822 71.7721 58.1096C71.8077 57.9239 71.8532 57.7403 71.9072 57.5577C71.9635 57.3816 72.0056 57.1948 72.0629 57.0209C72.157 56.7181 72.263 56.4325 72.3668 56.1769C72.396 56.1136 72.4241 56.0513 72.4479 55.989C72.4738 55.9278 72.4965 55.8688 72.5182 55.8086C72.5658 55.6916 72.6101 55.5842 72.6523 55.4854C72.8231 55.0892 72.954 54.8487 72.954 54.8487C72.954 54.8487 73.2859 55.3469 73.6731 56.1028C73.7715 56.2918 73.871 56.4958 73.9726 56.7138C74.0202 56.8222 74.071 56.936 74.1197 57.0466C74.164 57.1594 74.2094 57.2743 74.2527 57.3913C74.4289 57.8552 74.5825 58.3544 74.6884 58.8484C74.7285 59.0384 74.762 59.2285 74.7847 59.4121C74.8096 59.5957 74.816 59.7728 74.816 59.9436C74.8139 60.4794 74.7079 60.9443 74.5479 61.3405C74.3781 61.7324 74.1521 62.0416 73.9347 62.2875Z" fill="#FFAA01"/>
<path d="M82.4166 55.6264C82.1798 55.6371 81.9613 55.6339 81.757 55.621C80.9427 55.5673 80.4053 55.3762 80.4053 55.3762C80.4053 55.3762 80.4226 55.2613 80.482 55.0723C80.5145 54.9789 80.5599 54.8694 80.6097 54.7437C80.6572 54.6149 80.721 54.4753 80.8011 54.3271C80.9546 54.0286 81.1752 53.699 81.4855 53.3726C81.559 53.2985 81.6402 53.218 81.7321 53.1256C81.8164 53.0419 81.9073 52.9603 82.0046 52.8787C82.2014 52.7165 82.4241 52.5587 82.6761 52.4084C82.9313 52.2602 83.2103 52.1185 83.5077 51.9821C83.7975 51.8425 84.1013 51.7105 84.4138 51.5805C85.0367 51.325 85.6887 51.092 86.2813 50.8923C86.8631 50.6883 87.3767 50.5143 87.7541 50.3941C88.1272 50.2738 88.3597 50.2051 88.3597 50.2051C88.3597 50.2051 88.2732 50.4231 88.1099 50.7731C88.0266 50.9481 87.9325 51.1618 87.8049 51.3883C87.6784 51.617 87.5335 51.8629 87.3703 52.1228C87.2102 52.3826 87.0307 52.651 86.8393 52.9206C86.7906 52.9861 86.7442 53.0537 86.6944 53.1192C86.6403 53.1825 86.5906 53.247 86.5322 53.3146C86.4262 53.4445 86.3138 53.5712 86.2013 53.6947C85.971 53.946 85.7309 54.1833 85.4854 54.3959C85.3622 54.5054 85.24 54.6063 85.1102 54.6997C84.9793 54.7899 84.8453 54.8758 84.7112 54.9542C84.1759 55.2613 83.6406 55.4406 83.1367 55.5383C82.888 55.5888 82.6448 55.6135 82.4166 55.6264Z" fill="#FFAA01"/>
<path d="M80.0032 52.7671C79.9491 53.1805 79.8301 53.5434 79.695 53.8387C79.6258 53.9869 79.5576 54.1168 79.4852 54.2295C79.4138 54.3423 79.3392 54.4357 79.2776 54.5087C79.15 54.659 79.0656 54.7363 79.0656 54.7363C79.0656 54.7363 78.592 54.4239 78.0589 53.8634C77.9259 53.726 77.7951 53.5703 77.6545 53.4006C77.515 53.2288 77.3744 53.043 77.2479 52.8466C76.9884 52.4514 76.7581 52.008 76.6099 51.5227C76.5753 51.4003 76.5461 51.2779 76.5158 51.1512C76.4856 51.0245 76.4607 50.8956 76.439 50.7678C76.3958 50.5091 76.3709 50.2481 76.3601 49.9904C76.3525 49.4793 76.3472 48.9661 76.3818 48.5227C76.3991 48.2993 76.4228 48.0899 76.4466 47.9042C76.4607 47.7152 76.4791 47.5477 76.4985 47.4103C76.532 47.13 76.5645 46.9647 76.5645 46.9647C76.5645 46.9647 76.731 47.1032 76.9905 47.3469C77.2522 47.5885 77.6091 47.9375 77.9908 48.3595C78.3563 48.775 78.7391 49.2625 79.0743 49.7789C79.243 50.0377 79.3998 50.3029 79.5382 50.5702C79.668 50.8322 79.7685 51.0953 79.8496 51.3541C79.9275 51.6086 79.975 51.8577 80.001 52.0928C80.0129 52.212 80.0216 52.328 80.0226 52.4396C80.0226 52.4965 80.0226 52.5524 80.0183 52.606C80.0151 52.6586 80.0086 52.7123 80.0032 52.7671Z" fill="#FFAA01"/>
<path d="M87.1531 44.984C86.9238 45.144 86.6881 45.2761 86.4556 45.3877C85.9949 45.6089 85.5408 45.7421 85.145 45.8226C84.3545 45.9826 83.7847 45.9375 83.7847 45.9375C83.7847 45.9375 83.7176 45.4715 83.8658 44.823C83.9004 44.6587 83.9577 44.4858 84.0171 44.3022C84.0755 44.1165 84.1534 43.9221 84.2507 43.7267C84.3513 43.528 84.4702 43.323 84.6205 43.1168C84.693 43.0148 84.7752 42.9107 84.8638 42.8076C84.9071 42.756 84.9525 42.7045 85.0012 42.6508C85.0444 42.5993 85.0931 42.5488 85.1428 42.4951C85.9203 41.6619 87.1801 40.8061 88.1695 40.1104C88.6734 39.7668 89.1297 39.4704 89.4606 39.2568C89.7948 39.0442 90.0002 38.9207 90.0002 38.9207C90.0002 38.9207 89.9721 39.1515 89.9073 39.5316C89.8402 39.9117 89.7407 40.4357 89.5861 41.0155C89.4087 41.5964 89.1795 42.2321 88.894 42.8301C88.8281 42.9794 88.7459 43.1254 88.6604 43.2693C88.5729 43.4099 88.4853 43.5517 88.3955 43.6848C88.215 43.9532 88.0159 44.2034 87.8094 44.4182C87.5964 44.6383 87.3855 44.8262 87.1531 44.984Z" fill="#FFAA01"/>
<path d="M82.3136 45.6641C82.3136 45.6641 81.7685 45.4848 81.0894 45.0821C80.751 44.8792 80.3779 44.6236 80.0243 44.3122C79.848 44.1544 79.6729 43.9848 79.5128 43.8001C79.342 43.6133 79.1819 43.4135 79.037 43.1977C78.89 42.9808 78.7667 42.751 78.6607 42.5127C78.5494 42.2765 78.4693 42.0338 78.3709 41.7858C78.1904 41.294 78.0703 40.8001 77.9871 40.3631C77.8778 39.9196 77.814 39.532 77.7762 39.255C77.7405 38.9758 77.7275 38.8083 77.7275 38.8083C77.7275 38.8083 77.9243 38.8996 78.239 39.0671C78.5569 39.2378 78.9895 39.4805 79.4674 39.7897C79.941 40.0978 80.4763 40.4715 80.9251 40.8827C81.3868 41.294 81.8107 41.746 82.1189 42.2034C82.2768 42.4289 82.3784 42.6555 82.4671 42.8767C82.5514 43.0968 82.6087 43.3137 82.6498 43.523C82.6877 43.7303 82.705 43.93 82.7104 44.1168C82.718 44.3026 82.6877 44.4787 82.6628 44.6365C82.5514 45.2721 82.3136 45.6641 82.3136 45.6641Z" fill="#FFAA01"/>
<path d="M88.3945 30.8924C88.3589 31.1394 88.3145 31.3874 88.2583 31.6301C88.1436 32.1133 88.0063 32.5728 87.7781 32.9744C87.4905 33.508 87.1304 33.9311 86.7574 34.2661C86.3832 34.6 85.9994 34.8459 85.6349 35.0273C84.9115 35.3935 84.347 35.502 84.347 35.502C84.347 35.502 84.3016 35.3946 84.2519 35.2045C84.2065 35.0113 84.1318 34.7407 84.1026 34.411C84.0723 34.0782 84.0778 33.6863 84.1653 33.2525C84.241 32.8187 84.3784 32.3441 84.6487 31.8351C84.7352 31.6666 84.8379 31.4926 84.9493 31.3165C85.0056 31.2317 85.0618 31.1426 85.1224 31.0524C85.1786 30.9665 85.237 30.8742 85.2954 30.7872C85.5938 30.3459 85.9345 29.8992 86.2773 29.4729C86.6125 29.0467 86.9617 28.6376 87.2472 28.2908C87.8322 27.5907 88.2712 27.1043 88.2712 27.1043C88.2712 27.1043 88.3405 27.4618 88.4107 28.018C88.454 28.2972 88.4648 28.6301 88.4778 28.9908C88.4886 29.3516 88.4886 29.7446 88.4724 30.1451C88.4637 30.3888 88.4335 30.6422 88.3945 30.8924Z" fill="#FFAA01"/>
<path d="M78.9998 34.1276C78.9274 34.0675 78.8603 34.0009 78.7922 33.9365C78.7208 33.8678 78.6505 33.7991 78.5802 33.7293C78.4461 33.5897 78.3164 33.4415 78.1953 33.289C78.0763 33.1387 77.9639 32.983 77.8579 32.8252C77.7465 32.6577 77.6438 32.5009 77.5497 32.3549C77.3734 32.0875 77.221 31.8202 77.0901 31.5754C77.0253 31.4508 76.9669 31.3316 76.9139 31.221C76.862 31.1072 76.7982 31.0063 76.7517 30.9086C76.5538 30.5274 76.4521 30.274 76.4521 30.274C76.4521 30.274 77.0631 30.3696 77.9185 30.5983C78.1261 30.6541 78.3618 30.7175 78.5889 30.7958C78.8203 30.8699 79.0582 30.9548 79.2983 31.0482C79.7795 31.235 80.2736 31.4573 80.7278 31.7107C81.0889 31.9061 81.3874 32.1273 81.661 32.3581C82.073 32.7135 82.3736 33.1033 82.5682 33.4823C82.7531 33.8635 82.8473 34.2318 82.8959 34.5507C82.937 34.8717 82.9435 35.1391 82.9121 35.3302C82.8872 35.5203 82.8548 35.6309 82.8548 35.6309C82.8548 35.6309 82.2828 35.6029 81.5247 35.3936C80.7591 35.1863 79.7795 34.8084 78.9998 34.1276Z" fill="#FFAA01"/>
<path d="M83.8091 23.4997C83.5399 23.9238 83.2317 24.2674 82.9397 24.5401C82.359 25.0824 81.8497 25.3379 81.8497 25.3379C81.8497 25.3379 81.774 25.2466 81.6648 25.0802C81.5556 24.9116 81.4302 24.6604 81.3037 24.3511C81.1706 24.043 81.0582 23.6682 81.0084 23.228C80.9825 23.0122 80.9792 22.7728 80.9846 22.5269C80.9846 22.2788 81.0084 22.0168 81.0614 21.7377C81.1111 21.4596 81.1858 21.1654 81.2766 20.8647C81.3199 20.7144 81.3728 20.5598 81.4247 20.4073C81.4755 20.257 81.5286 20.1024 81.5815 19.9499C81.7967 19.3379 82.0465 18.7205 82.2834 18.1675C82.4045 17.8937 82.5158 17.6328 82.6196 17.3966C82.7224 17.1647 82.8132 16.9574 82.891 16.7846C83.0457 16.4345 83.1452 16.2262 83.1452 16.2262C83.1452 16.2262 83.2587 16.4345 83.4263 16.7846C83.5128 16.9553 83.5961 17.1722 83.6913 17.4116C83.7843 17.6554 83.8826 17.9249 83.9767 18.2105C84.0254 18.3533 84.0708 18.5014 84.1162 18.6528C84.1605 18.8042 84.207 18.9578 84.2406 19.1199C84.3119 19.4367 84.3725 19.7685 84.4157 20.0949C84.4601 20.4224 84.4871 20.7509 84.4904 21.0655C84.4839 21.3887 84.4536 21.7012 84.3995 21.9922C84.2817 22.5773 84.0687 23.0777 83.8091 23.4997Z" fill="#FFAA01"/>
<path d="M75.6151 25.0714C75.3837 24.9318 75.1631 24.775 74.9533 24.6129C74.7435 24.4475 74.5467 24.2768 74.3629 24.1072C74.1737 23.9386 73.9887 23.7733 73.8255 23.6122C73.6611 23.4511 73.5119 23.2954 73.3821 23.1559C73.3172 23.0828 73.2588 23.0152 73.2015 22.954C73.141 22.8917 73.0869 22.8359 73.0404 22.7833C72.8436 22.5728 72.7344 22.4407 72.7344 22.4407C72.7344 22.4407 72.9539 22.4139 73.3205 22.3913C73.6827 22.3677 74.2039 22.343 74.7684 22.3624C75.335 22.3817 75.9752 22.4332 76.6078 22.5363C76.7656 22.5632 76.9225 22.5921 77.0792 22.6243C77.2285 22.6619 77.3744 22.6995 77.5226 22.7425C77.8146 22.8262 78.0946 22.9271 78.3477 23.0431C78.6018 23.1559 78.8256 23.2858 79.03 23.4264C79.2322 23.566 79.3944 23.7239 79.5436 23.8785C79.8356 24.1942 80.041 24.5195 80.1849 24.8126C80.3211 25.1057 80.3806 25.372 80.4195 25.5578C80.4509 25.7478 80.4541 25.8617 80.4541 25.8617C80.4541 25.8617 79.894 25.9905 79.1003 25.9937C78.7023 25.998 78.2493 25.9701 77.7767 25.8863C77.2923 25.809 76.7905 25.6759 76.3115 25.4601C76.0693 25.3495 75.84 25.2185 75.6151 25.0714Z" fill="#FFAA01"/>
<path d="M78.1266 14.3557C77.9904 14.8314 77.7946 15.2405 77.5914 15.5755C77.1858 16.2423 76.7684 16.6191 76.7684 16.6191C76.7684 16.6191 76.3597 16.355 75.9531 15.8181C75.8504 15.6829 75.7466 15.5315 75.6503 15.3597C75.5487 15.1943 75.4481 15.0096 75.3594 14.8088C75.181 14.4051 75.0524 13.9187 75.0004 13.3529C74.9377 12.7934 74.9496 12.1567 74.994 11.5039C75.0469 10.8446 75.101 10.1993 75.1745 9.60767C75.2437 9.01712 75.3194 8.49423 75.3768 8.1152C75.4351 7.74154 75.473 7.51068 75.473 7.51068C75.473 7.51068 75.5162 7.54935 75.5898 7.6331C75.659 7.71577 75.7617 7.83389 75.8893 7.98421C76.1423 8.287 76.4786 8.71111 76.8258 9.20932C77.161 9.72364 77.4994 10.3121 77.7741 10.9123C78.0369 11.5254 78.2218 12.1632 78.2812 12.7473C78.2996 12.8954 78.3029 13.0372 78.3029 13.1789C78.3029 13.3196 78.2942 13.4592 78.278 13.5944C78.2477 13.865 78.1947 14.1195 78.1266 14.3557Z" fill="#FFAA01"/>
<path d="M70.6724 17.9649C70.547 17.9241 70.4183 17.8779 70.294 17.8275C70.2302 17.8038 70.1674 17.7791 70.1069 17.7534C70.0409 17.7265 69.9771 17.704 69.9166 17.6793C69.4105 17.4785 68.9498 17.2315 68.5508 16.9996C68.1345 16.7838 67.7928 16.5669 67.5538 16.4101C67.4327 16.3285 67.3397 16.2609 67.2748 16.2169C67.2034 16.1707 67.1699 16.1482 67.1699 16.1482C67.1699 16.1482 67.2218 16.1299 67.3159 16.0923C67.4132 16.0558 67.5495 16.0086 67.7193 15.9538C68.0599 15.8432 68.5411 15.6982 69.098 15.5662C69.3813 15.5007 69.6787 15.4373 69.9868 15.3826C70.1404 15.3579 70.2994 15.331 70.4572 15.3096C70.6108 15.2913 70.7686 15.2752 70.9276 15.2623C71.5548 15.2097 72.1874 15.2118 72.7486 15.301C73.299 15.3933 73.7543 15.5866 74.1295 15.8067C74.3176 15.9184 74.4896 16.0375 74.6334 16.1632C74.775 16.2899 74.8973 16.4209 75.0032 16.5454C75.4271 17.0469 75.572 17.4763 75.572 17.4763C75.572 17.4763 75.0681 17.7469 74.2982 17.9574C73.9143 18.0647 73.4655 18.1571 72.9832 18.2011C72.501 18.2473 71.9982 18.2301 71.4596 18.1539C71.1947 18.112 70.9319 18.0454 70.6724 17.9649Z" fill="#FFAA01"/>
<path d="M69.2072 8.90173C69.1099 9.11433 69.0385 9.23242 69.0385 9.23242C69.0385 9.23242 69.0082 9.22385 68.9574 9.20023C68.9044 9.1809 68.8287 9.15083 68.7357 9.1068C68.5497 9.02091 68.2946 8.88562 68.0199 8.67946C67.476 8.25856 66.812 7.6358 66.3881 6.56529C66.2432 6.21418 66.1102 5.82869 65.9989 5.41638C65.8572 4.90421 65.7393 4.35878 65.6377 3.82835C65.5317 3.31082 65.4376 2.80507 65.363 2.3584C65.2127 1.46935 65.1338 0.828331 65.1338 0.827257C65.1338 0.827257 65.4539 1.01947 65.9307 1.35125C66.1708 1.51446 66.4444 1.71417 66.7374 1.94073C67.025 2.1791 67.3267 2.44539 67.623 2.72993C67.8047 2.90602 67.9842 3.08746 68.1551 3.27429C68.1994 3.32154 68.2416 3.36771 68.2848 3.41603C68.3259 3.46435 68.3659 3.51373 68.407 3.56527C68.487 3.6662 68.5638 3.76714 68.6395 3.86914C68.938 4.27501 69.191 4.69485 69.3651 5.11038C69.483 5.37882 69.5522 5.66334 69.6051 5.92748C69.6549 6.19376 69.6787 6.45148 69.683 6.69843C69.6927 7.19128 69.6214 7.63365 69.524 8.00838C69.4256 8.38526 69.3067 8.68806 69.2072 8.90173Z" fill="#FFAA01"/>
<path d="M62.0333 11.9648C61.7089 11.9025 61.405 11.8274 61.1271 11.7544C60.8427 11.691 60.5864 11.6234 60.3745 11.5622C59.9474 11.4387 59.6846 11.3356 59.6846 11.3356C59.6846 11.3356 60.1679 10.9705 60.9119 10.526C61.2817 10.3048 61.7197 10.0622 62.1922 9.83776C62.6615 9.61872 63.1589 9.42438 63.6607 9.27405C64.0435 9.16131 64.4295 9.07219 64.7939 9.03354C65.898 8.93476 66.7771 9.25041 67.3211 9.63159C67.5968 9.81627 67.8012 10.002 67.9385 10.1405C68.0056 10.2093 68.0564 10.2683 68.091 10.308C68.1223 10.3521 68.1396 10.3746 68.1396 10.3746C68.1396 10.3746 68.0391 10.4723 67.852 10.6205C67.666 10.7687 67.3935 10.9684 67.0572 11.1713C66.7176 11.3786 66.3111 11.5869 65.8623 11.7587C65.6374 11.8424 65.3984 11.9208 65.154 11.9777C64.9075 12.04 64.6577 12.0808 64.3852 12.1162C63.6012 12.2129 62.7891 12.0861 62.0333 11.9648Z" fill="#FFAA01"/>
<path d="M50.4571 74.6966C50.6712 74.6708 50.9351 74.6397 51.2335 74.6042C51.3817 74.5817 51.5417 74.572 51.7104 74.5409C51.8747 74.5119 52.0499 74.4808 52.2327 74.4486C52.5993 74.3874 52.9961 74.3208 53.4146 74.2488C53.8298 74.1576 54.2667 74.0609 54.7187 73.9643C54.9458 73.9106 55.1783 73.8677 55.4075 73.8054C55.6378 73.742 55.8693 73.6798 56.1061 73.6153C56.5743 73.4854 57.0555 73.3705 57.5194 73.2084C59.4139 72.6458 61.2284 71.8673 62.565 71.2478C62.8948 71.0856 63.1997 70.9364 63.469 70.8064C63.602 70.741 63.7263 70.6787 63.8431 70.6218C63.9577 70.5627 64.0615 70.5026 64.1545 70.4532C64.5309 70.246 64.746 70.1268 64.746 70.1268C64.746 70.1268 64.9612 70.0108 65.3364 69.8036C65.7073 69.5899 66.2221 69.2614 66.8493 68.8813C68.0777 68.0813 69.6824 66.9614 71.1487 65.6837C72.6193 64.4113 73.9688 63.0219 74.9237 61.9321C75.0469 61.8022 75.1529 61.6647 75.2589 61.5369C75.3616 61.4092 75.4622 61.2911 75.5552 61.1762C75.7423 60.9507 75.9045 60.752 76.0396 60.5878C76.1748 60.4278 76.2667 60.2903 76.3359 60.2012C76.404 60.1089 76.4408 60.0627 76.4408 60.0627C76.4408 60.0627 76.5825 59.8705 76.8344 59.5312C76.9577 59.3626 77.121 59.1618 77.2832 58.9192C77.4443 58.6765 77.6314 58.4017 77.8293 58.1032C77.9309 57.955 78.0358 57.7993 78.1428 57.6372C78.2499 57.4761 78.3483 57.3011 78.4554 57.1271C78.6673 56.7728 78.8911 56.4002 79.1225 56.0147C79.3367 55.6196 79.5518 55.2116 79.7768 54.7971C79.8308 54.693 79.887 54.5888 79.9422 54.4857C79.993 54.3773 80.0417 54.2699 80.0968 54.1636C80.1952 53.9478 80.2969 53.7331 80.3985 53.5162C81.2031 51.7875 81.8714 49.9986 82.2498 48.6232C82.3017 48.4525 82.3504 48.2882 82.3969 48.1325C82.4434 47.9779 82.4899 47.8308 82.518 47.6912C82.5872 47.4099 82.6467 47.1629 82.6932 46.9611C82.7938 46.5573 82.8478 46.3265 82.8478 46.3265C82.8478 46.3265 82.8629 46.2685 82.8878 46.1601C82.9148 46.0538 82.9397 45.8916 82.9797 45.6865C83.0197 45.4836 83.0652 45.2377 83.1171 44.9521C83.169 44.6697 83.2414 44.3497 83.2782 43.9954C83.3268 43.6432 83.3787 43.2621 83.4306 42.8583C83.4469 42.7585 83.4598 42.6554 83.4717 42.5523C83.4836 42.4492 83.4901 42.344 83.4999 42.2356C83.5161 42.024 83.5334 41.805 83.5518 41.5838C83.6426 40.6991 83.6426 39.752 83.6728 38.8061C83.6426 37.858 83.6426 36.9109 83.5518 36.0262C83.5334 35.8061 83.5161 35.5881 83.4999 35.3755C83.4901 35.2681 83.4836 35.1629 83.4717 35.0598C83.4598 34.9557 83.4469 34.8526 83.4306 34.7517C83.3787 34.349 83.3268 33.9657 83.2782 33.6146C83.2414 33.2603 83.169 32.9435 83.1171 32.6579C83.0652 32.3744 83.0197 32.1275 82.9797 31.9235C82.9397 31.7194 82.9148 31.5573 82.8878 31.4499C82.8629 31.3415 82.8478 31.2835 82.8478 31.2835C82.8478 31.2835 82.7938 31.0537 82.6932 30.65C82.6467 30.4481 82.5872 30.2034 82.518 29.921C82.4899 29.7814 82.4434 29.6321 82.3969 29.4764C82.3504 29.3207 82.3017 29.1586 82.2498 28.9868C81.8714 27.6135 81.2031 25.8247 80.3985 24.0938C80.2969 23.8801 80.1952 23.6611 80.0968 23.4474C80.0417 23.339 79.993 23.2348 79.9422 23.1264C79.887 23.0222 79.8308 22.9181 79.7768 22.8118C79.5518 22.3973 79.3367 21.9893 79.1225 21.5952C78.8911 21.2108 78.6673 20.8383 78.4554 20.4839C78.3483 20.3111 78.2499 20.135 78.1428 19.9739C78.0358 19.8118 77.9309 19.6571 77.8293 19.5068C77.6314 19.2083 77.4443 18.9335 77.2832 18.6919C77.121 18.4503 76.9577 18.2495 76.8344 18.0799C76.5825 17.7406 76.4408 17.5494 76.4408 17.5494C76.4408 17.5494 76.404 17.5011 76.3359 17.4098C76.2667 17.3207 76.1748 17.1833 76.0396 17.0233C75.9045 16.8601 75.7423 16.6625 75.5552 16.4349C75.4622 16.3211 75.3616 16.2008 75.2589 16.0709C75.1529 15.9463 75.0469 15.81 74.9237 15.6779C73.9688 14.5902 72.6193 13.1997 71.1487 11.9263C69.6824 10.6496 68.0777 9.5308 66.8493 8.72765C66.2221 8.34863 65.7073 8.02006 65.3364 7.80853C64.9612 7.6013 64.746 7.48211 64.746 7.48211C64.746 7.48211 64.5309 7.3651 64.1545 7.15787C64.0615 7.10741 63.9577 7.05156 63.8431 6.98821C63.7263 6.93238 63.602 6.8701 63.469 6.8046C63.377 6.75951 63.2819 6.71441 63.1857 6.66717C63.1792 6.66717 63.1716 6.66717 63.1608 6.66717C62.9229 6.68864 62.5855 6.69936 62.1887 6.67789C61.3863 6.64246 60.3503 6.47818 59.4377 5.98211C58.963 5.7416 58.5196 5.4152 58.1304 5.06302C57.9433 4.88371 57.7432 4.70547 57.5648 4.52723C57.3821 4.35114 57.2166 4.17288 57.0663 4.00108C56.7776 3.65534 56.5018 3.35684 56.3288 3.1335C56.1493 2.9091 56.052 2.76952 56.052 2.76952C56.052 2.76952 56.2715 2.75984 56.6348 2.7577C56.9982 2.75448 57.5053 2.76521 58.0849 2.81031C58.2287 2.8232 58.378 2.83395 58.5283 2.8522C58.6786 2.87045 58.8278 2.89086 58.9781 2.91556C59.2831 2.96173 59.5945 3.02077 59.9048 3.09271C60.518 3.23766 61.1408 3.4245 61.6155 3.68971C62.1011 3.95171 62.4763 4.26952 62.7607 4.59486C63.0375 4.9245 63.2073 5.26595 63.3284 5.56767C63.4462 5.86831 63.5079 6.13245 63.5306 6.3225C63.5349 6.36008 63.5382 6.39444 63.5393 6.42665C63.576 6.44491 63.6106 6.46423 63.6452 6.47819C63.7836 6.54691 63.9091 6.60811 64.0259 6.66609C64.1405 6.72837 64.2465 6.78526 64.3427 6.83788C64.7212 7.04617 64.9364 7.16644 64.9364 7.16644C64.9364 7.16644 65.1548 7.28455 65.5343 7.49286C65.9085 7.7076 66.4329 8.03831 67.0666 8.42485C68.3026 9.23122 69.9235 10.364 71.4061 11.6546C72.8875 12.9388 74.2533 14.3433 75.2167 15.4428C75.3443 15.5759 75.4503 15.7155 75.5552 15.8422C75.6633 15.971 75.7606 16.0924 75.858 16.2083C76.044 16.437 76.2094 16.6367 76.3457 16.8021C76.483 16.9642 76.5749 17.1028 76.6452 17.193C76.7133 17.2831 76.7501 17.3315 76.7501 17.3315C76.7501 17.3315 76.8961 17.528 77.1513 17.8673C77.2745 18.0412 77.4367 18.2431 77.6043 18.4857C77.7676 18.7327 77.9515 19.0097 78.1537 19.3103C78.2586 19.4617 78.3624 19.6185 78.4705 19.7817C78.5797 19.9449 78.6781 20.1232 78.7884 20.2992C79.0025 20.6536 79.2285 21.0305 79.4599 21.4213C79.674 21.8186 79.8946 22.2309 80.1195 22.6507C80.1747 22.757 80.232 22.8612 80.2882 22.9675C80.3391 23.0738 80.392 23.1822 80.4418 23.2907C80.5434 23.5086 80.6483 23.7277 80.75 23.9456C81.5653 25.6926 82.2347 27.4997 82.6196 28.8869C82.6715 29.0598 82.7191 29.2241 82.7667 29.383C82.8153 29.5419 82.8629 29.688 82.8921 29.8318C82.9603 30.1142 83.0197 30.3633 83.0705 30.5673C83.169 30.9732 83.2241 31.2073 83.2241 31.2073C83.2241 31.2073 83.2403 31.2663 83.2652 31.3748C83.2911 31.4843 83.3182 31.6475 83.3549 31.8526C83.396 32.0588 83.4436 32.31 83.4955 32.5967C83.5464 32.8823 83.622 33.2055 83.661 33.563C83.7075 33.9184 83.7583 34.3039 83.8145 34.7109C83.8253 34.8139 83.8394 34.917 83.8535 35.0201C83.8664 35.1275 83.8708 35.2338 83.8827 35.3401C83.8989 35.5548 83.914 35.7728 83.9335 36.0015C84.0254 36.8916 84.0254 37.8483 84.0578 38.8061C84.0254 39.7628 84.0254 40.7184 83.9335 41.6128C83.914 41.8361 83.8989 42.0541 83.8827 42.271C83.8708 42.3794 83.8664 42.4857 83.8535 42.5878C83.8394 42.693 83.8253 42.7993 83.8145 42.9002C83.7583 43.3061 83.7075 43.6948 83.661 44.0491C83.622 44.4045 83.5464 44.7277 83.4955 45.0154C83.4436 45.3021 83.396 45.5502 83.3549 45.7574C83.3182 45.9636 83.2911 46.1257 83.2652 46.2363C83.2403 46.3447 83.2241 46.4027 83.2241 46.4027C83.2241 46.4027 83.169 46.6357 83.0705 47.0427C83.0197 47.2467 82.9603 47.4968 82.8921 47.7782C82.8629 47.921 82.8153 48.0713 82.7667 48.227C82.7191 48.3859 82.6715 48.5502 82.6196 48.7241C82.2347 50.1114 81.5653 51.9174 80.75 53.6676C80.6483 53.8834 80.5434 54.1024 80.4418 54.3193C80.392 54.4289 80.3391 54.5362 80.2882 54.6436C80.232 54.7467 80.1747 54.8551 80.1195 54.9604C79.8946 55.378 79.674 55.7903 79.4599 56.1898C79.2285 56.5785 79.0025 56.9553 78.7884 57.3107C78.6781 57.4879 78.5797 57.6651 78.4705 57.8294C78.3624 57.9904 78.2586 58.1504 78.1537 58.3007C77.9515 58.6014 77.7676 58.8795 77.6043 59.1243C77.4367 59.368 77.2745 59.571 77.1513 59.7427C76.8961 60.0831 76.7501 60.2785 76.7501 60.2785C76.7501 60.2785 76.7133 60.3279 76.6452 60.4192C76.5749 60.5094 76.483 60.6468 76.3457 60.809C76.2094 60.9732 76.044 61.174 75.858 61.4049C75.7606 61.5187 75.6633 61.6411 75.5552 61.7689C75.4503 61.8934 75.3443 62.0351 75.2167 62.1683C74.2533 63.2689 72.8875 64.6722 71.4061 65.9564C69.9235 67.2449 68.3026 68.3766 67.0666 69.1873C66.4329 69.5727 65.9085 69.9024 65.5343 70.1182C65.1548 70.3276 64.9364 70.4446 64.9364 70.4446C64.9364 70.4446 64.7212 70.566 64.3427 70.7721C64.2465 70.8247 64.1405 70.8827 64.0259 70.945C63.9091 71.0029 63.7836 71.0641 63.6452 71.1296C63.3771 71.2628 63.0667 71.4131 62.7315 71.5774C61.383 72.2023 59.5523 72.9883 57.6394 73.5574C57.169 73.7206 56.6824 73.8355 56.2088 73.9675C55.9731 74.033 55.7373 74.0974 55.5038 74.1597C55.2724 74.2241 55.0377 74.266 54.8117 74.3197C54.3521 74.4196 53.9109 74.5162 53.4914 74.6096C53.0686 74.6805 52.6685 74.7481 52.2975 74.8115C52.1148 74.8426 51.9364 74.8748 51.7677 74.9027C51.599 74.935 51.4357 74.9468 51.2865 74.9682C50.9837 75.0047 50.7199 75.0348 50.5036 75.0627C50.0711 75.1164 49.8202 75.1465 49.8202 75.1465L49.7812 74.7793C49.7812 74.7793 50.0267 74.7503 50.4571 74.6966Z" fill="#FFAA01"/>
<path d="M54.7178 74.3424C54.7178 74.3424 49.4938 75.6653 48.3184 80.4434L48.4654 74.8138L54.3674 74.0439L54.7178 74.3424Z" fill="#FFAA01"/>
</svg>
