<svg width="21" height="20" viewBox="0 0 21 20" fill="none" xmlns="http://www.w3.org/2000/svg">
<path d="M4.05078 9.18353V13.3252C4.05078 14.8419 4.05078 14.8419 5.48411 15.8085L9.42578 18.0835C10.0174 18.4252 10.9841 18.4252 11.5758 18.0835L15.5174 15.8085C16.9508 14.8419 16.9508 14.8419 16.9508 13.3252V9.18353C16.9508 7.66686 16.9508 7.66686 15.5174 6.7002L11.5758 4.4252C10.9841 4.08353 10.0174 4.08353 9.42578 4.4252L5.48411 6.7002C4.05078 7.66686 4.05078 7.66686 4.05078 9.18353Z" stroke="#292D32" stroke-width="1.3" stroke-linecap="round" stroke-linejoin="round"/>
<path d="M15.0827 6.35866V4.16699C15.0827 2.50033 14.2493 1.66699 12.5827 1.66699H8.41602C6.74935 1.66699 5.91602 2.50033 5.91602 4.16699V6.30033" stroke="#292D32" stroke-width="1.3" stroke-linecap="round" stroke-linejoin="round"/>
<path d="M11.0245 9.15879L11.4995 9.90046C11.5745 10.0171 11.7412 10.1338 11.8662 10.1671L12.7162 10.3838C13.2412 10.5171 13.3828 10.9671 13.0412 11.3838L12.4828 12.0588C12.3995 12.1671 12.3328 12.3588 12.3412 12.4921L12.3912 13.3671C12.4245 13.9088 12.0412 14.1838 11.5412 13.9838L10.7245 13.6588C10.5995 13.6088 10.3912 13.6088 10.2662 13.6588L9.44949 13.9838C8.94949 14.1838 8.56616 13.9005 8.59949 13.3671L8.64949 12.4921C8.65782 12.3588 8.59116 12.1588 8.50782 12.0588L7.94949 11.3838C7.60782 10.9671 7.74949 10.5171 8.27449 10.3838L9.12449 10.1671C9.25783 10.1338 9.42449 10.0088 9.49116 9.90046L9.96616 9.15879C10.2662 8.70879 10.7328 8.70879 11.0245 9.15879Z" stroke="#292D32" stroke-width="1.3" stroke-linecap="round" stroke-linejoin="round"/>
</svg>
