<svg width="16" height="17" viewBox="0 0 16 17" fill="none" xmlns="http://www.w3.org/2000/svg">
<path d="M1 4.20703H14.6" stroke="#495576" stroke-width="1.5" stroke-linecap="round" stroke-linejoin="round"/>
<path d="M11.3996 15.3992H4.19961C3.77526 15.3992 3.3683 15.2306 3.06824 14.9306C2.76818 14.6305 2.59961 14.2236 2.59961 13.7992V4.19922H12.9996V13.7992C12.9996 14.2236 12.831 14.6305 12.531 14.9306C12.2309 15.2306 11.824 15.3992 11.3996 15.3992Z" stroke="#495576" stroke-width="1.5" stroke-linecap="round" stroke-linejoin="round"/>
<path d="M4.93359 4.2V3.8336C4.93359 3.08208 5.23213 2.36135 5.76354 1.82994C6.29494 1.29854 7.01568 1 7.76719 1C8.51871 1 9.23945 1.29854 9.77085 1.82994C10.3023 2.36135 10.6008 3.08208 10.6008 3.8336V4.2" stroke="#495576" stroke-width="1.5" stroke-linecap="round" stroke-linejoin="round"/>
<path d="M6.18164 7.39844V12.1984" stroke="#495576" stroke-width="1.5" stroke-linecap="round" stroke-linejoin="round"/>
<path d="M9.42383 7.39844V12.1984" stroke="#495576" stroke-width="1.5" stroke-linecap="round" stroke-linejoin="round"/>
</svg>
