<svg width="42" height="42" viewBox="0 0 42 42" fill="none" xmlns="http://www.w3.org/2000/svg">
<path d="M23.4503 30.4856H19.0578C16.1878 30.4856 13.8603 28.0706 13.8603 25.0956C13.8603 24.3781 14.4553 23.7831 15.1728 23.7831C15.8903 23.7831 16.4853 24.3781 16.4853 25.0956C16.4853 26.6181 17.6403 27.8606 19.0578 27.8606H23.4503C24.5878 27.8606 25.5328 26.8456 25.5328 25.6206C25.5328 24.0981 24.9903 23.8006 24.0978 23.4856L17.0453 21.0006C15.6803 20.5281 13.8428 19.5131 13.8428 16.3806C13.8428 13.6856 15.9603 11.5156 18.5503 11.5156H22.9428C25.8128 11.5156 28.1403 13.9306 28.1403 16.9056C28.1403 17.6231 27.5453 18.2181 26.8278 18.2181C26.1103 18.2181 25.5153 17.6231 25.5153 16.9056C25.5153 15.3831 24.3603 14.1406 22.9428 14.1406H18.5503C17.4128 14.1406 16.4678 15.1556 16.4678 16.3806C16.4678 17.9031 17.0103 18.2006 17.9028 18.5156L24.9553 21.0006C26.3203 21.4731 28.1578 22.4881 28.1578 25.6206C28.1403 28.2981 26.0403 30.4856 23.4503 30.4856Z" fill="#3A3A3A"/>
<path d="M21 32.8125C20.2825 32.8125 19.6875 32.2175 19.6875 31.5V10.5C19.6875 9.7825 20.2825 9.1875 21 9.1875C21.7175 9.1875 22.3125 9.7825 22.3125 10.5V31.5C22.3125 32.2175 21.7175 32.8125 21 32.8125Z" fill="#3A3A3A"/>
<path d="M21 39.8125C10.6225 39.8125 2.1875 31.3775 2.1875 21C2.1875 10.6225 10.6225 2.1875 21 2.1875C31.3775 2.1875 39.8125 10.6225 39.8125 21C39.8125 31.3775 31.3775 39.8125 21 39.8125ZM21 4.8125C12.075 4.8125 4.8125 12.075 4.8125 21C4.8125 29.925 12.075 37.1875 21 37.1875C29.925 37.1875 37.1875 29.925 37.1875 21C37.1875 12.075 29.925 4.8125 21 4.8125Z" fill="#3A3A3A"/>
</svg>
