<svg width="21" height="20" viewBox="0 0 21 20" fill="none" xmlns="http://www.w3.org/2000/svg">
<path d="M17.6936 14.6619L12.6936 6.88438C12.6348 6.79767 12.556 6.72636 12.4639 6.67644C12.3717 6.62652 12.269 6.59945 12.1642 6.5975C12.0589 6.59814 11.9554 6.6254 11.8633 6.67676C11.7713 6.72811 11.6938 6.8019 11.638 6.89125L8.86047 11.3356C8.77262 11.4762 8.7442 11.6459 8.78147 11.8074C8.81875 11.9689 8.91865 12.109 9.05922 12.1969C9.19978 12.2847 9.36949 12.3131 9.53101 12.2759C9.69252 12.2386 9.83262 12.1387 9.92047 11.9981L12.1755 8.39L16.0236 14.375H3.29547L8.41797 6.17938L9.27672 7.55375C9.32022 7.62335 9.377 7.6837 9.44383 7.73136C9.51065 7.77902 9.58621 7.81304 9.66618 7.8315C9.74616 7.84995 9.82898 7.85248 9.90993 7.83892C9.99088 7.82537 10.0684 7.796 10.138 7.7525C10.2076 7.709 10.2679 7.65222 10.3156 7.58539C10.3632 7.51857 10.3973 7.44301 10.4157 7.36304C10.4342 7.28307 10.4367 7.20024 10.4231 7.11929C10.4096 7.03834 10.3802 6.96085 10.3367 6.89125L8.94797 4.66875C8.89179 4.57886 8.81367 4.50474 8.72095 4.45335C8.62823 4.40196 8.52397 4.375 8.41797 4.375C8.31197 4.375 8.2077 4.40196 8.11499 4.45335C8.02227 4.50474 7.94415 4.57886 7.88797 4.66875L1.63797 14.6688C1.57884 14.7634 1.54611 14.8721 1.54318 14.9836C1.54026 15.0951 1.56723 15.2054 1.62132 15.303C1.6754 15.4006 1.75462 15.4819 1.85075 15.5385C1.94687 15.5951 2.0564 15.625 2.16797 15.625H17.168C17.2802 15.625 17.3904 15.5948 17.4869 15.5375C17.5835 15.4802 17.6628 15.3979 17.7166 15.2994C17.7703 15.2009 17.7966 15.0897 17.7925 14.9775C17.7885 14.8653 17.7543 14.7563 17.6936 14.6619Z" fill="#292D32"/>
</svg>
