<svg width="42" height="42" viewBox="0 0 42 42" fill="none" xmlns="http://www.w3.org/2000/svg">
<path d="M41.6165 1.49682C41.5145 1.96516 41.4286 2.43672 41.3104 2.89969C40.8143 4.88379 39.7321 6.67249 38.2049 8.03281C36.6777 9.39313 34.7762 10.262 32.7482 10.5263C32.4059 10.5642 32.0882 10.7221 31.8513 10.9721C29.9457 12.8981 28.024 14.809 26.0927 16.7371C26.4643 17.2076 26.8446 17.6545 27.1851 18.126C33.5882 26.9117 28.4548 39.5482 17.7399 41.3807C17.2415 41.4656 16.7399 41.5354 16.2361 41.6127H14.1415C13.614 41.5333 13.0855 41.4591 12.5592 41.3732C6.92089 40.4537 2.02482 35.8369 0.77664 30.2448C0.599402 29.451 0.50058 28.64 0.365234 27.8365V25.7462C0.497357 24.9685 0.596181 24.1833 0.768048 23.4142C2.03342 17.7436 6.89081 13.1644 12.6108 12.216C15.7044 11.7036 18.6744 12.0795 21.5178 13.418C21.5897 13.4523 21.6649 13.4835 21.7326 13.5254C22.1107 13.7262 22.2471 14.0625 22.0839 14.3847C21.9292 14.6898 21.5973 14.7725 21.2149 14.6232C20.4178 14.3095 19.6358 13.9368 18.8141 13.7101C17.0154 13.2113 15.1334 13.0878 13.2849 13.3474C11.4365 13.6069 9.6612 14.2438 8.06942 15.2187C6.47763 16.1935 5.10338 17.4853 4.0321 19.0138C2.96082 20.5424 2.21541 22.2749 1.84222 24.1038C0.326564 31.4135 5.20866 38.7544 12.5141 40.1529C19.942 41.5751 27.0508 36.8885 28.4913 29.4639C29.4945 24.2918 27.8897 19.9102 23.9368 16.4074C23.8068 16.2914 23.664 16.1925 23.534 16.0733C23.23 15.8026 23.186 15.4589 23.4169 15.186C23.6478 14.9132 23.9647 14.8917 24.2762 15.1291C24.5877 15.3665 24.9003 15.6361 25.2 15.881L26.5266 14.5533C26.0916 13.6328 25.5599 12.7649 25.2591 11.8228C24.3998 9.0869 24.9465 6.57872 26.7167 4.3337C27.1647 3.76654 27.5159 3.77084 27.9746 4.34767C29.6159 6.41007 30.139 8.73457 29.5858 11.3072C29.5719 11.3717 29.5536 11.434 29.5117 11.6015C30.167 10.9506 30.761 10.3802 31.326 9.78189C31.4259 9.67447 31.4119 9.45427 31.4334 9.28347C32.1252 4.55713 35.5679 1.11979 40.3007 0.440915C40.3636 0.424448 40.4245 0.40103 40.4822 0.371094H41.6101L41.6165 1.49682ZM32.7009 9.27918C36.3896 8.94296 39.8807 5.59263 40.2889 1.69877C36.54 2.06936 33.0683 5.45836 32.7031 9.27918H32.7009ZM27.3344 5.54107C25.518 8.01918 25.8306 11.4651 27.3548 13.3095C28.9929 11.3555 28.9951 7.5691 27.3344 5.54107Z" fill="#3A3A3A"/>
<path d="M16.2672 41.9936H14.0877L13.5872 41.9194C13.2316 41.8668 12.8642 41.812 12.5022 41.754C9.69974 41.2964 6.95309 39.9086 4.76823 37.844C2.58337 35.7795 1.03442 33.1123 0.415703 30.3356C0.292173 29.7813 0.200869 29.2152 0.120306 28.6674C0.0805621 28.4139 0.0418926 28.1615 0 27.908V27.8457V25.6877C0.0408184 25.4438 0.0794858 25.1989 0.118156 24.9529C0.200867 24.4234 0.286801 23.8788 0.407107 23.3417C1.69611 17.5498 6.69422 12.8256 12.5538 11.8545C15.7495 11.325 18.8205 11.7396 21.6842 13.0866L21.7498 13.1167C21.8067 13.1425 21.8636 13.1682 21.9184 13.1972C22.4759 13.4937 22.6854 14.0566 22.4286 14.5604C22.1859 15.0394 21.6595 15.2049 21.087 14.9782C20.8528 14.8869 20.6165 14.7881 20.3888 14.6936C19.8472 14.4539 19.2911 14.2483 18.7238 14.0781C16.9744 13.5924 15.1437 13.472 13.3457 13.7241C11.5477 13.9762 9.82073 14.5956 8.27231 15.5436C6.72388 16.4917 5.38706 17.7482 4.34499 19.235C3.30291 20.7217 2.57786 22.407 2.21493 24.186C1.50169 27.6308 2.20742 31.1745 4.20215 34.1639C6.18721 37.1362 9.16588 39.1341 12.5903 39.7904C16.0385 40.4717 19.6162 39.7632 22.5446 37.8193C23.9905 36.8593 25.2295 35.6196 26.1888 34.1733C27.1481 32.7269 27.8083 31.1033 28.1303 29.3979C29.0971 24.4298 27.6029 20.16 23.6961 16.6947C23.6371 16.6421 23.5748 16.5927 23.5125 16.5433C23.4502 16.4939 23.3653 16.4262 23.2923 16.3607C22.84 15.9568 22.7767 15.3767 23.1376 14.9492C23.4985 14.5217 24.0474 14.4819 24.5136 14.8353C24.7435 15.0104 24.9637 15.1952 25.1774 15.3724L25.186 15.3799L26.0819 14.4841C25.9745 14.2789 25.8746 14.0748 25.7714 13.875C25.4492 13.2574 25.1269 12.6193 24.9121 11.9415C24.0324 9.13903 24.5437 6.50409 26.4342 4.1087C26.6254 3.86593 26.9272 3.54368 27.3472 3.54261C27.7705 3.54261 28.0809 3.87238 28.2785 4.12051C29.7824 6.01427 30.4011 8.15402 30.1154 10.4936C30.4376 10.1713 30.7427 9.86839 31.0402 9.55366C31.0488 9.50281 31.0545 9.45153 31.0574 9.40005C31.0574 9.34312 31.0671 9.29263 31.0746 9.2357C31.4259 6.83386 32.471 4.70593 34.0995 3.08286C35.7279 1.4598 37.8494 0.424297 40.2469 0.0751919C40.2577 0.0714393 40.2681 0.0667672 40.2781 0.0612276C40.3039 0.0494117 40.3296 0.0365217 40.3565 0.0268542L40.4231 0H41.9989V1.53821L41.9903 1.57688C41.9581 1.72297 41.928 1.87013 41.8979 2.01621C41.8324 2.33847 41.7647 2.66716 41.6831 2.99371C41.1635 5.04822 40.0402 6.8999 38.4581 8.30986C36.8761 9.71981 34.9078 10.6233 32.8072 10.9039C32.5473 10.9304 32.3057 11.0502 32.1273 11.2412C30.6804 12.7042 29.197 14.1844 27.7619 15.6163L26.605 16.771L26.7511 16.9515C27.0003 17.2608 27.2592 17.5809 27.4976 17.9096C30.5816 22.1408 31.2325 27.5975 29.2389 32.5065C27.2452 37.4154 22.9625 40.8732 17.8065 41.7562C17.4617 41.8152 17.1126 41.8636 16.7753 41.9173L16.2994 41.9893L16.2672 41.9936ZM14.1726 41.2416H16.2135L16.6636 41.174C16.9976 41.1246 17.3435 41.073 17.6797 41.015C22.5822 40.1761 26.6415 36.8902 28.5364 32.224C30.4312 27.5578 29.8146 22.3717 26.8843 18.3522C26.6566 18.0385 26.4159 17.7399 26.1603 17.4241C26.0411 17.2759 25.9207 17.1265 25.8015 16.9751L25.591 16.713L25.8273 16.4767L27.2237 15.0803C28.6567 13.6495 30.1401 12.1703 31.5859 10.7095C31.8808 10.4013 32.2748 10.207 32.6988 10.1606C34.6508 9.89981 36.4799 9.06003 37.95 7.74962C39.42 6.4392 40.4637 4.71829 40.9462 2.80895C41.0246 2.50066 41.0912 2.17841 41.161 1.86691C41.189 1.73156 41.2169 1.59514 41.2459 1.4598V0.745473H40.5746C40.5081 0.778868 40.4372 0.80239 40.364 0.815294C38.1233 1.13754 36.1393 2.1043 34.628 3.60813C33.1166 5.11197 32.1445 7.09703 31.8169 9.33775C31.8169 9.37427 31.8083 9.41294 31.805 9.45269C31.7911 9.6267 31.7717 9.86409 31.6063 10.0392C31.1842 10.4871 30.747 10.9189 30.2819 11.3754L29.7835 11.8685L28.8167 12.8245L29.1927 11.354C29.2077 11.297 29.2174 11.2627 29.2249 11.2272C29.7545 8.76522 29.2367 6.5288 27.6867 4.58026C27.46 4.29453 27.3548 4.28593 27.344 4.28593C27.3333 4.28593 27.2366 4.29453 27.0218 4.56522C25.2956 6.75437 24.8262 9.15729 25.6254 11.7084C25.8187 12.3229 26.1195 12.9051 26.4374 13.5216C26.5835 13.8041 26.7339 14.0952 26.8735 14.3917L26.9874 14.6313L25.2279 16.3907L24.9647 16.1759L24.6887 15.9471C24.4824 15.7742 24.2687 15.5959 24.0528 15.4315C23.8369 15.2672 23.7499 15.3799 23.7058 15.4315C23.6618 15.4831 23.5651 15.598 23.7864 15.7957C23.8444 15.8483 23.9078 15.9031 23.9744 15.9514C24.041 15.9997 24.1172 16.0653 24.1892 16.1286C28.3086 19.7808 29.8823 24.2923 28.864 29.5386C28.5231 31.3417 27.8248 33.0583 26.8102 34.5873C25.7955 36.1163 24.4851 37.4267 22.956 38.4413C19.8753 40.4929 16.1426 41.2341 12.4432 40.5252C8.81999 39.8313 5.66946 37.7194 3.57161 34.5775C1.47376 31.4356 0.720766 27.6695 1.47913 24.0249C1.86289 22.1453 2.6292 20.3647 3.73043 18.7938C4.83166 17.223 6.24425 15.8955 7.88039 14.8939C9.51652 13.8923 11.3412 13.2379 13.241 12.9715C15.1408 12.7052 17.0751 12.8324 18.9236 13.3455C19.5214 13.5229 20.1073 13.7381 20.6777 13.99C20.9022 14.0834 21.1343 14.1801 21.362 14.2693C21.565 14.3487 21.6982 14.3294 21.7584 14.2113C21.826 14.077 21.7583 13.9556 21.5661 13.8525C21.5242 13.8299 21.4812 13.8117 21.4393 13.7923L21.3641 13.7569C18.6422 12.4765 15.7194 12.0823 12.6784 12.5871C7.11314 13.5087 2.36639 17.9945 1.14184 23.4953C1.0269 24.0098 0.943118 24.5458 0.861482 25.0647C0.82496 25.302 0.787364 25.5405 0.74762 25.7779V27.8092C0.788438 28.0551 0.826034 28.3011 0.864704 28.5471C0.946341 29.0842 1.03227 29.6363 1.15043 30.167C1.73693 32.7976 3.20639 35.3283 5.28598 37.2919C7.36557 39.2555 9.9715 40.5735 12.6258 41.0064C12.9824 41.0644 13.3476 41.1138 13.6999 41.1707L14.1726 41.2416ZM27.3526 13.9008L27.0647 13.5517C25.4868 11.6375 25.0432 8.03586 27.0304 5.32251L27.3172 4.93151L27.6244 5.30639C29.386 7.45473 29.3946 11.4614 27.6426 13.5539L27.3526 13.9008ZM27.3462 6.20547C26.0507 8.35381 26.3064 11.0478 27.3558 12.6763C28.4826 10.9179 28.4773 8.01223 27.3462 6.20547ZM32.2873 9.69545L32.3303 9.2443C32.7106 5.26987 36.265 1.72512 40.2544 1.32445L40.7131 1.27934L40.6659 1.73801C40.2448 5.74251 36.6914 9.29371 32.7396 9.65355L32.2873 9.69545ZM39.8484 2.1376C38.2769 2.40506 36.7451 3.21928 35.4916 4.46747C34.238 5.71565 33.4034 7.26031 33.1392 8.85008C34.6763 8.59335 36.2285 7.77591 37.4595 6.56102C38.7313 5.3021 39.5681 3.74778 39.8484 2.1376Z" fill="#3A3A3A"/>
<path d="M15.1956 30.7285C17.0489 30.7285 18.9011 30.7285 20.7522 30.7285C21.5128 30.7285 21.7544 31.0937 21.4558 31.779C20.9153 32.9956 20.028 34.0258 18.9049 34.7405C17.7818 35.4553 16.4729 35.823 15.1419 35.7975C12.262 35.718 10.1405 34.3774 8.89771 31.7414C8.59694 31.1034 8.85152 30.7306 9.5594 30.7295C11.4378 30.726 13.3165 30.7256 15.1956 30.7285ZM20.01 31.967H10.3564C11.5273 33.6524 13.0784 34.545 15.0516 34.5869C17.1269 34.6299 18.7607 33.7351 20.01 31.967Z" fill="#3A3A3A"/>
<path d="M15.3211 36.1753H15.1299C12.0642 36.0905 9.85248 34.6532 8.55595 31.9033C8.3003 31.3609 8.39912 31.0064 8.52695 30.8045C8.65478 30.6025 8.93943 30.3565 9.55708 30.3555C10.9034 30.3555 12.2493 30.3555 13.5949 30.3555H20.7521C21.2666 30.3555 21.6254 30.5048 21.8166 30.797C22.0078 31.0891 22.0002 31.4694 21.7994 31.9323C21.2435 33.1888 20.3363 34.2579 19.1869 35.0106C18.0375 35.7634 16.695 36.1679 15.3211 36.1753ZM11.9911 31.102C11.1791 31.102 10.3666 31.102 9.55385 31.102C9.29068 31.102 9.18112 31.1643 9.15749 31.2019C9.13385 31.2395 9.12634 31.3544 9.23268 31.5779C10.3982 34.0485 12.3875 35.3375 15.1471 35.4191C16.4039 35.4462 17.6407 35.1002 18.7012 34.425C19.7616 33.7497 20.5983 32.7755 21.1055 31.6251C21.2129 31.3684 21.2075 31.2384 21.1828 31.203C21.1581 31.1675 21.0389 31.102 20.7467 31.1009H11.9954L11.9911 31.102ZM15.1879 34.9626H15.0375C12.9751 34.9185 11.294 33.9829 10.0415 32.1805L9.63119 31.5908H20.7338L20.316 32.1805C19.0119 34.0281 17.2889 34.9626 15.1922 34.9626H15.1879ZM11.1146 32.3416C12.163 33.5629 13.4585 34.1763 15.0536 34.2096C16.739 34.2429 18.1139 33.6328 19.2343 32.3416H11.1146Z" fill="#3A3A3A"/>
<path d="M23.5507 9.37067C23.4787 9.80571 23.4239 10.244 23.3294 10.6736C23.2134 11.2011 22.9331 11.359 22.4175 11.2268C21.2197 10.9206 20.1909 10.1546 19.5541 9.09496C18.9173 8.03529 18.7238 6.76734 19.0156 5.56597C19.2132 4.73886 19.4388 4.61211 20.2326 4.88065C22.2638 5.57027 23.5346 7.30934 23.5507 9.37067ZM22.2488 9.85727C22.4948 8.22346 21.4904 6.48868 20.1552 6.2051C19.8663 7.70571 20.7643 9.29226 22.2488 9.85727Z" fill="#3A3A3A"/>
<path d="M22.7265 11.6452C22.5907 11.6435 22.4558 11.6248 22.3247 11.5893C21.0311 11.2592 19.9197 10.4324 19.2316 9.28822C18.5434 8.14406 18.3341 6.77477 18.6489 5.47728C18.7617 5.00572 18.9024 4.65554 19.2215 4.47938C19.5405 4.30322 19.9025 4.37196 20.3536 4.52342C22.5396 5.2646 23.9081 7.12076 23.9263 9.36577V9.39907L23.9209 9.43129C23.8984 9.56342 23.878 9.69554 23.8576 9.82766C23.8114 10.1295 23.763 10.4432 23.6954 10.7525C23.6148 11.1188 23.4601 11.3669 23.2249 11.512C23.0747 11.6027 22.9019 11.6489 22.7265 11.6452ZM19.649 5.1271C19.6269 5.12541 19.6048 5.1291 19.5845 5.13785C19.563 5.14966 19.4836 5.2227 19.3804 5.65237C19.1187 6.75737 19.2997 7.92091 19.8846 8.89424C20.4695 9.86757 21.412 10.5735 22.5106 10.861C22.7254 10.9158 22.807 10.8879 22.8328 10.8728C22.9062 10.7952 22.9519 10.6955 22.9628 10.5892C23.0262 10.3024 23.0702 10.0156 23.1164 9.71058C23.1357 9.58597 23.1551 9.46244 23.1755 9.33784C23.1475 7.43656 21.9756 5.86506 20.113 5.23345C19.9645 5.17522 19.8081 5.13938 19.649 5.1271ZM22.5492 10.3733L22.1131 10.2068C20.4578 9.57738 19.4567 7.82649 19.7843 6.1336L19.8563 5.75764L20.2312 5.83713C21.7791 6.15938 22.8951 8.06817 22.618 9.91145L22.5492 10.3733ZM20.4761 6.7158C20.4764 7.22823 20.608 7.73203 20.8583 8.17919C21.1085 8.62634 21.4692 9.00194 21.9058 9.27017C21.8747 8.18848 21.2806 7.12398 20.4782 6.7158H20.4761Z" fill="#3A3A3A"/>
<path d="M9.53475 26.7669C8.16733 26.6852 6.99648 26.0429 6.31224 24.6346C6.0974 24.1953 6.20482 23.8247 6.54318 23.6754C6.88155 23.5261 7.18768 23.6808 7.39607 24.1126C7.85904 25.0632 8.64533 25.5434 9.67761 25.5477C10.7099 25.552 11.5263 25.0783 11.9924 24.1051C12.1965 23.6754 12.5091 23.5261 12.8518 23.6754C13.1944 23.8247 13.2815 24.1749 13.0945 24.6067C12.5328 25.8946 11.1514 26.7701 9.53475 26.7669Z" fill="#3A3A3A"/>
<path d="M9.53497 27.142H9.50489C7.88719 27.0443 6.66479 26.2343 5.96765 24.7982C5.88929 24.6556 5.84095 24.4984 5.82562 24.3364C5.81028 24.1744 5.82828 24.0109 5.87849 23.8561C5.92306 23.7384 5.99121 23.6309 6.07876 23.5404C6.16631 23.4499 6.27142 23.3782 6.38765 23.3298C6.80228 23.1504 7.37159 23.2224 7.72714 23.9474C8.12136 24.7563 8.7766 25.1677 9.67246 25.1709H9.68428C10.5962 25.1709 11.2558 24.7574 11.6468 23.9421C11.9368 23.3362 12.4664 23.0978 12.9981 23.3341C13.5298 23.5704 13.6995 24.1408 13.4278 24.7584C12.8069 26.2075 11.2773 27.142 9.53497 27.142ZM6.77865 23.9958C6.74716 23.9975 6.7164 24.0059 6.68842 24.0205C6.66429 24.0273 6.64206 24.0395 6.62343 24.0563C6.6048 24.0731 6.59028 24.0939 6.581 24.1172C6.55674 24.2385 6.57857 24.3645 6.64223 24.4706C7.22013 25.6607 8.19333 26.3063 9.53604 26.3901C10.9754 26.3901 12.2322 25.6317 12.7392 24.4566C12.8907 24.1075 12.7392 24.0398 12.6898 24.0173C12.6232 23.9883 12.4836 23.926 12.3224 24.2632C11.8015 25.3525 10.8863 25.9207 9.66709 25.9196C8.47798 25.9196 7.57246 25.346 7.04934 24.2729C6.94192 24.0484 6.84954 23.9958 6.77865 23.9958Z" fill="#3A3A3A"/>
<path d="M20.735 26.7676C19.1645 26.7579 17.7337 25.8395 17.2579 24.5409C17.2222 24.4257 17.2107 24.3044 17.2242 24.1846C17.2377 24.0648 17.2759 23.9491 17.3363 23.8448C17.4297 23.7073 17.7541 23.63 17.9303 23.6772C18.1065 23.7245 18.2837 23.9501 18.3772 24.1381C19.1935 25.7783 21.4568 26.0597 22.6266 24.6494C22.7713 24.457 22.8962 24.2504 22.9993 24.0328C23.1905 23.6751 23.5031 23.5355 23.8253 23.6783C24.1476 23.8212 24.2625 24.1595 24.096 24.5377C23.5461 25.7772 22.5782 26.483 21.2549 26.7161C21.0583 26.7494 20.8553 26.7558 20.735 26.7676Z" fill="#3A3A3A"/>
<path d="M20.7512 27.143H20.7319C19.0078 27.1323 17.4342 26.115 16.9035 24.6724C16.8475 24.501 16.8293 24.3194 16.8502 24.1403C16.8712 23.9611 16.9308 23.7886 17.0249 23.6348C17.2236 23.3426 17.7221 23.2266 18.0346 23.3179C18.417 23.4253 18.6501 23.8464 18.7124 23.9721C18.8759 24.2993 19.119 24.5802 19.4193 24.7891C19.7195 24.998 20.0675 25.1281 20.4311 25.1676C20.7866 25.2112 21.1473 25.1653 21.4805 25.0339C21.8137 24.9026 22.1087 24.6901 22.3388 24.4157C22.4493 24.2707 22.5446 24.1149 22.6235 23.9506L22.6708 23.8614C22.9543 23.3297 23.4807 23.1202 23.9802 23.3404C24.0945 23.3896 24.1979 23.4609 24.2843 23.5504C24.3708 23.6398 24.4387 23.7455 24.4839 23.8614C24.5324 23.996 24.5537 24.139 24.5465 24.2819C24.5393 24.4248 24.5038 24.5648 24.4421 24.6939C23.8523 26.0226 22.804 26.8283 21.327 27.0904C21.1815 27.1142 21.0348 27.1303 20.8876 27.1387L20.7802 27.1473L20.7512 27.143ZM17.6361 24.0763C17.5919 24.1823 17.5829 24.2998 17.6103 24.4114C18.0325 25.5629 19.3097 26.3803 20.7179 26.3911L20.8253 26.3825C20.9327 26.375 21.0649 26.3653 21.1884 26.3438C22.4237 26.129 23.2615 25.4845 23.7503 24.3835C23.7925 24.3043 23.8025 24.212 23.7782 24.1257C23.7688 24.1013 23.7543 24.0791 23.7358 24.0606C23.7173 24.0421 23.6952 24.0277 23.6708 24.0182C23.6225 23.9978 23.4742 23.9323 23.3281 24.2062L23.283 24.2922C23.1807 24.5026 23.0565 24.7017 22.9124 24.8862C22.6029 25.2591 22.2046 25.5482 21.7541 25.7269C21.3036 25.9055 20.8154 25.9681 20.3344 25.9088C19.8466 25.8541 19.3803 25.6779 18.9782 25.3964C18.576 25.115 18.2509 24.7371 18.0325 24.2975C17.9859 24.1906 17.9118 24.0979 17.8177 24.029C17.7539 24.0301 17.6914 24.0463 17.6351 24.0763H17.6361Z" fill="#3A3A3A"/>
<path d="M32.7518 17.3236C31.6615 17.324 30.583 17.0987 29.5841 16.6619C29.0631 16.4342 28.96 16.0948 29.2618 15.606C31.3027 12.3255 35.6263 10.9871 39.1839 12.5447C39.721 12.7799 39.8392 13.1365 39.5062 13.6306C37.8938 16.0336 35.6306 17.242 32.7518 17.3236ZM38.1226 13.4642C35.3019 12.4448 32.0364 13.7402 30.6991 15.7543C32.9731 16.6233 36.3008 15.9251 38.1226 13.4642Z" fill="#3A3A3A"/>
<path d="M32.7559 17.6991H32.7494C31.6079 17.698 30.4789 17.4622 29.4324 17.0062C29.0704 16.8473 28.8438 16.6249 28.7568 16.3456C28.6697 16.0663 28.732 15.7484 28.9447 15.4068C30.0182 13.7302 31.6512 12.4882 33.5536 11.9014C35.456 11.3146 37.5048 11.4209 39.3362 12.2015C39.7154 12.368 39.9517 12.6 40.0366 12.8932C40.1215 13.1865 40.0495 13.5034 39.8218 13.8417C38.1611 16.3123 35.785 17.6153 32.7612 17.7001L32.7559 17.6991ZM36.0794 12.2799C33.5099 12.2799 30.9717 13.5689 29.5828 15.8032C29.455 16.0105 29.4679 16.0996 29.4754 16.1254C29.4936 16.1834 29.5914 16.2565 29.7353 16.3188C30.6842 16.7326 31.7078 16.9472 32.743 16.9493C35.5466 16.8677 37.6573 15.714 39.1955 13.4217C39.2868 13.2864 39.3298 13.1671 39.3115 13.0995C39.2933 13.0318 39.188 12.9545 39.0322 12.8846C38.1001 12.4818 37.0948 12.2759 36.0794 12.2799ZM32.7441 16.4853C32.0005 16.4914 31.2621 16.3625 30.5646 16.105L30.1252 15.9374L30.3852 15.5464C31.7451 13.4991 35.1395 11.9856 38.2503 13.1102L38.725 13.2821L38.4243 13.6881C37.4911 14.9231 36.1744 15.8136 34.6808 16.2199C34.0501 16.3952 33.3986 16.4844 32.7441 16.4853ZM31.3186 15.5572C33.2296 16.0556 35.8302 15.5045 37.4779 13.6602C35.1352 13.0673 32.5926 14.0695 31.3186 15.5572Z" fill="#3A3A3A"/>
</svg>
