<svg width="38" height="38" viewBox="0 0 38 38" fill="none" xmlns="http://www.w3.org/2000/svg">
<path d="M18.9999 3.91168e-05C29.4214 -0.021072 37.9862 8.50569 37.9999 18.943C38.0112 22.7033 36.9065 26.3823 34.8256 29.5143C32.7447 32.6463 29.7813 35.0905 26.3105 36.5373C22.8397 37.9841 19.0177 38.3685 15.3283 37.6418C11.6389 36.9152 8.24808 35.1101 5.58518 32.4552C2.92227 29.8003 1.10703 26.4149 0.369281 22.7277C-0.36847 19.0406 0.00444882 15.2174 1.44082 11.7423C2.8772 8.26715 5.31243 5.29639 8.43819 3.20611C11.5639 1.11584 15.2396 5.6038e-05 18.9999 3.91168e-05ZM11.8031 13.9534C11.2754 15.7289 11.2754 22.3978 11.8031 24.0582H26.2241C26.725 20.7086 26.725 17.3031 26.2241 13.9534H11.8031ZM25.6721 11.3926C25.2235 9.18336 23.9515 6.02198 22.3017 4.30459C21.8763 3.85485 21.3998 3.45632 20.882 3.11709C19.6765 2.34759 18.413 2.31381 17.1875 3.07381C16.6832 3.38508 16.2191 3.75733 15.8058 4.18214C14.3386 5.70848 13.4836 7.59158 12.8186 9.56547C12.618 10.1576 12.4608 10.7635 12.275 11.3916L25.6721 11.3926ZM12.2824 26.6222C12.9611 29.1935 13.8467 31.6234 15.6126 33.6226C16.0428 34.1044 16.5356 34.5265 17.0777 34.8777C18.3507 35.7063 19.6839 35.7105 20.9379 34.8555C21.5656 34.4217 22.1335 33.907 22.6268 33.3249C23.8396 31.8989 24.5828 30.2068 25.1707 28.4462C25.3681 27.854 25.5275 27.2492 25.7132 26.6222H12.2824ZM9.13153 24.0635C9.0397 22.3588 8.87926 20.6857 8.88031 19.019C8.88137 17.3523 9.0397 15.6571 9.13153 13.9587H3.32598C2.26057 17.3308 2.26233 20.6991 3.33126 24.0635H9.13153ZM34.6686 13.9682H28.767C29.2457 17.3145 29.2457 20.7119 28.767 24.0582H34.6622C35.7283 20.7797 35.7305 17.2481 34.6686 13.9682ZM25.1686 3.84014C25.214 3.91826 25.2562 3.99848 25.3047 4.07448C26.6963 6.20964 27.6885 8.57984 28.2329 11.0696C28.2972 11.3631 28.4165 11.4127 28.6794 11.4095C29.7877 11.3969 30.896 11.4042 32.0022 11.4042H33.5951C31.6666 7.84703 28.8936 5.32848 25.1696 3.84014H25.1686ZM33.5666 26.6686C33.5054 26.6369 33.4842 26.6169 33.461 26.6169C31.826 26.6169 30.1888 26.6169 28.5559 26.6063C28.3163 26.6063 28.2877 26.7298 28.2466 26.9146C27.6935 29.4292 26.6885 31.8226 25.2805 33.9783C25.2298 34.0755 25.185 34.1756 25.1464 34.2781C28.8936 32.6853 31.6666 30.1667 33.5666 26.6686ZM12.8471 34.276C12.8297 34.2134 12.8082 34.1521 12.7827 34.0923C11.3231 31.8909 10.2898 29.435 9.73636 26.8523C9.6857 26.6127 9.55481 26.6084 9.3722 26.6095C7.80259 26.6095 6.23298 26.6095 4.66442 26.6095C4.5937 26.6095 4.52403 26.6232 4.40792 26.6359C6.33326 30.1741 9.10515 32.6937 12.8471 34.276ZM4.3942 11.4042C6.13376 11.4042 7.79414 11.4042 9.45559 11.4042C9.71103 11.4042 9.70787 11.2459 9.74587 11.076C10.2984 8.58791 11.2911 6.2186 12.6771 4.07976C12.7289 3.99953 12.77 3.91192 12.8735 3.72298C9.10303 5.3232 6.33326 7.84175 4.3942 11.4042Z" fill="#3A3A3A"/>
</svg>
