<svg width="17" height="16" viewBox="0 0 17 16" fill="none" xmlns="http://www.w3.org/2000/svg">
<path d="M8.50065 14.6673C12.1825 14.6673 15.1673 11.6825 15.1673 8.00065C15.1673 4.31875 12.1825 1.33398 8.50065 1.33398C4.81875 1.33398 1.83398 4.31875 1.83398 8.00065C1.83398 11.6825 4.81875 14.6673 8.50065 14.6673Z" stroke="#292D32" stroke-linecap="round" stroke-linejoin="round"/>
<path d="M5.83372 2H6.50039C5.20039 5.89333 5.20039 10.1067 6.50039 14H5.83372" stroke="#292D32" stroke-linecap="round" stroke-linejoin="round"/>
<path d="M10.5 2C11.8 5.89333 11.8 10.1067 10.5 14" stroke="#292D32" stroke-linecap="round" stroke-linejoin="round"/>
<path d="M2.5 10.6667V10C6.39333 11.3 10.6067 11.3 14.5 10V10.6667" stroke="#292D32" stroke-linecap="round" stroke-linejoin="round"/>
<path d="M2.5 6.00039C6.39333 4.70039 10.6067 4.70039 14.5 6.00039" stroke="#292D32" stroke-linecap="round" stroke-linejoin="round"/>
</svg>
