<svg width="42" height="38" viewBox="0 0 42 38" fill="none" xmlns="http://www.w3.org/2000/svg">
<path d="M9.95749 13.2698C9.50049 9.57154 10.475 6.3531 13.0708 3.70591C15.2359 1.4963 17.9139 0.383494 21.0124 0.392634C24.4136 0.405202 27.2608 1.71794 29.467 4.2943C31.6731 6.87065 32.4695 9.8823 32.0342 13.2687H32.3289C33.9742 13.2687 35.6194 13.2687 37.2646 13.2687C38.2663 13.2574 39.2401 13.5982 40.0161 14.2318C40.7921 14.8653 41.3209 15.7513 41.5101 16.7351C41.5682 17.0331 41.5961 17.3363 41.5935 17.6399C41.5981 22.7271 41.5981 27.8147 41.5935 32.9027C41.5935 35.4322 39.7187 37.3002 37.1812 37.3013C26.3807 37.3013 15.5802 37.3013 4.77965 37.3013C2.26613 37.3013 0.393555 35.4185 0.393555 32.9038C0.393555 27.825 0.393555 22.7466 0.393555 17.6685C0.393555 15.1401 2.26955 13.2698 4.80363 13.2676C6.41229 13.2676 8.02132 13.2676 9.63073 13.2676L9.95749 13.2698ZM13.786 20.1363L13.8352 20.0586C13.7798 20.0346 13.727 20.0051 13.6775 19.9706C12.197 18.6856 11.0857 17.0293 10.4579 15.1721C10.3962 14.9893 10.2945 14.979 10.1403 14.979C8.36141 14.979 6.58252 14.979 4.80363 14.979C3.22583 14.979 2.11988 16.0838 2.1176 17.6594C2.1176 19.885 2.1176 22.1109 2.1176 24.3373C2.1176 25.8763 3.23383 26.9936 4.77507 26.9936C15.5908 26.9936 26.4066 26.9936 37.2223 26.9936C38.7635 26.9936 39.8775 25.8797 39.8798 24.3385C39.8843 22.1029 39.8843 19.8678 39.8798 17.6331C39.8798 16.0918 38.7624 14.9813 37.2212 14.979C35.4331 14.979 33.6451 14.979 31.8514 14.9722C31.7734 14.9596 31.6936 14.9784 31.6294 15.0244C31.5652 15.0704 31.5218 15.1399 31.5086 15.2178C30.9025 16.9845 29.8567 18.5679 28.4696 19.8187L28.1371 20.1272H28.4581C29.6471 20.1272 30.8361 20.1272 32.025 20.1272C32.1319 20.1229 32.2389 20.1313 32.3438 20.1523C32.5457 20.2009 32.7232 20.321 32.8435 20.4902C32.9638 20.6595 33.0188 20.8665 32.9985 21.0732C32.9493 21.5302 32.5757 21.8421 32.0605 21.8421C24.676 21.8421 17.292 21.8421 9.90836 21.8421C9.81006 21.8447 9.71181 21.8351 9.61588 21.8135C9.41199 21.762 9.23421 21.6372 9.11647 21.463C8.99872 21.2887 8.94926 21.0772 8.97751 20.8689C9.00577 20.6605 9.10977 20.4698 9.26966 20.3332C9.42955 20.1966 9.63414 20.1237 9.84438 20.1283C11.068 20.1283 12.2928 20.1283 13.5175 20.1283L13.786 20.1363ZM2.11646 27.8414V28.0699C2.11646 29.6968 2.11646 31.3238 2.11646 32.9518C2.11646 34.4576 3.23726 35.5796 4.74423 35.5796C15.5798 35.5796 26.4153 35.5796 37.2509 35.5796C38.7578 35.5796 39.8786 34.4576 39.8786 32.9518C39.8786 31.3249 39.8786 29.698 39.8786 28.0699C39.8786 28.007 39.8649 27.9431 39.8546 27.8528C38.9566 28.5212 37.9684 28.7234 36.899 28.7223C26.2874 28.7124 15.6754 28.7124 5.06299 28.7223C4.00617 28.728 3.03047 28.5143 2.11646 27.8414ZM21.001 20.1375C22.2429 20.1375 23.4859 20.1375 24.7278 20.1375C24.8686 20.1354 25.0074 20.103 25.1346 20.0426C26.9872 19.1441 28.4946 17.6634 29.4261 15.8272C30.3577 13.9909 30.6622 11.9 30.293 9.87431C29.379 4.80271 24.5336 1.3809 19.4746 2.23436C14.379 3.09352 10.9195 7.78009 11.6747 12.9042C12.1568 16.1718 13.9471 18.5471 16.8937 20.0426C17.0206 20.1034 17.1597 20.1343 17.3004 20.1329C18.5297 20.1397 19.7625 20.1375 21.001 20.1375Z" fill="#3A3A3A"/>
<path d="M20.5823 37.7042H4.78597C2.0588 37.7042 0.00114251 35.6408 0 32.9057C0 27.8268 0 22.7484 0 17.6703C0 14.9363 2.06794 12.8718 4.80882 12.8718H9.51138C9.16863 9.17118 10.2677 5.99615 12.7847 3.42779C15.0274 1.14278 17.798 -0.0202971 21.0107 0.000268023C24.5342 0.0128356 27.4819 1.37128 29.7726 4.04132C31.9023 6.52285 32.814 9.49337 32.4838 12.8763H33.8548C34.992 12.8763 36.1292 12.8763 37.2663 12.8763C38.3589 12.8688 39.4199 13.242 40.2671 13.932C41.1142 14.6219 41.6946 15.5854 41.9083 16.6569C41.9725 16.9812 42.0032 17.3112 41.9997 17.6417C41.9997 22.7282 41.9997 27.8638 41.9997 32.9045C41.9997 35.6397 39.9295 37.703 37.1875 37.703L20.5823 37.7042ZM6.96359 13.6738H4.80996C2.48609 13.6738 0.799756 15.359 0.799756 17.6726C0.799756 22.7514 0.799756 27.8299 0.799756 32.9079C0.799756 35.1861 2.51352 36.9067 4.78597 36.9067C15.5872 36.9067 26.3878 36.9067 37.1875 36.9067C39.5114 36.9067 41.1988 35.2238 41.2 32.9079C41.2 27.8683 41.2 22.7339 41.2 17.6475C41.2028 17.3703 41.1779 17.0936 41.1257 16.8214C40.7418 14.9443 39.1926 13.6795 37.2698 13.6749C36.1326 13.6749 34.9962 13.6749 33.8605 13.6749H31.5858L31.644 13.2179C32.0725 9.88296 31.2407 6.96728 29.1694 4.55545C27.0375 2.07049 24.2931 0.804594 21.013 0.793169H20.9696C17.9991 0.793169 15.4341 1.86713 13.3582 3.98534C10.9189 6.47372 9.90783 9.58363 10.3557 13.2202L10.4105 13.6692H6.96359V13.6738ZM21.1307 35.9927C15.5324 35.9927 10.1021 35.9927 4.74712 35.9927C3.0265 35.9927 1.72519 34.6903 1.71947 32.9639C1.71947 31.834 1.71947 30.7029 1.71947 29.573C1.71947 29.0763 1.71947 28.579 1.71947 28.0808V27.0526L2.35699 27.5233C3.11448 28.0831 3.94965 28.3333 5.06245 28.3333H5.07045C15.7529 28.323 26.4639 28.3242 36.9076 28.3333H36.9144C38.0569 28.3333 38.8887 28.09 39.6245 27.5427L40.182 27.128L40.2597 27.8192C40.2597 27.8455 40.2666 27.8706 40.2688 27.8923C40.2796 27.9546 40.2853 28.0176 40.286 28.0808V29.2519C40.286 30.4687 40.286 31.7266 40.286 32.9639C40.2791 34.6903 38.9767 35.9916 37.256 35.9927H21.1307ZM2.51809 28.5664C2.51809 28.9023 2.51809 29.2371 2.51809 29.573C2.51809 30.7018 2.51809 31.8305 2.51809 32.9593C2.51809 34.2527 3.45951 35.1918 4.74712 35.1918C15.0868 35.1918 25.7201 35.1918 37.2538 35.1918C38.5414 35.1918 39.4794 34.2527 39.4839 32.9605C39.4839 31.7243 39.4839 30.4675 39.4839 29.2519V28.5664C38.7539 28.948 37.9198 29.1285 36.911 29.1285H36.903C26.4605 29.1182 15.7495 29.1182 5.06702 29.1285H5.05902C4.07647 29.1262 3.25044 28.9446 2.5158 28.5596L2.51809 28.5664ZM21.2209 27.4102H4.77683C3.00822 27.4102 1.72176 26.1249 1.71947 24.3551C1.71947 22.1615 1.71947 19.9142 1.71947 17.6749C1.71947 15.8937 3.01965 14.5992 4.80424 14.5958C5.68398 14.5958 6.56333 14.5958 7.4423 14.5958C8.3426 14.5958 9.24213 14.5958 10.1409 14.5958C10.2901 14.5803 10.4401 14.6164 10.5659 14.6982C10.6916 14.7799 10.7856 14.9022 10.8321 15.0448C11.4387 16.8278 12.5061 18.4187 13.926 19.656L13.9512 19.6686L14.0231 19.704L14.399 19.9096L14.0014 20.5334H12.4888C11.6113 20.5334 10.7339 20.5334 9.86099 20.5334C9.74974 20.532 9.64178 20.5712 9.55735 20.6436C9.47293 20.7161 9.41784 20.8169 9.40242 20.9271C9.387 21.0372 9.4123 21.1493 9.47359 21.2421C9.53488 21.335 9.62794 21.4023 9.73531 21.4314C9.79844 21.4443 9.86287 21.4497 9.92725 21.4474C17.3109 21.4474 24.6949 21.4474 32.0793 21.4474C32.3193 21.4474 32.5877 21.3389 32.6197 21.0361C32.6307 20.9258 32.6012 20.8152 32.5366 20.725C32.4721 20.6349 32.377 20.5712 32.269 20.546C32.1935 20.5338 32.1169 20.5292 32.0405 20.5323C31.1029 20.5323 30.1656 20.5323 29.2288 20.5323H27.1323L28.0132 19.7154L28.2142 19.5292C29.5502 18.3217 30.5585 16.7954 31.1448 15.0928C31.1843 14.9371 31.2772 14.8003 31.4072 14.7061C31.5373 14.612 31.6963 14.5664 31.8566 14.5775C32.9328 14.5832 34.0273 14.5832 35.0876 14.5832C35.7982 14.5832 36.5088 14.5832 37.2195 14.5832C38.9869 14.5832 40.2734 15.8709 40.2768 17.636C40.2768 19.7668 40.2768 22.0233 40.2768 24.3426C40.2768 26.1123 38.9881 27.3976 37.2195 27.3976L21.2209 27.4102ZM6.7488 15.3876H4.80653C3.43552 15.3876 2.52152 16.3016 2.52152 17.6726C2.52152 19.9108 2.52152 22.1569 2.52152 24.3483C2.52152 25.677 3.45152 26.6059 4.77911 26.6059C15.5949 26.6059 26.4106 26.6059 37.2263 26.6059C38.5528 26.6059 39.4817 25.6781 39.4839 24.3494C39.4839 22.0301 39.4839 19.7794 39.4839 17.6463C39.4839 16.321 38.5516 15.3933 37.2241 15.391C36.5142 15.391 35.8043 15.391 35.0944 15.391C34.0456 15.391 32.9614 15.391 31.8954 15.391C31.3275 17.0319 30.3919 18.5212 29.1602 19.7451H29.2288C30.1672 19.7451 31.1052 19.7451 32.0428 19.7451C32.1812 19.7406 32.3197 19.7528 32.4552 19.7817C32.7515 19.8526 33.012 20.0288 33.1881 20.2774C33.3642 20.526 33.444 20.8302 33.4126 21.1332C33.3418 21.797 32.7923 22.2598 32.077 22.2598C24.6926 22.2598 17.3082 22.2598 9.92382 22.2598C9.792 22.2624 9.66035 22.2486 9.53194 22.2186C9.2361 22.141 8.9787 21.9582 8.80799 21.7044C8.63729 21.4506 8.56499 21.1433 8.60465 20.84C8.64431 20.5368 8.79321 20.2583 9.02344 20.057C9.25366 19.8556 9.54942 19.7452 9.85528 19.7462C10.7339 19.7462 11.6125 19.7462 12.491 19.7462H12.8452C11.612 18.5232 10.6741 17.0348 10.1032 15.3944C9.21433 15.3944 8.32546 15.3944 7.43659 15.3944L6.7488 15.3876ZM22.6811 20.5391H20.1676C19.2296 20.5391 18.2584 20.5391 17.3021 20.5391C17.0991 20.54 16.8986 20.4943 16.716 20.4055C13.605 18.8265 11.7781 16.3233 11.2834 12.9689C10.4894 7.62651 14.0586 2.74115 19.4009 1.83971C24.669 0.950835 29.7292 4.52232 30.6798 9.80185C31.0633 11.9128 30.7453 14.0912 29.7745 16.0044C28.8036 17.9177 27.2332 19.4606 25.3031 20.3975C25.1223 20.4829 24.925 20.5278 24.725 20.5289C24.0441 20.5357 23.3551 20.5369 22.6754 20.5369L22.6811 20.5391ZM21.0016 19.7394H21.8459C22.7908 19.7394 23.7664 19.7394 24.7262 19.7394C24.8072 19.7379 24.8871 19.7192 24.9604 19.6845C26.734 18.8247 28.1771 17.4075 29.0691 15.6498C29.961 13.8921 30.2527 11.8907 29.8994 9.95152C29.0266 5.10042 24.3788 1.81914 19.5415 2.63946C14.6287 3.46778 11.3485 7.95555 12.0706 12.8569C12.5276 15.9417 14.2094 18.2416 17.0748 19.6971C17.1466 19.7291 17.2246 19.7451 17.3033 19.744C18.2573 19.7497 19.2261 19.744 20.1596 19.744L21.0016 19.7394Z" fill="#3A3A3A"/>
<path d="M24.2695 8.60989C24.2809 9.15373 23.9336 9.55361 23.4389 9.56732C22.9442 9.58103 22.5808 9.21199 22.5534 8.66131C22.5447 8.3564 22.4464 8.06081 22.2709 7.81132C22.0955 7.56183 21.8505 7.36946 21.5665 7.25817C21.2825 7.14688 20.972 7.12157 20.6737 7.18541C20.3754 7.24924 20.1025 7.39939 19.8889 7.61717C19.6754 7.83495 19.5306 8.11073 19.4725 8.41019C19.4145 8.70966 19.4459 9.01957 19.5627 9.30135C19.6795 9.58313 19.8766 9.82434 20.1294 9.99494C20.3823 10.1655 20.6797 10.258 20.9848 10.2608C22.911 10.3248 24.3072 11.7575 24.2695 13.6289C24.2512 14.2857 24.0339 14.9214 23.6462 15.4519C23.2586 15.9824 22.7189 16.3826 22.0987 16.5995C21.9148 16.6634 21.8417 16.7423 21.8576 16.9365C21.8708 17.1507 21.8708 17.3655 21.8576 17.5797C21.858 17.6923 21.8362 17.8038 21.7935 17.9079C21.7508 18.012 21.688 18.1066 21.6087 18.1865C21.4485 18.3477 21.2309 18.4387 21.0036 18.4395C20.8911 18.4398 20.7796 18.418 20.6755 18.3753C20.5714 18.3326 20.4767 18.2698 20.3969 18.1905C20.2356 18.0303 20.1446 17.8127 20.1439 17.5854C20.1325 17.3712 20.1325 17.1565 20.1439 16.9422C20.1564 16.7537 20.0982 16.6669 19.9085 16.5995C19.2839 16.3828 18.7403 15.9805 18.3507 15.4463C17.9611 14.9121 17.744 14.2716 17.7286 13.6107C17.7218 13.0862 18.0714 12.6966 18.5592 12.6807C19.0471 12.6647 19.4172 13.036 19.4435 13.5615C19.4892 14.4561 20.177 15.1142 21.043 15.0936C21.4451 15.0804 21.8265 14.9123 22.1076 14.6244C22.3886 14.3366 22.5475 13.9512 22.5511 13.549C22.5511 12.6818 21.8816 12.0089 20.9836 11.9826C19.3635 11.9357 18.0245 10.8184 17.7846 9.30797C17.5172 7.65933 18.381 6.1912 19.9554 5.63023C20.097 5.57996 20.153 5.51598 20.1439 5.36631C20.1313 5.13781 20.1347 4.90131 20.1439 4.66938C20.1439 4.44212 20.2342 4.22417 20.3949 4.06347C20.5556 3.90278 20.7735 3.8125 21.0008 3.8125C21.228 3.8125 21.446 3.90278 21.6067 4.06347C21.7674 4.22417 21.8576 4.44212 21.8576 4.66938C21.8685 4.88365 21.8685 5.09834 21.8576 5.31261C21.8462 5.49884 21.8999 5.58682 22.0861 5.65537C22.7059 5.86964 23.2463 6.26662 23.636 6.79402C24.0258 7.32142 24.2466 7.95451 24.2695 8.60989Z" fill="#3A3A3A"/>
<path d="M20.999 18.8155H20.9841C20.6602 18.8119 20.3502 18.6832 20.1188 18.4565C19.8874 18.2298 19.7525 17.9225 19.7422 17.5987C19.7353 17.4079 19.7285 17.1886 19.7422 16.9647C19.0474 16.7174 18.4443 16.2645 18.0133 15.6661C17.5822 15.0676 17.3436 14.3522 17.3292 13.6148C17.3201 12.8745 17.8445 12.3009 18.5494 12.2815C19.2543 12.2621 19.8062 12.8036 19.8439 13.5383C19.8782 14.2238 20.3763 14.7105 21.0367 14.6911C21.3341 14.6808 21.6161 14.5564 21.8242 14.3436C22.0323 14.1309 22.1504 13.8461 22.154 13.5486C22.154 12.8939 21.6616 12.406 20.975 12.3843C19.1709 12.3318 17.6617 11.0659 17.3875 9.37383C17.0939 7.56295 18.0376 5.93031 19.7399 5.28593C19.7319 5.05743 19.7399 4.82893 19.7399 4.65755C19.748 4.32961 19.8839 4.01782 20.1187 3.78876C20.3536 3.55971 20.6686 3.43154 20.9967 3.43164H21.0104C21.3349 3.43443 21.6458 3.56264 21.8779 3.78944C22.11 4.01624 22.2454 4.32405 22.2557 4.64841C22.2637 4.83921 22.2694 5.06086 22.2557 5.28479C22.9442 5.53065 23.5426 5.9783 23.9728 6.56934C24.403 7.16038 24.6451 7.86736 24.6675 8.59806C24.6847 9.35555 24.1614 9.94394 23.4485 9.96907H23.4108C22.7173 9.96907 22.1917 9.43324 22.154 8.68147C22.1482 8.45437 22.0755 8.23404 21.9451 8.04804C21.8147 7.86203 21.6323 7.71862 21.4208 7.63573C21.2093 7.55284 20.978 7.53416 20.7559 7.58203C20.5339 7.6299 20.3309 7.74218 20.1723 7.90484C20.0137 8.0675 19.9066 8.27331 19.8644 8.49653C19.8222 8.71974 19.8467 8.95045 19.9349 9.15979C20.0232 9.36913 20.1712 9.5478 20.3604 9.67346C20.5497 9.79911 20.7718 9.86617 20.999 9.86625C23.1343 9.93708 24.7132 11.5594 24.671 13.6365C24.6527 14.3706 24.412 15.0818 23.9807 15.676C23.5494 16.2703 22.9479 16.7197 22.2557 16.9647C22.2694 17.1829 22.2557 17.3999 22.2557 17.593C22.2468 17.9204 22.1104 18.2313 21.8757 18.4596C21.641 18.6879 21.3264 18.8156 20.999 18.8155ZM18.5848 13.0801H18.57C18.3015 13.0881 18.1233 13.2983 18.1278 13.6057C18.1401 14.1851 18.33 14.7467 18.6718 15.2146C19.0137 15.6826 19.491 16.0342 20.0392 16.222C20.398 16.3466 20.5671 16.5979 20.542 16.9669C20.5317 17.1671 20.5317 17.3677 20.542 17.5679C20.5434 17.6869 20.5913 17.8007 20.6754 17.885C20.7594 17.9693 20.8731 18.0174 20.9921 18.0192C21.1133 18.0192 21.2295 17.971 21.3153 17.8853C21.401 17.7996 21.4491 17.6834 21.4491 17.5622C21.4605 17.3639 21.4605 17.1652 21.4491 16.9669C21.4171 16.5979 21.5885 16.3466 21.9564 16.2186C22.4983 16.028 22.9701 15.6785 23.3103 15.2156C23.6504 14.7527 23.8431 14.198 23.8632 13.624C23.8964 11.9662 22.6773 10.7208 20.9647 10.6637C20.5823 10.6581 20.2099 10.5405 19.8937 10.3253C19.5776 10.1102 19.3314 9.80708 19.1858 9.45346C19.0402 9.09984 19.0015 8.71127 19.0745 8.33587C19.1475 7.96047 19.329 7.61474 19.5966 7.34148C19.8641 7.06822 20.206 6.87945 20.5797 6.79853C20.9535 6.71761 21.3428 6.7481 21.6994 6.88623C22.056 7.02436 22.3643 7.26406 22.586 7.57564C22.8078 7.88723 22.9333 8.25701 22.9469 8.63919C22.9595 8.89968 23.0886 9.17732 23.4211 9.16703C23.6918 9.15904 23.8701 8.93853 23.8632 8.61749C23.8452 8.04233 23.6526 7.48626 23.311 7.0232C22.9694 6.56014 22.4949 6.21203 21.9507 6.02514C21.7904 5.98383 21.6508 5.88521 21.5584 5.74793C21.466 5.61065 21.4271 5.44425 21.4491 5.28022C21.4594 5.08003 21.4594 4.87945 21.4491 4.67926C21.4491 4.55923 21.4019 4.44402 21.3177 4.35851C21.2335 4.273 21.119 4.22406 20.999 4.22226C20.8777 4.22226 20.7615 4.27041 20.6758 4.35611C20.5901 4.44181 20.542 4.55805 20.542 4.67926C20.5351 4.8632 20.5294 5.10313 20.542 5.33849C20.5573 5.48542 20.5197 5.63301 20.4359 5.7547C20.3521 5.87638 20.2277 5.96418 20.0849 6.00228C18.6854 6.50042 17.9347 7.77089 18.1724 9.23901C18.386 10.5529 19.572 11.5366 20.9932 11.5777C22.114 11.6109 22.9549 12.4563 22.9492 13.5463C22.9448 14.0524 22.7448 14.5371 22.3911 14.8991C22.0374 15.2611 21.5574 15.4723 21.0515 15.4885C19.9627 15.5125 19.0967 14.6945 19.0407 13.5771C19.0281 13.2801 18.8442 13.0801 18.5848 13.0801Z" fill="#3A3A3A"/>
</svg>
