<svg width="42" height="35" viewBox="0 0 42 35" fill="none" xmlns="http://www.w3.org/2000/svg">
<path d="M42 17.4332C41.6719 18.1398 41.112 18.3797 40.3487 18.3426C39.4738 18.3001 38.5989 18.3219 37.724 18.3426C37.5416 18.3506 37.3676 18.4215 37.2319 18.5433C32.1838 23.5653 27.1408 28.5927 22.1029 33.6256C21.3046 34.4216 20.6965 34.4206 19.8993 33.6256C14.8578 28.5963 9.81476 23.5689 4.77032 18.5433C4.63418 18.4216 4.45977 18.3511 4.2771 18.3437C3.40221 18.3241 2.52733 18.3023 1.65244 18.3437C0.886914 18.3808 0.326989 18.1409 0 17.4343V16.78C0.328082 16.0712 0.889101 15.8084 1.65244 15.8738C2.04067 15.9076 2.43437 15.8804 2.87619 15.8804C1.68415 13.3799 1.39435 10.8271 2.07676 8.19799C2.77229 5.54705 4.30334 3.47515 6.53868 1.88525C10.1268 -0.659914 16.7409 -1.11355 21.0301 3.6987C22.9023 1.67588 25.1858 0.41093 27.945 0.0848787C30.7041 -0.241172 33.2675 0.369492 35.5619 1.96267C37.476 3.26332 38.9139 5.14949 39.6586 7.33651C40.6571 10.2284 40.4449 13.0669 39.1271 15.8771C39.5645 15.8771 39.9593 15.9043 40.3476 15.8705C41.1131 15.8051 41.6741 16.0668 42 16.7767V17.4332ZM20.9043 18.5793C21.006 18.4157 21.0858 18.2936 21.1591 18.1671C22.3883 16.0298 23.6168 13.8917 24.8446 11.7529C25.4395 10.7192 26.5047 10.6941 27.1412 11.7006C27.9559 12.9753 28.7717 14.2501 29.569 15.5347C29.7232 15.7811 29.8806 15.8869 30.1814 15.8836C32.077 15.8698 33.9766 15.8698 35.8802 15.8836C35.9992 15.8932 36.1185 15.8672 36.2227 15.8089C36.3269 15.7507 36.4113 15.6628 36.4653 15.5565C37.607 13.7376 38.0652 11.7595 37.7032 9.65158C37.1488 6.42706 35.3181 4.13162 32.245 2.99971C29.172 1.8678 26.2717 2.40976 23.728 4.51764C23.0893 5.04652 22.5316 5.67354 21.9323 6.25149C21.333 6.82944 20.6451 6.82072 20.0502 6.23841C19.6018 5.80222 19.1666 5.34531 18.7127 4.9113C16.7147 3.00407 14.3383 2.19494 11.5911 2.53517C5.41008 3.2985 2.12597 10.4345 5.5599 15.6066C5.6118 15.6994 5.68975 15.7751 5.78417 15.8243C5.87859 15.8735 5.98537 15.8941 6.09139 15.8836C7.37529 15.8727 8.66028 15.8673 9.94527 15.8836C10.2602 15.8891 10.3904 15.7746 10.5041 15.4965C11.4519 13.2218 12.4077 10.9514 13.3715 8.68543C13.4617 8.44379 13.5976 8.22167 13.7718 8.03114C14.3984 7.42157 15.3247 7.64403 15.7611 8.49896C17.3993 11.7151 19.035 14.932 20.6681 18.1496C20.7392 18.2805 20.8114 18.4059 20.9043 18.5793ZM26.065 14.5849C25.9666 14.7474 25.8999 14.8499 25.8398 14.9556C24.5836 17.1409 23.3277 19.327 22.0723 21.5137C22.0384 21.5726 22.0056 21.6326 21.9728 21.6915C21.7223 22.144 21.3549 22.4243 20.8234 22.4145C20.2919 22.4046 19.9201 22.1037 19.6773 21.625C18.1018 18.5149 16.5222 15.4064 14.9387 12.2992C14.8742 12.1728 14.8042 12.0484 14.7101 11.8751C14.6314 12.0484 14.5734 12.1706 14.522 12.2938C13.8024 14.0004 13.0795 15.7048 12.3698 17.419C12.1084 18.0471 11.6666 18.3535 10.9765 18.3394C10.1301 18.3219 9.28254 18.3394 8.43499 18.3394C8.35575 18.3421 8.27682 18.3505 8.19878 18.3645L20.982 31.1055L33.7979 18.3306H33.4469C32.0941 18.3306 30.7402 18.3132 29.3874 18.3383C28.7313 18.3503 28.2785 18.1006 27.9384 17.539C27.3457 16.5608 26.7146 15.6066 26.065 14.5849Z" fill="#3A3A3A"/>
</svg>
