<svg width="42" height="42" viewBox="0 0 42 42" fill="none" xmlns="http://www.w3.org/2000/svg">
<path d="M38.5 39.8125H3.5C2.7825 39.8125 2.1875 39.2175 2.1875 38.5C2.1875 37.7825 2.7825 37.1875 3.5 37.1875H38.5C39.2175 37.1875 39.8125 37.7825 39.8125 38.5C39.8125 39.2175 39.2175 39.8125 38.5 39.8125Z" fill="#3A3A3A"/>
<path d="M6.47559 38.4998H3.85059L3.93808 17.4472C3.93808 15.9597 4.62059 14.5773 5.79309 13.6673L18.0431 4.12977C19.7756 2.78227 22.2081 2.78227 23.9581 4.12977L36.2081 13.6498C37.3631 14.5598 38.0631 15.9772 38.0631 17.4472V38.4998H35.4381V17.4648C35.4381 16.7998 35.1231 16.1523 34.5981 15.7323L22.3481 6.21227C21.5606 5.59977 20.4581 5.59977 19.6531 6.21227L7.40308 15.7498C6.87808 16.1523 6.56308 16.7998 6.56308 17.4648L6.47559 38.4998Z" fill="#3A3A3A"/>
<path d="M25.375 39.8125H16.625C15.9075 39.8125 15.3125 39.2175 15.3125 38.5V32.375C15.3125 30.205 17.08 28.4375 19.25 28.4375H22.75C24.92 28.4375 26.6875 30.205 26.6875 32.375V38.5C26.6875 39.2175 26.0925 39.8125 25.375 39.8125ZM17.9375 37.1875H24.0625V32.375C24.0625 31.6575 23.4675 31.0625 22.75 31.0625H19.25C18.5325 31.0625 17.9375 31.6575 17.9375 32.375V37.1875Z" fill="#3A3A3A"/>
<path d="M16.625 25.375H13.125C11.445 25.375 10.0625 23.9925 10.0625 22.3125V19.6875C10.0625 18.0075 11.445 16.625 13.125 16.625H16.625C18.305 16.625 19.6875 18.0075 19.6875 19.6875V22.3125C19.6875 23.9925 18.305 25.375 16.625 25.375ZM13.125 19.25C12.88 19.25 12.6875 19.4425 12.6875 19.6875V22.3125C12.6875 22.5575 12.88 22.75 13.125 22.75H16.625C16.87 22.75 17.0625 22.5575 17.0625 22.3125V19.6875C17.0625 19.4425 16.87 19.25 16.625 19.25H13.125Z" fill="#3A3A3A"/>
<path d="M28.875 25.375H25.375C23.695 25.375 22.3125 23.9925 22.3125 22.3125V19.6875C22.3125 18.0075 23.695 16.625 25.375 16.625H28.875C30.555 16.625 31.9375 18.0075 31.9375 19.6875V22.3125C31.9375 23.9925 30.555 25.375 28.875 25.375ZM25.375 19.25C25.13 19.25 24.9375 19.4425 24.9375 19.6875V22.3125C24.9375 22.5575 25.13 22.75 25.375 22.75H28.875C29.12 22.75 29.3125 22.5575 29.3125 22.3125V19.6875C29.3125 19.4425 29.12 19.25 28.875 19.25H25.375Z" fill="#3A3A3A"/>
<path d="M33.2501 13.5625C32.5326 13.5625 31.9376 12.985 31.9376 12.2675L31.9026 8.3125H25.5151C24.7976 8.3125 24.2026 7.7175 24.2026 7C24.2026 6.2825 24.7976 5.6875 25.5151 5.6875H33.2151C33.9326 5.6875 34.5276 6.26498 34.5276 6.98248L34.5801 12.2325C34.5626 12.9675 33.9851 13.5625 33.2501 13.5625C33.2676 13.5625 33.2501 13.5625 33.2501 13.5625Z" fill="#3A3A3A"/>
</svg>
