<svg width="21" height="21" viewBox="0 0 21 21" fill="none" xmlns="http://www.w3.org/2000/svg">
<path d="M7.72657 12.4415C7.72657 13.5165 8.55157 14.3832 9.57657 14.3832H11.6682C12.5599 14.3832 13.2849 13.6249 13.2849 12.6915C13.2849 11.6749 12.8432 11.3165 12.1849 11.0832L8.82657 9.91654C8.16823 9.6832 7.72657 9.32487 7.72657 8.3082C7.72657 7.37487 8.45157 6.61654 9.34323 6.61654H11.4349C12.4599 6.61654 13.2849 7.4832 13.2849 8.5582" stroke="#292D32" stroke-linecap="round" stroke-linejoin="round"/>
<path d="M10.5 5.5V15.5" stroke="#292D32" stroke-linecap="round" stroke-linejoin="round"/>
<path d="M10.5 18.8333C15.1024 18.8333 18.8333 15.1024 18.8333 10.5C18.8333 5.89763 15.1024 2.16667 10.5 2.16667C5.89763 2.16667 2.16667 5.89763 2.16667 10.5C2.16667 15.1024 5.89763 18.8333 10.5 18.8333Z" stroke="#292D32" stroke-linecap="round" stroke-linejoin="round"/>
</svg>
