<svg width="25" height="24" viewBox="0 0 25 24" fill="none" xmlns="http://www.w3.org/2000/svg">
<path d="M18.5 1.5H6.5C4.01472 1.5 2 3.51472 2 6V18C2 20.4853 4.01472 22.5 6.5 22.5H18.5C20.9853 22.5 23 20.4853 23 18V6C23 3.51472 20.9853 1.5 18.5 1.5Z" fill="url(#paint0_radial_4_232)"/>
<path d="M18.5 1.5H6.5C4.01472 1.5 2 3.51472 2 6V18C2 20.4853 4.01472 22.5 6.5 22.5H18.5C20.9853 22.5 23 20.4853 23 18V6C23 3.51472 20.9853 1.5 18.5 1.5Z" fill="url(#paint1_radial_4_232)"/>
<path d="M18.5 1.5H6.5C4.01472 1.5 2 3.51472 2 6V18C2 20.4853 4.01472 22.5 6.5 22.5H18.5C20.9853 22.5 23 20.4853 23 18V6C23 3.51472 20.9853 1.5 18.5 1.5Z" fill="url(#paint2_radial_4_232)"/>
<path d="M17.75 7.875C17.75 8.4963 17.2463 9 16.625 9C16.0037 9 15.5 8.4963 15.5 7.875C15.5 7.25368 16.0037 6.75 16.625 6.75C17.2463 6.75 17.75 7.25368 17.75 7.875Z" fill="white"/>
<path fill-rule="evenodd" clip-rule="evenodd" d="M12.5 15.75C14.571 15.75 16.25 14.071 16.25 12C16.25 9.92895 14.571 8.25 12.5 8.25C10.429 8.25 8.75 9.92895 8.75 12C8.75 14.071 10.429 15.75 12.5 15.75ZM12.5 14.25C13.7427 14.25 14.75 13.2427 14.75 12C14.75 10.7573 13.7427 9.75 12.5 9.75C11.2573 9.75 10.25 10.7573 10.25 12C10.25 13.2427 11.2573 14.25 12.5 14.25Z" fill="white"/>
<path fill-rule="evenodd" clip-rule="evenodd" d="M5 11.7C5 9.17978 5 7.91963 5.49047 6.95705C5.9219 6.11031 6.61031 5.4219 7.45705 4.99047C8.41963 4.5 9.67978 4.5 12.2 4.5H12.8C15.3202 4.5 16.5804 4.5 17.5429 4.99047C18.3897 5.4219 19.0781 6.11031 19.5095 6.95705C20 7.91963 20 9.17978 20 11.7V12.3C20 14.8202 20 16.0804 19.5095 17.0429C19.0781 17.8897 18.3897 18.5781 17.5429 19.0095C16.5804 19.5 15.3202 19.5 12.8 19.5H12.2C9.67978 19.5 8.41963 19.5 7.45705 19.0095C6.61031 18.5781 5.9219 17.8897 5.49047 17.0429C5 16.0804 5 14.8202 5 12.3V11.7ZM12.2 6H12.8C14.0849 6 14.9583 6.00117 15.6334 6.05632C16.2911 6.11005 16.6274 6.20744 16.862 6.32698C17.4264 6.6146 17.8854 7.07354 18.173 7.638C18.2925 7.8726 18.39 8.2089 18.4437 8.86657C18.4988 9.54172 18.5 10.4151 18.5 11.7V12.3C18.5 13.5849 18.4988 14.4583 18.4437 15.1334C18.39 15.7911 18.2925 16.1274 18.173 16.362C17.8854 16.9264 17.4264 17.3854 16.862 17.673C16.6274 17.7925 16.2911 17.89 15.6334 17.9437C14.9583 17.9988 14.0849 18 12.8 18H12.2C10.9151 18 10.0417 17.9988 9.36657 17.9437C8.7089 17.89 8.3726 17.7925 8.138 17.673C7.57354 17.3854 7.1146 16.9264 6.82698 16.362C6.70744 16.1274 6.61005 15.7911 6.55632 15.1334C6.50117 14.4583 6.5 13.5849 6.5 12.3V11.7C6.5 10.4151 6.50117 9.54172 6.55632 8.86657C6.61005 8.2089 6.70744 7.8726 6.82698 7.638C7.1146 7.07354 7.57354 6.6146 8.138 6.32698C8.3726 6.20744 8.7089 6.11005 9.36657 6.05632C10.0417 6.00117 10.9151 6 12.2 6Z" fill="white"/>
<defs>
<radialGradient id="paint0_radial_4_232" cx="0" cy="0" r="1" gradientUnits="userSpaceOnUse" gradientTransform="translate(9.5 17.25) rotate(-55.3758) scale(19.1397)">
<stop stop-color="#B13589"/>
<stop offset="0.79309" stop-color="#C62F94"/>
<stop offset="1" stop-color="#8A3AC8"/>
</radialGradient>
<radialGradient id="paint1_radial_4_232" cx="0" cy="0" r="1" gradientUnits="userSpaceOnUse" gradientTransform="translate(8.75 23.25) rotate(-65.1363) scale(16.9457)">
<stop stop-color="#E0E8B7"/>
<stop offset="0.444662" stop-color="#FB8A2E"/>
<stop offset="0.71474" stop-color="#E2425C"/>
<stop offset="1" stop-color="#E2425C" stop-opacity="0"/>
</radialGradient>
<radialGradient id="paint2_radial_4_232" cx="0" cy="0" r="1" gradientUnits="userSpaceOnUse" gradientTransform="translate(0.875 2.25) rotate(-8.1301) scale(29.1682 6.23877)">
<stop offset="0.156701" stop-color="#406ADC"/>
<stop offset="0.467799" stop-color="#6A45BE"/>
<stop offset="1" stop-color="#6A45BE" stop-opacity="0"/>
</radialGradient>
</defs>
</svg>
