<svg width="21" height="20" viewBox="0 0 21 20" fill="none" xmlns="http://www.w3.org/2000/svg">
<path d="M11.125 9.16797C11.125 9.00221 11.0592 8.84324 10.9419 8.72603C10.8247 8.60882 10.6658 8.54297 10.5 8.54297C10.3342 8.54297 10.1753 8.60882 10.0581 8.72603C9.94085 8.84324 9.875 9.00221 9.875 9.16797V14.168C9.875 14.3337 9.94085 14.4927 10.0581 14.6099C10.1753 14.7271 10.3342 14.793 10.5 14.793C10.6658 14.793 10.8247 14.7271 10.9419 14.6099C11.0592 14.4927 11.125 14.3337 11.125 14.168V9.16797Z" fill="#9D9D9D"/>
<path fill-rule="evenodd" clip-rule="evenodd" d="M10.4974 1.04297C5.5499 1.04297 1.53906 5.0538 1.53906 10.0013C1.53906 14.9488 5.5499 18.9596 10.4974 18.9596C15.4449 18.9596 19.4557 14.9488 19.4557 10.0013C19.4557 5.0538 15.4449 1.04297 10.4974 1.04297ZM2.78906 10.0013C2.78906 7.95692 3.60119 5.99628 5.04678 4.55069C6.49237 3.10509 8.45302 2.29297 10.4974 2.29297C12.5418 2.29297 14.5024 3.10509 15.948 4.55069C17.3936 5.99628 18.2057 7.95692 18.2057 10.0013C18.2057 12.0457 17.3936 14.0063 15.948 15.4519C14.5024 16.8975 12.5418 17.7096 10.4974 17.7096C8.45302 17.7096 6.49237 16.8975 5.04678 15.4519C3.60119 14.0063 2.78906 12.0457 2.78906 10.0013Z" fill="#9D9D9D"/>
<path d="M11.3307 6.66927C11.3307 6.89028 11.2429 7.10225 11.0867 7.25853C10.9304 7.41481 10.7184 7.5026 10.4974 7.5026C10.2764 7.5026 10.0644 7.41481 9.90814 7.25853C9.75186 7.10225 9.66406 6.89028 9.66406 6.66927C9.66406 6.44826 9.75186 6.2363 9.90814 6.08002C10.0644 5.92374 10.2764 5.83594 10.4974 5.83594C10.7184 5.83594 10.9304 5.92374 11.0867 6.08002C11.2429 6.2363 11.3307 6.44826 11.3307 6.66927Z" fill="#9D9D9D"/>
</svg>
