<svg width="21" height="20" viewBox="0 0 21 20" fill="none" xmlns="http://www.w3.org/2000/svg">
<path d="M10.5016 17.1984C14.5884 17.1984 17.9016 13.8853 17.9016 9.79844C17.9016 5.71153 14.5884 2.39844 10.5016 2.39844C6.41466 2.39844 3.10156 5.71153 3.10156 9.79844C3.10156 13.8853 6.41466 17.1984 10.5016 17.1984Z" stroke="#585858" stroke-width="0.96" stroke-linecap="round" stroke-linejoin="round"/>
<path d="M11.2447 6.52038C11.2405 6.71419 11.16 6.89852 11.0207 7.03333C10.8814 7.16813 10.6945 7.24251 10.5006 7.24036C10.3594 7.23565 10.2226 7.18947 10.1074 7.10754C9.99216 7.02562 9.90368 6.91157 9.85288 6.77966C9.802 6.64776 9.79112 6.5038 9.8216 6.36574C9.852 6.22769 9.9224 6.1017 10.024 6.00339C10.1256 5.90509 10.2538 5.83885 10.3928 5.81297C10.5318 5.78707 10.6754 5.80265 10.8055 5.85779C10.9357 5.91292 11.0467 6.00514 11.1248 6.12297C11.203 6.2408 11.2446 6.37902 11.2447 6.52038ZM9.93272 13.2244V8.92042C9.93056 8.84482 9.94368 8.76954 9.97136 8.69922C9.99904 8.6289 10.0406 8.5649 10.0938 8.51114C10.1468 8.4573 10.2102 8.41474 10.2802 8.3861C10.3501 8.35746 10.4251 8.34322 10.5006 8.34434C10.5752 8.34426 10.649 8.3593 10.7176 8.38858C10.7862 8.41778 10.8482 8.46058 10.8998 8.51442C10.9514 8.56826 10.9914 8.63194 11.0178 8.7017C11.0441 8.77146 11.0559 8.84586 11.0526 8.92042V13.2244C11.0526 13.2979 11.0382 13.3707 11.0101 13.4387C10.9819 13.5066 10.9406 13.5683 10.8886 13.6203C10.8366 13.6723 10.775 13.7135 10.707 13.7417C10.639 13.7699 10.5662 13.7843 10.4927 13.7843C10.4192 13.7843 10.3463 13.7699 10.2784 13.7417C10.2105 13.7135 10.1487 13.6723 10.0967 13.6203C10.0447 13.5683 10.0034 13.5066 9.97536 13.4387C9.9472 13.3707 9.93272 13.2979 9.93272 13.2244Z" fill="#585858"/>
</svg>
