<svg width="21" height="20" viewBox="0 0 21 20" fill="none" xmlns="http://www.w3.org/2000/svg">
<path d="M8.13298 9.05833C8.04965 9.05 7.94965 9.05 7.85798 9.05833C5.87465 8.99166 4.29965 7.36666 4.29965 5.36666C4.29965 3.325 5.94965 1.66666 7.99965 1.66666C10.0413 1.66666 11.6996 3.325 11.6996 5.36666C11.6913 7.36666 10.1163 8.99166 8.13298 9.05833Z" stroke="#292D32" stroke-linecap="round" stroke-linejoin="round"/>
<path d="M14.1752 3.33334C15.7919 3.33334 17.0919 4.64167 17.0919 6.25C17.0919 7.825 15.8419 9.10834 14.2836 9.16667C14.2169 9.15834 14.1419 9.15834 14.0669 9.16667" stroke="#292D32" stroke-linecap="round" stroke-linejoin="round"/>
<path d="M3.96644 12.1333C1.94978 13.4833 1.94978 15.6833 3.96644 17.025C6.25811 18.5583 10.0164 18.5583 12.3081 17.025C14.3248 15.675 14.3248 13.475 12.3081 12.1333C10.0248 10.6083 6.26644 10.6083 3.96644 12.1333Z" stroke="#292D32" stroke-linecap="round" stroke-linejoin="round"/>
<path d="M15.7833 16.6667C16.3833 16.5417 16.95 16.3 17.4167 15.9417C18.7167 14.9667 18.7167 13.3583 17.4167 12.3833C16.9583 12.0333 16.4 11.8 15.8083 11.6667" stroke="#292D32" stroke-linecap="round" stroke-linejoin="round"/>
</svg>
