<svg width="21" height="21" viewBox="0 0 21 21" fill="none" xmlns="http://www.w3.org/2000/svg">
<g clip-path="url(#clip0_7_192)">
<path fill-rule="evenodd" clip-rule="evenodd" d="M2.5 11.5917C3.18277 10.9089 4.21525 11.0114 4.89802 11.6942L6.16176 13.0501L6.64936 12.5625C6.81143 12.4004 7.07419 12.4004 7.23626 12.5625C7.39832 12.7245 7.39832 12.9873 7.23626 13.1494L6.45521 13.9304C6.37738 14.0082 6.27182 14.0898 6.16176 14.0898C6.05169 14.0898 5.94614 14.0082 5.86831 13.9304L4.31112 12.281C3.95249 11.9224 3.44553 11.82 3.0869 12.1786C2.72827 12.5372 2.72827 12.9849 3.0869 13.3435L5.35064 15.6945C5.70927 16.0531 6.29073 16.0531 6.64936 15.6945L8.11394 14.2299C8.27601 14.0678 8.53877 14.0678 8.70084 14.2299C8.86291 14.392 8.86291 14.6547 8.70084 14.8168L7.23626 16.2814C6.55349 16.9641 5.44651 16.9641 4.76374 16.2814L2.5 13.9304C1.81723 13.2476 1.81723 12.2744 2.5 11.5917Z" fill="#292D32"/>
<path d="M12.1693 20.0859C11.2525 20.0859 10.5025 19.3359 10.5025 18.4194V14.9402L8.18489 12.6276C7.79946 12.2423 7.58583 11.7266 7.58583 11.1797C7.58583 10.638 7.80466 10.112 8.18489 9.72656L11.1588 6.75266H9.64317L8.40356 7.99227C8.12751 8.26832 7.76298 8.41937 7.37235 8.41937C6.57021 8.41937 5.91407 7.76312 5.91407 6.96094C5.91407 6.57031 6.06497 6.20578 6.34103 5.92977L8.00774 4.26305C8.28376 3.98699 8.64845 3.83594 9.03907 3.83594H13.7318C14.1693 3.83594 14.6015 4.01309 14.9088 4.32559L16.2577 5.67445C16.5702 5.98695 16.7473 6.41406 16.7473 6.85168V9.66937H18.6223C19.4243 9.66937 20.0806 10.3255 20.0806 11.1277C20.0806 11.9298 19.4244 12.5859 18.6223 12.5859H15.4973C14.5806 12.5859 13.8306 11.8359 13.8306 10.9194V9.84117L11.9765 11.7006L13.3463 13.0704C13.6588 13.3829 13.8358 13.8048 13.8358 14.2475V18.4142C13.8358 19.336 13.0858 20.0859 12.1693 20.0859ZM9.01169 6.21227C9.19922 6.02473 9.45358 5.91937 9.71879 5.91937H10.7601C11.651 5.91937 12.0972 6.99652 11.4672 7.62648L8.77341 10.3203C8.54423 10.5495 8.41927 10.862 8.41927 11.1849C8.41927 11.5027 8.54942 11.8152 8.77341 12.0443L11.3306 14.6016V18.4194C11.3306 18.8776 11.7057 19.2527 12.1641 19.2527C12.6223 19.2527 12.9973 18.8776 12.9973 18.4194V14.2527C12.9973 14.0287 12.9089 13.8204 12.7526 13.6641L11.5029 12.4077C11.1141 12.0169 11.1149 11.3852 11.5047 10.9954L12.9621 9.53797C13.5921 8.908 14.6693 9.35417 14.6693 10.2451V10.9194C14.6693 11.3776 15.0442 11.7527 15.5025 11.7527H18.6275C18.9713 11.7527 19.2525 11.4714 19.2525 11.1277C19.2525 10.7839 18.9713 10.5027 18.6275 10.5027H15.9193V6.85168C15.9193 6.63289 15.8306 6.41926 15.6743 6.26301L14.3255 4.91414C14.1693 4.75789 13.9556 4.66937 13.737 4.66937H9.04427C8.87747 4.66937 8.72122 4.73695 8.60146 4.85156L6.93489 6.51828C6.81513 6.63805 6.75255 6.7943 6.75255 6.96094C6.75255 7.30469 7.0338 7.58594 7.37755 7.58594C7.54419 7.58594 7.70044 7.51836 7.82021 7.40375L9.01169 6.21227Z" fill="#292D32"/>
<path fill-rule="evenodd" clip-rule="evenodd" d="M6 4.415H1.5V3.585H6V4.415ZM4.5 7.415H0.500004V6.585H4.5V7.415Z" fill="#292D32"/>
<path fill-rule="evenodd" clip-rule="evenodd" d="M18 4.67C18.9223 4.67 19.67 3.92232 19.67 3C19.67 2.07768 18.9223 1.33 18 1.33C17.0777 1.33 16.33 2.07768 16.33 3C16.33 3.92232 17.0777 4.67 18 4.67ZM18 5.5C19.3807 5.5 20.5 4.38071 20.5 3C20.5 1.61929 19.3807 0.5 18 0.5C16.6193 0.5 15.5 1.61929 15.5 3C15.5 4.38071 16.6193 5.5 18 5.5Z" fill="#292D32"/>
</g>
<defs>
<clipPath id="clip0_7_192">
<rect width="20" height="20" fill="white" transform="translate(0.500004 0.5)"/>
</clipPath>
</defs>
</svg>
