<?xml version="1.0" encoding="UTF-8"?>
<svg width="20px" height="20px" viewBox="0 0 20 20" version="1.1" xmlns="http://www.w3.org/2000/svg" xmlns:xlink="http://www.w3.org/1999/xlink">
    <title>icon-calendar</title>
    <g id="Page-1" stroke="none" stroke-width="1" fill="none" fill-rule="evenodd">
        <g id="Artboard" transform="translate(-772.000000, -201.000000)" fill-rule="nonzero">
            <g id="icon-calendar" transform="translate(772.000000, 201.000000)">
                <rect id="Rectangle" fill-opacity="0" fill="#FFFFFF" x="0" y="0" width="20" height="20"></rect>
                <path d="M14,1.99999 C14.407841,1.99999 14.7444016,2.30517815 14.7937669,2.6996397 L14.8,2.79999 L14.79905,3.59999 L17.2,3.59999 C17.607841,3.59999 17.9444016,3.90517815 17.9937669,4.2996397 L18,4.39999 L18,17.2 C18,17.6418278 17.6418278,18 17.2,18 L17.2,18 L2.80005,18 C2.3582222,18 2.00005,17.6418278 2.00005,17.2 L2.00005,17.2 L2.00005,4.39999 C2.00005,3.9581622 2.3582222,3.59999 2.80005,3.59999 L2.80005,3.59999 L5.19905,3.59999 L5.2,2.79999 C5.2,2.3581622 5.5581722,1.99999 6,1.99999 C6.40784105,1.99999 6.74440158,2.30517815 6.79376686,2.6996397 L6.8,2.79999 L6.79905,3.59999 L13.19905,3.59999 L13.2,2.79999 C13.2,2.3581622 13.5581722,1.99999 14,1.99999 Z M16.39905,9.99899 L3.59905,9.99899 L3.6,16.4 L16.4,16.4 L16.39905,9.99899 Z M5.19905,5.19899 L3.6,5.199 L3.59905,8.39899 L16.39905,8.39899 L16.4,5.199 L14.79905,5.19899 L14.8,5.99999 C14.8,6.4418178 14.4418278,6.79999 14,6.79999 C13.592159,6.79999 13.2555984,6.49480185 13.2062331,6.1003403 L13.2,5.99999 L13.19905,5.19899 L6.79905,5.19899 L6.8,5.99999 C6.8,6.4418178 6.4418278,6.79999 6,6.79999 C5.59215895,6.79999 5.25559842,6.49480185 5.20623314,6.1003403 L5.2,5.99999 L5.19905,5.19899 Z" id="Combined-Shape" fill="#495576"></path>
            </g>
        </g>
    </g>
</svg>