<svg width="21" height="21" viewBox="0 0 21 21" fill="none" xmlns="http://www.w3.org/2000/svg">
<g clip-path="url(#clip0_4_212)">
<mask id="path-1-inside-1_4_212" fill="white">
<path d="M12.1693 20.0859C11.2525 20.0859 10.5025 19.3359 10.5025 18.4194V14.9402L8.18489 12.6276C7.79946 12.2423 7.58582 11.7266 7.58582 11.1797C7.58582 10.638 7.80465 10.112 8.18489 9.72656L11.1588 6.75266H9.64317L8.40356 7.99227C8.1275 8.26832 7.76297 8.41937 7.37235 8.41937C6.5702 8.41937 5.91407 7.76312 5.91407 6.96094C5.91407 6.57031 6.06496 6.20578 6.34102 5.92977L8.00774 4.26305C8.28375 3.98699 8.64844 3.83594 9.03907 3.83594H13.7318C14.1693 3.83594 14.6015 4.01309 14.9088 4.32559L16.2577 5.67445C16.5702 5.98695 16.7473 6.41406 16.7473 6.85168V9.66937H18.6223C19.4243 9.66937 20.0806 10.3255 20.0806 11.1277C20.0806 11.9298 19.4244 12.5859 18.6223 12.5859H15.4973C14.5806 12.5859 13.8306 11.8359 13.8306 10.9194V9.84117L11.9765 11.7006L13.3463 13.0704C13.6588 13.3829 13.8358 13.8048 13.8358 14.2475V18.4142C13.8358 19.336 13.0858 20.0859 12.1693 20.0859ZM9.01168 6.21227C9.19922 6.02473 9.45357 5.91937 9.71879 5.91937H10.7601C11.651 5.91937 12.0972 6.99652 11.4672 7.62648L8.7734 10.3203C8.54422 10.5495 8.41926 10.862 8.41926 11.1849C8.41926 11.5027 8.54942 11.8152 8.7734 12.0443L11.3306 14.6016V18.4194C11.3306 18.8776 11.7057 19.2527 12.1641 19.2527C12.6223 19.2527 12.9973 18.8776 12.9973 18.4194V14.2527C12.9973 14.0287 12.9089 13.8204 12.7526 13.6641L11.5029 12.4077C11.1141 12.0169 11.1149 11.3852 11.5047 10.9954L12.9622 9.53797C13.5921 8.908 14.6693 9.35417 14.6693 10.2451V10.9194C14.6693 11.3776 15.0442 11.7527 15.5025 11.7527H18.6275C18.9713 11.7527 19.2525 11.4714 19.2525 11.1277C19.2525 10.7839 18.9713 10.5027 18.6275 10.5027H15.9193V6.85168C15.9193 6.63289 15.8306 6.41926 15.6743 6.26301L14.3255 4.91414C14.1693 4.75789 13.9556 4.66937 13.737 4.66937H9.04426C8.87746 4.66937 8.72121 4.73695 8.60145 4.85156L6.93489 6.51828C6.81512 6.63805 6.75254 6.7943 6.75254 6.96094C6.75254 7.30469 7.03379 7.58594 7.37754 7.58594C7.54418 7.58594 7.70043 7.51836 7.8202 7.40375L9.01168 6.21227Z"/>
</mask>
<path d="M12.1693 20.0859C11.2525 20.0859 10.5025 19.3359 10.5025 18.4194V14.9402L8.18489 12.6276C7.79946 12.2423 7.58582 11.7266 7.58582 11.1797C7.58582 10.638 7.80465 10.112 8.18489 9.72656L11.1588 6.75266H9.64317L8.40356 7.99227C8.1275 8.26832 7.76297 8.41937 7.37235 8.41937C6.5702 8.41937 5.91407 7.76312 5.91407 6.96094C5.91407 6.57031 6.06496 6.20578 6.34102 5.92977L8.00774 4.26305C8.28375 3.98699 8.64844 3.83594 9.03907 3.83594H13.7318C14.1693 3.83594 14.6015 4.01309 14.9088 4.32559L16.2577 5.67445C16.5702 5.98695 16.7473 6.41406 16.7473 6.85168V9.66937H18.6223C19.4243 9.66937 20.0806 10.3255 20.0806 11.1277C20.0806 11.9298 19.4244 12.5859 18.6223 12.5859H15.4973C14.5806 12.5859 13.8306 11.8359 13.8306 10.9194V9.84117L11.9765 11.7006L13.3463 13.0704C13.6588 13.3829 13.8358 13.8048 13.8358 14.2475V18.4142C13.8358 19.336 13.0858 20.0859 12.1693 20.0859ZM9.01168 6.21227C9.19922 6.02473 9.45357 5.91937 9.71879 5.91937H10.7601C11.651 5.91937 12.0972 6.99652 11.4672 7.62648L8.7734 10.3203C8.54422 10.5495 8.41926 10.862 8.41926 11.1849C8.41926 11.5027 8.54942 11.8152 8.7734 12.0443L11.3306 14.6016V18.4194C11.3306 18.8776 11.7057 19.2527 12.1641 19.2527C12.6223 19.2527 12.9973 18.8776 12.9973 18.4194V14.2527C12.9973 14.0287 12.9089 13.8204 12.7526 13.6641L11.5029 12.4077C11.1141 12.0169 11.1149 11.3852 11.5047 10.9954L12.9622 9.53797C13.5921 8.908 14.6693 9.35417 14.6693 10.2451V10.9194C14.6693 11.3776 15.0442 11.7527 15.5025 11.7527H18.6275C18.9713 11.7527 19.2525 11.4714 19.2525 11.1277C19.2525 10.7839 18.9713 10.5027 18.6275 10.5027H15.9193V6.85168C15.9193 6.63289 15.8306 6.41926 15.6743 6.26301L14.3255 4.91414C14.1693 4.75789 13.9556 4.66937 13.737 4.66937H9.04426C8.87746 4.66937 8.72121 4.73695 8.60145 4.85156L6.93489 6.51828C6.81512 6.63805 6.75254 6.7943 6.75254 6.96094C6.75254 7.30469 7.03379 7.58594 7.37754 7.58594C7.54418 7.58594 7.70043 7.51836 7.8202 7.40375L9.01168 6.21227Z" fill="#292D32"/>
<path d="M10.5025 14.9402H12.5025V14.1105L11.9152 13.5245L10.5025 14.9402ZM8.18489 12.6276L6.77096 14.0421L6.7722 14.0433L8.18489 12.6276ZM8.18489 9.72656L6.77065 8.31231L6.76104 8.32205L8.18489 9.72656ZM11.1588 6.75266L12.573 8.16688L15.9873 4.75266H11.1588V6.75266ZM9.64317 6.75266V4.75266H8.81474L8.22895 5.33844L9.64317 6.75266ZM8.40356 7.99227L9.81777 9.40648L9.81777 9.40648L8.40356 7.99227ZM6.34102 5.92977L7.75513 7.34408L7.75523 7.34398L6.34102 5.92977ZM8.00774 4.26305L9.42195 5.67726L9.42205 5.67716L8.00774 4.26305ZM14.9088 4.32559L13.4828 5.7279L13.4887 5.73387L13.4946 5.7398L14.9088 4.32559ZM16.2577 5.67445L17.6719 4.26024L17.6719 4.26024L16.2577 5.67445ZM16.7473 9.66937H14.7473V11.6694H16.7473V9.66937ZM13.8306 9.84117H15.8306V5.00289L12.4144 8.429L13.8306 9.84117ZM11.9765 11.7006L10.5603 10.2885L9.15012 11.7027L10.5623 13.1149L11.9765 11.7006ZM13.3463 13.0704L14.7605 11.6562L14.7605 11.6562L13.3463 13.0704ZM8.7734 10.3203L7.35919 8.9061L7.35919 8.9061L8.7734 10.3203ZM8.7734 12.0443L7.34355 13.4427L7.3513 13.4506L7.35915 13.4584L8.7734 12.0443ZM11.3306 14.6016H13.3306V13.7732L12.7449 13.1875L11.3306 14.6016ZM12.7526 13.6641L11.3347 15.0746L11.3384 15.0784L12.7526 13.6641ZM15.9193 10.5027H13.9193V12.5027H15.9193V10.5027ZM15.6743 6.26301L14.2601 7.6772L14.2601 7.67722L15.6743 6.26301ZM14.3255 4.91414L15.7397 3.49995L15.7397 3.49993L14.3255 4.91414ZM8.60145 4.85156L7.21868 3.40659L7.20276 3.42183L7.18717 3.43742L8.60145 4.85156ZM6.93489 6.51828L8.3491 7.93249L8.34917 7.93243L6.93489 6.51828ZM7.8202 7.40375L9.20297 8.84873L9.21886 8.83352L9.23441 8.81796L7.8202 7.40375ZM12.9622 9.53797L11.5479 8.12375L12.9622 9.53797ZM11.5029 12.4077L10.0849 13.8182L11.5029 12.4077ZM9.01168 6.21227L7.59747 4.79805L9.01168 6.21227ZM12.1693 18.0859C12.357 18.0859 12.5025 18.2313 12.5025 18.4194H8.50254C8.50254 20.4406 10.148 22.0859 12.1693 22.0859V18.0859ZM12.5025 18.4194V14.9402H8.50254V18.4194H12.5025ZM11.9152 13.5245L9.59757 11.2118L6.7722 14.0433L9.08986 16.356L11.9152 13.5245ZM9.59881 11.2131C9.59187 11.2061 9.5897 11.2016 9.5888 11.1994C9.5879 11.1972 9.58582 11.1915 9.58582 11.1797H5.58582C5.58582 12.256 6.00948 13.2809 6.77096 14.0421L9.59881 11.2131ZM9.58582 11.1797C9.58582 11.1779 9.58631 11.1701 9.59115 11.1584C9.59604 11.1466 9.60281 11.1371 9.60873 11.1311L6.76104 8.32205C6.01692 9.07641 5.58582 10.1048 5.58582 11.1797H9.58582ZM9.59909 11.1408L12.573 8.16688L9.74463 5.33843L6.77068 8.31234L9.59909 11.1408ZM11.1588 4.75266H9.64317V8.75266H11.1588V4.75266ZM8.22895 5.33844L6.98934 6.57805L9.81777 9.40648L11.0574 8.16687L8.22895 5.33844ZM6.98934 6.57805C7.08833 6.47907 7.23249 6.41937 7.37235 6.41937V10.4194C8.29346 10.4194 9.16668 10.0576 9.81777 9.40648L6.98934 6.57805ZM7.37235 6.41937C7.67501 6.41937 7.91407 6.6588 7.91407 6.96094H3.91407C3.91407 8.86745 5.46539 10.4194 7.37235 10.4194V6.41937ZM7.91407 6.96094C7.91407 7.10022 7.85462 7.24461 7.75513 7.34408L4.92691 4.51545C4.27531 5.16696 3.91407 6.04041 3.91407 6.96094H7.91407ZM7.75523 7.34398L9.42195 5.67726L6.59352 2.84883L4.92681 4.51555L7.75523 7.34398ZM9.42205 5.67716C9.32281 5.77642 9.17867 5.83594 9.03907 5.83594V1.83594C8.11821 1.83594 7.2447 2.19757 6.59342 2.84893L9.42205 5.67716ZM9.03907 5.83594H13.7318V1.83594H9.03907V5.83594ZM13.7318 5.83594C13.6822 5.83594 13.6399 5.82629 13.6036 5.81126C13.5671 5.79614 13.5248 5.77056 13.4828 5.7279L16.3348 2.92328C15.6433 2.22004 14.6936 1.83594 13.7318 1.83594V5.83594ZM13.4946 5.7398L14.8435 7.08867L17.6719 4.26024L16.323 2.91137L13.4946 5.7398ZM14.8435 7.08867C14.7834 7.02855 14.7473 6.94796 14.7473 6.85168H18.7473C18.7473 5.88017 18.357 4.94536 17.6719 4.26024L14.8435 7.08867ZM14.7473 6.85168V9.66937H18.7473V6.85168H14.7473ZM16.7473 11.6694H18.6223V7.66937H16.7473V11.6694ZM18.6223 11.6694C18.3199 11.6694 18.0806 11.4302 18.0806 11.1277H22.0806C22.0806 9.2208 20.5288 7.66937 18.6223 7.66937V11.6694ZM18.0806 11.1277C18.0806 10.8251 18.3199 10.5859 18.6223 10.5859V14.5859C20.5288 14.5859 22.0806 13.0345 22.0806 11.1277H18.0806ZM18.6223 10.5859H15.4973V14.5859H18.6223V10.5859ZM15.4973 10.5859C15.6851 10.5859 15.8306 10.7313 15.8306 10.9194H11.8306C11.8306 12.9406 13.4761 14.5859 15.4973 14.5859V10.5859ZM15.8306 10.9194V9.84117H11.8306V10.9194H15.8306ZM12.4144 8.429L10.5603 10.2885L13.3928 13.1128L15.2469 11.2533L12.4144 8.429ZM10.5623 13.1149L11.9321 14.4846L14.7605 11.6562L13.3907 10.2864L10.5623 13.1149ZM11.9321 14.4846C11.8741 14.4266 11.8358 14.3416 11.8358 14.2475H15.8358C15.8358 13.268 15.4436 12.3392 14.7605 11.6562L11.9321 14.4846ZM11.8358 14.2475V18.4142H15.8358V14.2475H11.8358ZM11.8358 18.4142C11.8358 18.2354 11.9772 18.0859 12.1693 18.0859V22.0859C14.1944 22.0859 15.8358 20.4365 15.8358 18.4142H11.8358ZM9.71879 7.91937H10.7601V3.91937H9.71879V7.91937ZM10.053 6.21227L7.35919 8.9061L10.1876 11.7345L12.8814 9.0407L10.053 6.21227ZM7.35919 8.9061C6.74248 9.52281 6.41926 10.3494 6.41926 11.1849H10.4193C10.4193 11.3745 10.346 11.5762 10.1876 11.7345L7.35919 8.9061ZM6.41926 11.1849C6.41926 12.0391 6.7637 12.8498 7.34355 13.4427L10.2033 10.6459C10.3351 10.7807 10.4193 10.9664 10.4193 11.1849H6.41926ZM7.35915 13.4584L9.91637 16.0158L12.7449 13.1875L10.1877 10.6301L7.35915 13.4584ZM9.33063 14.6016V18.4194H13.3306V14.6016H9.33063ZM9.33063 18.4194C9.33063 19.9824 10.6014 21.2527 12.1641 21.2527V17.2527C12.81 17.2527 13.3306 17.7728 13.3306 18.4194H9.33063ZM12.1641 21.2527C13.7268 21.2527 14.9973 19.9821 14.9973 18.4194H10.9973C10.9973 17.773 11.5177 17.2527 12.1641 17.2527V21.2527ZM14.9973 18.4194V14.2527H10.9973V18.4194H14.9973ZM14.9973 14.2527C14.9973 13.4885 14.6912 12.7743 14.1668 12.2499L11.3384 15.0784C11.1265 14.8665 10.9973 14.5688 10.9973 14.2527H14.9973ZM14.1706 12.2537L12.9208 10.9973L10.0849 13.8182L11.3347 15.0746L14.1706 12.2537ZM12.9189 12.4096L14.3764 10.9522L11.5479 8.12375L10.0905 9.58118L12.9189 12.4096ZM12.6693 10.2451V10.9194H16.6693V10.2451H12.6693ZM12.6693 10.9194C12.6693 12.4819 13.9394 13.7527 15.5025 13.7527V9.75266C16.149 9.75266 16.6693 10.2733 16.6693 10.9194H12.6693ZM15.5025 13.7527H18.6275V9.75266H15.5025V13.7527ZM18.6275 13.7527C20.0759 13.7527 21.2525 12.576 21.2525 11.1277H17.2525C17.2525 10.3668 17.8667 9.75266 18.6275 9.75266V13.7527ZM21.2525 11.1277C21.2525 9.67934 20.0759 8.50266 18.6275 8.50266V12.5027C17.8667 12.5027 17.2525 11.8885 17.2525 11.1277H21.2525ZM18.6275 8.50266H15.9193V12.5027H18.6275V8.50266ZM17.9193 10.5027V6.85168H13.9193V10.5027H17.9193ZM17.9193 6.85168C17.9193 6.09858 17.6171 5.37736 17.0886 4.84879L14.2601 7.67722C14.0441 7.46115 13.9193 7.1672 13.9193 6.85168H17.9193ZM17.0886 4.84881L15.7397 3.49995L12.9113 6.32833L14.2601 7.6772L17.0886 4.84881ZM15.7397 3.49993C15.2105 2.97075 14.489 2.66937 13.737 2.66937V6.66937C13.4221 6.66937 13.128 6.54503 12.9113 6.32835L15.7397 3.49993ZM13.737 2.66937H9.04426V6.66937H13.737V2.66937ZM9.04426 2.66937C8.32464 2.66937 7.68258 2.96266 7.21868 3.40659L9.98422 6.29654C9.75985 6.51125 9.43029 6.66937 9.04426 6.66937V2.66937ZM7.18717 3.43742L5.52061 5.10413L8.34917 7.93243L10.0157 6.26571L7.18717 3.43742ZM5.52067 5.10407C5.0167 5.60805 4.75254 6.27693 4.75254 6.96094H8.75254C8.75254 7.31166 8.61355 7.66805 8.3491 7.93249L5.52067 5.10407ZM4.75254 6.96094C4.75254 8.40926 5.92922 9.58594 7.37754 9.58594V5.58594C8.13836 5.58594 8.75254 6.20012 8.75254 6.96094H4.75254ZM7.37754 9.58594C8.09726 9.58594 8.73926 9.29246 9.20297 8.84873L6.43743 5.95877C6.6616 5.74425 6.9911 5.58594 7.37754 5.58594V9.58594ZM9.23441 8.81796L10.4259 7.62648L7.59747 4.79805L6.40599 5.98954L9.23441 8.81796ZM14.3764 10.9522C13.7464 11.5821 12.6693 11.136 12.6693 10.2451H16.6693C16.6693 7.57235 13.4378 6.23386 11.5479 8.12375L14.3764 10.9522ZM12.9208 10.9973C13.3096 11.3881 13.3087 12.0198 12.9189 12.4096L10.0905 9.58118C8.92114 10.7506 8.91863 12.6457 10.0849 13.8182L12.9208 10.9973ZM10.7601 7.91937C9.86922 7.91937 9.42305 6.84223 10.053 6.21227L12.8814 9.0407C14.7713 7.1508 13.4328 3.91937 10.7601 3.91937V7.91937ZM9.71879 3.91937C8.92314 3.91937 8.16008 4.23545 7.59747 4.79805L10.4259 7.62648C10.2384 7.81402 9.984 7.91937 9.71879 7.91937V3.91937Z" fill="black" mask="url(#path-1-inside-1_4_212)"/>
<path d="M5.32782 15.6722L5.32672 15.6733L5.32782 15.6722ZM5.32782 15.6722L5.32821 15.6718L5.32782 15.6722Z" fill="#292D32" stroke="black" stroke-width="2"/>
</g>
<defs>
<clipPath id="clip0_4_212">
<rect width="20" height="20" fill="white" transform="translate(0.500004 0.5)"/>
</clipPath>
</defs>
</svg>
