<svg width="25" height="24" viewBox="0 0 25 24" fill="none" xmlns="http://www.w3.org/2000/svg">
<path d="M12.501 22.0002C18.0238 22.0002 22.501 17.5231 22.501 12.0002C22.501 6.4774 18.0238 2.00024 12.501 2.00024C6.97813 2.00024 2.50098 6.4774 2.50098 12.0002C2.50098 17.5231 6.97813 22.0002 12.501 22.0002Z" stroke="#292D32" stroke-width="1.5" stroke-linecap="round" stroke-linejoin="round"/>
<path d="M8.50059 3H9.50059C7.55059 8.84 7.55059 15.16 9.50059 21H8.50059" stroke="#292D32" stroke-width="1.5" stroke-linecap="round" stroke-linejoin="round"/>
<path d="M15.5 3C17.45 8.84 17.45 15.16 15.5 21" stroke="#292D32" stroke-width="1.5" stroke-linecap="round" stroke-linejoin="round"/>
<path d="M3.5 16V15C9.34 16.95 15.66 16.95 21.5 15V16" stroke="#292D32" stroke-width="1.5" stroke-linecap="round" stroke-linejoin="round"/>
<path d="M3.5 9C9.34 7.05 15.66 7.05 21.5 9" stroke="#292D32" stroke-width="1.5" stroke-linecap="round" stroke-linejoin="round"/>
</svg>
