<svg width="25" height="24" viewBox="0 0 25 24" fill="none" xmlns="http://www.w3.org/2000/svg">
<path d="M11.5011 20.6409C16.4054 20.6409 20.3811 16.6651 20.3811 11.7609C20.3811 6.85657 16.4054 2.88086 11.5011 2.88086C6.59681 2.88086 2.62109 6.85657 2.62109 11.7609C2.62109 16.6651 6.59681 20.6409 11.5011 20.6409Z" stroke="#585858" stroke-width="0.96" stroke-linecap="round" stroke-linejoin="round"/>
<path d="M12.3921 7.82446C12.387 8.05703 12.2904 8.27822 12.1233 8.43999C11.9561 8.60176 11.7318 8.69101 11.4992 8.68843C11.3297 8.68278 11.1656 8.62736 11.0274 8.52905C10.889 8.43075 10.7829 8.29388 10.7219 8.13559C10.6608 7.97731 10.6478 7.80456 10.6844 7.63889C10.7208 7.47323 10.8053 7.32204 10.9272 7.20407C11.0492 7.0861 11.203 7.00662 11.3698 6.97556C11.5366 6.94448 11.7089 6.96318 11.8651 7.02935C12.0213 7.0955 12.1545 7.20617 12.2482 7.34757C12.342 7.48896 12.392 7.65483 12.3921 7.82446ZM10.8177 15.8693V10.7045C10.8151 10.6138 10.8309 10.5235 10.8641 10.4391C10.8973 10.3547 10.9472 10.2779 11.011 10.2134C11.0746 10.1488 11.1507 10.0977 11.2346 10.0633C11.3185 10.029 11.4086 10.0119 11.4992 10.0132C11.5887 10.0131 11.6773 10.0312 11.7596 10.0663C11.8418 10.1013 11.9162 10.1527 11.9782 10.2173C12.0401 10.2819 12.0882 10.3583 12.1198 10.442C12.1513 10.5258 12.1655 10.615 12.1616 10.7045V15.8693C12.1616 15.9575 12.1442 16.0449 12.1105 16.1264C12.0767 16.2079 12.0272 16.282 11.9648 16.3444C11.9024 16.4068 11.8284 16.4563 11.7469 16.49C11.6653 16.5238 11.5779 16.5412 11.4897 16.5412C11.4015 16.5412 11.314 16.5238 11.2325 16.49C11.151 16.4563 11.0769 16.4068 11.0145 16.3444C10.9521 16.282 10.9026 16.2079 10.8689 16.1264C10.8351 16.0449 10.8177 15.9575 10.8177 15.8693Z" fill="#585858"/>
</svg>
