<svg width="14" height="14" viewBox="0 0 14 14" fill="none" xmlns="http://www.w3.org/2000/svg">
<g clip-path="url(#clip0_1047_49811)">
<path d="M7 0C3.13111 0 0 3.13075 0 7C0 10.8688 3.13075 14 7 14C10.8689 14 14 10.8693 14 7C14 3.13116 10.8693 0 7 0ZM7 13.0233C3.67877 13.0233 0.976746 10.3213 0.976746 7C0.976746 3.67875 3.67877 0.976746 7 0.976746C10.3212 0.976746 13.0233 3.67875 13.0233 7C13.0233 10.3213 10.3212 13.0233 7 13.0233Z" fill="#30B3BB"/>
<path d="M7.00163 5.83329C6.58699 5.83329 6.29214 6.0084 6.29214 6.26639V9.77695C6.29214 9.9981 6.58699 10.2192 7.00163 10.2192C7.39784 10.2192 7.7203 9.9981 7.7203 9.77695V6.26634C7.7203 6.00838 7.39784 5.83329 7.00163 5.83329ZM7.00163 3.66797C6.57777 3.66797 6.24609 3.97203 6.24609 4.32217C6.24609 4.67233 6.5778 4.98561 7.00163 4.98561C7.41627 4.98561 7.748 4.67233 7.748 4.32217C7.748 3.97203 7.41624 3.66797 7.00163 3.66797Z" fill="#30B3BB"/>
</g>
<defs>
<clipPath id="clip0_1047_49811">
<rect width="14" height="14" fill="white"/>
</clipPath>
</defs>
</svg>
