<svg width="188" height="212" viewBox="0 0 188 212" fill="none" xmlns="http://www.w3.org/2000/svg">
<path d="M33.8704 127.916L24.0107 133.524C23.4568 133.839 23.0198 134.326 22.7655 134.911C22.5112 135.495 22.4532 136.147 22.6002 136.768C23.6427 141.201 27.7794 150.905 44.1236 153.748L46.8481 139.054L33.8704 127.916Z" fill="#B0B0B0"/>
<path d="M44.3252 154.037L44.081 153.993C27.432 151.098 23.3423 141.02 22.3553 136.822C22.1991 136.148 22.2636 135.442 22.5393 134.808C22.815 134.174 23.2872 133.646 23.8862 133.301L33.9003 127.605L47.1231 138.953L44.3252 154.037ZM33.8397 128.222L24.1338 133.743C23.6255 134.029 23.2245 134.474 22.9918 135.009C22.7591 135.544 22.7074 136.141 22.8445 136.708C23.8042 140.789 27.7761 150.556 43.9214 153.455L46.5732 139.15L33.8397 128.222Z" fill="#381B45"/>
<path d="M44.1269 155.51C44.025 155.51 43.9233 155.501 43.823 155.484C26.2894 152.435 21.9402 141.659 20.884 137.168C20.6544 136.176 20.7498 135.137 21.156 134.203C21.5623 133.27 22.2578 132.492 23.1397 131.985L32.9994 126.381C33.315 126.202 33.6783 126.124 34.0396 126.158C34.401 126.193 34.7429 126.339 35.0186 126.575L47.9963 137.713C48.231 137.915 48.4086 138.175 48.5115 138.467C48.6145 138.758 48.6391 139.072 48.5829 139.377L45.8584 154.071C45.7823 154.475 45.5677 154.84 45.2516 155.103C44.9355 155.365 44.5378 155.51 44.1269 155.51ZM33.6662 130.057L24.8841 135.052C24.661 135.178 24.4851 135.374 24.3833 135.609C24.2814 135.844 24.2591 136.107 24.3197 136.356C25.1812 140.02 28.6852 148.625 42.7173 151.667L44.9312 139.725L33.6662 130.057Z" fill="#381B45"/>
<path d="M71.8597 56.1875C70.8351 55.1617 61.5612 46.1461 52.3931 47.0206C48.5356 47.3864 45.2417 49.4371 42.8673 52.9503C38.3422 59.6512 39.5008 65.8023 40.6252 71.756C41.8871 78.4338 43.1926 85.338 37.9699 95.8957C37.7356 96.3694 37.5967 96.8847 37.5613 97.4121C37.5259 97.9396 37.5946 98.4688 37.7634 98.9697C37.9323 99.4705 38.1981 99.9332 38.5455 100.331C38.893 100.729 39.3153 101.055 39.7885 101.289C40.2617 101.524 40.7763 101.663 41.3032 101.699C41.83 101.734 42.3586 101.665 42.8589 101.496C43.3591 101.327 43.8213 101.061 44.2188 100.713C44.6164 100.365 44.9416 99.9425 45.176 99.4688C51.5965 86.4886 49.8889 77.4866 48.5228 70.2541C47.4249 64.4415 46.9706 61.2385 49.5226 57.4629C50.8691 55.4712 52.2326 55.1241 53.141 55.0361C57.7242 54.5907 64.2472 59.9614 66.1691 61.8745C66.9258 62.6155 67.9438 63.028 69.0022 63.0224C70.0607 63.0169 71.0743 62.5937 71.8232 61.8448C72.572 61.0958 72.9958 60.0815 73.0024 59.0217C73.0091 57.962 72.5982 56.9424 71.8588 56.1841L71.8597 56.1875Z" fill="#B0B0B0"/>
<path d="M41.5662 101.957C40.8395 101.956 40.1249 101.77 39.4901 101.416C38.8553 101.062 38.3212 100.551 37.9382 99.9331C37.5553 99.3147 37.3361 98.6088 37.3015 97.882C37.2669 97.1553 37.4179 96.4317 37.7403 95.7796C42.9263 85.298 41.6294 78.4356 40.3743 71.7998C39.2404 65.7991 38.069 59.5958 42.6548 52.8086C45.0727 49.2313 48.4307 47.143 52.3659 46.7694C61.6543 45.8856 71.0026 54.9704 72.0382 56.009C72.4348 56.4064 72.7494 56.8782 72.9639 57.3973C73.1784 57.9165 73.2887 58.4729 73.2885 59.0347C73.2883 59.5965 73.1775 60.1528 72.9625 60.6717C72.7476 61.1907 72.4326 61.6622 72.0356 62.0593C71.6387 62.4564 71.1675 62.7713 70.6489 62.9861C70.1304 63.2009 69.5747 63.3113 69.0135 63.3111C68.4524 63.3108 67.8967 63.2 67.3784 62.9847C66.86 62.7695 66.3891 62.4542 65.9925 62.0567C64.0919 60.1616 57.656 54.8499 53.1667 55.2876C52.3087 55.373 51.0194 55.7013 49.7328 57.6041C47.2363 61.2985 47.6836 64.4664 48.7714 70.2081C50.146 77.474 51.8562 86.5255 45.3989 99.5766C45.0474 100.293 44.5016 100.897 43.8239 101.318C43.1461 101.739 42.3638 101.96 41.5662 101.957ZM53.6628 47.2131C53.2461 47.2131 52.8298 47.2325 52.4137 47.2712C48.6331 47.6311 45.4032 49.6433 43.0723 53.0916C38.601 59.706 39.7544 65.8059 40.8695 71.7049C42.1399 78.4237 43.4531 85.3707 38.192 96.0036C37.9723 96.4476 37.8422 96.9307 37.809 97.4251C37.7758 97.9195 37.8402 98.4157 37.9986 98.8852C38.1569 99.3547 38.406 99.7884 38.7318 100.161C39.0575 100.535 39.4535 100.84 39.897 101.06C40.3406 101.28 40.823 101.41 41.3169 101.443C41.8107 101.476 42.3063 101.412 42.7752 101.253C43.2442 101.095 43.6774 100.845 44.05 100.519C44.4227 100.193 44.7276 99.7968 44.9472 99.3527C51.3294 86.4528 49.6363 77.4971 48.277 70.3013C47.1671 64.4254 46.7078 61.1797 49.3161 57.3211C50.7215 55.2422 52.1592 54.8781 53.1189 54.7858C57.802 54.3293 64.4044 59.7607 66.3528 61.6994C67.0593 62.4074 68.0178 62.8055 69.0174 62.8059C70.017 62.8064 70.9758 62.4093 71.683 61.702C72.3902 60.9947 72.7878 60.0351 72.7882 59.0343C72.7887 58.0335 72.3921 57.0735 71.6856 56.3655C70.7097 55.391 62.2998 47.2131 53.6628 47.2131Z" fill="#381B45"/>
<g opacity="0.3">
<path d="M71.8593 56.1857C71.0687 55.3916 65.3824 49.8653 58.6203 47.7676C57.7862 48.825 57.0502 49.9131 56.8914 50.6269C56.4893 52.4391 49.7545 48.6138 45.7331 56.7661C41.7117 64.9184 46.4828 73.2903 44.0255 75.4778C43.223 76.1907 41.7254 74.2434 40.4678 70.9293C40.519 71.2029 40.5711 71.4764 40.6223 71.75C41.8842 78.4277 43.1897 85.3319 37.967 95.8896C37.4937 96.8463 37.4195 97.9521 37.7605 98.9636C38.1016 99.9751 38.83 100.81 39.7856 101.283C40.7412 101.757 41.8456 101.832 42.8559 101.49C43.8663 101.149 44.6998 100.419 45.173 99.4627C51.5962 86.4868 49.8886 77.4848 48.5225 70.2523C47.4245 64.4397 46.9703 61.2367 49.5223 57.4611C50.8687 55.4694 52.2322 55.1223 53.1407 55.0343C57.7239 54.5889 64.2469 59.9596 66.1688 61.8727C66.9254 62.6137 67.9434 63.0262 69.0019 63.0206C70.0604 63.0151 71.074 62.5919 71.8228 61.843C72.5717 61.094 72.9954 60.0797 73.0021 59.0199C73.0087 57.9602 72.5978 56.9406 71.8585 56.1823L71.8593 56.1857Z" fill="#381B45"/>
</g>
<path d="M59.7076 61.5071C59.4126 61.5066 59.1272 61.4026 58.901 61.2131C58.6748 61.0236 58.5221 60.7608 58.4696 60.4702C57.5372 55.3123 57.9846 51.4298 59.7998 48.9303C61.311 46.8506 63.2005 46.542 63.4113 46.5138C63.7394 46.4724 64.0706 46.5618 64.3334 46.7626C64.5963 46.9634 64.7698 47.2596 64.8165 47.5874C64.8632 47.9151 64.7794 48.2481 64.5832 48.5145C64.3869 48.7809 64.0939 48.9594 63.7674 49.0116C63.6905 49.0252 62.6574 49.2372 61.7832 50.4904C60.8568 51.8196 59.9603 54.5515 60.949 60.0197C60.9824 60.2016 60.9753 60.3887 60.9283 60.5675C60.8812 60.7464 60.7954 60.9126 60.6768 61.0545C60.5583 61.1963 60.41 61.3103 60.2425 61.3882C60.0749 61.4661 59.8923 61.5062 59.7076 61.5054V61.5071Z" fill="#381B45"/>
<path d="M51.3642 64.9276C51.312 64.9279 51.2598 64.9247 51.208 64.9182C40.6209 63.6069 38.8715 51.679 38.8552 51.5585C38.8181 51.2309 38.9104 50.9018 39.1125 50.6416C39.3146 50.3814 39.6104 50.2106 39.9366 50.1659C40.2628 50.1213 40.5935 50.2062 40.858 50.4025C41.1225 50.5989 41.2997 50.891 41.3517 51.2165C41.4106 51.6371 42.8681 61.3442 51.517 62.4145C51.8341 62.4551 52.1239 62.615 52.3278 62.8616C52.5316 63.1082 52.6341 63.4231 52.6147 63.7426C52.5953 64.0621 52.4553 64.3622 52.2231 64.5822C51.9909 64.8023 51.6839 64.9257 51.3642 64.9276Z" fill="#381B45"/>
<path d="M42.6232 74.1862C38.8118 74.1862 36.1505 72.721 35.9635 72.6159C35.6724 72.4518 35.4584 72.1786 35.3685 71.8564C35.2786 71.5343 35.3202 71.1896 35.4841 70.8982C35.6481 70.6067 35.9209 70.3924 36.2427 70.3024C36.5644 70.2124 36.9087 70.2541 37.1998 70.4182C37.4748 70.5703 43.7604 73.9562 50.6044 68.853C50.8724 68.6533 51.2087 68.5684 51.5393 68.6168C51.8698 68.6653 52.1676 68.8433 52.3671 69.1116C52.5666 69.3799 52.6515 69.7166 52.603 70.0475C52.5546 70.3785 52.3768 70.6766 52.1088 70.8764C48.686 73.4314 45.3621 74.1862 42.6232 74.1862Z" fill="#381B45"/>
<path d="M41.5653 103.474C40.5813 103.473 39.6138 103.221 38.7541 102.742C37.8944 102.263 37.1711 101.572 36.6525 100.735C36.1339 99.8974 35.8372 98.9416 35.7905 97.9576C35.7437 96.9735 35.9485 95.9939 36.3853 95.1111C41.3459 85.0843 40.1523 78.7699 38.8878 72.0844C37.7523 66.076 36.4656 59.2675 41.4022 51.9641C44.0815 48.0003 47.8228 45.6838 52.2224 45.2658C62.1999 44.3144 72.0202 53.8532 73.1071 54.9439C74.1914 56.0306 74.8002 57.5041 74.7994 59.0401C74.7986 60.5762 74.1883 62.049 73.1029 63.1346C72.0174 64.2202 70.5457 64.8296 69.0114 64.8288C67.4772 64.828 66.0061 64.2171 64.9218 63.1304C62.7873 61.0019 56.8961 56.4484 53.3101 56.798C52.8901 56.8381 52.0184 56.9228 50.9818 58.4554C48.9037 61.5327 49.1163 63.9108 50.2544 69.9295C51.6709 77.4218 53.4331 86.746 46.7538 100.252C46.2779 101.222 45.539 102.039 44.6215 102.609C43.704 103.178 42.6449 103.478 41.5653 103.474ZM53.6269 48.732C53.2683 48.732 52.9106 48.7483 52.5562 48.7816C49.2392 49.097 46.3927 50.8819 44.3239 53.9429C40.2018 60.0411 41.2503 65.5683 42.3542 71.4271C43.6093 78.0663 45.0317 85.5912 39.5461 96.6788C39.4077 96.9455 39.3238 97.2371 39.2993 97.5366C39.2748 97.8361 39.3103 98.1375 39.4035 98.4231C39.4968 98.7087 39.646 98.9729 39.8424 99.2001C40.0388 99.4273 40.2786 99.613 40.5475 99.7464C40.8165 99.8797 41.1094 99.958 41.4089 99.9767C41.7085 99.9953 42.0088 99.954 42.2922 99.8551C42.5756 99.7562 42.8365 99.6017 43.0596 99.4007C43.2827 99.1996 43.4634 98.9561 43.5914 98.6842C49.749 86.2391 48.108 77.5603 46.7897 70.5868C45.6362 64.4844 45.1265 60.8198 48.0627 56.4766C49.3861 54.5182 50.9912 53.4736 52.9712 53.2822C58.2596 52.7693 65.189 58.411 67.414 60.6335C67.6219 60.8502 67.8708 61.0232 68.1462 61.1424C68.4216 61.2617 68.718 61.3248 69.018 61.328C69.3181 61.3312 69.6158 61.2745 69.8937 61.1612C70.1716 61.0479 70.4241 60.8803 70.6366 60.6681C70.849 60.4559 71.0171 60.2035 71.1309 59.9255C71.2448 59.6475 71.3021 59.3496 71.2996 59.0492C71.2971 58.7488 71.2348 58.4519 71.1164 58.1759C70.9979 57.8999 70.8257 57.6502 70.6098 57.4416C67.2859 54.0994 60.1499 48.7295 53.6269 48.7295V48.732Z" fill="#381B45"/>
<path d="M49.2533 141.817C49.2533 141.817 32.7673 135.393 30.3545 127.912C28.0586 120.793 35.8538 84.8241 55.8967 71.6841C56.831 71.0706 57.903 70.6992 59.0162 70.6031C60.1294 70.507 61.2491 70.6893 62.2745 71.1336C66.885 73.1407 74.9696 77.4395 76.328 83.3941C78.2491 91.8122 69.1578 128.783 49.2533 141.817Z" fill="#B0B0B0"/>
<path d="M49.2799 142.097L49.1586 142.05C48.4807 141.786 32.5326 135.496 30.1113 127.988C28.9501 124.386 30.2769 113.669 34.5083 101.967C37.4411 93.8578 44.1007 79.1116 55.7551 71.4705C56.7235 70.8323 57.8357 70.4458 58.9909 70.3461C60.146 70.2464 61.3078 70.4366 62.3711 70.8995C67.0824 72.951 75.1909 77.2883 76.5706 83.3352C78.4729 91.6704 69.6438 128.761 49.3883 142.026L49.2799 142.097ZM59.592 70.8251C58.3264 70.8261 57.0887 71.1972 56.0308 71.8928C44.4986 79.4535 37.8936 94.0886 34.9822 102.139C30.8472 113.586 29.4812 124.388 30.5911 127.832C32.8323 134.782 47.7242 140.929 49.2218 141.532C60.6627 133.975 67.6083 119.034 70.7375 110.783C75.2626 98.8473 77.0078 87.5109 76.0805 83.4472C74.7495 77.6174 66.7947 73.3733 62.1713 71.3628C61.3575 71.0084 60.4795 70.8254 59.592 70.8251Z" fill="#381B45"/>
<path d="M49.2511 143.584C49.0324 143.584 48.8155 143.543 48.6116 143.463C46.8443 142.774 31.2693 136.503 28.6738 128.456C27.236 123.998 29.134 112.39 33.0879 101.455C36.0847 93.1684 42.9066 78.0888 54.928 70.2075C56.1059 69.431 57.4587 68.9609 58.8638 68.8398C60.2689 68.7188 61.682 68.9506 62.9751 69.5142C69.049 72.1564 76.594 76.6399 78.0454 83.0013C79.1989 88.0532 76.8672 100.306 72.6221 111.502C69.3973 120.008 62.1981 135.45 50.2168 143.296C49.9298 143.484 49.5942 143.584 49.2511 143.584ZM59.594 72.3419C58.6231 72.3432 57.6735 72.6281 56.8619 73.1617C45.6968 80.4822 39.2532 94.7839 36.4066 102.658C32.1496 114.431 31.131 124.575 32.0326 127.37C33.6958 132.528 44.171 137.805 49.0428 139.83C59.7434 132.375 66.3228 118.169 69.3256 110.248C73.75 98.581 75.4858 87.6318 74.6081 83.7877C73.382 78.4127 65.0822 74.2806 61.5714 72.7539C60.9476 72.4821 60.2744 72.3418 59.594 72.3419Z" fill="#381B45"/>
<path d="M21.5607 171.034C21.5607 171.034 26.108 186.911 11.882 191.698C-2.34392 196.485 1.50414 163.912 5.70141 159.008C9.89867 154.105 16.8964 152.996 18.7645 155.769C20.6326 158.542 11.882 163.329 21.5607 171.034Z" fill="#1B5EC9"/>
<path d="M9.20344 192.437C7.1603 192.437 5.49284 191.493 4.22581 189.611C-0.674989 182.334 2.12461 162.804 5.51077 158.849C8.54772 155.302 12.768 153.88 15.5958 154.044C17.1446 154.135 18.3433 154.698 18.9717 155.632C19.6633 156.658 19.0904 157.879 18.4262 159.292C17.1369 162.033 15.3704 165.788 21.7184 170.841L21.7816 170.891L21.8038 170.968C21.8499 171.13 26.2521 187.133 11.9629 191.942C10.9782 192.273 10.0584 192.438 9.20344 192.437ZM15.1399 154.536C12.447 154.536 8.6664 155.936 5.89071 159.177C2.6608 162.95 -0.0423211 182.374 4.64075 189.329C6.29541 191.787 8.70397 192.505 11.7998 191.466C25.1379 186.979 21.6467 172.376 21.3367 171.187C14.7548 165.911 16.611 161.965 17.9677 159.08C18.5909 157.755 19.0836 156.708 18.5508 155.917C18.018 155.125 16.9516 154.635 15.5625 154.549C15.4285 154.54 15.2867 154.536 15.1399 154.536Z" fill="#381B45"/>
<path d="M21.5607 171.034C21.5607 171.034 26.108 186.911 11.882 191.698C-2.34392 196.485 1.50414 163.912 5.70141 159.008C9.89867 154.105 16.8964 152.996 18.7645 155.769C20.6326 158.542 11.882 163.329 21.5607 171.034Z" fill="#B0B0B0"/>
<path d="M9.20344 192.437C7.1603 192.437 5.49284 191.493 4.22581 189.611C-0.674989 182.334 2.12461 162.804 5.51077 158.849C8.54772 155.302 12.768 153.88 15.5958 154.044C17.1446 154.135 18.3433 154.698 18.9717 155.632C19.6633 156.658 19.0904 157.879 18.4262 159.292C17.1369 162.033 15.3704 165.788 21.7184 170.841L21.7816 170.891L21.8038 170.968C21.8499 171.13 26.2521 187.133 11.9629 191.942C10.9782 192.273 10.0584 192.438 9.20344 192.437ZM15.1399 154.536C12.447 154.536 8.6664 155.936 5.89071 159.177C2.6608 162.95 -0.0423211 182.374 4.64075 189.329C6.29541 191.787 8.70397 192.505 11.7998 191.466C25.1379 186.979 21.6467 172.376 21.3367 171.187C14.7548 165.911 16.611 161.965 17.9677 159.08C18.5909 157.755 19.0836 156.708 18.5508 155.917C18.018 155.125 16.9516 154.635 15.5625 154.549C15.4285 154.54 15.2867 154.536 15.1399 154.536Z" fill="#381B45"/>
<g opacity="0.6">
<path d="M18.2785 167.656C18.0719 167.526 17.8689 167.391 17.6697 167.25C18.0864 168.874 22.5586 184.298 9.14114 188.812C7.45233 189.381 4.83031 188.368 3.62134 187.992C5.13768 191.32 7.74347 193.09 11.881 191.698C26.1069 186.911 21.5596 171.034 21.5596 171.034C20.0586 169.839 19.0016 168.714 18.2785 167.656Z" fill="white"/>
</g>
<path d="M9.23484 193.935C6.68199 193.935 4.51847 192.75 2.97139 190.452C-2.34436 182.559 0.672113 162.169 4.36222 157.859C7.73558 153.918 12.4784 152.343 15.6819 152.528C17.713 152.645 19.3259 153.446 20.2241 154.782C21.3963 156.523 20.5442 158.333 19.7972 159.931C18.5455 162.592 17.2511 165.343 22.6625 169.651C22.9497 169.88 23.1586 170.193 23.2602 170.546C23.3105 170.723 24.4922 174.933 23.8066 179.816C23.1526 184.477 20.6475 190.611 12.4511 193.371C11.4167 193.732 10.3304 193.923 9.23484 193.935ZM15.144 156.041C12.8754 156.041 9.49098 157.291 7.04059 160.154C4.42882 163.204 1.37308 181.758 5.89564 188.474C7.17634 190.375 8.84807 190.851 11.3198 190.02C22.5515 186.241 20.5963 174.659 19.9927 172.029C12.9642 166.155 15.2336 161.33 16.6014 158.423C16.8652 157.862 17.2571 157.028 17.2691 156.713C16.9882 156.348 16.3299 156.103 15.4761 156.053C15.3694 156.047 15.2584 156.041 15.144 156.041Z" fill="#381B45"/>
<path d="M62.1993 193.087C62.1993 193.087 62.7115 208.505 48.7409 209.604C34.7702 210.703 45.6476 182.072 50.5637 178.586C55.4799 175.099 62.0686 175.685 63.1299 178.622C64.1912 181.56 55.1811 183.909 62.1993 193.087Z" fill="#B0B0B0"/>
<path d="M47.9677 209.889C45.1212 209.889 43.2035 208.576 42.2635 205.975C39.4742 198.263 46.4471 181.196 50.4173 178.382C53.9785 175.857 58.1262 175.528 60.6577 176.322C62.0451 176.757 63.0074 177.545 63.366 178.539C63.763 179.637 62.9638 180.614 62.0383 181.746C60.2513 183.932 57.8043 186.924 62.3995 192.936L62.4481 193V193.081C62.4533 193.238 62.8093 208.753 48.7583 209.858C48.4885 209.879 48.2247 209.889 47.9677 209.889ZM57.964 176.455C55.3634 176.476 52.8314 177.293 50.7067 178.794C46.9278 181.475 40.0735 198.443 42.7357 205.806C43.6748 208.401 45.6881 209.595 48.7191 209.357C61.777 208.331 61.9529 194.363 61.9469 193.179C57.1776 186.894 59.7595 183.737 61.6464 181.429C62.5087 180.375 63.1901 179.541 62.8904 178.713C62.5864 177.871 61.7395 177.193 60.5057 176.806C59.6806 176.563 58.824 176.445 57.964 176.455Z" fill="#381B45"/>
<g opacity="0.6">
<path d="M59.3064 190.988C59.1869 194.141 57.9284 205.765 45.8583 206.717C44.6074 206.815 43.559 206.672 42.6838 206.333C43.6469 208.545 45.5406 209.858 48.7458 209.607C61.0652 208.637 62.1231 196.546 62.2008 193.695C61.1832 192.851 60.2167 191.947 59.3064 190.988Z" fill="white"/>
</g>
<path d="M47.9978 211.4C44.5186 211.4 41.9947 209.679 40.8413 206.489C37.8043 198.091 45.2007 180.224 49.5423 177.145C53.5261 174.32 58.222 173.97 61.1095 174.876C62.958 175.456 64.2635 176.573 64.7868 178.022C65.4759 179.929 64.2182 181.467 63.2073 182.703C61.4203 184.889 59.7315 186.954 63.5992 192.015C63.8223 192.307 63.9489 192.661 63.9612 193.028C63.9672 193.199 64.0825 197.308 62.3441 201.598C60.6809 205.701 56.9942 210.726 48.878 211.365C48.5784 211.389 48.2847 211.4 47.9978 211.4ZM57.9317 177.956C56.0286 177.956 53.6772 178.541 51.582 180.028C48.6176 182.13 41.6703 198.406 44.1583 205.287C44.8652 207.241 46.2356 208.03 48.598 207.844C59.4745 206.989 60.3719 196.241 60.4308 193.673C55.3823 186.693 58.6822 182.657 60.4735 180.466C60.815 180.049 61.3162 179.435 61.4314 179.145C61.2547 178.797 60.7484 178.465 60.05 178.246C59.3623 178.045 58.6483 177.947 57.9317 177.956Z" fill="#381B45"/>
<path d="M154.904 77.355C154.904 77.355 162.645 69.8071 168.676 80.475C174.707 91.143 147.364 115.701 131.079 123.349C131.079 123.349 113.747 171.827 75.7769 147.404C33.467 120.187 58.222 85.9432 86.2402 83.3942C114.258 80.8452 120.692 102.404 120.692 102.404L154.904 77.355Z" fill="white"/>
<path d="M96.2266 154.53C89.6908 154.53 82.8007 152.222 75.6416 147.614C51.9154 132.352 51.6396 116.721 53.5863 108.763C56.8708 95.3423 70.5948 84.5632 86.2184 83.1417C100.788 81.8159 109.45 87.0977 114.151 91.7624C118.523 96.1005 120.374 100.731 120.822 101.996L154.742 77.1606C154.999 76.9119 158.105 74.0303 161.945 74.5791C164.608 74.9595 166.947 76.9007 168.897 80.3499C169.985 82.2749 170.071 84.7162 169.153 87.6046C165.396 99.3949 145.398 116.868 131.283 123.533C130.655 125.21 122.105 147.239 104.932 153.089C102.129 154.047 99.1878 154.533 96.2266 154.53ZM90.6769 83.4383C89.2724 83.4383 87.8048 83.5041 86.2688 83.6443C70.8526 85.047 57.3157 95.6611 54.0806 108.883C52.1647 116.711 52.4584 132.097 75.9182 147.19C86.2022 153.806 95.9099 155.63 104.771 152.612C122.306 146.641 130.764 123.497 130.848 123.264L130.883 123.164L130.978 123.12C144.92 116.571 165.054 98.8265 168.675 87.4516C169.551 84.7017 169.479 82.3963 168.462 80.5986C166.594 77.294 164.38 75.4373 161.882 75.0783C158.201 74.5509 155.116 77.5051 155.086 77.535L155.058 77.5581L120.558 102.818L120.456 102.476C120.439 102.423 118.798 97.0724 113.783 92.1043C109.649 88.0123 102.406 83.4383 90.6727 83.4383H90.6769Z" fill="#381B45"/>
<path d="M96.2149 156.05C89.3956 156.05 82.2357 153.657 74.823 148.891C50.3062 133.12 50.0732 116.756 52.112 108.405C55.546 94.3729 69.8292 83.1151 86.0761 81.6363C101.225 80.2575 110.28 85.7992 115.21 90.6895C117.816 93.2736 119.941 96.3023 121.485 99.6334L153.774 75.9929C154.423 75.3945 157.872 72.4711 162.153 73.0866C165.304 73.5362 168.013 75.7313 170.207 79.6104C171.511 81.9184 171.638 84.7632 170.586 88.073C166.454 101.051 145.21 118.419 132.475 124.643C130.89 128.714 122.321 148.771 105.409 154.531C102.449 155.541 99.3424 156.054 96.2149 156.05ZM90.789 84.9487C89.366 84.9487 87.9029 85.0171 86.3997 85.1538C71.845 86.4788 58.5795 96.8356 55.5434 109.246C52.4015 122.086 59.926 135.109 76.7304 145.917C86.602 152.267 95.8674 154.037 104.267 151.183C121.101 145.456 129.338 122.979 129.419 122.752C129.497 122.533 129.618 122.332 129.775 122.16C129.931 121.988 130.12 121.849 130.33 121.75C144.004 115.328 163.714 98.0272 167.229 86.9917C167.971 84.6606 167.942 82.7604 167.143 81.344C165.521 78.4778 163.685 76.8751 161.679 76.5793C158.752 76.1476 156.154 78.5992 156.129 78.624C156.071 78.6797 156.01 78.7317 155.945 78.7796L121.732 103.825C121.504 103.993 121.24 104.103 120.961 104.146C120.681 104.189 120.396 104.165 120.128 104.075C119.86 103.985 119.618 103.831 119.422 103.628C119.225 103.424 119.081 103.177 119 102.906C118.987 102.859 117.401 97.7707 112.611 93.0753C107.097 87.6755 99.7693 84.9487 90.789 84.9487Z" fill="#381B45"/>
<path d="M185.897 70.7802C185.541 59.1369 174.064 57.965 168.607 58.0992C165 58.1847 163.41 61.3227 162.746 63.44C161.757 63.6657 160.814 63.9272 159.961 64.2051C154.801 65.8822 159.961 72.9941 159.961 72.9941C159.961 72.9941 157.757 78.1358 164.351 82.1081C165.553 82.8167 166.821 83.4048 168.138 83.8638C168.138 83.8638 174.384 84.4041 175.818 81.1815C180.733 82.7141 186.202 80.684 185.897 70.7802Z" fill="white"/>
<path d="M162.018 65.3092C161.962 64.5733 161.99 63.8332 162.104 63.1038C162.159 62.7371 162.235 62.3713 162.327 62.0037C162.428 61.635 162.549 61.2718 162.688 60.9155C162.979 60.1632 163.387 59.4612 163.895 58.835C164.44 58.1511 165.121 57.5879 165.895 57.1809C166.691 56.7661 167.562 56.5136 168.456 56.4381C169.224 56.3671 169.925 56.3381 170.667 56.3364C172.147 56.3276 173.626 56.4547 175.083 56.7159C175.827 56.8473 176.562 57.0243 177.283 57.2459C178.021 57.4633 178.742 57.7323 179.441 58.0511C180.891 58.6944 182.225 59.5701 183.393 60.6437C184.579 61.7486 185.548 63.0657 186.25 64.5271C186.913 65.9629 187.349 67.4934 187.542 69.0635C187.72 70.567 187.753 72.0841 187.642 73.594C187.532 75.107 187.248 76.6713 186.617 78.2099C186.004 79.7417 184.904 81.2659 183.356 82.2685C181.808 83.2712 179.953 83.6602 178.271 83.5602C176.635 83.4604 175.038 83.0189 173.583 82.2643C172.302 81.5933 171.029 80.941 169.774 79.9016C169.16 79.3887 168.528 78.7314 168.074 77.8749C167.849 77.439 167.694 76.9697 167.616 76.4849C167.594 76.2456 167.569 76.0037 167.567 75.7729C167.584 75.5455 167.601 75.3216 167.626 75.101C167.773 74.3162 168.051 73.5619 168.448 72.87C168.802 72.2291 169.216 71.6235 169.684 71.0612C169.725 71.0099 169.782 70.9734 169.846 70.9572C169.909 70.941 169.977 70.9459 170.037 70.9713C170.098 70.9966 170.149 71.041 170.182 71.0977C170.216 71.1545 170.23 71.2206 170.223 71.286V71.2997C170.182 71.6553 170.131 72.0041 170.075 72.346L170.013 72.8589C169.989 73.0298 169.956 73.1939 169.947 73.3589C169.873 73.9651 169.869 74.5778 169.937 75.1848C169.994 75.63 170.192 76.0452 170.501 76.3704C170.854 76.7302 171.256 77.0373 171.696 77.2825C172.687 77.8697 173.925 78.4296 175.129 78.957C176.216 79.4058 177.356 79.6896 178.429 79.711C180.607 79.7691 182.235 78.7519 183.158 76.7046C183.615 75.696 183.899 74.5095 184.025 73.2683C184.151 72.0271 184.167 70.6988 184.025 69.502C183.902 68.3157 183.577 67.1593 183.064 66.0828C182.546 65.047 181.826 64.1256 180.947 63.3731C179.187 61.8524 176.819 60.9933 174.349 60.4557C173.731 60.3121 173.096 60.2155 172.46 60.1137C171.823 60.012 171.179 59.9428 170.528 59.8881C169.878 59.8334 169.205 59.7863 168.59 59.765C168.096 59.7376 167.601 59.7954 167.126 59.9359C166.187 60.2061 165.276 60.9258 164.512 61.9148C163.763 62.9047 163.117 64.1108 162.606 65.3751L162.598 65.3939C162.573 65.4563 162.528 65.5084 162.469 65.5418C162.411 65.5753 162.343 65.5881 162.276 65.5782C162.21 65.5683 162.149 65.5364 162.102 65.4874C162.056 65.4385 162.028 65.3754 162.022 65.3084L162.018 65.3092Z" fill="#381B45"/>
<path d="M159.726 73.1663C158.976 72.6365 158.309 71.9984 157.745 71.2729C157.144 70.5196 156.669 69.6727 156.342 68.7657C156.16 68.2505 156.048 67.7131 156.01 67.1681C155.963 66.5295 156.045 65.8879 156.25 65.2815C156.489 64.6131 156.886 64.0126 157.407 63.5318C157.879 63.0945 158.43 62.7506 159.029 62.518C159.16 62.4658 159.321 62.4 159.426 62.3641L159.747 62.2607L160.389 62.0649C160.816 61.935 161.251 61.8316 161.685 61.7307C162.552 61.5298 163.432 61.3828 164.315 61.2588C166.087 61.0204 167.877 60.8759 169.745 60.9417C170.71 60.9767 171.671 61.1012 172.613 61.3136C173.59 61.5606 174.614 61.9119 175.568 62.6086C176.063 62.9557 176.502 63.3766 176.87 63.8566C177.06 64.1014 177.229 64.361 177.378 64.6328C177.52 64.8934 177.645 65.1632 177.751 65.4405C177.991 66.0489 178.114 66.6971 178.113 67.351C178.115 68.0649 177.952 68.7696 177.636 69.4094C177.338 70.0053 176.925 70.5363 176.421 70.972C175.978 71.3551 175.484 71.6748 174.953 71.9217C174.01 72.3586 172.992 72.6082 171.954 72.6568C169.99 72.7295 168.08 72.1961 166.615 70.9951C166.582 70.9683 166.555 70.9355 166.535 70.8983C166.515 70.8612 166.503 70.8205 166.499 70.7786C166.495 70.7367 166.499 70.6944 166.511 70.6541C166.523 70.6138 166.543 70.5763 166.57 70.5437C166.618 70.4841 166.687 70.444 166.762 70.4309H166.774C167.672 70.2745 168.487 70.1505 169.264 69.9966C170.002 69.8536 170.733 69.6713 171.452 69.4504C172.128 69.2342 172.764 68.994 173.259 68.6811C173.754 68.3682 174.066 68.0032 174.161 67.7519C174.256 67.5006 174.284 67.2732 174.116 66.8022C174.076 66.685 174.028 66.5707 173.972 66.4603C173.923 66.3593 173.866 66.2627 173.801 66.1714C173.666 65.9722 173.502 65.7949 173.313 65.6457C172.923 65.3098 172.34 65.0473 171.698 64.8465C171.003 64.6557 170.289 64.5411 169.569 64.5045C168.065 64.4002 166.478 64.5798 164.926 64.8909C164.147 65.0456 163.374 65.2439 162.606 65.4491L161.458 65.7696L160.89 65.9406L160.607 66.0261C160.512 66.0534 160.479 66.0705 160.411 66.091C160.217 66.1502 160.032 66.2365 159.862 66.3475C159.741 66.4205 159.636 66.5174 159.554 66.6321C159.374 66.8835 159.265 67.4536 159.292 68.134C159.354 69.518 159.805 71.1455 160.208 72.8354L160.212 72.8534C160.226 72.9148 160.222 72.9792 160.199 73.038C160.176 73.0968 160.136 73.1473 160.084 73.1829C160.032 73.2184 159.971 73.2374 159.908 73.2371C159.845 73.2369 159.783 73.2176 159.731 73.1816L159.726 73.1663Z" fill="#381B45"/>
<path d="M171.623 86.3245C170.406 86.3245 169.049 86.0586 167.549 85.5269C160.903 83.1643 157.543 78.1585 157.403 77.9465C157.144 77.556 157.052 77.0788 157.145 76.6197C157.238 76.1607 157.509 75.7575 157.899 75.4988C158.289 75.2401 158.766 75.1472 159.225 75.2404C159.683 75.3336 160.086 75.6054 160.344 75.9959C160.383 76.0549 163.247 80.2494 168.729 82.1983C170.698 82.8984 172.266 82.9788 173.143 82.4249C173.921 81.9342 174.064 81.005 174.065 80.9965C174.086 80.7633 174.153 80.5366 174.263 80.3296C174.372 80.1226 174.521 79.9394 174.702 79.7906C174.882 79.6419 175.091 79.5306 175.315 79.4632C175.539 79.3959 175.774 79.3737 176.006 79.3982C176.239 79.4226 176.464 79.4931 176.669 79.6055C176.875 79.718 177.055 79.8701 177.201 80.0531C177.347 80.2361 177.455 80.4464 177.519 80.6716C177.583 80.8968 177.602 81.1324 177.574 81.3649C177.546 81.6325 177.232 84.0148 175.024 85.4133C174.061 86.021 172.924 86.3245 171.623 86.3245Z" fill="#381B45"/>
<path d="M78.3131 148.949C78.3131 148.949 103.097 131.755 109.525 150.773C115.598 168.743 101.659 198.266 84.7712 197.863C67.8831 197.461 59.5056 192.899 57.7963 185.651C56.087 178.404 58.6339 176.124 64.1998 174.916C69.7657 173.708 72.5098 172.367 72.9085 168.072C73.3073 163.778 71.5681 159.753 71.5681 159.753" fill="white"/>
<path d="M85.1103 199.63C84.9823 199.63 84.8542 199.63 84.7278 199.625C67.7467 199.22 58.1073 194.654 56.0795 186.054C55.1566 182.142 55.3435 179.342 56.6678 177.24C58.2849 174.676 61.3406 173.726 63.8217 173.186C69.7454 171.904 70.8912 170.684 71.1516 167.904C71.5051 164.137 69.964 160.484 69.9477 160.448C69.7643 160.019 69.7583 159.534 69.9312 159.1C70.104 158.666 70.4416 158.318 70.87 158.133C71.2983 157.947 71.7826 157.94 72.2167 158.111C72.6508 158.282 72.9994 158.619 73.1862 159.047C73.2647 159.228 75.1038 163.543 74.6641 168.234C74.116 174.091 69.5763 175.552 64.5697 176.638C61.8836 177.222 60.3673 177.988 59.6518 179.124C58.8766 180.354 58.8313 182.355 59.5126 185.243C61.5216 193.761 74.3789 195.842 84.8123 196.099C90.2579 196.228 95.8443 192.775 100.545 186.376C108.144 176.033 111.218 161.296 107.854 151.34C107.704 150.897 107.736 150.411 107.943 149.991C108.15 149.572 108.516 149.251 108.959 149.101C109.402 148.951 109.887 148.983 110.306 149.191C110.726 149.398 111.046 149.764 111.196 150.208C114.902 161.174 111.622 177.266 103.388 188.469C98.088 195.678 91.6111 199.629 85.1103 199.63Z" fill="#381B45"/>
<path d="M89.7378 107.346C89.7378 107.346 100.325 117.41 127.804 115.397L118.466 132.623C118.03 133.431 117.312 134.049 116.449 134.36C111.753 136.043 95.8339 140.275 82.4899 126.47C81.9485 125.902 81.6 125.178 81.4944 124.4C81.3887 123.622 81.5313 122.831 81.9017 122.139L89.7378 107.346Z" fill="#B0B0B0"/>
<path d="M105.082 136.544C98.3374 136.544 89.8993 134.492 82.3091 126.639C81.7285 126.034 81.3546 125.26 81.2414 124.429C81.1281 123.598 81.2814 122.752 81.679 122.014L89.6705 106.93L89.9113 107.157C90.0163 107.257 100.755 117.12 127.785 115.14L128.245 115.107L118.687 132.736C118.221 133.598 117.455 134.259 116.534 134.59C112.852 135.878 108.982 136.538 105.082 136.544ZM89.8122 107.737L82.1281 122.249C81.7805 122.894 81.6461 123.632 81.7443 124.357C81.8425 125.083 82.1682 125.758 82.6745 126.287C95.9306 140 111.815 135.745 116.367 134.114C117.171 133.825 117.84 133.248 118.245 132.495L127.365 115.675C102.653 117.376 91.5617 109.183 89.8122 107.737V107.737Z" fill="#381B45"/>
<path d="M105.064 137.811C98.0549 137.811 89.2898 135.678 81.4041 127.52C80.6374 126.724 80.143 125.705 79.9925 124.61C79.8419 123.515 80.043 122.4 80.5665 121.427L88.4027 106.638C88.5117 106.433 88.6666 106.255 88.8555 106.119C89.0443 105.983 89.262 105.892 89.4916 105.854C89.7211 105.816 89.9563 105.832 90.1789 105.9C90.4014 105.968 90.6052 106.086 90.7745 106.246C90.8975 106.36 101.375 115.82 127.694 113.89C127.964 113.87 128.235 113.923 128.478 114.044C128.721 114.165 128.927 114.35 129.074 114.578C129.222 114.807 129.305 115.07 129.315 115.342C129.325 115.614 129.262 115.883 129.132 116.122L119.794 133.345C119.181 134.48 118.171 135.349 116.958 135.785C114.863 136.532 110.489 137.811 105.064 137.811ZM90.229 109.648L83.2372 122.845C83.0151 123.254 82.9285 123.723 82.9899 124.185C83.0513 124.647 83.2575 125.077 83.5787 125.414C96.3097 138.585 111.568 134.497 115.938 132.93C116.449 132.745 116.875 132.378 117.133 131.898L125.172 117.07C123.617 117.143 122.119 117.179 120.677 117.177C103.044 117.178 93.6621 112.054 90.229 109.648Z" fill="#381B45"/>
<path d="M104.747 122.377C104.664 122.373 104.581 122.363 104.499 122.346C96.1318 120.648 91.593 117.335 91.4043 117.195C91.0671 116.939 90.8441 116.56 90.7838 116.141C90.7234 115.722 90.8305 115.295 91.0819 114.955C91.3332 114.614 91.7085 114.386 92.1266 114.32C92.5446 114.255 92.9716 114.356 93.3151 114.604C93.4005 114.665 97.5687 117.653 105.138 119.19C105.534 119.271 105.885 119.499 106.121 119.827C106.357 120.156 106.461 120.562 106.411 120.963C106.362 121.365 106.164 121.734 105.855 121.996C105.547 122.257 105.151 122.393 104.747 122.377Z" fill="#381B45"/>
<path d="M101.892 129.017C101.809 129.013 101.726 129.003 101.644 128.986C93.2768 127.289 88.7389 123.976 88.5493 123.835C88.2121 123.579 87.9892 123.201 87.9288 122.782C87.8685 122.362 87.9755 121.936 88.2269 121.595C88.4782 121.254 88.8536 121.027 89.2716 120.961C89.6896 120.895 90.1166 120.997 90.4601 121.244C90.5455 121.305 94.7137 124.294 102.284 125.83C102.681 125.91 103.033 126.137 103.271 126.466C103.508 126.795 103.612 127.202 103.563 127.605C103.513 128.008 103.314 128.377 103.004 128.639C102.694 128.901 102.297 129.036 101.892 129.017Z" fill="#381B45"/>
<path d="M116.275 123.712C116.793 122.491 116.306 121.116 115.188 120.641C114.07 120.166 112.744 120.77 112.226 121.991C111.709 123.212 112.196 124.586 113.314 125.062C114.432 125.537 115.758 124.932 116.275 123.712Z" fill="#381B45"/>
<path d="M112.909 131.219C113.846 130.281 113.909 128.824 113.05 127.964C112.191 127.104 110.735 127.167 109.799 128.105C108.862 129.043 108.799 130.5 109.658 131.36C110.517 132.22 111.972 132.157 112.909 131.219Z" fill="#381B45"/>
<path d="M94.1454 196.758C97.8036 193.229 97.0549 186.509 92.4733 181.748C87.8916 176.986 81.212 175.986 77.5538 179.514C73.8957 183.042 74.6443 189.762 79.226 194.524C83.8076 199.286 90.4873 200.286 94.1454 196.758Z" fill="white"/>
<g opacity="0.3">
<path d="M94.0173 183.631C93.8055 185.462 93.0721 187.124 91.7709 188.38C88.1124 191.908 81.4331 190.908 76.8508 186.146C76.2873 185.56 75.7706 184.932 75.3054 184.265C74.9221 187.581 76.2728 191.458 79.2244 194.523C83.8058 199.285 90.486 200.285 94.1436 196.757C97.3411 193.676 97.1703 188.153 94.0173 183.631Z" fill="#381B45"/>
</g>
<path d="M88.5943 200.615C84.9751 200.615 81.0288 198.941 77.9577 195.75C75.4732 193.168 73.9073 189.972 73.5487 186.752C73.1705 183.36 74.1592 180.341 76.3312 178.243C78.5033 176.144 81.5582 175.271 84.929 175.777C88.1299 176.255 91.2607 177.941 93.7453 180.523C98.9944 185.979 99.7219 193.833 95.3675 198.031C93.5651 199.773 91.1617 200.615 88.5943 200.615ZM83.1147 179.17C81.3874 179.17 79.8779 179.727 78.7791 180.787C77.413 182.104 76.8008 184.084 77.0544 186.361C77.3276 188.811 78.5503 191.275 80.4986 193.299C84.3979 197.352 89.9758 198.333 92.9239 195.487C95.8721 192.64 95.1037 187.024 91.2044 182.974C89.2569 180.95 86.8432 179.634 84.4073 179.269C83.9795 179.204 83.5474 179.171 83.1147 179.17Z" fill="#381B45"/>
<path d="M79.6761 154.918C79.6761 154.918 61.1794 167.668 45.2296 172.364C29.2798 177.059 10.2461 173.572 14.6697 158.943C19.0932 144.315 41.4789 147.537 48.3093 122.443C48.3118 122.444 107.957 134.924 79.6761 154.918Z" fill="white"/>
<path d="M92.2769 154.046C91.3911 154.753 90.4396 155.373 89.4355 155.897C88.3976 156.446 87.3061 156.887 86.1782 157.212C84.9731 157.543 83.7265 157.699 82.477 157.674C81.1724 157.643 79.8413 157.319 78.5496 156.8L80.9257 156.728C78.5897 158.308 76.2708 159.761 73.8998 161.201C71.5288 162.64 69.1313 164.002 66.7065 165.335C61.8331 167.964 56.8512 170.428 51.6217 172.439C50.3025 172.917 49.0031 173.436 47.6472 173.842C46.9736 174.054 46.3085 174.28 45.6271 174.479C44.9458 174.678 44.2525 174.867 43.5575 175.025C40.7827 175.704 37.9548 176.143 35.105 176.337C33.6729 176.437 32.2367 176.466 30.8018 176.422C29.3519 176.387 27.9056 176.261 26.4714 176.045C25.0067 175.839 23.5619 175.511 22.152 175.064C20.6878 174.611 19.2806 173.99 17.9582 173.215C16.5539 172.392 15.3131 171.318 14.2979 170.045C13.2486 168.712 12.5244 167.151 12.1831 165.488C11.8415 163.84 11.8936 162.189 12.1489 160.644C12.2556 159.859 12.4751 159.127 12.6672 158.381C12.9293 157.649 13.1487 156.9 13.5039 156.2C13.8087 155.477 14.2219 154.81 14.6138 154.136C15.0604 153.497 15.4992 152.853 16.0123 152.276C16.9948 151.13 18.0955 150.091 19.296 149.176C21.6295 147.37 24.0901 145.986 26.462 144.626C28.8466 143.274 31.1502 141.942 33.312 140.455C35.4593 138.96 37.4427 137.299 39.1784 135.42C40.9079 133.53 42.3812 131.421 43.5601 129.145C44.7512 126.868 45.6664 124.431 46.3691 121.916L46.3742 121.897C46.5243 121.389 46.8676 120.961 47.3301 120.704C47.7926 120.447 48.3374 120.383 48.8469 120.525C49.3564 120.667 49.7898 121.003 50.0538 121.462C50.3178 121.921 50.3912 122.465 50.2581 122.977C49.4983 125.732 48.4916 128.448 47.1537 131.024C45.8181 133.616 44.1473 136.021 42.1846 138.176C40.2158 140.322 37.9831 142.193 35.648 143.826C33.3086 145.446 30.8744 146.855 28.5085 148.207C26.1426 149.558 23.8331 150.893 21.8438 152.447C20.8684 153.19 19.9749 154.036 19.1782 154.969C18.7761 155.415 18.4551 155.909 18.1135 156.387C17.8267 156.9 17.5099 157.391 17.2888 157.935C17.0181 158.454 16.8619 159.03 16.6587 159.582C16.5178 160.162 16.3376 160.742 16.2676 161.316C16.0806 162.464 16.0627 163.593 16.2796 164.631C16.692 166.708 18.105 168.414 20.1217 169.601C21.1635 170.202 22.2703 170.683 23.4207 171.034C24.6192 171.411 25.8474 171.685 27.0921 171.854C28.3613 172.042 29.6411 172.15 30.9239 172.176C32.2212 172.213 33.5194 172.185 34.8138 172.091C37.4202 171.906 40.0059 171.497 42.5424 170.868C43.1793 170.723 43.8051 170.537 44.4352 170.364C45.0636 170.178 45.6929 169.962 46.3221 169.766C47.5858 169.385 48.8255 168.885 50.0737 168.43C55.0479 166.503 59.8847 164.098 64.6233 161.525C66.9849 160.218 69.3294 158.876 71.6372 157.469C73.945 156.062 76.2477 154.606 78.436 153.116C78.754 152.899 79.1233 152.77 79.5069 152.741C79.8905 152.712 80.275 152.785 80.6217 152.952L80.8121 153.044C81.4422 153.588 82.1714 154.107 83.0474 154.436C83.972 154.774 84.941 154.976 85.9238 155.034C86.9816 155.086 88.0419 155.029 89.088 154.863C90.1746 154.693 91.2425 154.42 92.2769 154.046Z" fill="#381B45"/>
<path d="M47.9849 172.736C51.9815 169.598 51.9174 162.836 47.8416 157.634C43.7659 152.432 37.2219 150.759 33.2253 153.897C29.2287 157.036 29.2928 163.797 33.3686 169C37.4443 174.202 43.9883 175.875 47.9849 172.736Z" fill="white"/>
<g opacity="0.3">
<path d="M35.8591 156.533C39.0771 154.005 43.9463 154.6 47.8499 157.644L47.8422 157.635C43.7662 152.432 37.2227 150.759 33.226 153.898C29.2294 157.037 29.2935 163.797 33.3695 169C34.1347 169.979 35.0167 170.861 35.9958 171.626C31.9274 166.424 31.8651 159.669 35.8591 156.533Z" fill="#381B45"/>
</g>
<path d="M43.2166 176.089C42.2229 176.084 41.2336 175.955 40.2719 175.705C37.1359 174.903 34.192 172.908 31.9824 170.087C27.3129 164.127 27.3821 156.239 32.1377 152.505C36.8934 148.772 44.5605 150.582 49.2299 156.542C51.4404 159.363 52.6741 162.701 52.7049 165.945C52.7373 169.358 51.4481 172.264 49.0745 174.128C47.4224 175.422 45.4049 176.089 43.2166 176.089ZM38.0349 154.065C36.6552 154.065 35.3668 154.458 34.3149 155.284C31.0901 157.817 31.2891 163.479 34.758 167.907C36.4904 170.119 38.7581 171.673 41.1444 172.283C43.3643 172.85 45.4057 172.517 46.8973 171.343C48.3898 170.171 49.2026 168.265 49.1778 165.972C49.1539 163.507 48.1874 160.929 46.4542 158.72C44.1174 155.739 40.8832 154.065 38.0349 154.065Z" fill="#381B45"/>
<path d="M65.4686 122.344C65.4686 122.344 69.2543 117.664 77.0956 120.432C84.9369 123.2 88.0029 127.125 83.8816 129.39C83.8816 129.39 90.0639 131.905 86.443 140.964C82.822 150.022 62.1157 148.109 57.793 131.1C57.7947 131.1 63.5416 128.877 65.4686 122.344Z" fill="white"/>
<path d="M76.5729 148.076C76.1676 148.076 75.7569 148.063 75.3408 148.035C67.719 147.533 58.8096 142.237 56.0903 131.538L55.7043 130.019L57.1635 129.454C57.359 129.377 62.1386 127.417 63.7813 121.847L63.8812 121.509L64.1023 121.235C64.2893 121.005 68.7743 115.624 77.6871 118.769C81.2021 120.01 87.148 122.683 87.4707 126.645C87.5455 127.583 87.2773 128.517 86.716 129.272C88.6421 131.133 90.7723 134.901 88.0872 141.622C86.4897 145.614 82.0423 148.076 76.5729 148.076ZM59.8991 132.016C62.6927 140.63 69.9739 144.142 75.5722 144.512C80.0461 144.806 83.6739 143.155 84.812 140.307C87.6475 133.212 83.6645 131.219 83.2009 131.015L79.7661 129.618L83.0378 127.84C83.4963 127.584 83.977 127.216 83.9548 126.928C83.8831 126.051 81.7998 123.962 76.5139 122.096C70.8891 120.111 67.8308 122.493 67.0368 123.255C65.4308 128.199 61.9063 130.855 59.8991 132.016Z" fill="#381B45"/>
<path d="M76.5692 148.076C76.1639 148.076 75.7532 148.063 75.3371 148.035C67.7153 147.533 58.8059 142.237 56.0866 131.538C55.9801 131.119 56.0305 130.676 56.2282 130.292C56.426 129.908 56.7574 129.61 57.1598 129.454C57.3553 129.377 62.1349 127.417 63.7776 121.847C63.8433 121.624 63.9524 121.416 64.0986 121.235C64.2856 121.005 68.7706 115.624 77.6834 118.769C81.1985 120.01 87.1443 122.683 87.467 126.645C87.5418 127.583 87.2736 128.517 86.7123 129.272C88.6384 131.133 90.7687 134.901 88.0835 141.622C86.486 145.614 82.0386 148.076 76.5692 148.076ZM59.8954 132.016C62.689 140.63 69.9702 144.142 75.5685 144.512C80.0424 144.806 83.6702 143.155 84.8083 140.307C87.6438 133.212 83.6608 131.219 83.1972 131.015C82.8898 130.89 82.6243 130.68 82.432 130.409C82.2397 130.138 82.1284 129.818 82.1112 129.486C82.0939 129.152 82.1715 128.821 82.3348 128.53C82.4982 128.238 82.7407 127.999 83.0341 127.84C83.4926 127.584 83.9733 127.216 83.9511 126.928C83.8794 126.051 81.7961 123.962 76.5103 122.096C70.8854 120.111 67.8271 122.493 67.0331 123.255C65.4271 128.199 61.9026 130.855 59.8954 132.016Z" fill="#381B45"/>
<path d="M77.2933 127.738C78.5296 127.909 79.6541 128.02 80.6906 127.985C81.2029 127.985 81.6972 127.924 82.1642 127.9C82.6364 127.889 83.0787 127.831 83.5747 127.909L83.8394 127.952C84.1671 128.005 84.4688 128.163 84.6989 128.403C84.9289 128.642 85.0748 128.95 85.1144 129.28C85.1541 129.61 85.0853 129.944 84.9186 130.231C84.7519 130.519 84.4962 130.744 84.1903 130.873C83.5272 131.149 82.8065 131.258 82.0917 131.189C81.3918 131.131 80.7078 130.949 80.0707 130.653C79.4516 130.379 78.872 130.023 78.3478 129.594C77.8275 129.171 77.3836 128.662 77.0355 128.089C77.0133 128.051 77.0023 128.008 77.0035 127.964C77.0048 127.92 77.0183 127.877 77.0426 127.841C77.0669 127.804 77.101 127.775 77.141 127.757C77.1809 127.739 77.2251 127.733 77.2686 127.738H77.2933Z" fill="#381B45"/>
<path d="M76.3227 79.7721C76.3227 79.7721 48.0415 74.6732 42.5465 100.84C37.0515 127.008 61.9815 139.756 67.0744 130.363C72.1673 120.969 64.2568 116.802 68.1467 106.406" fill="white"/>
<path d="M61.3181 133.697C59.952 133.697 58.4374 133.411 56.8442 132.825C52.1278 131.088 47.8136 127.193 45.0063 122.14C42.6276 117.855 40.2251 110.673 42.3041 100.788C45.1694 87.1439 54.2905 82.0877 61.4368 80.249C69.1585 78.2625 76.3005 79.5113 76.3723 79.5242L76.2869 80.02C76.2169 80.008 69.1679 78.7779 61.5512 80.7414C51.3663 83.3682 45.0584 90.1442 42.8018 100.893C40.7578 110.624 43.1143 117.685 45.4486 121.895C48.1568 126.774 52.483 130.683 57.0201 132.354C61.4906 133.999 65.2609 133.19 66.8593 130.242C69.448 125.467 68.6155 122.06 67.7344 118.452C66.8891 114.989 66.014 111.407 67.9171 106.314L68.3893 106.491C66.5408 111.435 67.3963 114.94 68.2245 118.329C69.1295 122.034 69.9841 125.534 67.3024 130.48C66.1566 132.59 64.0101 133.697 61.3181 133.697Z" fill="#381B45"/>
<path d="M76.2248 80.3508C73.7488 80.8987 71.3914 81.0432 69.0461 81.2475C67.8747 81.3544 66.7101 81.4783 65.554 81.6382L64.6857 81.7527L63.8242 81.8946C63.2454 81.9749 62.6827 82.1134 62.1107 82.2237C59.8545 82.724 57.6836 83.5523 55.6671 84.6821C53.6688 85.7844 51.8572 87.196 50.2993 88.8647C48.7474 90.5479 47.4649 92.4613 46.4973 94.5371C45.5129 96.6203 44.8017 98.8479 44.2945 101.138C43.3084 105.737 43.2307 110.514 44.356 115.002C45.4659 119.479 47.8036 123.651 51.1198 126.803C52.771 128.373 54.6622 129.699 56.6959 130.588C57.6873 131.033 58.7305 131.353 59.8012 131.539C60.8411 131.718 61.8759 131.723 62.7894 131.513C63.703 131.304 64.4637 130.883 65.0144 130.258C65.1553 130.1 65.2824 129.93 65.3944 129.75C65.449 129.649 65.5045 129.579 65.5651 129.456L65.741 129.081L66.0962 128.334C66.1543 128.209 66.2209 128.086 66.267 127.96L66.3942 127.577C67.1336 125.537 67.2796 123.479 66.804 121.228C66.6076 120.117 66.284 118.926 65.9997 117.704C65.8614 117.074 65.6915 116.465 65.566 115.805C65.4994 115.479 65.4217 115.159 65.3662 114.827C65.3107 114.494 65.2689 114.154 65.2305 113.816C64.9205 111.114 65.5148 108.129 67.6023 106.198C67.7304 106.08 67.9001 106.018 68.0741 106.025C68.2481 106.032 68.4122 106.108 68.5304 106.236C68.6113 106.323 68.6668 106.431 68.6909 106.547L68.7037 106.611C68.8288 107.236 68.888 107.873 68.8804 108.511C68.926 109.083 68.9349 109.657 68.9069 110.23C68.9334 110.788 68.9206 111.331 68.9206 111.872C68.9735 112.418 68.9206 112.952 68.9829 113.505C69.0059 113.78 69.0162 114.057 69.0307 114.334C69.0452 114.611 69.0981 114.898 69.1306 115.18C69.1878 115.739 69.3201 116.327 69.4388 116.901C69.7043 118.08 70.0365 119.269 70.273 120.586L70.3669 121.07L70.4343 121.575L70.5607 122.587L70.5991 123.632L70.6136 124.155L70.5752 124.683L70.4898 125.739C70.4352 126.087 70.3566 126.431 70.2883 126.777C70.1774 127.48 69.9297 128.127 69.7086 128.787L69.5379 129.28C69.4747 129.439 69.3961 129.589 69.3253 129.744L68.8881 130.666L68.6678 131.126C68.5953 131.279 68.474 131.468 68.3767 131.632C68.1614 131.974 67.9187 132.298 67.651 132.601C66.5726 133.837 65.0563 134.63 63.5732 134.956C62.0799 135.298 60.6054 135.256 59.2189 135.023C57.8608 134.79 56.5371 134.388 55.2786 133.826C52.7983 132.738 50.6006 131.183 48.6847 129.365C44.8503 125.72 42.1899 120.944 40.9297 115.859C39.649 110.767 39.7617 105.431 40.8443 100.405C41.4001 97.882 42.1916 95.3885 43.3143 93.0147C44.4358 90.6166 45.9201 88.406 47.7148 86.4609C49.5238 84.5212 51.6273 82.8794 53.9475 81.5963C56.2528 80.3141 58.7168 79.3874 61.2185 78.6848C63.7235 78.001 66.3028 77.559 68.8813 77.583C70.168 77.583 71.4546 77.6454 72.7234 77.9018C73.9921 78.1582 75.2335 78.5155 76.4323 79.1917C76.5418 79.2537 76.6299 79.3475 76.6851 79.4607C76.7403 79.5738 76.76 79.7011 76.7415 79.8257C76.723 79.9503 76.6672 80.0663 76.5816 80.1585C76.4959 80.2508 76.3843 80.3148 76.2615 80.3423L76.2248 80.3508Z" fill="#381B45"/>
<path d="M62.1463 100.652C59.8044 103.364 54.7832 102.858 50.9309 99.5233C47.0785 96.1887 45.8525 91.2864 48.1987 88.5749C50.5449 85.8635 56.3337 85.2566 60.1869 88.592C64.0401 91.9275 64.4883 97.9427 62.1463 100.652Z" fill="white"/>
<path d="M57.9049 104.184C55.2581 104.184 52.3168 103.061 49.7759 100.86C45.1158 96.8267 43.8352 90.9234 46.8593 87.4221C48.3552 85.6903 50.7979 84.6449 53.5625 84.5534C56.4483 84.4577 59.2095 85.4185 61.332 87.2589C63.4546 89.0992 64.842 91.7141 65.2313 94.6238C65.6104 97.4601 64.9752 100.079 63.4768 101.809C62.1047 103.402 60.1094 104.184 57.9049 104.184ZM60.8078 99.4996L62.1423 100.654L60.8078 99.4996C61.618 98.5594 61.9732 96.8737 61.735 95.0931C61.4644 93.0681 60.4765 91.1867 59.0242 89.9301C57.5719 88.6736 55.673 88.0171 53.676 88.0829C51.9437 88.1401 50.353 88.7719 49.524 89.7318C47.8514 91.6688 49.022 95.5445 52.0803 98.1892C55.1386 100.834 59.1386 101.437 60.8112 99.4996H60.8078Z" fill="#381B45"/>
<g opacity="0.3">
<path d="M64.8828 131.68C56.7581 129.588 46.5441 118.662 50.1122 101.653C53.6981 84.59 67.6671 81.7854 75.7465 81.6409L76.3194 79.774C76.3194 79.774 48.0383 74.6751 42.5432 100.842C38.7123 119.084 49.6665 130.801 58.3795 133.045C63.0309 146.271 78.2021 149.063 84.3528 143.832C77.6795 145.015 68.2775 141.328 64.8828 131.68Z" fill="#381B45"/>
</g>
<g opacity="0.3">
<path d="M74.4422 119.735L74.2231 119.701C74.2308 119.738 74.2394 119.774 74.2471 119.811C74.3087 119.784 74.3771 119.76 74.4422 119.735Z" fill="#381B45"/>
</g>
<g opacity="0.3">
<path d="M19.7096 184.992C19.7096 184.992 10.451 191.493 7.56857 183.71C4.68615 175.926 6.96579 163.872 9.84736 161.881C12.7289 159.891 14.031 162.346 14.031 162.346C14.031 162.346 21.8449 151.425 35.7849 147.371C49.7248 143.318 52.6559 129.32 52.6559 129.32C52.6559 129.32 42.1345 123.166 41.8494 104.83C41.8494 104.83 34.096 119.75 35.6611 133.326L30.7944 128.653L27.8386 130.334C27.8386 130.334 32.7163 134.21 31.7609 136.373C30.8055 138.537 24.3149 140.279 24.3149 140.279L28.4439 145.683C28.4439 145.683 20.104 149.064 17.0534 153.27C17.0534 153.27 9.42046 152.833 5.00206 159.083C0.58366 165.332 -1.24347 184.928 6.01039 190.141C13.2643 195.355 19.7096 184.992 19.7096 184.992Z" fill="#381B45"/>
</g>
<g opacity="0.3">
<path d="M41.7637 87.767C41.7637 87.767 47.1759 83.0656 50.0233 86.6258C50.0233 86.6258 58.0695 80.6721 66.5417 80.5208C66.5417 80.5208 65.0757 76.063 65.9364 72.9054L63.3417 71.4633C62.2113 70.8362 60.9251 70.5467 59.6354 70.6289C58.3457 70.7112 57.1065 71.1618 56.0648 71.9275C51.6908 75.1321 44.5897 81.0944 41.7637 87.767Z" fill="#381B45"/>
</g>
<g opacity="0.3">
<path d="M175.112 76.2937C170.555 74.3482 170.085 70.7247 173.287 70.6572C176.489 70.5896 177.39 68.3364 173.776 66.9276C170.163 65.5189 162.479 65.9284 162.479 65.9284C162.479 65.9284 160.942 74.2969 160.18 75.7467C159.417 77.1964 161.055 78.1743 161.055 78.1743C155.039 92.264 133.125 100.242 133.125 100.242C133.125 100.242 108.214 114.804 79.2115 92.7316C79.2115 92.7316 80.2659 101.386 89.7132 107.917L82.7616 121.828L84.9063 124.27C84.9063 124.27 91.0716 112.663 92.6759 111.724C93.5672 111.203 95.0742 111.26 96.2422 111.414C97.1754 111.794 98.1572 112.154 99.1946 112.486C105.955 115.655 119.114 115.604 119.114 115.604C119.114 115.604 116.902 125.006 113.082 130.545C109.263 136.083 94.24 134.369 94.24 134.369C94.24 134.369 106.95 138.495 97.8029 149.232C88.6553 159.97 79.5402 154.934 79.5402 154.934L72.2351 160.301L72.6859 166.34C73.8069 162.784 79.6742 159.698 85.8472 160.838C92.0201 161.978 90.5644 173.917 85.136 174.455C79.7075 174.994 77.3323 179.84 79.3131 178.15C81.1829 176.551 87.0698 176.656 90.3168 179.609C90.3168 179.609 97.2633 184.823 97.5835 192.354C117.1 171.668 109.522 150.774 109.522 150.774C122.481 145.406 131.076 123.353 131.076 123.353L139.922 117.36C137.873 117.847 135.098 116.249 134.495 111.422C133.892 106.595 154.499 91.8973 159.661 89.079C164.823 86.2607 167.346 89.079 167.346 89.079L169.504 84.5622C174.285 85.9846 176.173 81.6439 176.173 81.6439C182.935 83.5023 185.076 76.9784 185.076 76.9784C183.79 78.7333 179.668 78.2427 175.112 76.2937Z" fill="#381B45"/>
</g>
<g opacity="0.3">
<path d="M76.8208 186.436C76.1045 184.962 75.7211 183.914 75.7211 183.914C66.8075 180.895 72.4374 170.226 70.9629 172.441C69.4884 174.656 61.2758 175.779 61.2758 175.779C60.7981 175.836 60.335 175.981 59.9097 176.206C58.1577 176.275 53.1459 176.659 50.2507 178.835C46.6989 181.502 41.6726 197.806 42.7449 205.388C43.8173 212.97 54.2055 208.273 54.2712 207.67C54.3369 207.066 48.4406 210.018 47.3017 204.315C46.1627 198.611 49.0443 192.192 55.3436 192.618C61.6429 193.043 61.3295 199.126 61.3295 199.126L62.8587 193.458C69.1307 197.944 81.801 197.745 81.801 197.745C77.1905 190.829 76.8157 186.441 76.8157 186.441L76.8208 186.436Z" fill="#381B45"/>
</g>
<path d="M123.001 102.776C149.852 97.6281 167.617 72.5345 162.681 46.7275C157.745 20.9205 131.977 4.1727 105.127 9.32022C78.2762 14.4677 60.5108 39.5613 65.4466 65.3683C70.3824 91.1753 96.1504 107.923 123.001 102.776Z" fill="white"/>
<path d="M113.301 103.964C90.1023 103.964 69.5488 88.1797 65.1979 65.4256C62.7978 52.8754 65.6248 40.1029 73.1612 29.4606C80.6977 18.8183 92.0301 11.585 105.08 9.08383C118.131 6.58267 131.335 9.11546 142.26 16.2172C153.185 23.3189 160.531 34.1432 162.928 46.6935C165.324 59.2437 162.501 72.0153 154.964 82.6576C147.428 93.2999 136.095 100.533 123.045 103.035C119.834 103.652 116.571 103.963 113.301 103.964ZM114.91 8.64787C111.644 8.64979 108.385 8.96148 105.177 9.57876C92.2547 12.0577 81.0315 19.2201 73.5745 29.7521C66.1174 40.2842 63.3212 52.9173 65.6948 65.3308C70.5956 90.9603 96.282 107.652 122.953 102.54C135.875 100.061 147.099 92.899 154.556 82.367C162.013 71.835 164.81 59.2018 162.436 46.7892C160.062 34.3766 152.8 23.6685 141.988 16.6403C133.889 11.3764 124.527 8.64787 114.91 8.64787Z" fill="#381B45"/>
<g opacity="0.3">
<path d="M135.034 91.6765C132.794 92.1055 130.525 92.3737 128.246 92.4791C106.157 95.1572 85.8412 82.0309 82.0076 61.9832C81.2251 57.8964 81.1717 53.7033 81.8497 49.5979C75.6016 46.0599 73.1879 41.2918 72.7252 36.5391C68.58 45.1119 67.0508 54.9302 68.9488 64.857C73.3587 87.9205 94.7335 103.604 118.417 102.392C119.571 102.252 120.728 102.072 121.888 101.851C133.043 99.7142 142.595 94.0622 149.537 86.3382C145.029 88.9053 140.129 90.709 135.034 91.6765Z" fill="#381B45"/>
</g>
<path d="M113.3 105.475C89.3932 105.475 68.2029 89.1866 63.7136 65.7077C61.2376 52.7497 64.1533 39.5661 71.928 28.5853C79.6873 17.6258 91.3595 10.1719 104.799 7.59728C118.239 5.02261 131.831 7.63232 143.085 14.9486C154.361 22.2785 161.936 33.4517 164.414 46.4054C166.892 59.3591 163.974 72.547 156.199 83.5286C148.44 94.4872 136.768 101.941 123.328 104.517C120.023 105.152 116.665 105.473 113.3 105.475ZM114.907 10.1583C111.736 10.1598 108.572 10.4623 105.457 11.0618C92.9203 13.4646 82.0327 20.4125 74.8061 30.6248C67.5873 40.8158 64.8782 53.0395 67.174 65.0444C71.9177 89.855 96.8119 106.009 122.666 101.054C135.203 98.651 146.09 91.7031 153.317 81.4899C160.532 71.2998 163.242 59.0761 160.946 47.0704C158.65 35.0647 151.627 24.707 141.159 17.9071C133.313 12.8039 124.234 10.1583 114.907 10.1583Z" fill="#381B45"/>
<path d="M131.961 96.4758C155.075 91.2808 170.011 70.1132 165.321 49.1967C160.631 28.2801 138.091 15.5353 114.977 20.7303C91.863 25.9253 76.9273 47.0929 81.6173 68.0095C86.3073 88.926 108.847 101.671 131.961 96.4758Z" fill="#ED8100"/>
<g opacity="0.3">
<path d="M140.953 81.0071C118.048 86.6291 95.4843 74.3507 90.5545 53.5833C88.8144 46.2508 89.5145 38.8448 92.1434 32.0781C82.4485 41.5664 77.7338 54.9732 80.8579 68.1337C85.7877 88.9055 108.35 101.18 131.257 95.5575C146.076 91.9204 157.397 81.679 162.215 69.2792C156.614 74.7662 149.345 78.9478 140.953 81.0071Z" fill="#381B45"/>
</g>
<path d="M120.753 98.6598C111.524 98.6598 102.539 96.01 95.1737 90.9786C86.5128 85.0625 80.7351 76.3512 78.9037 66.4457C74.8525 44.5439 91.1369 22.9499 115.204 18.3091C127.498 15.9405 140.163 18.4194 149.961 25.1125C158.621 31.0286 164.4 39.7399 166.231 49.6454C170.283 71.5506 153.999 93.1464 129.93 97.7854C126.906 98.3675 123.833 98.6603 120.753 98.6598ZM124.389 20.9582C121.53 20.9586 118.678 21.2316 115.871 21.7737C93.6966 26.0477 78.6672 45.8013 82.3676 65.808C84.0265 74.7835 89.2833 82.6836 97.1596 88.0654C106.187 94.2328 117.888 96.5117 129.262 94.3192C151.436 90.0451 166.466 70.2915 162.765 50.2848C161.106 41.3094 155.85 33.4093 147.973 28.0274C141.198 23.3961 132.912 20.9573 124.39 20.9573L124.389 20.9582Z" fill="#381B45"/>
<path d="M159.687 77.8443C159.391 77.5739 159.005 77.424 158.605 77.424C158.204 77.424 157.818 77.5739 157.522 77.8443C151.069 83.7339 142.72 87.7797 133.376 89.5465C110.825 93.8111 89.7979 83.0646 86.5022 65.5941C83.2066 48.1236 98.8721 30.442 121.423 26.1791C132.197 24.1421 142.981 25.4474 151.788 29.8547C152.144 30.0337 152.553 30.0738 152.937 29.9675C153.321 29.8611 153.651 29.6158 153.865 29.2791C154.078 28.9424 154.159 28.5384 154.091 28.1455C154.024 27.7526 153.813 27.3988 153.5 27.1527C143.232 19.0534 129.482 15.8932 115.776 18.485C104.012 20.7075 93.7143 26.898 86.7831 35.911C79.8093 44.9796 77.0703 55.8168 79.0716 66.4275C82.5312 84.7699 99.4364 97.5937 119.2 98.4929C123.057 98.6649 126.92 98.3881 130.713 97.668C142.591 95.4216 152.951 89.1499 159.884 80.0052C160.126 79.6856 160.241 79.2865 160.205 78.8866C160.168 78.4866 159.984 78.1148 159.687 77.8443Z" fill="#B0B0B0"/>
<path d="M121.415 98.7951C120.67 98.7951 119.927 98.778 119.185 98.7438C98.8301 97.818 82.2323 84.5481 78.823 66.4732C76.8081 55.7882 79.5641 44.8834 86.5824 35.7567C93.5519 26.6958 103.903 20.472 115.729 18.2332C129.506 15.6287 143.329 18.806 153.654 26.9522C154.014 27.2375 154.256 27.6464 154.333 28.0999C154.41 28.5534 154.317 29.0193 154.07 29.4077C153.824 29.7961 153.443 30.0794 153.001 30.2029C152.558 30.3264 152.085 30.2814 151.674 30.0765C142.917 25.694 132.19 24.3964 121.468 26.4231C99.0538 30.6612 83.4745 48.2112 86.7471 65.5449C88.3267 73.916 94.0377 81.0006 102.83 85.4935C111.644 89.9974 122.475 91.348 133.327 89.2956C142.625 87.5382 150.931 83.5129 157.349 77.6558C157.692 77.342 158.139 77.1679 158.603 77.1677C159.067 77.1675 159.514 77.3412 159.857 77.6546C160.2 77.968 160.413 78.3985 160.454 78.8613C160.496 79.3241 160.363 79.7857 160.081 80.1552C153.11 89.3512 142.694 95.6571 130.757 97.9155C127.677 98.499 124.549 98.7935 121.415 98.7951ZM125.156 17.8511C122.024 17.8534 118.899 18.1482 115.822 18.7316C104.118 20.9447 93.8797 27.1001 86.9819 36.0644C80.0517 45.0749 77.334 55.842 79.3174 66.3801C82.6831 84.2241 99.0871 97.324 119.208 98.2412C123.046 98.4115 126.89 98.1359 130.664 97.4197C142.48 95.1852 152.785 88.9469 159.68 79.8526C159.884 79.583 159.98 79.247 159.949 78.9103C159.918 78.5736 159.763 78.2606 159.514 78.0325C159.265 77.8044 158.939 77.6778 158.602 77.6773C158.264 77.6769 157.938 77.8027 157.688 78.0302C151.199 83.9505 142.81 88.0186 133.42 89.7931C122.459 91.866 111.514 90.4992 102.598 85.9465C93.6637 81.381 87.8579 74.1699 86.2494 65.6424C82.929 48.0334 98.6841 30.2219 121.371 25.9325C132.2 23.8809 143.041 25.199 151.895 29.6303C152.195 29.7796 152.54 29.8124 152.862 29.7224C153.185 29.6323 153.463 29.4258 153.642 29.1427C153.822 28.8596 153.89 28.52 153.834 28.1894C153.779 27.8587 153.602 27.5605 153.34 27.3523C145.471 21.1404 135.54 17.8511 125.156 17.8511Z" fill="#381B45"/>
<g opacity="0.3">
<path d="M158.843 77.4257C158.554 77.1609 158.175 77.014 157.783 77.014C157.391 77.014 157.013 77.1609 156.723 77.4257C150.405 83.1905 142.234 87.1517 133.088 88.8801C111.014 93.0532 90.4319 82.5306 87.2062 65.4345C86.2815 60.5322 86.8843 55.6128 88.7319 50.9883C86.0852 49.9395 83.8653 48.2043 81.9101 46.1211C79.3573 52.5603 78.652 59.456 79.9336 66.2474C83.3197 84.1983 99.8672 96.7554 119.208 97.635C122.984 97.8039 126.766 97.5328 130.478 96.8272C142.104 94.6295 152.245 88.4894 159.032 79.5388C159.269 79.2264 159.381 78.8365 159.346 78.4457C159.311 78.0548 159.132 77.691 158.843 77.4257Z" fill="#381B45"/>
</g>
<path d="M121.418 100.312C120.65 100.312 119.884 100.294 119.12 100.26C98.061 99.2988 80.8818 85.5237 77.3419 66.7565C75.2467 55.644 78.1044 44.3102 85.389 34.8372C92.5848 25.4806 103.261 19.0584 115.452 16.7539C129.657 14.0681 143.924 17.3522 154.592 25.7703C155.247 26.2868 155.688 27.0285 155.829 27.8517C155.969 28.675 155.8 29.5211 155.353 30.2263C154.906 30.9315 154.213 31.4454 153.409 31.6686C152.605 31.8918 151.747 31.8083 151.002 31.4343C142.538 27.1987 132.15 25.9481 121.751 27.9142C100.155 31.9976 85.1234 48.7552 88.2338 65.2691C89.7246 73.1701 95.1496 79.876 103.517 84.1517C112.034 88.5044 122.521 89.8054 133.047 87.8154C142.069 86.1058 150.123 82.2113 156.333 76.5431C156.954 75.9769 157.764 75.6634 158.603 75.6641C159.443 75.6648 160.253 75.9797 160.873 76.5469C161.493 77.1142 161.879 77.8929 161.955 78.7303C162.031 79.5677 161.792 80.4035 161.285 81.0736C154.087 90.567 143.345 97.0764 131.037 99.4031C127.866 100.005 124.645 100.309 121.418 100.312ZM125.159 19.3619C122.122 19.3644 119.092 19.6506 116.109 20.2167C104.768 22.3605 94.849 28.3159 88.1843 36.9862C81.5196 45.6565 78.901 55.9902 80.8075 66.0991C84.0425 83.2508 99.8643 95.8463 119.283 96.7302C123.004 96.8955 126.731 96.6282 130.39 95.9335C141.248 93.882 150.782 88.3462 157.426 80.2769C150.926 85.775 142.763 89.566 133.706 91.2782C122.418 93.4152 111.13 91.9971 101.921 87.2906C92.5617 82.5037 86.4724 74.9181 84.7751 65.9205C81.3001 47.4952 97.5957 28.8887 121.101 24.4445C131.699 22.4417 142.323 23.5709 151.205 27.6184C143.801 22.2186 134.68 19.3619 125.159 19.3619Z" fill="#381B45"/>
<path d="M79.2642 89.5679C85.0321 87.6835 87.9244 80.6838 85.7243 73.9335C83.5242 67.1833 77.0648 63.2388 71.2968 65.1232C65.5289 67.0076 62.6366 74.0073 64.8367 80.7575C67.0368 87.5078 73.4962 91.4523 79.2642 89.5679Z" fill="white"/>
<path d="M76.6489 89.913C71.6772 89.913 66.7978 86.1801 64.9254 80.4802C63.8342 77.1593 63.9145 73.67 65.1516 70.6568C66.3939 67.63 68.6522 65.4425 71.5141 64.5022C74.3761 63.5619 77.4907 63.9765 80.2835 65.6742C83.0763 67.3718 85.1988 70.1243 86.2899 73.446C87.3811 76.7678 87.3008 80.2563 86.0637 83.2703C84.8265 86.2843 82.5631 88.4846 79.7012 89.4249C78.7161 89.7488 77.6858 89.9135 76.6489 89.913ZM74.587 64.5133C73.5964 64.5128 72.6121 64.6706 71.6712 64.9809C68.9528 65.8759 66.8046 67.9599 65.617 70.8483C64.4216 73.7546 64.3499 77.1157 65.4035 80.3229C67.5739 86.9306 73.9176 90.7986 79.5432 88.9462C82.2617 88.0512 84.4099 85.9672 85.5984 83.0788C86.7937 80.1725 86.8654 76.8114 85.8118 73.6033C84.7582 70.3952 82.7023 67.7334 80.0222 66.105C78.2873 65.051 76.4252 64.5133 74.587 64.5133Z" fill="#381B45"/>
<path d="M76.6574 91.4238C71.0471 91.4238 65.5717 87.2892 63.491 80.9534C62.2871 77.2897 62.381 73.4311 63.7548 70.0828C65.1678 66.6405 67.7557 64.1488 71.0428 63.0666C74.3299 61.9844 77.8885 62.452 81.0672 64.383C84.1563 66.2635 86.5204 69.3109 87.7268 72.9746C88.9298 76.6383 88.8368 80.4969 87.4622 83.8451C86.0491 87.2874 83.4613 89.7792 80.175 90.8614C79.0398 91.2348 77.8523 91.4247 76.6574 91.4238ZM74.5826 66.0276C73.754 66.0268 72.9306 66.1584 72.1433 66.4174C69.8509 67.1722 68.0289 68.9502 67.0137 71.4231C65.9593 73.9927 65.8961 76.9862 66.8378 79.8515C68.7478 85.6642 74.236 89.1022 79.0719 87.5105C81.3644 86.7558 83.1864 84.9778 84.2015 82.504C85.256 79.9395 85.3183 76.9418 84.3774 74.0764C83.4365 71.2111 81.6111 68.8391 79.2392 67.3979C77.7451 66.4901 76.1494 66.0319 74.5826 66.0319V66.0276Z" fill="#381B45"/>
<path d="M75.9246 84.0403C78.8049 83.0922 80.2424 79.5907 79.1353 76.2195C78.0282 72.8483 74.7958 70.884 71.9155 71.8321C69.0352 72.7802 67.5977 76.2817 68.7048 79.6529C69.8118 83.0241 73.0443 84.9884 75.9246 84.0403Z" fill="white"/>
<path d="M74.4363 84.5195C73.4064 84.5077 72.3996 84.212 71.5266 83.6647C70.1118 82.8048 69.0266 81.402 68.4725 79.7147C67.3242 76.2177 68.8362 72.5659 71.8433 71.5761C74.8504 70.5862 78.2331 72.6258 79.3815 76.1228C79.9365 77.8102 79.8938 79.5839 79.2654 81.1165C78.631 82.6629 77.4724 83.7801 76.0107 84.2622C75.5029 84.4315 74.9714 84.5183 74.4363 84.5195ZM73.4117 71.8334C72.9331 71.8328 72.4575 71.909 72.003 72.059C69.2597 72.9626 67.8911 76.3279 68.9532 79.5617C69.4655 81.1354 70.4772 82.4406 71.7904 83.2373C73.0899 84.0272 74.5336 84.222 75.8562 83.7869C77.1787 83.3519 78.2246 82.3338 78.8026 80.9285C79.3866 79.507 79.4233 77.8572 78.9059 76.2843C78.0205 73.5968 75.7324 71.8334 73.4092 71.8334H73.4117Z" fill="#381B45"/>
<path d="M74.4327 85.7773C73.1741 85.7665 71.9428 85.4086 70.874 84.743C69.2032 83.7275 67.9259 82.082 67.2778 80.11C65.9118 75.9522 67.7841 71.5876 71.4512 70.3806C75.1183 69.1736 79.2122 71.573 80.5774 75.7308C81.2255 77.7028 81.1751 79.786 80.4297 81.5965C79.6536 83.489 78.2235 84.861 76.4049 85.4602C75.7685 85.6702 75.1027 85.7772 74.4327 85.7773ZM73.4201 73.0886C73.072 73.0882 72.7261 73.1436 72.3955 73.2527C70.3105 73.9366 69.3022 76.5916 70.1475 79.1654C70.5744 80.4536 71.3855 81.5161 72.4416 82.1572C73.4226 82.7556 74.4907 82.9052 75.4623 82.5846C76.434 82.2641 77.2015 81.5059 77.6378 80.4476C78.1074 79.303 78.133 77.9636 77.7095 76.6754C77 74.5196 75.2088 73.0912 73.4201 73.0912V73.0886Z" fill="#381B45"/>
<g opacity="0.3">
<path d="M86.0518 73.5241C85.6245 72.2198 85.0185 70.981 84.2512 69.8433C84.4739 70.743 84.5815 71.6673 84.5713 72.5941C84.5175 77.8084 80.865 81.9901 76.4142 81.9448C71.9633 81.8995 68.397 77.6383 68.4499 72.4283C68.4841 69.1219 69.9688 66.2301 72.1853 64.5684C71.9881 64.6196 71.79 64.6761 71.5936 64.7393C65.8262 66.6387 62.9481 73.6498 65.1654 80.3993C67.3827 87.1488 73.8553 91.0844 79.6227 89.1833C85.3901 87.2822 88.2691 80.2745 86.0518 73.5241Z" fill="#381B45"/>
</g>
<g opacity="0.5">
<path d="M156.391 54.7852C156.391 54.7852 151.279 75.9595 132.188 73.5233C132.188 73.5233 135.252 76.0877 140.317 76.3809C151.544 77.0348 159.974 65.9523 156.492 55.0903C156.459 54.9886 156.426 54.8869 156.391 54.7852Z" fill="white"/>
</g>
<g opacity="0.5">
<path d="M117.102 52.1454C122.375 51.1345 125.946 46.6329 125.077 42.0907C124.208 37.5486 119.229 34.686 113.956 35.6969C108.683 36.7078 105.113 41.2095 105.981 45.7516C106.85 50.2937 111.829 53.1563 117.102 52.1454Z" fill="white"/>
</g>
<g opacity="0.5">
<path d="M100.117 58.7466C101.958 58.5883 103.339 57.175 103.203 55.5899C103.067 54.0048 101.465 52.8481 99.6248 53.0064C97.7845 53.1647 96.403 54.578 96.539 56.1631C96.675 57.7482 98.2771 58.9049 100.117 58.7466Z" fill="white"/>
</g>
</svg>
