<svg width="14" height="15" viewBox="0 0 14 15" fill="none" xmlns="http://www.w3.org/2000/svg">
<path d="M13.9741 4.89313V10.5297C13.9658 10.5924 13.957 10.655 13.9496 10.7176C13.9131 11.0247 13.8983 11.3364 13.8367 11.6386C13.5588 12.9768 12.8029 13.9274 11.5163 14.4282C10.9002 14.6682 10.2509 14.7336 9.59714 14.7402C8.11554 14.7553 6.63367 14.7693 5.1518 14.7614C4.42392 14.7575 3.69218 14.7545 2.97638 14.5809C1.81698 14.2994 0.955874 13.6418 0.443881 12.5563C0.128829 11.8883 0.0318703 11.1694 0.0247288 10.4413C0.00879763 8.92782 -0.00795752 7.41382 0.00412817 5.90036C0.00571612 5.26244 0.0516056 4.6254 0.141465 3.99384C0.286219 3.01381 0.758383 2.20022 1.56016 1.59868C2.24684 1.08312 3.0434 0.878211 3.88418 0.818607C4.21983 0.794985 4.55658 0.781251 4.89279 0.763672H9.0791C9.40596 0.7818 9.73283 0.79883 10.0597 0.818607C10.6316 0.852392 11.1916 0.950725 11.7163 1.18695C13.0023 1.76376 13.6807 2.79544 13.8917 4.16359C13.929 4.40531 13.9466 4.65004 13.9741 4.89313ZM6.99487 13.5338V13.5121C7.36431 13.5121 7.73402 13.5231 8.10291 13.5099C8.89946 13.4811 9.70234 13.491 10.4907 13.3916C11.5679 13.2542 12.2961 12.6335 12.559 11.5614C12.6655 11.1277 12.7001 10.6693 12.7092 10.221C12.7348 8.92654 12.7428 7.63163 12.7331 6.33627C12.7276 5.6581 12.7056 4.97608 12.6265 4.30368C12.4933 3.17367 11.7849 2.41172 10.6659 2.18868C10.1871 2.09282 9.68915 2.06481 9.19913 2.05766C7.89516 2.03844 6.5911 2.03596 5.28694 2.05025C4.66865 2.05766 4.04486 2.07964 3.43426 2.16808C2.36303 2.32327 1.63542 3.01957 1.42035 4.07213C1.32696 4.52864 1.29482 5.00272 1.28466 5.46995C1.26076 6.60023 1.25197 7.73162 1.26434 8.86218C1.27285 9.64527 1.2918 10.4314 1.36899 11.2101C1.44754 12.0119 1.82852 12.6642 2.54651 13.0779C2.98599 13.332 3.47272 13.438 3.97317 13.4558C4.98013 13.4907 5.98764 13.508 6.99487 13.5338Z" fill="white"/>
<path d="M3.39649 7.76816C3.39347 5.78474 5.01322 4.16663 6.99857 4.16993C7.95105 4.16985 8.86462 4.54784 9.53862 5.22085C10.2126 5.89387 10.5919 6.80689 10.5932 7.75937C10.6034 9.74143 8.98804 11.3628 7.00022 11.3664C5.0124 11.37 3.39896 9.75543 3.39649 7.76816ZM4.66439 7.75498C4.662 8.06112 4.72008 8.36471 4.83531 8.64834C4.95053 8.93198 5.12063 9.19007 5.33584 9.4078C5.55105 9.62554 5.80714 9.79864 6.08941 9.91717C6.37168 10.0357 6.67457 10.0973 6.98072 10.0985C7.28684 10.1014 7.59052 10.0439 7.87433 9.92913C8.15815 9.81438 8.4165 9.64469 8.63456 9.42983C8.85262 9.21496 9.02609 8.95913 9.14501 8.67704C9.26393 8.39495 9.32596 8.09215 9.32754 7.78602C9.33088 7.47873 9.27328 7.17383 9.15806 6.88894C9.04285 6.60405 8.87232 6.34482 8.65631 6.12623C8.44031 5.90765 8.18312 5.73405 7.89962 5.61546C7.61612 5.49688 7.31192 5.43566 7.00461 5.43535C6.69849 5.43344 6.39499 5.49198 6.11154 5.60761C5.82809 5.72325 5.57026 5.89372 5.35284 6.10923C5.13541 6.32473 4.96268 6.58105 4.84454 6.86347C4.7264 7.14588 4.66518 7.44885 4.66439 7.75498Z" fill="white"/>
<path d="M11.574 4.02084C11.5754 4.13045 11.5552 4.23926 11.5146 4.34106C11.4739 4.44287 11.4136 4.53566 11.3371 4.61415C11.2606 4.69263 11.1693 4.75528 11.0686 4.79849C10.9678 4.84171 10.8596 4.86465 10.75 4.86601C10.6393 4.86754 10.5293 4.84716 10.4265 4.80604C10.3237 4.76492 10.23 4.70388 10.1509 4.62643C10.0718 4.54898 10.0087 4.45665 9.9654 4.35475C9.92208 4.25284 9.89934 4.14338 9.89848 4.03265C9.89736 3.92304 9.91784 3.81429 9.95876 3.7126C9.99967 3.61091 10.0602 3.51828 10.137 3.44C10.2137 3.36171 10.3051 3.29931 10.4059 3.25636C10.5068 3.21341 10.6151 3.19075 10.7247 3.18968C10.8354 3.18711 10.9455 3.20672 11.0485 3.24736C11.1515 3.28799 11.2454 3.34882 11.3245 3.42628C11.4037 3.50373 11.4665 3.59623 11.5093 3.69834C11.5522 3.80045 11.5742 3.91011 11.574 4.02084Z" fill="white"/>
</svg>
