<svg width="18" height="17" viewBox="0 0 18 17" fill="none" xmlns="http://www.w3.org/2000/svg">
<path d="M12.333 5.42969C13.6591 5.42969 14.9309 5.95647 15.8685 6.89415C16.8062 7.83184 17.333 9.10361 17.333 10.4297V16.263H13.9997V10.4297C13.9997 9.98766 13.8241 9.56374 13.5115 9.25118C13.199 8.93862 12.775 8.76302 12.333 8.76302C11.891 8.76302 11.4671 8.93862 11.1545 9.25118C10.8419 9.56374 10.6663 9.98766 10.6663 10.4297V16.263H7.33301V10.4297C7.33301 9.10361 7.85979 7.83184 8.79747 6.89415C9.73516 5.95647 11.0069 5.42969 12.333 5.42969V5.42969Z" fill="white"/>
<path d="M4.00033 6.26172H0.666992V16.2617H4.00033V6.26172Z" fill="white"/>
<path d="M2.33366 3.76302C3.25413 3.76302 4.00033 3.01683 4.00033 2.09635C4.00033 1.17588 3.25413 0.429688 2.33366 0.429688C1.41318 0.429688 0.666992 1.17588 0.666992 2.09635C0.666992 3.01683 1.41318 3.76302 2.33366 3.76302Z" fill="white"/>
</svg>
