<svg width="42" height="42" viewBox="0 0 42 42" fill="none" xmlns="http://www.w3.org/2000/svg">
<path d="M31.4996 13.8426C31.4471 13.8426 31.4121 13.8426 31.3596 13.8426H31.2721C27.9646 13.7376 25.4971 11.1826 25.4971 8.03258C25.4971 4.81258 28.1221 2.20508 31.3246 2.20508C34.5271 2.20508 37.1521 4.83008 37.1521 8.03258C37.1346 11.2001 34.6671 13.7551 31.5171 13.8601C31.5171 13.8426 31.5171 13.8426 31.4996 13.8426ZM31.3246 4.81259C29.5571 4.81259 28.1221 6.24759 28.1221 8.01509C28.1221 9.74759 29.4696 11.1476 31.2021 11.2176C31.2196 11.2001 31.3596 11.2001 31.5171 11.2176C33.2146 11.1301 34.5271 9.73009 34.5446 8.01509C34.5446 6.24759 33.1096 4.81259 31.3246 4.81259Z" fill="#3A3A3A"/>
<path d="M31.5174 26.7401C30.8349 26.7401 30.1524 26.6876 29.4699 26.5651C28.7524 26.4426 28.2799 25.7601 28.4024 25.0426C28.5249 24.3251 29.2074 23.8526 29.9249 23.9751C32.0774 24.3426 34.3524 23.9402 35.8749 22.9252C36.6974 22.3827 37.1349 21.7001 37.1349 21.0176C37.1349 20.3351 36.6799 19.6701 35.8749 19.1276C34.3524 18.1126 32.0424 17.7101 29.8724 18.0951C29.1549 18.2351 28.4724 17.7451 28.3499 17.0276C28.2274 16.3101 28.6999 15.6276 29.4174 15.5051C32.2699 14.9976 35.2274 15.5401 37.3274 16.9401C38.8674 17.9726 39.7599 19.4426 39.7599 21.0176C39.7599 22.5751 38.8849 24.0627 37.3274 25.1127C35.7349 26.1627 33.6699 26.7401 31.5174 26.7401Z" fill="#3A3A3A"/>
<path d="M10.4473 13.8425C10.4298 13.8425 10.4123 13.8425 10.4123 13.8425C7.26235 13.7375 4.79484 11.1825 4.77734 8.03249C4.77734 4.81249 7.40235 2.1875 10.6048 2.1875C13.8073 2.1875 16.4323 4.8125 16.4323 8.015C16.4323 11.1825 13.9648 13.7375 10.8148 13.8425L10.4473 12.53L10.5698 13.8425C10.5348 13.8425 10.4823 13.8425 10.4473 13.8425ZM10.6223 11.2175C10.7273 11.2175 10.8148 11.2175 10.9198 11.235C12.4773 11.165 13.8423 9.76499 13.8423 8.03249C13.8423 6.26499 12.4073 4.82999 10.6398 4.82999C8.87235 4.82999 7.43734 6.26499 7.43734 8.03249C7.43734 9.74749 8.76734 11.13 10.4648 11.235C10.4823 11.2175 10.5523 11.2175 10.6223 11.2175Z" fill="#3A3A3A"/>
<path d="M10.43 26.7401C8.2775 26.7401 6.2125 26.1627 4.62 25.1127C3.08 24.0802 2.1875 22.5926 2.1875 21.0176C2.1875 19.4601 3.08 17.9726 4.62 16.9401C6.72 15.5401 9.6775 14.9976 12.53 15.5051C13.2475 15.6276 13.72 16.3101 13.5975 17.0276C13.475 17.7451 12.7925 18.2351 12.075 18.0951C9.905 17.7101 7.6125 18.1126 6.0725 19.1276C5.25 19.6701 4.8125 20.3351 4.8125 21.0176C4.8125 21.7001 5.2675 22.3827 6.0725 22.9252C7.595 23.9402 9.87 24.3426 12.0225 23.9751C12.74 23.8526 13.4225 24.3426 13.545 25.0426C13.6675 25.7601 13.195 26.4426 12.4775 26.5651C11.795 26.6876 11.1125 26.7401 10.43 26.7401Z" fill="#3A3A3A"/>
<path d="M20.9996 26.9149C20.9471 26.9149 20.9121 26.9149 20.8596 26.9149H20.7721C17.4646 26.8099 14.9971 24.2548 14.9971 21.1048C14.9971 17.8848 17.6221 15.2773 20.8246 15.2773C24.0271 15.2773 26.6521 17.9023 26.6521 21.1048C26.6346 24.2723 24.1671 26.8274 21.0171 26.9324C21.0171 26.9149 21.0171 26.9149 20.9996 26.9149ZM20.8246 17.8849C19.0571 17.8849 17.6221 19.3199 17.6221 21.0874C17.6221 22.8199 18.9696 24.2199 20.7021 24.2899C20.7196 24.2724 20.8596 24.2724 21.0171 24.2899C22.7146 24.2024 24.0271 22.8024 24.0446 21.0874C24.0446 19.3374 22.6096 17.8849 20.8246 17.8849Z" fill="#3A3A3A"/>
<path d="M20.9997 39.8298C18.8997 39.8298 16.7997 39.2873 15.1722 38.1848C13.6322 37.1523 12.7397 35.6823 12.7397 34.1073C12.7397 32.5498 13.6147 31.0448 15.1722 30.0123C18.4447 27.8423 23.5723 27.8423 26.8273 30.0123C28.3673 31.0448 29.2598 32.5148 29.2598 34.0898C29.2598 35.6473 28.3848 37.1523 26.8273 38.1848C25.1998 39.2698 23.0997 39.8298 20.9997 39.8298ZM16.6247 32.2173C15.8022 32.7598 15.3647 33.4423 15.3647 34.1248C15.3647 34.8073 15.8197 35.4723 16.6247 36.0148C18.9872 37.6073 22.9948 37.6073 25.3573 36.0148C26.1798 35.4723 26.6172 34.7898 26.6172 34.1073C26.6172 33.4248 26.1623 32.7598 25.3573 32.2173C23.0123 30.6248 19.0047 30.6423 16.6247 32.2173Z" fill="#3A3A3A"/>
</svg>
