<svg width="701" height="644" viewBox="0 0 701 644" fill="none" xmlns="http://www.w3.org/2000/svg">
<path d="M797.562 286.587C799.125 294.754 795.824 303.565 788.369 312.539C780.917 321.509 769.359 330.583 754.547 339.24C724.927 356.551 682.384 372.14 633.942 381.889C585.5 391.638 540.367 393.693 506.564 389.146C489.661 386.872 475.616 382.951 465.41 377.534C455.201 372.115 448.898 365.236 447.335 357.069C445.773 348.902 449.073 340.09 456.528 331.116C463.98 322.146 475.538 313.072 490.351 304.416C519.971 287.105 562.513 271.515 610.955 261.766C659.398 252.018 704.53 249.963 738.333 254.51C755.237 256.784 769.282 260.705 779.487 266.122C789.696 271.541 795.999 278.42 797.562 286.587Z" stroke="white" stroke-width="0.895032"/>
<path d="M926.693 260.598C929.48 275.158 923.727 290.785 910.798 306.609C897.871 322.43 877.811 338.393 852.117 353.588C800.731 383.975 726.898 411.242 642.798 428.166C558.698 445.091 480.292 448.463 421.519 440.244C392.131 436.135 367.676 429.131 349.878 419.493C332.076 409.853 320.991 397.615 318.204 383.055C315.418 368.495 321.171 352.868 334.1 337.043C347.027 321.222 367.087 305.26 392.781 290.065C444.166 259.677 518 232.411 602.1 215.486C686.2 198.561 764.606 195.19 823.379 203.408C852.767 207.518 877.221 214.522 895.02 224.16C912.822 233.799 923.907 246.038 926.693 260.598Z" stroke="white" stroke-width="0.895032"/>
<circle cx="447.068" cy="356.798" r="5.81771" fill="#FFAA01"/>
<path d="M1073.38 231.078C1077.53 252.736 1068.96 275.952 1049.79 299.42C1030.62 322.886 1000.87 346.549 962.798 369.066C886.647 414.099 777.242 454.5 652.635 479.577C528.028 504.654 411.848 509.652 324.75 497.472C281.198 491.382 244.943 481.001 218.544 466.706C192.142 452.41 175.659 434.235 171.514 412.577C167.37 390.919 175.933 367.704 195.108 344.235C214.281 320.77 244.022 297.107 282.099 274.589C358.25 229.556 467.654 189.155 592.262 164.078C716.869 139.001 833.048 134.004 920.147 146.183C963.698 152.273 999.954 162.655 1026.35 176.949C1052.75 191.245 1069.24 209.42 1073.38 231.078Z" stroke="white" stroke-width="0.895032"/>
<circle cx="376.361" cy="430.191" r="5.81771" fill="#FFAA01"/>
<circle cx="173.189" cy="416.765" r="5.81771" fill="#FFAA01"/>
<path d="M1205.34 204.523C1210.7 232.566 1199.61 262.607 1174.82 292.952C1150.03 323.294 1111.58 353.884 1062.36 382.989C963.933 441.196 822.53 493.412 661.484 525.822C500.439 558.232 350.28 564.693 237.701 548.95C181.409 541.078 134.538 527.659 100.403 509.176C66.2653 490.691 44.9253 467.176 39.559 439.133C34.1927 411.09 45.2842 381.048 70.0781 350.703C94.8697 320.361 133.319 289.771 182.535 260.666C280.963 202.459 422.366 150.243 583.412 117.833C744.458 85.4232 894.616 78.9629 1007.2 94.7055C1063.49 102.577 1110.36 115.997 1144.49 134.48C1178.63 152.965 1199.97 176.48 1205.34 204.523Z" stroke="white" stroke-width="0.895032"/>
<path d="M105.253 414.207V404.183H106.399L108.519 404.168C109.168 404.168 109.741 404.307 110.237 404.584C110.743 404.851 111.134 405.223 111.411 405.701C111.698 406.178 111.841 406.727 111.841 407.348C111.841 407.968 111.712 408.522 111.454 409.009C111.206 409.486 110.853 409.858 110.395 410.126C109.946 410.393 109.425 410.527 108.834 410.527H106.471V414.207H105.253ZM108.504 405.271H106.471V409.424H108.834C109.359 409.424 109.788 409.233 110.122 408.851C110.466 408.46 110.638 407.959 110.638 407.348C110.638 406.736 110.437 406.24 110.036 405.858C109.645 405.467 109.134 405.271 108.504 405.271ZM113.161 414.207V407.047H114.307V408.321C114.593 407.873 114.961 407.543 115.409 407.333C115.868 407.123 116.345 407.018 116.842 407.018V408.092C116.412 408.092 116.001 408.164 115.61 408.307C115.228 408.441 114.913 408.67 114.665 408.994C114.426 409.309 114.307 409.734 114.307 410.269V414.207H113.161ZM121.165 414.379C120.468 414.379 119.847 414.221 119.303 413.906C118.768 413.582 118.348 413.138 118.043 412.574C117.737 412.011 117.585 411.362 117.585 410.627C117.585 409.892 117.733 409.243 118.029 408.679C118.334 408.116 118.754 407.677 119.289 407.362C119.823 407.037 120.439 406.875 121.136 406.875C121.843 406.875 122.463 407.037 122.998 407.362C123.532 407.677 123.952 408.116 124.258 408.679C124.563 409.243 124.716 409.892 124.716 410.627C124.716 411.362 124.563 412.011 124.258 412.574C123.952 413.138 123.532 413.582 122.998 413.906C122.473 414.221 121.862 414.379 121.165 414.379ZM121.165 413.319C121.633 413.319 122.043 413.209 122.396 412.99C122.759 412.761 123.041 412.441 123.241 412.03C123.451 411.62 123.556 411.152 123.556 410.627C123.556 410.092 123.451 409.624 123.241 409.223C123.041 408.813 122.759 408.493 122.396 408.264C122.034 408.035 121.613 407.92 121.136 407.92C120.668 407.92 120.253 408.035 119.89 408.264C119.537 408.493 119.255 408.813 119.045 409.223C118.845 409.624 118.745 410.092 118.745 410.627C118.745 411.152 118.845 411.62 119.045 412.03C119.255 412.441 119.542 412.761 119.905 412.99C120.277 413.209 120.697 413.319 121.165 413.319ZM129.128 414.379C128.488 414.379 127.925 414.221 127.438 413.906C126.951 413.591 126.569 413.152 126.293 412.589C126.025 412.016 125.892 411.362 125.892 410.627C125.892 409.882 126.025 409.228 126.293 408.665C126.569 408.102 126.951 407.663 127.438 407.348C127.925 407.032 128.488 406.875 129.128 406.875C129.653 406.875 130.121 406.999 130.531 407.247C130.942 407.486 131.281 407.82 131.548 408.25V404.183H132.694V414.207H131.606L131.548 412.99C131.29 413.429 130.952 413.773 130.531 414.021C130.121 414.26 129.653 414.379 129.128 414.379ZM129.386 413.333C129.997 413.333 130.503 413.095 130.904 412.617C131.305 412.14 131.52 411.52 131.548 410.756V410.498C131.52 409.734 131.305 409.114 130.904 408.636C130.503 408.159 129.992 407.92 129.372 407.92C128.913 407.92 128.512 408.035 128.169 408.264C127.825 408.493 127.553 408.813 127.352 409.223C127.152 409.624 127.052 410.092 127.052 410.627C127.052 411.152 127.152 411.62 127.352 412.03C127.553 412.441 127.825 412.761 128.169 412.99C128.522 413.219 128.928 413.333 129.386 413.333ZM135.657 410.713C135.657 411.419 135.738 411.959 135.901 412.331C136.073 412.703 136.302 412.961 136.588 413.104C136.875 413.238 137.199 413.305 137.562 413.305C138.183 413.305 138.665 413.08 139.008 412.632C139.362 412.183 139.538 411.553 139.538 410.741V407.047H140.684V414.207H139.61L139.553 413.147C139.066 413.968 138.316 414.379 137.304 414.379C136.435 414.379 135.748 414.112 135.242 413.577C134.746 413.042 134.502 412.231 134.512 411.142V407.047H135.657V410.713ZM145.877 414.379C145.17 414.379 144.545 414.221 144.001 413.906C143.457 413.582 143.032 413.138 142.726 412.574C142.421 412.011 142.268 411.362 142.268 410.627C142.268 409.892 142.421 409.243 142.726 408.679C143.032 408.116 143.452 407.677 143.986 407.362C144.531 407.037 145.151 406.875 145.848 406.875C146.535 406.875 147.151 407.037 147.695 407.362C148.24 407.677 148.655 408.116 148.941 408.679L147.91 409.138C147.71 408.765 147.423 408.474 147.051 408.264C146.688 408.044 146.278 407.935 145.819 407.935C145.352 407.935 144.936 408.049 144.574 408.278C144.211 408.507 143.929 408.827 143.729 409.238C143.528 409.639 143.428 410.102 143.428 410.627C143.428 411.152 143.528 411.62 143.729 412.03C143.939 412.431 144.225 412.746 144.588 412.975C144.96 413.205 145.38 413.319 145.848 413.319C146.316 413.319 146.731 413.2 147.094 412.961C147.466 412.722 147.748 412.388 147.939 411.959L148.984 412.431C148.698 413.042 148.283 413.52 147.738 413.863C147.194 414.207 146.574 414.379 145.877 414.379ZM153.123 414.379C152.426 414.379 151.887 414.197 151.505 413.835C151.123 413.472 150.932 412.961 150.932 412.302V408.064H149.686V407.047H150.932V404.813H152.078V407.047H154.226V408.064H152.078V412.188C152.078 412.551 152.173 412.832 152.364 413.033C152.565 413.224 152.841 413.319 153.195 413.319C153.309 413.319 153.419 413.305 153.524 413.276C153.629 413.238 153.777 413.152 153.968 413.018L154.412 413.949C154.164 414.112 153.939 414.221 153.739 414.279C153.538 414.345 153.333 414.379 153.123 414.379ZM79.801 431.207V421.183H85.7297V422.285H81.0182V425.522H85.3144V426.61H81.0182V430.104H85.7583V431.207H79.801ZM87.9464 431.207V424.047H89.0205L89.0778 425.106C89.5647 424.285 90.3141 423.875 91.3261 423.875C92.1949 423.875 92.8775 424.142 93.3739 424.677C93.8799 425.212 94.1281 426.023 94.1186 427.111V431.207H92.9729V427.541C92.9729 426.835 92.887 426.295 92.7152 425.923C92.5529 425.55 92.3285 425.297 92.0421 425.164C91.7557 425.021 91.4359 424.949 91.0826 424.949C90.4525 424.949 89.9609 425.173 89.6076 425.622C89.2639 426.071 89.0921 426.696 89.0921 427.498V431.207H87.9464ZM98.7529 431.15C98.1133 431.15 97.55 430.997 97.0631 430.691C96.5762 430.386 96.1943 429.961 95.9175 429.417C95.6502 428.873 95.5165 428.243 95.5165 427.527C95.5165 426.801 95.6502 426.166 95.9175 425.622C96.1943 425.068 96.5762 424.639 97.0631 424.333C97.55 424.028 98.1133 423.875 98.7529 423.875C99.278 423.875 99.7506 423.999 100.171 424.247C100.591 424.486 100.93 424.825 101.187 425.264V424.047H102.333V430.52C102.333 431.341 102.176 432.028 101.86 432.582C101.555 433.136 101.135 433.551 100.6 433.828C100.075 434.105 99.4737 434.243 98.7959 434.243C98.3281 434.243 97.908 434.195 97.5357 434.1C97.1634 434.014 96.8435 433.914 96.5762 433.799C96.3185 433.694 96.1323 433.603 96.0177 433.527L96.4473 432.596C96.6287 432.701 96.9295 432.83 97.3495 432.983C97.7696 433.136 98.247 433.212 98.7816 433.212C99.4785 433.212 100.051 432.997 100.5 432.567C100.958 432.147 101.187 431.47 101.187 430.534V429.775C100.93 430.205 100.591 430.544 100.171 430.792C99.7506 431.03 99.278 431.15 98.7529 431.15ZM99.025 430.162C99.4451 430.162 99.8174 430.047 100.142 429.818C100.467 429.589 100.72 429.279 100.901 428.887C101.082 428.486 101.173 428.023 101.173 427.498C101.173 426.992 101.078 426.543 100.887 426.152C100.705 425.751 100.452 425.441 100.128 425.221C99.8127 424.992 99.4403 424.877 99.0107 424.877C98.562 424.877 98.161 424.992 97.8078 425.221C97.4641 425.441 97.192 425.751 96.9915 426.152C96.8006 426.543 96.7051 426.992 96.7051 427.498C96.7051 428.023 96.8054 428.486 97.0058 428.887C97.2063 429.279 97.4784 429.589 97.8221 429.818C98.1754 430.047 98.5763 430.162 99.025 430.162ZM104.408 431.207L104.437 424.047H105.583L105.554 431.207H104.408ZM104.995 422.386C104.795 422.386 104.623 422.314 104.48 422.171C104.346 422.028 104.279 421.861 104.279 421.67C104.279 421.469 104.346 421.302 104.48 421.168C104.623 421.025 104.795 420.954 104.995 420.954C105.196 420.954 105.363 421.025 105.497 421.168C105.64 421.302 105.711 421.469 105.711 421.67C105.711 421.861 105.64 422.028 105.497 422.171C105.363 422.314 105.196 422.386 104.995 422.386ZM107.665 431.207V424.047H108.739L108.796 425.106C109.283 424.285 110.033 423.875 111.045 423.875C111.914 423.875 112.596 424.142 113.093 424.677C113.599 425.212 113.847 426.023 113.837 427.111V431.207H112.692V427.541C112.692 426.835 112.606 426.295 112.434 425.923C112.272 425.55 112.047 425.297 111.761 425.164C111.474 425.021 111.155 424.949 110.801 424.949C110.171 424.949 109.68 425.173 109.326 425.622C108.983 426.071 108.811 426.696 108.811 427.498V431.207H107.665ZM118.787 431.379C118.09 431.379 117.474 431.221 116.939 430.906C116.405 430.582 115.985 430.138 115.679 429.574C115.383 429.011 115.235 428.362 115.235 427.627C115.235 426.892 115.383 426.243 115.679 425.679C115.985 425.116 116.4 424.677 116.925 424.362C117.46 424.037 118.071 423.875 118.758 423.875C119.417 423.875 119.99 424.042 120.476 424.376C120.973 424.701 121.355 425.164 121.622 425.765C121.889 426.357 122.023 427.049 122.023 427.842H116.395C116.433 428.596 116.682 429.197 117.14 429.646C117.598 430.095 118.166 430.319 118.844 430.319C119.34 430.319 119.76 430.2 120.104 429.961C120.448 429.722 120.72 429.412 120.92 429.03L121.923 429.532C121.646 430.085 121.24 430.534 120.706 430.878C120.181 431.212 119.541 431.379 118.787 431.379ZM118.744 424.906C118.152 424.906 117.655 425.083 117.254 425.436C116.853 425.78 116.591 426.252 116.467 426.854H120.792C120.677 426.243 120.443 425.765 120.09 425.422C119.746 425.078 119.297 424.906 118.744 424.906ZM126.604 431.379C125.907 431.379 125.291 431.221 124.757 430.906C124.222 430.582 123.802 430.138 123.497 429.574C123.201 429.011 123.053 428.362 123.053 427.627C123.053 426.892 123.201 426.243 123.497 425.679C123.802 425.116 124.217 424.677 124.743 424.362C125.277 424.037 125.888 423.875 126.576 423.875C127.234 423.875 127.807 424.042 128.294 424.376C128.79 424.701 129.172 425.164 129.44 425.765C129.707 426.357 129.841 427.049 129.841 427.842H124.213C124.251 428.596 124.499 429.197 124.957 429.646C125.416 430.095 125.984 430.319 126.661 430.319C127.158 430.319 127.578 430.2 127.922 429.961C128.265 429.722 128.537 429.412 128.738 429.03L129.74 429.532C129.464 430.085 129.058 430.534 128.523 430.878C127.998 431.212 127.358 431.379 126.604 431.379ZM126.561 424.906C125.969 424.906 125.473 425.083 125.072 425.436C124.671 425.78 124.408 426.252 124.284 426.854H128.609C128.495 426.243 128.261 425.765 127.907 425.422C127.564 425.078 127.115 424.906 126.561 424.906ZM131.286 431.207V424.047H132.431V425.321C132.718 424.873 133.085 424.543 133.534 424.333C133.992 424.123 134.469 424.018 134.966 424.018V425.092C134.536 425.092 134.126 425.164 133.734 425.307C133.352 425.441 133.037 425.67 132.789 425.994C132.551 426.309 132.431 426.734 132.431 427.269V431.207H131.286ZM136.196 431.207L136.225 424.047H137.37L137.342 431.207H136.196ZM136.783 422.386C136.583 422.386 136.411 422.314 136.268 422.171C136.134 422.028 136.067 421.861 136.067 421.67C136.067 421.469 136.134 421.302 136.268 421.168C136.411 421.025 136.583 420.954 136.783 420.954C136.984 420.954 137.151 421.025 137.284 421.168C137.427 421.302 137.499 421.469 137.499 421.67C137.499 421.861 137.427 422.028 137.284 422.171C137.151 422.314 136.984 422.386 136.783 422.386ZM139.453 431.207V424.047H140.527L140.584 425.106C141.071 424.285 141.82 423.875 142.832 423.875C143.701 423.875 144.384 424.142 144.88 424.677C145.386 425.212 145.634 426.023 145.625 427.111V431.207H144.479V427.541C144.479 426.835 144.393 426.295 144.221 425.923C144.059 425.55 143.835 425.297 143.548 425.164C143.262 425.021 142.942 424.949 142.589 424.949C141.959 424.949 141.467 425.173 141.114 425.622C140.77 426.071 140.598 426.696 140.598 427.498V431.207H139.453ZM150.259 431.15C149.62 431.15 149.056 430.997 148.569 430.691C148.083 430.386 147.701 429.961 147.424 429.417C147.156 428.873 147.023 428.243 147.023 427.527C147.023 426.801 147.156 426.166 147.424 425.622C147.701 425.068 148.083 424.639 148.569 424.333C149.056 424.028 149.62 423.875 150.259 423.875C150.784 423.875 151.257 423.999 151.677 424.247C152.097 424.486 152.436 424.825 152.694 425.264V424.047H153.839V430.52C153.839 431.341 153.682 432.028 153.367 432.582C153.061 433.136 152.641 433.551 152.107 433.828C151.581 434.105 150.98 434.243 150.302 434.243C149.834 434.243 149.414 434.195 149.042 434.1C148.67 434.014 148.35 433.914 148.083 433.799C147.825 433.694 147.639 433.603 147.524 433.527L147.954 432.596C148.135 432.701 148.436 432.83 148.856 432.983C149.276 433.136 149.753 433.212 150.288 433.212C150.985 433.212 151.558 432.997 152.006 432.567C152.465 432.147 152.694 431.47 152.694 430.534V429.775C152.436 430.205 152.097 430.544 151.677 430.792C151.257 431.03 150.784 431.15 150.259 431.15ZM150.531 430.162C150.951 430.162 151.324 430.047 151.648 429.818C151.973 429.589 152.226 429.279 152.407 428.887C152.589 428.486 152.679 428.023 152.679 427.498C152.679 426.992 152.584 426.543 152.393 426.152C152.212 425.751 151.959 425.441 151.634 425.221C151.319 424.992 150.947 424.877 150.517 424.877C150.068 424.877 149.667 424.992 149.314 425.221C148.97 425.441 148.698 425.751 148.498 426.152C148.307 426.543 148.211 426.992 148.211 427.498C148.211 428.023 148.312 428.486 148.512 428.887C148.713 429.279 148.985 429.589 149.328 429.818C149.682 430.047 150.083 430.162 150.531 430.162Z" fill="white"/>
<circle cx="427.378" cy="555.495" r="5.81771" fill="#FFAA01"/>
<circle cx="447.963" cy="202.853" r="5.81771" fill="#FFAA01"/>
<path d="M407.021 353.344L403.97 343.319H405.173L407.665 351.554L410.1 343.319H411.302L413.68 351.525L416.214 343.319H417.432L414.324 353.344H413.021L410.687 345.224L408.309 353.344H407.021ZM421.126 353.516C420.429 353.516 419.813 353.358 419.278 353.043C418.744 352.718 418.323 352.274 418.018 351.711C417.722 351.148 417.574 350.499 417.574 349.764C417.574 349.029 417.722 348.379 418.018 347.816C418.323 347.253 418.739 346.814 419.264 346.499C419.798 346.174 420.409 346.012 421.097 346.012C421.756 346.012 422.328 346.179 422.815 346.513C423.312 346.837 423.694 347.3 423.961 347.902C424.228 348.494 424.362 349.186 424.362 349.978H418.734C418.772 350.733 419.02 351.334 419.479 351.783C419.937 352.232 420.505 352.456 421.183 352.456C421.679 352.456 422.099 352.337 422.443 352.098C422.787 351.859 423.059 351.549 423.259 351.167L424.262 351.668C423.985 352.222 423.579 352.671 423.044 353.014C422.519 353.349 421.88 353.516 421.126 353.516ZM421.083 347.043C420.491 347.043 419.994 347.219 419.593 347.573C419.192 347.916 418.93 348.389 418.806 348.99H423.13C423.016 348.379 422.782 347.902 422.429 347.558C422.085 347.215 421.636 347.043 421.083 347.043ZM425.807 353.344V343.319H426.953V347.386C427.21 346.957 427.544 346.623 427.955 346.384C428.375 346.136 428.848 346.012 429.373 346.012C430.012 346.012 430.576 346.169 431.062 346.484C431.549 346.799 431.927 347.238 432.194 347.802C432.471 348.365 432.609 349.019 432.609 349.764C432.609 350.499 432.471 351.153 432.194 351.726C431.927 352.289 431.549 352.728 431.062 353.043C430.576 353.358 430.012 353.516 429.373 353.516C428.848 353.516 428.375 353.396 427.955 353.158C427.544 352.909 427.21 352.566 426.953 352.127L426.895 353.344H425.807ZM429.115 352.47C429.564 352.47 429.965 352.356 430.318 352.127C430.671 351.897 430.948 351.578 431.148 351.167C431.349 350.757 431.449 350.289 431.449 349.764C431.449 349.229 431.349 348.761 431.148 348.36C430.948 347.95 430.671 347.63 430.318 347.401C429.974 347.172 429.578 347.057 429.129 347.057C428.7 347.057 428.323 347.172 427.998 347.401C427.673 347.63 427.416 347.95 427.225 348.36C427.043 348.761 426.953 349.229 426.953 349.764C426.953 350.289 427.043 350.757 427.225 351.167C427.416 351.578 427.673 351.897 427.998 352.127C428.323 352.356 428.695 352.47 429.115 352.47ZM372.294 370.344V360.319H373.44L375.56 360.305C376.209 360.305 376.782 360.444 377.278 360.72C377.784 360.988 378.175 361.36 378.452 361.837C378.739 362.315 378.882 362.864 378.882 363.484C378.882 364.105 378.753 364.659 378.495 365.145C378.247 365.623 377.894 365.995 377.436 366.262C376.987 366.53 376.467 366.663 375.875 366.663H373.512V370.344H372.294ZM375.545 361.408H373.512V365.561H375.875C376.4 365.561 376.829 365.37 377.163 364.988C377.507 364.596 377.679 364.095 377.679 363.484C377.679 362.873 377.479 362.377 377.078 361.995C376.686 361.603 376.175 361.408 375.545 361.408ZM380.258 370.344V360.319H381.404V370.344H380.258ZM385.667 370.516C384.818 370.516 384.159 370.325 383.691 369.943C383.223 369.551 382.989 369.012 382.989 368.325C382.989 367.609 383.228 367.055 383.705 366.663C384.192 366.272 384.87 366.076 385.739 366.076H387.701C387.644 365.398 387.477 364.892 387.2 364.558C386.923 364.215 386.498 364.043 385.925 364.043C385.095 364.043 384.493 364.382 384.121 365.059L383.09 364.644C383.376 364.148 383.748 363.752 384.207 363.456C384.675 363.16 385.252 363.012 385.939 363.012C387.906 363.012 388.89 364.162 388.89 366.463L388.875 370.344H387.873L387.844 369.527C387.605 369.843 387.305 370.086 386.942 370.258C386.579 370.43 386.154 370.516 385.667 370.516ZM385.725 369.513C386.345 369.513 386.837 369.308 387.2 368.897C387.572 368.477 387.758 367.952 387.758 367.322V367.036H385.997C385.328 367.036 384.851 367.15 384.565 367.379C384.288 367.599 384.149 367.909 384.149 368.31C384.149 368.683 384.283 368.979 384.55 369.198C384.827 369.408 385.219 369.513 385.725 369.513ZM393.397 370.516C392.7 370.516 392.161 370.334 391.779 369.971C391.397 369.609 391.206 369.098 391.206 368.439V364.2H389.96V363.183H391.206V360.949H392.352V363.183H394.5V364.2H392.352V368.325C392.352 368.687 392.447 368.969 392.638 369.169C392.839 369.36 393.115 369.456 393.469 369.456C393.583 369.456 393.693 369.442 393.798 369.413C393.903 369.375 394.051 369.289 394.242 369.155L394.686 370.086C394.438 370.248 394.213 370.358 394.013 370.415C393.812 370.482 393.607 370.516 393.397 370.516ZM396.833 370.344V364.172H395.516V363.183H396.833V362.367C396.833 360.868 397.539 360.119 398.952 360.119C399.143 360.119 399.353 360.152 399.583 360.219C399.821 360.286 400.079 360.381 400.356 360.506L399.926 361.408C399.478 361.226 399.162 361.136 398.981 361.136C398.313 361.136 397.979 361.575 397.979 362.453V363.183H400.055V364.172H397.979V370.344H396.833ZM404.526 370.516C403.829 370.516 403.209 370.358 402.664 370.043C402.13 369.718 401.71 369.274 401.404 368.711C401.099 368.148 400.946 367.499 400.946 366.764C400.946 366.029 401.094 365.379 401.39 364.816C401.695 364.253 402.116 363.814 402.65 363.499C403.185 363.174 403.801 363.012 404.498 363.012C405.204 363.012 405.825 363.174 406.359 363.499C406.894 363.814 407.314 364.253 407.619 364.816C407.925 365.379 408.078 366.029 408.078 366.764C408.078 367.499 407.925 368.148 407.619 368.711C407.314 369.274 406.894 369.718 406.359 370.043C405.834 370.358 405.223 370.516 404.526 370.516ZM404.526 369.456C404.994 369.456 405.404 369.346 405.758 369.127C406.121 368.897 406.402 368.578 406.603 368.167C406.813 367.757 406.918 367.289 406.918 366.764C406.918 366.229 406.813 365.761 406.603 365.36C406.402 364.95 406.121 364.63 405.758 364.401C405.395 364.172 404.975 364.057 404.498 364.057C404.03 364.057 403.614 364.172 403.252 364.401C402.898 364.63 402.617 364.95 402.407 365.36C402.206 365.761 402.106 366.229 402.106 366.764C402.106 367.289 402.206 367.757 402.407 368.167C402.617 368.578 402.903 368.897 403.266 369.127C403.638 369.346 404.058 369.456 404.526 369.456ZM409.668 370.344V363.183H410.814V364.458C411.1 364.009 411.468 363.68 411.917 363.47C412.375 363.26 412.852 363.155 413.349 363.155V364.229C412.919 364.229 412.509 364.3 412.117 364.444C411.735 364.577 411.42 364.806 411.172 365.131C410.933 365.446 410.814 365.871 410.814 366.406V370.344H409.668ZM414.507 370.344V363.183H415.581L415.638 364.243C416.125 363.422 416.875 363.012 417.887 363.012C418.517 363.012 419.051 363.15 419.491 363.427C419.93 363.704 420.25 364.124 420.45 364.687C420.67 364.153 420.985 363.742 421.395 363.456C421.815 363.16 422.326 363.012 422.928 363.012C423.787 363.012 424.465 363.279 424.961 363.814C425.467 364.348 425.72 365.16 425.72 366.248V370.344H424.574V366.678C424.574 365.971 424.488 365.432 424.317 365.059C424.154 364.687 423.93 364.434 423.644 364.3C423.357 364.157 423.033 364.086 422.67 364.086C422.04 364.086 421.548 364.31 421.195 364.759C420.851 365.207 420.679 365.833 420.679 366.635V370.344H419.534V366.678C419.534 365.971 419.448 365.432 419.276 365.059C419.114 364.687 418.889 364.434 418.603 364.3C418.316 364.157 417.997 364.086 417.643 364.086C417.013 364.086 416.522 364.31 416.168 364.759C415.825 365.207 415.653 365.833 415.653 366.635V370.344H414.507ZM430.033 370.516C429.25 370.516 428.611 370.349 428.114 370.014C427.618 369.671 427.284 369.27 427.112 368.811L428.114 368.396C428.267 368.721 428.506 368.983 428.83 369.184C429.164 369.384 429.527 369.485 429.919 369.485C430.367 369.485 430.744 369.399 431.05 369.227C431.355 369.045 431.508 368.792 431.508 368.468C431.508 368.172 431.394 367.933 431.164 367.752C430.945 367.57 430.615 367.422 430.176 367.308L429.489 367.122C428.84 366.95 428.334 366.692 427.971 366.348C427.608 366.005 427.427 365.608 427.427 365.16C427.427 364.482 427.646 363.957 428.086 363.584C428.534 363.203 429.198 363.012 430.076 363.012C430.706 363.012 431.25 363.15 431.709 363.427C432.167 363.694 432.482 364.057 432.654 364.515L431.651 364.959C431.527 364.635 431.322 364.401 431.036 364.258C430.749 364.114 430.401 364.043 429.99 364.043C429.551 364.043 429.207 364.138 428.959 364.329C428.711 364.511 428.587 364.768 428.587 365.102C428.587 365.293 428.687 365.475 428.887 365.647C429.097 365.809 429.403 365.943 429.804 366.048L430.52 366.234C431.217 366.406 431.747 366.692 432.11 367.093C432.472 367.494 432.654 367.938 432.654 368.425C432.654 368.854 432.539 369.227 432.31 369.542C432.081 369.857 431.766 370.1 431.365 370.272C430.973 370.434 430.53 370.516 430.033 370.516Z" fill="white"/>
<circle cx="224.205" cy="237.759" r="5.81771" fill="#FFAA01"/>
<path d="M202.269 262.01V255.552H203.486V262.01C203.486 262.535 203.596 263.003 203.816 263.414C204.045 263.815 204.36 264.13 204.761 264.359C205.162 264.579 205.62 264.688 206.136 264.688C206.67 264.688 207.138 264.579 207.539 264.359C207.94 264.13 208.25 263.815 208.47 263.414C208.699 263.003 208.814 262.535 208.814 262.01V255.552H210.017V262.01C210.017 262.755 209.85 263.414 209.515 263.987C209.191 264.55 208.733 264.994 208.141 265.318C207.558 265.633 206.88 265.791 206.107 265.791C205.353 265.791 204.685 265.633 204.102 265.318C203.529 264.994 203.081 264.55 202.756 263.987C202.431 263.414 202.269 262.755 202.269 262.01ZM211.363 265.576L214.943 260.478L211.377 255.552H212.824L215.616 259.519L218.423 255.552H219.855L216.289 260.478L219.869 265.576H218.409L215.616 261.452L212.824 265.576H211.363ZM228.094 265.748C227.359 265.748 226.729 265.643 226.204 265.433C225.688 265.223 225.268 264.951 224.943 264.617C224.628 264.273 224.409 263.905 224.285 263.514L225.445 263.113C225.588 263.533 225.874 263.901 226.304 264.216C226.743 264.521 227.278 264.674 227.908 264.674C228.681 264.674 229.287 264.521 229.726 264.216C230.166 263.91 230.385 263.504 230.385 262.998C230.385 262.531 230.189 262.149 229.798 261.853C229.407 261.557 228.891 261.333 228.251 261.18L227.149 260.893C226.69 260.779 226.275 260.612 225.903 260.392C225.531 260.163 225.23 259.877 225.001 259.533C224.781 259.18 224.671 258.76 224.671 258.273C224.671 257.366 224.962 256.659 225.545 256.153C226.137 255.638 226.991 255.38 228.108 255.38C228.757 255.38 229.321 255.49 229.798 255.709C230.275 255.919 230.662 256.191 230.958 256.526C231.263 256.86 231.478 257.208 231.602 257.571L230.457 257.972C230.275 257.514 229.97 257.146 229.54 256.869C229.111 256.592 228.59 256.454 227.979 256.454C227.34 256.454 226.829 256.612 226.447 256.927C226.075 257.232 225.889 257.647 225.889 258.172C225.889 258.64 226.032 258.998 226.318 259.247C226.614 259.485 227.006 259.662 227.492 259.776L228.595 260.048C229.569 260.287 230.314 260.669 230.829 261.194C231.354 261.719 231.617 262.287 231.617 262.898C231.617 263.423 231.483 263.905 231.216 264.345C230.948 264.774 230.552 265.118 230.027 265.376C229.512 265.624 228.867 265.748 228.094 265.748ZM236.045 265.748C235.349 265.748 234.809 265.567 234.427 265.204C234.045 264.841 233.854 264.33 233.854 263.672V259.433H232.609V258.416H233.854V256.182H235V258.416H237.148V259.433H235V263.557C235 263.92 235.096 264.201 235.286 264.402C235.487 264.593 235.764 264.688 236.117 264.688C236.232 264.688 236.341 264.674 236.446 264.645C236.551 264.607 236.699 264.521 236.89 264.388L237.334 265.318C237.086 265.481 236.862 265.59 236.661 265.648C236.461 265.715 236.255 265.748 236.045 265.748ZM239.725 262.082C239.725 262.788 239.806 263.328 239.968 263.7C240.14 264.073 240.369 264.33 240.656 264.473C240.942 264.607 241.267 264.674 241.629 264.674C242.25 264.674 242.732 264.45 243.076 264.001C243.429 263.552 243.606 262.922 243.606 262.111V258.416H244.751V265.576H243.677L243.62 264.516C243.133 265.337 242.384 265.748 241.372 265.748C240.503 265.748 239.816 265.481 239.31 264.946C238.813 264.411 238.57 263.6 238.579 262.512V258.416H239.725V262.082ZM249.572 265.748C248.932 265.748 248.369 265.59 247.882 265.275C247.395 264.96 247.013 264.521 246.736 263.958C246.469 263.385 246.335 262.731 246.335 261.996C246.335 261.251 246.469 260.597 246.736 260.034C247.013 259.471 247.395 259.032 247.882 258.717C248.369 258.402 248.932 258.244 249.572 258.244C250.097 258.244 250.565 258.368 250.975 258.616C251.386 258.855 251.725 259.189 251.992 259.619V255.552H253.138V265.576H252.049L251.992 264.359C251.734 264.798 251.395 265.142 250.975 265.39C250.565 265.629 250.097 265.748 249.572 265.748ZM249.83 264.703C250.441 264.703 250.947 264.464 251.348 263.987C251.749 263.509 251.963 262.889 251.992 262.125V261.867C251.963 261.103 251.749 260.483 251.348 260.005C250.947 259.528 250.436 259.289 249.815 259.289C249.357 259.289 248.956 259.404 248.612 259.633C248.269 259.862 247.997 260.182 247.796 260.593C247.596 260.994 247.495 261.461 247.495 261.996C247.495 262.521 247.596 262.989 247.796 263.399C247.997 263.81 248.269 264.13 248.612 264.359C248.966 264.588 249.371 264.703 249.83 264.703ZM255.213 265.576L255.242 258.416H256.388L256.359 265.576H255.213ZM255.8 256.755C255.6 256.755 255.428 256.683 255.285 256.54C255.151 256.397 255.084 256.23 255.084 256.039C255.084 255.838 255.151 255.671 255.285 255.537C255.428 255.394 255.6 255.323 255.8 255.323C256.001 255.323 256.168 255.394 256.302 255.537C256.445 255.671 256.516 255.838 256.516 256.039C256.516 256.23 256.445 256.397 256.302 256.54C256.168 256.683 256.001 256.755 255.8 256.755ZM261.635 265.748C260.938 265.748 260.317 265.59 259.773 265.275C259.239 264.951 258.818 264.507 258.513 263.944C258.207 263.38 258.055 262.731 258.055 261.996C258.055 261.261 258.203 260.612 258.499 260.048C258.804 259.485 259.224 259.046 259.759 258.731C260.294 258.406 260.909 258.244 261.606 258.244C262.313 258.244 262.933 258.406 263.468 258.731C264.003 259.046 264.423 259.485 264.728 260.048C265.034 260.612 265.186 261.261 265.186 261.996C265.186 262.731 265.034 263.38 264.728 263.944C264.423 264.507 264.003 264.951 263.468 265.275C262.943 265.59 262.332 265.748 261.635 265.748ZM261.635 264.688C262.103 264.688 262.513 264.579 262.866 264.359C263.229 264.13 263.511 263.81 263.711 263.399C263.921 262.989 264.026 262.521 264.026 261.996C264.026 261.461 263.921 260.994 263.711 260.593C263.511 260.182 263.229 259.862 262.866 259.633C262.504 259.404 262.084 259.289 261.606 259.289C261.138 259.289 260.723 259.404 260.36 259.633C260.007 259.862 259.725 260.182 259.515 260.593C259.315 260.994 259.215 261.461 259.215 261.996C259.215 262.521 259.315 262.989 259.515 263.399C259.725 263.81 260.012 264.13 260.375 264.359C260.747 264.579 261.167 264.688 261.635 264.688Z" fill="white"/>
<path d="M385.342 579.787V569.763H388.407C389.333 569.763 390.159 569.978 390.884 570.407C391.61 570.827 392.178 571.414 392.588 572.169C392.999 572.923 393.204 573.792 393.204 574.775C393.204 575.749 392.999 576.613 392.588 577.367C392.178 578.121 391.61 578.713 390.884 579.143C390.159 579.572 389.333 579.787 388.407 579.787H385.342ZM388.407 570.865H386.56V578.67H388.407C389.066 578.67 389.667 578.498 390.211 578.155C390.755 577.801 391.185 577.334 391.5 576.751C391.825 576.159 391.987 575.501 391.987 574.775C391.987 574.049 391.825 573.395 391.5 572.813C391.185 572.221 390.755 571.749 390.211 571.395C389.667 571.042 389.066 570.865 388.407 570.865ZM398.008 579.959C397.312 579.959 396.696 579.801 396.161 579.486C395.626 579.162 395.206 578.718 394.901 578.155C394.605 577.591 394.457 576.942 394.457 576.207C394.457 575.472 394.605 574.823 394.901 574.259C395.206 573.696 395.622 573.257 396.147 572.942C396.681 572.617 397.292 572.455 397.98 572.455C398.639 572.455 399.211 572.622 399.698 572.956C400.195 573.281 400.577 573.744 400.844 574.345C401.111 574.937 401.245 575.629 401.245 576.422H395.617C395.655 577.176 395.903 577.777 396.362 578.226C396.82 578.675 397.388 578.899 398.066 578.899C398.562 578.899 398.982 578.78 399.326 578.541C399.67 578.303 399.942 577.992 400.142 577.61L401.145 578.112C400.868 578.665 400.462 579.114 399.927 579.458C399.402 579.792 398.763 579.959 398.008 579.959ZM397.965 573.486C397.374 573.486 396.877 573.663 396.476 574.016C396.075 574.36 395.813 574.832 395.689 575.434H400.013C399.899 574.823 399.665 574.345 399.312 574.002C398.968 573.658 398.519 573.486 397.965 573.486ZM404.642 579.787L401.634 572.627H402.823L405.229 578.498L407.62 572.627H408.823L405.83 579.787H404.642ZM412.916 579.959C412.219 579.959 411.604 579.801 411.069 579.486C410.534 579.162 410.114 578.718 409.809 578.155C409.513 577.591 409.365 576.942 409.365 576.207C409.365 575.472 409.513 574.823 409.809 574.259C410.114 573.696 410.53 573.257 411.055 572.942C411.589 572.617 412.2 572.455 412.888 572.455C413.546 572.455 414.119 572.622 414.606 572.956C415.103 573.281 415.484 573.744 415.752 574.345C416.019 574.937 416.153 575.629 416.153 576.422H410.525C410.563 577.176 410.811 577.777 411.269 578.226C411.728 578.675 412.296 578.899 412.974 578.899C413.47 578.899 413.89 578.78 414.234 578.541C414.578 578.303 414.85 577.992 415.05 577.61L416.053 578.112C415.776 578.665 415.37 579.114 414.835 579.458C414.31 579.792 413.671 579.959 412.916 579.959ZM412.873 573.486C412.281 573.486 411.785 573.663 411.384 574.016C410.983 574.36 410.721 574.832 410.596 575.434H414.921C414.807 574.823 414.573 574.345 414.219 574.002C413.876 573.658 413.427 573.486 412.873 573.486ZM417.598 579.787V569.763H418.743V579.787H417.598ZM423.909 579.959C423.212 579.959 422.592 579.801 422.047 579.486C421.513 579.162 421.093 578.718 420.787 578.155C420.482 577.591 420.329 576.942 420.329 576.207C420.329 575.472 420.477 574.823 420.773 574.259C421.078 573.696 421.498 573.257 422.033 572.942C422.568 572.617 423.184 572.455 423.88 572.455C424.587 572.455 425.208 572.617 425.742 572.942C426.277 573.257 426.697 573.696 427.002 574.259C427.308 574.823 427.461 575.472 427.461 576.207C427.461 576.942 427.308 577.591 427.002 578.155C426.697 578.718 426.277 579.162 425.742 579.486C425.217 579.801 424.606 579.959 423.909 579.959ZM423.909 578.899C424.377 578.899 424.787 578.789 425.141 578.57C425.503 578.341 425.785 578.021 425.986 577.61C426.196 577.2 426.301 576.732 426.301 576.207C426.301 575.672 426.196 575.205 425.986 574.804C425.785 574.393 425.503 574.073 425.141 573.844C424.778 573.615 424.358 573.5 423.88 573.5C423.413 573.5 422.997 573.615 422.635 573.844C422.281 574.073 422 574.393 421.79 574.804C421.589 575.205 421.489 575.672 421.489 576.207C421.489 576.732 421.589 577.2 421.79 577.61C422 578.021 422.286 578.341 422.649 578.57C423.021 578.789 423.441 578.899 423.909 578.899ZM429.123 582.651V572.627H430.197L430.269 573.844C430.526 573.405 430.86 573.066 431.271 572.827C431.691 572.579 432.164 572.455 432.689 572.455C433.328 572.455 433.892 572.613 434.379 572.928C434.865 573.243 435.243 573.682 435.51 574.245C435.787 574.808 435.925 575.462 435.925 576.207C435.925 576.942 435.787 577.596 435.51 578.169C435.243 578.732 434.865 579.171 434.379 579.486C433.892 579.801 433.328 579.959 432.689 579.959C432.164 579.959 431.691 579.84 431.271 579.601C430.86 579.353 430.526 579.014 430.269 578.584V582.651H429.123ZM432.431 578.914C432.88 578.914 433.281 578.799 433.634 578.57C433.987 578.341 434.264 578.021 434.464 577.61C434.665 577.2 434.765 576.732 434.765 576.207C434.765 575.672 434.665 575.205 434.464 574.804C434.264 574.393 433.987 574.073 433.634 573.844C433.29 573.615 432.894 573.5 432.445 573.5C432.016 573.5 431.639 573.615 431.314 573.844C430.989 574.073 430.732 574.393 430.541 574.804C430.359 575.205 430.269 575.672 430.269 576.207C430.269 576.732 430.359 577.2 430.541 577.61C430.732 578.021 430.989 578.341 431.314 578.57C431.639 578.799 432.011 578.914 432.431 578.914ZM437.512 579.787V572.627H438.586L438.643 573.687C439.13 572.866 439.88 572.455 440.892 572.455C441.522 572.455 442.057 572.593 442.496 572.87C442.935 573.147 443.255 573.567 443.455 574.131C443.675 573.596 443.99 573.185 444.4 572.899C444.82 572.603 445.331 572.455 445.933 572.455C446.792 572.455 447.47 572.722 447.966 573.257C448.472 573.792 448.725 574.603 448.725 575.691V579.787H447.579V576.121C447.579 575.415 447.494 574.875 447.322 574.503C447.159 574.131 446.935 573.878 446.649 573.744C446.362 573.601 446.038 573.529 445.675 573.529C445.045 573.529 444.553 573.753 444.2 574.202C443.856 574.651 443.684 575.276 443.684 576.078V579.787H442.539V576.121C442.539 575.415 442.453 574.875 442.281 574.503C442.119 574.131 441.894 573.878 441.608 573.744C441.321 573.601 441.002 573.529 440.648 573.529C440.018 573.529 439.527 573.753 439.173 574.202C438.83 574.651 438.658 575.276 438.658 576.078V579.787H437.512ZM453.668 579.959C452.971 579.959 452.356 579.801 451.821 579.486C451.286 579.162 450.866 578.718 450.561 578.155C450.265 577.591 450.117 576.942 450.117 576.207C450.117 575.472 450.265 574.823 450.561 574.259C450.866 573.696 451.281 573.257 451.807 572.942C452.341 572.617 452.952 572.455 453.64 572.455C454.298 572.455 454.871 572.622 455.358 572.956C455.855 573.281 456.236 573.744 456.504 574.345C456.771 574.937 456.905 575.629 456.905 576.422H451.277C451.315 577.176 451.563 577.777 452.021 578.226C452.48 578.675 453.048 578.899 453.726 578.899C454.222 578.899 454.642 578.78 454.986 578.541C455.329 578.303 455.602 577.992 455.802 577.61L456.804 578.112C456.528 578.665 456.122 579.114 455.587 579.458C455.062 579.792 454.422 579.959 453.668 579.959ZM453.625 573.486C453.033 573.486 452.537 573.663 452.136 574.016C451.735 574.36 451.472 574.832 451.348 575.434H455.673C455.559 574.823 455.325 574.345 454.971 574.002C454.628 573.658 454.179 573.486 453.625 573.486ZM458.35 579.787V572.627H459.424L459.481 573.687C459.968 572.866 460.717 572.455 461.729 572.455C462.598 572.455 463.281 572.722 463.777 573.257C464.283 573.792 464.531 574.603 464.522 575.691V579.787H463.376V576.121C463.376 575.415 463.29 574.875 463.118 574.503C462.956 574.131 462.732 573.878 462.445 573.744C462.159 573.601 461.839 573.529 461.486 573.529C460.856 573.529 460.364 573.753 460.011 574.202C459.667 574.651 459.495 575.276 459.495 576.078V579.787H458.35ZM469.027 579.959C468.33 579.959 467.791 579.778 467.409 579.415C467.027 579.052 466.836 578.541 466.836 577.882V573.644H465.59V572.627H466.836V570.393H467.982V572.627H470.13V573.644H467.982V577.768C467.982 578.131 468.077 578.412 468.268 578.613C468.469 578.804 468.746 578.899 469.099 578.899C469.213 578.899 469.323 578.885 469.428 578.856C469.533 578.818 469.681 578.732 469.872 578.599L470.316 579.529C470.068 579.692 469.843 579.801 469.643 579.859C469.443 579.926 469.237 579.959 469.027 579.959ZM405.786 596.959C405.051 596.959 404.421 596.854 403.896 596.644C403.381 596.434 402.961 596.162 402.636 595.828C402.321 595.484 402.101 595.116 401.977 594.725L403.137 594.324C403.28 594.744 403.567 595.112 403.996 595.427C404.436 595.732 404.97 595.885 405.6 595.885C406.374 595.885 406.98 595.732 407.419 595.427C407.858 595.121 408.078 594.715 408.078 594.209C408.078 593.742 407.882 593.36 407.491 593.064C407.099 592.768 406.584 592.543 405.944 592.391L404.841 592.104C404.383 591.99 403.968 591.823 403.595 591.603C403.223 591.374 402.922 591.088 402.693 590.744C402.474 590.391 402.364 589.971 402.364 589.484C402.364 588.577 402.655 587.87 403.237 587.364C403.829 586.849 404.684 586.591 405.801 586.591C406.45 586.591 407.013 586.701 407.491 586.92C407.968 587.13 408.355 587.402 408.651 587.737C408.956 588.071 409.171 588.419 409.295 588.782L408.149 589.183C407.968 588.725 407.662 588.357 407.233 588.08C406.803 587.803 406.283 587.665 405.672 587.665C405.032 587.665 404.521 587.822 404.14 588.138C403.767 588.443 403.581 588.858 403.581 589.383C403.581 589.851 403.724 590.209 404.011 590.457C404.307 590.696 404.698 590.873 405.185 590.987L406.288 591.259C407.261 591.498 408.006 591.88 408.522 592.405C409.047 592.93 409.309 593.498 409.309 594.109C409.309 594.634 409.176 595.116 408.908 595.556C408.641 595.985 408.245 596.329 407.72 596.587C407.204 596.835 406.56 596.959 405.786 596.959ZM412.005 593.293C412.005 593.999 412.086 594.539 412.249 594.911C412.421 595.283 412.65 595.541 412.936 595.684C413.222 595.818 413.547 595.885 413.91 595.885C414.53 595.885 415.013 595.661 415.356 595.212C415.709 594.763 415.886 594.133 415.886 593.322V589.627H417.032V596.787H415.958L415.9 595.727C415.414 596.548 414.664 596.959 413.652 596.959C412.783 596.959 412.096 596.692 411.59 596.157C411.094 595.622 410.85 594.811 410.86 593.723V589.627H412.005V593.293ZM419.103 599.651V589.627H420.177L420.248 590.844C420.506 590.405 420.84 590.066 421.251 589.827C421.671 589.579 422.143 589.455 422.669 589.455C423.308 589.455 423.871 589.613 424.358 589.928C424.845 590.243 425.222 590.682 425.49 591.245C425.767 591.808 425.905 592.462 425.905 593.207C425.905 593.942 425.767 594.596 425.49 595.169C425.222 595.732 424.845 596.171 424.358 596.486C423.871 596.801 423.308 596.959 422.669 596.959C422.143 596.959 421.671 596.84 421.251 596.601C420.84 596.353 420.506 596.014 420.248 595.584V599.651H419.103ZM422.411 595.914C422.859 595.914 423.26 595.799 423.614 595.57C423.967 595.341 424.244 595.021 424.444 594.61C424.645 594.2 424.745 593.732 424.745 593.207C424.745 592.672 424.645 592.205 424.444 591.804C424.244 591.393 423.967 591.073 423.614 590.844C423.27 590.615 422.874 590.5 422.425 590.5C421.995 590.5 421.618 590.615 421.294 590.844C420.969 591.073 420.711 591.393 420.52 591.804C420.339 592.205 420.248 592.672 420.248 593.207C420.248 593.732 420.339 594.2 420.52 594.61C420.711 595.021 420.969 595.341 421.294 595.57C421.618 595.799 421.991 595.914 422.411 595.914ZM427.564 599.651V589.627H428.638L428.709 590.844C428.967 590.405 429.301 590.066 429.712 589.827C430.132 589.579 430.604 589.455 431.129 589.455C431.769 589.455 432.332 589.613 432.819 589.928C433.306 590.243 433.683 590.682 433.951 591.245C434.227 591.808 434.366 592.462 434.366 593.207C434.366 593.942 434.227 594.596 433.951 595.169C433.683 595.732 433.306 596.171 432.819 596.486C432.332 596.801 431.769 596.959 431.129 596.959C430.604 596.959 430.132 596.84 429.712 596.601C429.301 596.353 428.967 596.014 428.709 595.584V599.651H427.564ZM430.872 595.914C431.32 595.914 431.721 595.799 432.075 595.57C432.428 595.341 432.705 595.021 432.905 594.61C433.106 594.2 433.206 593.732 433.206 593.207C433.206 592.672 433.106 592.205 432.905 591.804C432.705 591.393 432.428 591.073 432.075 590.844C431.731 590.615 431.335 590.5 430.886 590.5C430.456 590.5 430.079 590.615 429.755 590.844C429.43 591.073 429.172 591.393 428.981 591.804C428.8 592.205 428.709 592.672 428.709 593.207C428.709 593.732 428.8 594.2 428.981 594.61C429.172 595.021 429.43 595.341 429.755 595.57C430.079 595.799 430.452 595.914 430.872 595.914ZM439.118 596.959C438.421 596.959 437.8 596.801 437.256 596.486C436.721 596.162 436.301 595.718 435.996 595.155C435.69 594.591 435.538 593.942 435.538 593.207C435.538 592.472 435.686 591.823 435.981 591.259C436.287 590.696 436.707 590.257 437.242 589.942C437.776 589.617 438.392 589.455 439.089 589.455C439.795 589.455 440.416 589.617 440.951 589.942C441.485 590.257 441.905 590.696 442.211 591.259C442.516 591.823 442.669 592.472 442.669 593.207C442.669 593.942 442.516 594.591 442.211 595.155C441.905 595.718 441.485 596.162 440.951 596.486C440.426 596.801 439.815 596.959 439.118 596.959ZM439.118 595.899C439.585 595.899 439.996 595.789 440.349 595.57C440.712 595.341 440.994 595.021 441.194 594.61C441.404 594.2 441.509 593.732 441.509 593.207C441.509 592.672 441.404 592.205 441.194 591.804C440.994 591.393 440.712 591.073 440.349 590.844C439.986 590.615 439.566 590.5 439.089 590.5C438.621 590.5 438.206 590.615 437.843 590.844C437.49 591.073 437.208 591.393 436.998 591.804C436.798 592.205 436.697 592.672 436.697 593.207C436.697 593.732 436.798 594.2 436.998 594.61C437.208 595.021 437.495 595.341 437.857 595.57C438.23 595.789 438.65 595.899 439.118 595.899ZM444.26 596.787V589.627H445.405V590.901C445.692 590.453 446.059 590.123 446.508 589.913C446.966 589.703 447.444 589.598 447.94 589.598V590.672C447.511 590.672 447.1 590.744 446.709 590.887C446.327 591.021 446.012 591.25 445.763 591.574C445.525 591.889 445.405 592.314 445.405 592.849V596.787H444.26ZM451.791 596.959C451.094 596.959 450.555 596.778 450.173 596.415C449.791 596.052 449.6 595.541 449.6 594.882V590.644H448.354V589.627H449.6V587.393H450.745V589.627H452.894V590.644H450.745V594.768C450.745 595.131 450.841 595.412 451.032 595.613C451.232 595.804 451.509 595.899 451.862 595.899C451.977 595.899 452.087 595.885 452.192 595.856C452.297 595.818 452.445 595.732 452.636 595.599L453.08 596.529C452.831 596.692 452.607 596.801 452.407 596.859C452.206 596.926 452.001 596.959 451.791 596.959Z" fill="white"/>
<path d="M426.85 226.572V216.548H428.067V216.562L428.11 216.548L431.575 221.689L435.041 216.548L435.084 216.562V216.548H436.287V226.572H435.084V218.51L431.575 223.722L428.067 218.538V226.572H426.85ZM441.796 226.744C441.099 226.744 440.478 226.587 439.934 226.272C439.4 225.947 438.98 225.503 438.674 224.94C438.369 224.376 438.216 223.727 438.216 222.992C438.216 222.257 438.364 221.608 438.66 221.045C438.965 220.481 439.385 220.042 439.92 219.727C440.455 219.402 441.07 219.24 441.767 219.24C442.474 219.24 443.094 219.402 443.629 219.727C444.164 220.042 444.584 220.481 444.889 221.045C445.195 221.608 445.347 222.257 445.347 222.992C445.347 223.727 445.195 224.376 444.889 224.94C444.584 225.503 444.164 225.947 443.629 226.272C443.104 226.587 442.493 226.744 441.796 226.744ZM441.796 225.684C442.264 225.684 442.674 225.575 443.028 225.355C443.39 225.126 443.672 224.806 443.872 224.396C444.082 223.985 444.188 223.517 444.188 222.992C444.188 222.458 444.082 221.99 443.872 221.589C443.672 221.178 443.39 220.858 443.028 220.629C442.665 220.4 442.245 220.286 441.767 220.286C441.3 220.286 440.884 220.4 440.521 220.629C440.168 220.858 439.887 221.178 439.677 221.589C439.476 221.99 439.376 222.458 439.376 222.992C439.376 223.517 439.476 223.985 439.677 224.396C439.887 224.806 440.173 225.126 440.536 225.355C440.908 225.575 441.328 225.684 441.796 225.684ZM446.938 226.572V216.548H448.084V220.615C448.342 220.185 448.676 219.851 449.086 219.612C449.506 219.364 449.979 219.24 450.504 219.24C451.144 219.24 451.707 219.398 452.194 219.713C452.681 220.028 453.058 220.467 453.325 221.03C453.602 221.594 453.74 222.247 453.74 222.992C453.74 223.727 453.602 224.381 453.325 224.954C453.058 225.517 452.681 225.956 452.194 226.272C451.707 226.587 451.144 226.744 450.504 226.744C449.979 226.744 449.506 226.625 449.086 226.386C448.676 226.138 448.342 225.794 448.084 225.355L448.027 226.572H446.938ZM450.246 225.699C450.695 225.699 451.096 225.584 451.449 225.355C451.802 225.126 452.079 224.806 452.28 224.396C452.48 223.985 452.58 223.517 452.58 222.992C452.58 222.458 452.48 221.99 452.28 221.589C452.079 221.178 451.802 220.858 451.449 220.629C451.105 220.4 450.709 220.286 450.261 220.286C449.831 220.286 449.454 220.4 449.129 220.629C448.805 220.858 448.547 221.178 448.356 221.589C448.174 221.99 448.084 222.458 448.084 222.992C448.084 223.517 448.174 223.985 448.356 224.396C448.547 224.806 448.805 225.126 449.129 225.355C449.454 225.584 449.826 225.699 450.246 225.699ZM455.401 226.572L455.429 219.412H456.575L456.546 226.572H455.401ZM455.988 217.751C455.787 217.751 455.615 217.679 455.472 217.536C455.339 217.393 455.272 217.226 455.272 217.035C455.272 216.834 455.339 216.667 455.472 216.534C455.615 216.39 455.787 216.319 455.988 216.319C456.188 216.319 456.355 216.39 456.489 216.534C456.632 216.667 456.704 216.834 456.704 217.035C456.704 217.226 456.632 217.393 456.489 217.536C456.355 217.679 456.188 217.751 455.988 217.751ZM458.657 226.572V216.548H459.803V226.572H458.657ZM464.94 226.744C464.243 226.744 463.628 226.587 463.093 226.272C462.558 225.947 462.138 225.503 461.833 224.94C461.537 224.376 461.389 223.727 461.389 222.992C461.389 222.257 461.537 221.608 461.833 221.045C462.138 220.481 462.554 220.042 463.079 219.727C463.613 219.402 464.224 219.24 464.912 219.24C465.57 219.24 466.143 219.407 466.63 219.741C467.127 220.066 467.508 220.529 467.776 221.13C468.043 221.722 468.177 222.415 468.177 223.207H462.549C462.587 223.961 462.835 224.563 463.293 225.011C463.752 225.46 464.32 225.684 464.998 225.684C465.494 225.684 465.914 225.565 466.258 225.326C466.601 225.088 466.874 224.777 467.074 224.396L468.076 224.897C467.8 225.45 467.394 225.899 466.859 226.243C466.334 226.577 465.694 226.744 464.94 226.744ZM464.897 220.271C464.305 220.271 463.809 220.448 463.408 220.801C463.007 221.145 462.744 221.617 462.62 222.219H466.945C466.831 221.608 466.597 221.13 466.243 220.787C465.9 220.443 465.451 220.271 464.897 220.271ZM405.033 243.572V233.548H408.098C409.024 233.548 409.85 233.763 410.575 234.192C411.301 234.612 411.869 235.2 412.279 235.954C412.69 236.708 412.895 237.577 412.895 238.56C412.895 239.534 412.69 240.398 412.279 241.152C411.869 241.906 411.301 242.498 410.575 242.928C409.85 243.357 409.024 243.572 408.098 243.572H405.033ZM408.098 234.651H406.25V242.455H408.098C408.757 242.455 409.358 242.283 409.902 241.94C410.446 241.586 410.876 241.119 411.191 240.536C411.516 239.944 411.678 239.286 411.678 238.56C411.678 237.835 411.516 237.181 411.191 236.598C410.876 236.006 410.446 235.534 409.902 235.18C409.358 234.827 408.757 234.651 408.098 234.651ZM417.699 243.744C417.002 243.744 416.387 243.587 415.852 243.272C415.317 242.947 414.897 242.503 414.592 241.94C414.296 241.376 414.148 240.727 414.148 239.992C414.148 239.257 414.296 238.608 414.592 238.045C414.897 237.481 415.313 237.042 415.838 236.727C416.372 236.402 416.983 236.24 417.671 236.24C418.329 236.24 418.902 236.407 419.389 236.741C419.886 237.066 420.268 237.529 420.535 238.13C420.802 238.722 420.936 239.415 420.936 240.207H415.308C415.346 240.961 415.594 241.563 416.053 242.011C416.511 242.46 417.079 242.684 417.757 242.684C418.253 242.684 418.673 242.565 419.017 242.326C419.361 242.088 419.633 241.777 419.833 241.396L420.836 241.897C420.559 242.45 420.153 242.899 419.618 243.243C419.093 243.577 418.454 243.744 417.699 243.744ZM417.656 237.271C417.064 237.271 416.568 237.448 416.167 237.801C415.766 238.145 415.504 238.617 415.379 239.219H419.704C419.59 238.608 419.356 238.13 419.003 237.787C418.659 237.443 418.21 237.271 417.656 237.271ZM424.333 243.572L421.325 236.412H422.514L424.92 242.283L427.311 236.412H428.514L425.521 243.572H424.333ZM432.607 243.744C431.91 243.744 431.295 243.587 430.76 243.272C430.225 242.947 429.805 242.503 429.5 241.94C429.204 241.376 429.056 240.727 429.056 239.992C429.056 239.257 429.204 238.608 429.5 238.045C429.805 237.481 430.22 237.042 430.746 236.727C431.28 236.402 431.891 236.24 432.579 236.24C433.237 236.24 433.81 236.407 434.297 236.741C434.794 237.066 435.175 237.529 435.443 238.13C435.71 238.722 435.844 239.415 435.844 240.207H430.216C430.254 240.961 430.502 241.563 430.96 242.011C431.419 242.46 431.987 242.684 432.665 242.684C433.161 242.684 433.581 242.565 433.925 242.326C434.268 242.088 434.541 241.777 434.741 241.396L435.743 241.897C435.467 242.45 435.061 242.899 434.526 243.243C434.001 243.577 433.361 243.744 432.607 243.744ZM432.564 237.271C431.972 237.271 431.476 237.448 431.075 237.801C430.674 238.145 430.411 238.617 430.287 239.219H434.612C434.498 238.608 434.264 238.13 433.91 237.787C433.567 237.443 433.118 237.271 432.564 237.271ZM437.289 243.572V233.548H438.434V243.572H437.289ZM443.6 243.744C442.903 243.744 442.283 243.587 441.738 243.272C441.204 242.947 440.784 242.503 440.478 241.94C440.173 241.376 440.02 240.727 440.02 239.992C440.02 239.257 440.168 238.608 440.464 238.045C440.769 237.481 441.189 237.042 441.724 236.727C442.259 236.402 442.874 236.24 443.571 236.24C444.278 236.24 444.898 236.402 445.433 236.727C445.968 237.042 446.388 237.481 446.693 238.045C446.999 238.608 447.152 239.257 447.152 239.992C447.152 240.727 446.999 241.376 446.693 241.94C446.388 242.503 445.968 242.947 445.433 243.272C444.908 243.587 444.297 243.744 443.6 243.744ZM443.6 242.684C444.068 242.684 444.478 242.575 444.832 242.355C445.194 242.126 445.476 241.806 445.676 241.396C445.887 240.985 445.992 240.517 445.992 239.992C445.992 239.458 445.887 238.99 445.676 238.589C445.476 238.178 445.194 237.858 444.832 237.629C444.469 237.4 444.049 237.286 443.571 237.286C443.104 237.286 442.688 237.4 442.326 237.629C441.972 237.858 441.691 238.178 441.481 238.589C441.28 238.99 441.18 239.458 441.18 239.992C441.18 240.517 441.28 240.985 441.481 241.396C441.691 241.806 441.977 242.126 442.34 242.355C442.712 242.575 443.132 242.684 443.6 242.684ZM448.814 246.436V236.412H449.888L449.959 237.629C450.217 237.19 450.551 236.851 450.962 236.612C451.382 236.364 451.855 236.24 452.38 236.24C453.019 236.24 453.583 236.398 454.069 236.713C454.556 237.028 454.933 237.467 455.201 238.03C455.478 238.594 455.616 239.247 455.616 239.992C455.616 240.727 455.478 241.381 455.201 241.954C454.933 242.517 454.556 242.956 454.069 243.272C453.583 243.587 453.019 243.744 452.38 243.744C451.855 243.744 451.382 243.625 450.962 243.386C450.551 243.138 450.217 242.799 449.959 242.369V246.436H448.814ZM452.122 242.699C452.571 242.699 452.972 242.584 453.325 242.355C453.678 242.126 453.955 241.806 454.155 241.396C454.356 240.985 454.456 240.517 454.456 239.992C454.456 239.458 454.356 238.99 454.155 238.589C453.955 238.178 453.678 237.858 453.325 237.629C452.981 237.4 452.585 237.286 452.136 237.286C451.707 237.286 451.329 237.4 451.005 237.629C450.68 237.858 450.422 238.178 450.232 238.589C450.05 238.99 449.959 239.458 449.959 239.992C449.959 240.517 450.05 240.985 450.232 241.396C450.422 241.806 450.68 242.126 451.005 242.355C451.329 242.584 451.702 242.699 452.122 242.699ZM457.203 243.572V236.412H458.277L458.334 237.472C458.821 236.651 459.571 236.24 460.583 236.24C461.213 236.24 461.747 236.379 462.187 236.655C462.626 236.932 462.946 237.352 463.146 237.916C463.366 237.381 463.681 236.971 464.091 236.684C464.511 236.388 465.022 236.24 465.624 236.24C466.483 236.24 467.161 236.507 467.657 237.042C468.163 237.577 468.416 238.388 468.416 239.477V243.572H467.27V239.906C467.27 239.2 467.184 238.66 467.013 238.288C466.85 237.916 466.626 237.663 466.34 237.529C466.053 237.386 465.729 237.314 465.366 237.314C464.736 237.314 464.244 237.539 463.891 237.987C463.547 238.436 463.375 239.061 463.375 239.863V243.572H462.23V239.906C462.23 239.2 462.144 238.66 461.972 238.288C461.809 237.916 461.585 237.663 461.299 237.529C461.012 237.386 460.692 237.314 460.339 237.314C459.709 237.314 459.217 237.539 458.864 237.987C458.521 238.436 458.349 239.061 458.349 239.863V243.572H457.203ZM473.359 243.744C472.662 243.744 472.046 243.587 471.512 243.272C470.977 242.947 470.557 242.503 470.252 241.94C469.956 241.376 469.808 240.727 469.808 239.992C469.808 239.257 469.956 238.608 470.252 238.045C470.557 237.481 470.972 237.042 471.497 236.727C472.032 236.402 472.643 236.24 473.331 236.24C473.989 236.24 474.562 236.407 475.049 236.741C475.545 237.066 475.927 237.529 476.195 238.13C476.462 238.722 476.596 239.415 476.596 240.207H470.968C471.006 240.961 471.254 241.563 471.712 242.011C472.171 242.46 472.739 242.684 473.416 242.684C473.913 242.684 474.333 242.565 474.677 242.326C475.02 242.088 475.292 241.777 475.493 241.396L476.495 241.897C476.218 242.45 475.813 242.899 475.278 243.243C474.753 243.577 474.113 243.744 473.359 243.744ZM473.316 237.271C472.724 237.271 472.228 237.448 471.827 237.801C471.426 238.145 471.163 238.617 471.039 239.219H475.364C475.249 238.608 475.016 238.13 474.662 237.787C474.319 237.443 473.87 237.271 473.316 237.271ZM478.041 243.572V236.412H479.115L479.172 237.472C479.659 236.651 480.408 236.24 481.42 236.24C482.289 236.24 482.972 236.507 483.468 237.042C483.974 237.577 484.222 238.388 484.213 239.477V243.572H483.067V239.906C483.067 239.2 482.981 238.66 482.809 238.288C482.647 237.916 482.423 237.663 482.136 237.529C481.85 237.386 481.53 237.314 481.177 237.314C480.547 237.314 480.055 237.539 479.702 237.987C479.358 238.436 479.186 239.061 479.186 239.863V243.572H478.041ZM488.718 243.744C488.021 243.744 487.482 243.563 487.1 243.2C486.718 242.837 486.527 242.326 486.527 241.668V237.429H485.281V236.412H486.527V234.178H487.673V236.412H489.821V237.429H487.673V241.553C487.673 241.916 487.768 242.197 487.959 242.398C488.16 242.589 488.436 242.684 488.79 242.684C488.904 242.684 489.014 242.67 489.119 242.641C489.224 242.603 489.372 242.517 489.563 242.384L490.007 243.314C489.759 243.477 489.534 243.587 489.334 243.644C489.133 243.711 488.928 243.744 488.718 243.744Z" fill="white"/>
<path d="M357.317 455.379V445.355H360.381C361.307 445.355 362.133 445.569 362.859 445.999C363.584 446.419 364.152 447.006 364.563 447.76C364.973 448.515 365.179 449.383 365.179 450.367C365.179 451.341 364.973 452.205 364.563 452.959C364.152 453.713 363.584 454.305 362.859 454.734C362.133 455.164 361.307 455.379 360.381 455.379H357.317ZM360.381 446.457H358.534V454.262H360.381C361.04 454.262 361.642 454.09 362.186 453.746C362.73 453.393 363.16 452.925 363.475 452.343C363.799 451.751 363.961 451.092 363.961 450.367C363.961 449.641 363.799 448.987 363.475 448.405C363.16 447.813 362.73 447.34 362.186 446.987C361.642 446.634 361.04 446.457 360.381 446.457ZM366.918 455.379L366.947 448.219H368.093L368.064 455.379H366.918ZM367.505 446.557C367.305 446.557 367.133 446.486 366.99 446.343C366.856 446.199 366.789 446.032 366.789 445.841C366.789 445.641 366.856 445.474 366.99 445.34C367.133 445.197 367.305 445.125 367.505 445.125C367.706 445.125 367.873 445.197 368.007 445.34C368.15 445.474 368.221 445.641 368.221 445.841C368.221 446.032 368.15 446.199 368.007 446.343C367.873 446.486 367.706 446.557 367.505 446.557ZM372.996 455.322C372.357 455.322 371.793 455.169 371.306 454.863C370.82 454.558 370.438 454.133 370.161 453.589C369.893 453.045 369.76 452.415 369.76 451.699C369.76 450.973 369.893 450.338 370.161 449.794C370.438 449.24 370.82 448.811 371.306 448.505C371.793 448.2 372.357 448.047 372.996 448.047C373.521 448.047 373.994 448.171 374.414 448.419C374.834 448.658 375.173 448.997 375.431 449.436V448.219H376.576V454.692C376.576 455.513 376.419 456.2 376.104 456.754C375.798 457.307 375.378 457.723 374.844 458C374.319 458.276 373.717 458.415 373.039 458.415C372.571 458.415 372.151 458.367 371.779 458.272C371.407 458.186 371.087 458.085 370.82 457.971C370.562 457.866 370.376 457.775 370.261 457.699L370.691 456.768C370.872 456.873 371.173 457.002 371.593 457.155C372.013 457.307 372.49 457.384 373.025 457.384C373.722 457.384 374.295 457.169 374.743 456.739C375.202 456.319 375.431 455.641 375.431 454.706V453.947C375.173 454.376 374.834 454.715 374.414 454.964C373.994 455.202 373.521 455.322 372.996 455.322ZM373.268 454.334C373.688 454.334 374.061 454.219 374.385 453.99C374.71 453.761 374.963 453.45 375.144 453.059C375.326 452.658 375.416 452.195 375.416 451.67C375.416 451.164 375.321 450.715 375.13 450.324C374.949 449.923 374.696 449.613 374.371 449.393C374.056 449.164 373.684 449.049 373.254 449.049C372.805 449.049 372.404 449.164 372.051 449.393C371.707 449.613 371.435 449.923 371.235 450.324C371.044 450.715 370.948 451.164 370.948 451.67C370.948 452.195 371.049 452.658 371.249 453.059C371.45 453.45 371.722 453.761 372.065 453.99C372.419 454.219 372.82 454.334 373.268 454.334ZM378.652 455.379L378.68 448.219H379.826L379.797 455.379H378.652ZM379.239 446.557C379.038 446.557 378.866 446.486 378.723 446.343C378.59 446.199 378.523 446.032 378.523 445.841C378.523 445.641 378.59 445.474 378.723 445.34C378.866 445.197 379.038 445.125 379.239 445.125C379.439 445.125 379.606 445.197 379.74 445.34C379.883 445.474 379.955 445.641 379.955 445.841C379.955 446.032 379.883 446.199 379.74 446.343C379.606 446.486 379.439 446.557 379.239 446.557ZM384.601 455.551C383.904 455.551 383.364 455.369 382.982 455.007C382.601 454.644 382.41 454.133 382.41 453.474V449.235H381.164V448.219H382.41V445.985H383.555V448.219H385.703V449.235H383.555V453.36C383.555 453.723 383.651 454.004 383.842 454.205C384.042 454.396 384.319 454.491 384.672 454.491C384.787 454.491 384.897 454.477 385.002 454.448C385.107 454.41 385.255 454.324 385.446 454.19L385.89 455.121C385.641 455.283 385.417 455.393 385.216 455.451C385.016 455.517 384.811 455.551 384.601 455.551ZM389.555 455.551C388.706 455.551 388.047 455.36 387.579 454.978C387.111 454.587 386.877 454.047 386.877 453.36C386.877 452.644 387.116 452.09 387.593 451.699C388.08 451.307 388.758 451.111 389.627 451.111H391.589C391.531 450.434 391.364 449.928 391.088 449.593C390.811 449.25 390.386 449.078 389.813 449.078C388.982 449.078 388.381 449.417 388.009 450.095L386.978 449.679C387.264 449.183 387.636 448.787 388.095 448.491C388.562 448.195 389.14 448.047 389.827 448.047C391.794 448.047 392.777 449.197 392.777 451.498L392.763 455.379H391.761L391.732 454.563C391.493 454.878 391.193 455.121 390.83 455.293C390.467 455.465 390.042 455.551 389.555 455.551ZM389.613 454.548C390.233 454.548 390.725 454.343 391.088 453.933C391.46 453.512 391.646 452.987 391.646 452.357V452.071H389.885C389.216 452.071 388.739 452.185 388.453 452.415C388.176 452.634 388.037 452.944 388.037 453.345C388.037 453.718 388.171 454.014 388.438 454.233C388.715 454.443 389.107 454.548 389.613 454.548ZM394.593 455.379V445.355H395.738V455.379H394.593ZM345.695 472.379V462.355H346.913V462.369L346.956 462.355L350.421 467.496L353.887 462.355L353.93 462.369V462.355H355.133V472.379H353.93V464.316L350.421 469.529L346.913 464.345V472.379H345.695ZM359.74 472.551C358.89 472.551 358.231 472.36 357.763 471.978C357.295 471.587 357.062 471.047 357.062 470.36C357.062 469.644 357.3 469.09 357.778 468.699C358.264 468.307 358.942 468.111 359.811 468.111H361.773C361.716 467.434 361.549 466.928 361.272 466.593C360.995 466.25 360.57 466.078 359.997 466.078C359.167 466.078 358.565 466.417 358.193 467.095L357.162 466.679C357.448 466.183 357.821 465.787 358.279 465.491C358.747 465.195 359.324 465.047 360.012 465.047C361.978 465.047 362.962 466.197 362.962 468.498L362.947 472.379H361.945L361.916 471.563C361.678 471.878 361.377 472.121 361.014 472.293C360.651 472.465 360.226 472.551 359.74 472.551ZM359.797 471.548C360.417 471.548 360.909 471.343 361.272 470.933C361.644 470.512 361.83 469.987 361.83 469.357V469.071H360.069C359.401 469.071 358.923 469.185 358.637 469.415C358.36 469.634 358.222 469.944 358.222 470.345C358.222 470.718 358.355 471.014 358.623 471.233C358.899 471.443 359.291 471.548 359.797 471.548ZM364.777 472.379V465.219H365.923V466.493C366.209 466.044 366.577 465.715 367.025 465.505C367.484 465.295 367.961 465.19 368.457 465.19V466.264C368.028 466.264 367.617 466.336 367.226 466.479C366.844 466.613 366.529 466.842 366.281 467.166C366.042 467.481 365.923 467.906 365.923 468.441V472.379H364.777ZM369.616 472.379V462.355H370.761V468.469L373.826 465.219H375.258L372.58 468.097L375.544 472.379H374.127L371.821 468.899L370.761 470.045V472.379H369.616ZM379.549 472.551C378.852 472.551 378.236 472.393 377.701 472.078C377.167 471.754 376.747 471.31 376.441 470.746C376.145 470.183 375.997 469.534 375.997 468.799C375.997 468.064 376.145 467.414 376.441 466.851C376.747 466.288 377.162 465.849 377.687 465.534C378.222 465.209 378.833 465.047 379.52 465.047C380.179 465.047 380.751 465.214 381.238 465.548C381.735 465.873 382.117 466.336 382.384 466.937C382.651 467.529 382.785 468.221 382.785 469.014H377.157C377.195 469.768 377.443 470.369 377.902 470.818C378.36 471.267 378.928 471.491 379.606 471.491C380.102 471.491 380.522 471.372 380.866 471.133C381.21 470.894 381.482 470.584 381.682 470.202L382.685 470.703C382.408 471.257 382.002 471.706 381.468 472.05C380.942 472.384 380.303 472.551 379.549 472.551ZM379.506 466.078C378.914 466.078 378.417 466.255 378.016 466.608C377.615 466.951 377.353 467.424 377.229 468.025H381.553C381.439 467.414 381.205 466.937 380.852 466.593C380.508 466.25 380.059 466.078 379.506 466.078ZM386.922 472.551C386.225 472.551 385.686 472.369 385.304 472.007C384.922 471.644 384.731 471.133 384.731 470.474V466.235H383.485V465.219H384.731V462.985H385.877V465.219H388.025V466.235H385.877V470.36C385.877 470.723 385.972 471.004 386.163 471.205C386.364 471.396 386.641 471.491 386.994 471.491C387.108 471.491 387.218 471.477 387.323 471.448C387.428 471.41 387.576 471.324 387.767 471.19L388.211 472.121C387.963 472.283 387.738 472.393 387.538 472.451C387.337 472.517 387.132 472.551 386.922 472.551ZM389.714 472.379L389.742 465.219H390.888L390.859 472.379H389.714ZM390.301 463.557C390.1 463.557 389.928 463.486 389.785 463.343C389.652 463.199 389.585 463.032 389.585 462.841C389.585 462.641 389.652 462.474 389.785 462.34C389.928 462.197 390.1 462.125 390.301 462.125C390.501 462.125 390.668 462.197 390.802 462.34C390.945 462.474 391.017 462.641 391.017 462.841C391.017 463.032 390.945 463.199 390.802 463.343C390.668 463.486 390.501 463.557 390.301 463.557ZM392.97 472.379V465.219H394.045L394.102 466.278C394.589 465.457 395.338 465.047 396.35 465.047C397.219 465.047 397.901 465.314 398.398 465.849C398.904 466.383 399.152 467.195 399.143 468.283V472.379H397.997V468.713C397.997 468.006 397.911 467.467 397.739 467.095C397.577 466.722 397.353 466.469 397.066 466.336C396.78 466.192 396.46 466.121 396.107 466.121C395.477 466.121 394.985 466.345 394.632 466.794C394.288 467.243 394.116 467.868 394.116 468.67V472.379H392.97ZM403.777 472.322C403.137 472.322 402.574 472.169 402.087 471.863C401.6 471.558 401.218 471.133 400.941 470.589C400.674 470.045 400.541 469.415 400.541 468.699C400.541 467.973 400.674 467.338 400.941 466.794C401.218 466.24 401.6 465.811 402.087 465.505C402.574 465.2 403.137 465.047 403.777 465.047C404.302 465.047 404.775 465.171 405.195 465.419C405.615 465.658 405.954 465.997 406.211 466.436V465.219H407.357V471.692C407.357 472.513 407.2 473.2 406.885 473.754C406.579 474.307 406.159 474.723 405.624 475C405.099 475.276 404.498 475.415 403.82 475.415C403.352 475.415 402.932 475.367 402.56 475.272C402.187 475.186 401.868 475.085 401.6 474.971C401.342 474.866 401.156 474.775 401.042 474.699L401.471 473.768C401.653 473.873 401.953 474.002 402.374 474.155C402.794 474.307 403.271 474.384 403.806 474.384C404.503 474.384 405.075 474.169 405.524 473.739C405.982 473.319 406.211 472.641 406.211 471.706V470.947C405.954 471.376 405.615 471.715 405.195 471.964C404.775 472.202 404.302 472.322 403.777 472.322ZM404.049 471.334C404.469 471.334 404.841 471.219 405.166 470.99C405.491 470.761 405.744 470.45 405.925 470.059C406.106 469.658 406.197 469.195 406.197 468.67C406.197 468.164 406.102 467.715 405.911 467.324C405.729 466.923 405.476 466.613 405.152 466.393C404.837 466.164 404.464 466.049 404.035 466.049C403.586 466.049 403.185 466.164 402.832 466.393C402.488 466.613 402.216 466.923 402.016 467.324C401.825 467.715 401.729 468.164 401.729 468.67C401.729 469.195 401.829 469.658 402.03 470.059C402.23 470.45 402.502 470.761 402.846 470.99C403.199 471.219 403.6 471.334 404.049 471.334Z" fill="white"/>
</svg>
