<svg width="15" height="15" viewBox="0 0 15 15" fill="none" xmlns="http://www.w3.org/2000/svg">
<path d="M2.92041 12.4922L2.92039 12.4923L2.92293 12.4936C3.03258 12.5523 3.15494 12.5833 3.27933 12.5838L3.28051 12.5838C3.4334 12.5833 3.58259 12.5367 3.70868 12.4502C3.70883 12.4501 3.70898 12.45 3.70913 12.4499L10.381 7.92477L10.3811 7.92487L10.3858 7.92139C10.4988 7.83815 10.5906 7.72953 10.6539 7.60428C10.6807 7.55115 10.7021 7.49567 10.7178 7.43867V12.1508C10.7178 12.3099 10.7811 12.4625 10.8936 12.575C11.0061 12.6876 11.1587 12.7508 11.3179 12.7508C11.477 12.7508 11.6296 12.6876 11.7421 12.575C11.8546 12.4625 11.9178 12.3099 11.9178 12.1508V2.25078C11.9178 2.09165 11.8546 1.93904 11.7421 1.82652C11.6296 1.714 11.477 1.65078 11.3179 1.65078C11.1587 1.65078 11.0061 1.714 10.8936 1.82652L10.8936 1.82652C10.7811 1.93904 10.7178 2.09165 10.7178 2.25078V6.96199C10.7021 6.90499 10.6807 6.84951 10.6539 6.79638C10.5906 6.67114 10.4988 6.56251 10.3858 6.47927L10.3858 6.47918L10.381 6.47588L3.70862 1.9516C3.59452 1.87246 3.46072 1.82648 3.32206 1.81875C3.1831 1.81101 3.04471 1.842 2.92232 1.90828L2.92231 1.90827L2.92041 1.90934C2.78414 1.98571 2.67126 2.09776 2.59386 2.23345C2.51676 2.36861 2.47778 2.52214 2.48105 2.67768V11.7239C2.47778 11.8794 2.51676 12.033 2.59386 12.1681C2.67126 12.3038 2.78414 12.4158 2.92041 12.4922ZM3.68105 3.38287L9.31177 7.20078L3.68105 11.0187V3.38287Z" fill="#495576" stroke="#495576" stroke-width="0.3"/>
</svg>
