<svg width="42" height="42" viewBox="0 0 42 42" fill="none" xmlns="http://www.w3.org/2000/svg">
<g clip-path="url(#clip0_1047_40979)">
<path d="M24.1953 24.6205V28.9693C24.1953 29.8103 24.8772 30.4922 25.7182 30.4922H31.597C31.8054 28.0329 33.8676 26.1019 36.3802 26.1019C37.231 26.1008 38.0667 26.3267 38.801 26.7565V12.9445C38.801 12.1035 38.1191 11.4216 37.278 11.4216H25.7182C24.8772 11.4216 24.1953 12.1035 24.1953 12.9445V17.4044" stroke="black" stroke-width="1.7" stroke-miterlimit="10" stroke-linecap="round" stroke-linejoin="round"/>
<path d="M9.69697 24.7918C7.67737 24.7918 6.04003 23.1544 6.04003 21.1348C6.04003 19.1152 7.67737 17.4779 9.69697 17.4779C11.7174 17.4779 13.3547 19.1152 13.3547 21.1348C13.3547 23.1544 11.7174 24.7918 9.69697 24.7918ZM17.5277 22.8132C17.3177 22.5992 17.2135 22.303 17.2479 22.0052C17.2807 21.7197 17.2971 21.4293 17.2971 21.1348C17.2971 20.8403 17.2807 20.55 17.2479 20.2645C17.2135 19.9667 17.3177 19.6706 17.5277 19.4573L18.1659 18.8084C18.6146 18.3515 18.7032 17.6518 18.3832 17.0981L17.5367 15.6306C17.2168 15.0768 16.5654 14.8045 15.9461 14.9645L15.0659 15.1924C14.7755 15.268 14.4654 15.2097 14.2243 15.0309C13.7571 14.6833 13.2515 14.3907 12.7174 14.1589C12.4434 14.04 12.2383 13.8013 12.1587 13.5125L11.9176 12.6381C11.7461 12.0212 11.185 11.5938 10.5452 11.5938H8.85041C8.21057 11.5938 7.64866 12.0212 7.47803 12.6381L7.23604 13.5133C7.15647 13.8013 6.95222 14.04 6.67741 14.1589C6.14309 14.3909 5.6372 14.6835 5.16968 15.0309C4.92933 15.2097 4.61925 15.268 4.32886 15.1924L3.44867 14.9645C3.1473 14.8866 2.82872 14.9095 2.54164 15.0298C2.25455 15.1501 2.01475 15.3611 1.85891 15.6306L1.01153 17.0981C0.69079 17.6518 0.780203 18.3515 1.22973 18.8084L1.86711 19.4565C2.07711 19.6706 2.18129 19.9667 2.14684 20.2645C2.11403 20.55 2.09762 20.8403 2.09762 21.1348C2.09762 21.4293 2.11403 21.7197 2.14684 22.006C2.18129 22.303 2.07711 22.5999 1.86711 22.8132L1.22973 23.4612C0.780203 23.9182 0.69079 24.6179 1.01153 25.1716L1.85891 26.6392C2.01476 26.9086 2.25457 27.1196 2.54165 27.2399C2.82874 27.3602 3.14731 27.3831 3.44867 27.3052L4.32886 27.0772C4.61925 27.0017 4.92933 27.0599 5.16968 27.2388C5.6372 27.5862 6.14309 27.8788 6.67741 28.1108C6.95222 28.2297 7.15647 28.4684 7.23604 28.7572L7.47803 29.6316C7.56113 29.9318 7.74035 30.1964 7.98822 30.385C8.23609 30.5736 8.53895 30.6758 8.85041 30.6758H10.5452C11.185 30.6758 11.7461 30.2486 11.9176 29.6316L12.1587 28.7572C12.2383 28.4684 12.4434 28.2297 12.7174 28.1108C13.2515 27.879 13.7571 27.5864 14.2243 27.2388C14.4654 27.0599 14.7755 27.0017 15.0659 27.0772L15.9461 27.3052C16.5654 27.4652 17.2168 27.1929 17.5367 26.6392L18.3832 25.1716C18.5389 24.9019 18.602 24.5887 18.5627 24.2798C18.5235 23.9709 18.3841 23.6834 18.1659 23.4612L17.5277 22.8132Z" stroke="black" stroke-width="1.7" stroke-miterlimit="10" stroke-linecap="round" stroke-linejoin="round"/>
<path d="M41.1799 30.9032C41.1799 33.5541 39.0309 35.7031 36.38 35.7031C33.729 35.7031 31.5801 33.5541 31.5801 30.9032C31.5801 28.2523 33.729 26.1033 36.38 26.1033C39.0309 26.1033 41.1799 28.2523 41.1799 30.9032Z" stroke="black" stroke-width="1.7" stroke-miterlimit="10" stroke-linecap="round" stroke-linejoin="round"/>
<path d="M28.3008 16.375H34.7812" stroke="black" stroke-width="1.7" stroke-miterlimit="10" stroke-linecap="round" stroke-linejoin="round"/>
<path d="M28.3008 20.9531H34.7812" stroke="black" stroke-width="1.7" stroke-miterlimit="10" stroke-linecap="round" stroke-linejoin="round"/>
<path d="M28.3008 25.6953H30.4631" stroke="black" stroke-width="1.7" stroke-miterlimit="10" stroke-linecap="round" stroke-linejoin="round"/>
<path d="M34.6348 31.2339L35.7291 32.3281L37.9652 30.092" stroke="black" stroke-width="1.7" stroke-miterlimit="10" stroke-linecap="round" stroke-linejoin="round"/>
<path d="M29.8223 35.6247C26.9801 37.5693 23.5416 38.707 19.8378 38.707C15.7337 38.707 11.9555 37.3101 8.95312 34.9665" stroke="black" stroke-width="1.7" stroke-miterlimit="10" stroke-linecap="round" stroke-linejoin="round"/>
<path d="M8.59375 7.32812C11.6519 4.81059 15.5688 3.29876 19.8386 3.29876C24.1083 3.29876 28.0253 4.81059 31.0834 7.32812" stroke="black" stroke-width="1.7" stroke-miterlimit="10" stroke-linecap="round" stroke-linejoin="round"/>
<path d="M9.60593 38.0781L8.95312 34.9575L12.1692 34.4455" stroke="black" stroke-width="1.7" stroke-miterlimit="10" stroke-linecap="round" stroke-linejoin="round"/>
<path d="M30.4303 4.20328L31.0829 7.32423L27.8672 7.83594" stroke="black" stroke-width="1.7" stroke-miterlimit="10" stroke-linecap="round" stroke-linejoin="round"/>
</g>
<defs>
<clipPath id="clip0_1047_40979">
<rect width="42" height="42" fill="white"/>
</clipPath>
</defs>
</svg>
