<svg width="170" height="96" viewBox="0 0 170 96" fill="none" xmlns="http://www.w3.org/2000/svg">
<path d="M85.0006 94.1858C91.3037 94.1858 96.4133 92.0932 96.4133 89.5119C96.4133 86.9305 91.3037 84.8379 85.0006 84.8379C78.6975 84.8379 73.5879 86.9305 73.5879 89.5119C73.5879 92.0932 78.6975 94.1858 85.0006 94.1858Z" fill="#E2E2E2"/>
<path d="M85.0001 94.3242C78.6307 94.3242 73.4492 92.1649 73.4492 89.5114C73.4492 86.8578 78.6307 84.6992 85.0001 84.6992C91.3696 84.6992 96.551 86.8578 96.551 89.5114C96.551 92.1649 91.3675 94.3242 85.0001 94.3242ZM85.0001 84.9756C78.783 84.9756 73.7256 87.0101 73.7256 89.5114C73.7256 92.0126 78.783 94.0479 85.0001 94.0479C91.2173 94.0479 96.2747 92.0126 96.2747 89.5114C96.2747 87.0101 91.2173 84.9727 85.0001 84.9727V84.9756Z" fill="#371A45"/>
<path d="M85.0006 94.1858C91.3037 94.1858 96.4133 92.0932 96.4133 89.5119C96.4133 86.9305 91.3037 84.8379 85.0006 84.8379C78.6975 84.8379 73.5879 86.9305 73.5879 89.5119C73.5879 92.0932 78.6975 94.1858 85.0006 94.1858Z" fill="white"/>
<path d="M85.0001 94.3242C78.6307 94.3242 73.4492 92.1649 73.4492 89.5114C73.4492 86.8578 78.6307 84.6992 85.0001 84.6992C91.3696 84.6992 96.551 86.8578 96.551 89.5114C96.551 92.1649 91.3675 94.3242 85.0001 94.3242ZM85.0001 84.9756C78.783 84.9756 73.7256 87.0101 73.7256 89.5114C73.7256 92.0126 78.783 94.0479 85.0001 94.0479C91.2173 94.0479 96.2747 92.0126 96.2747 89.5114C96.2747 87.0101 91.2173 84.9727 85.0001 84.9727V84.9756Z" fill="#371A45"/>
<g opacity="0.3">
<path d="M84.9982 94.1858C91.3012 94.1858 96.4109 92.0932 96.4109 89.5119C96.4109 86.9305 91.3012 84.8379 84.9982 84.8379C78.6951 84.8379 73.5854 86.9305 73.5854 89.5119C73.5854 92.0932 78.6951 94.1858 84.9982 94.1858Z" fill="#371A45"/>
</g>
<path d="M85.0004 95.0419C78.0069 95.0419 72.7324 92.6647 72.7324 89.5128C72.7324 86.3608 78.0062 83.9844 85.0004 83.9844C91.9945 83.9844 97.2683 86.3615 97.2683 89.5128C97.2683 92.664 91.9938 95.0419 85.0004 95.0419ZM85.0004 85.6932C78.9574 85.6932 74.4422 87.7102 74.4422 89.5128C74.4422 91.3154 78.9545 93.333 85.0004 93.333C91.0462 93.333 95.5586 91.3161 95.5586 89.5128C95.5586 87.7095 91.0434 85.6932 85.0004 85.6932Z" fill="#371A45"/>
<path d="M114.553 91.1153C120.779 90.136 125.501 87.2748 125.1 84.7248C124.699 82.1748 119.326 80.9016 113.1 81.881C106.873 82.8604 102.151 85.7215 102.552 88.2715C102.953 90.8215 108.326 92.0947 114.553 91.1153Z" fill="white"/>
<path d="M110.454 91.5953C108.952 91.5953 107.55 91.4501 106.332 91.1618C104.005 90.6105 102.615 89.5953 102.412 88.3031C102.209 87.0109 103.222 85.6172 105.265 84.3792C107.272 83.1632 110.046 82.2312 113.074 81.7546C116.103 81.2781 119.029 81.3147 121.313 81.8561C123.64 82.4067 125.03 83.4219 125.233 84.7141C125.436 86.0063 124.423 87.4007 122.38 88.638C120.372 89.8541 117.599 90.786 114.57 91.2626C113.209 91.4797 111.832 91.591 110.454 91.5953ZM117.192 81.6975C115.827 81.7021 114.465 81.8124 113.117 82.0274C110.124 82.4984 107.385 83.4169 105.408 84.6154C103.467 85.7913 102.5 87.0828 102.685 88.2601C102.869 89.4374 104.187 90.3694 106.395 90.8932C108.645 91.4261 111.533 91.4572 114.527 90.9898C117.522 90.5224 120.259 89.6003 122.237 88.4025C124.178 87.2259 125.145 85.9316 124.96 84.7571C124.775 83.5826 123.458 82.6478 121.249 82.124C120.051 81.8406 118.671 81.6975 117.192 81.6975Z" fill="#371A45"/>
<path d="M110.455 92.3112C108.896 92.3112 107.438 92.1603 106.166 91.8586C103.54 91.2361 101.955 90.0129 101.703 88.4148C101.452 86.8166 102.585 85.1655 104.893 83.7669C106.979 82.5036 109.844 81.5378 112.963 81.0478C116.082 80.5578 119.106 80.5973 121.477 81.1592C124.104 81.7817 125.689 83.0048 125.94 84.6037C126.191 86.2026 125.058 87.8529 122.75 89.2516C120.665 90.5142 117.799 91.48 114.681 91.9699C113.283 92.1928 111.87 92.3069 110.455 92.3112ZM117.193 82.414C115.865 82.4184 114.539 82.5259 113.228 82.7355C110.324 83.1923 107.679 84.075 105.779 85.2283C104.151 86.2153 103.259 87.3058 103.391 88.149C103.524 88.9921 104.708 89.7577 106.561 90.1934C108.722 90.7059 111.511 90.7362 114.416 90.2794C117.32 89.8226 119.965 88.94 121.864 87.7873C123.492 86.8004 124.384 85.7091 124.252 84.8659C124.119 84.0228 122.935 83.2579 121.083 82.8215C119.938 82.5501 118.616 82.414 117.193 82.414Z" fill="#371A45"/>
<path d="M67.4582 88.2888C67.8594 85.7388 63.137 82.8777 56.9105 81.8983C50.684 80.9189 45.3112 82.1922 44.91 84.7422C44.5088 87.2922 49.2312 90.1533 55.4577 91.1327C61.6842 92.1121 67.057 90.8388 67.4582 88.2888Z" fill="white"/>
<path d="M59.5466 91.5951C58.1678 91.5907 56.7914 91.4794 55.4298 91.2623C52.3981 90.7857 49.6279 89.8524 47.6206 88.6377C45.576 87.4005 44.5642 86.0067 44.7673 84.7138C44.9703 83.4209 46.3628 82.4064 48.6874 81.8559C50.971 81.3144 53.8963 81.2785 56.9252 81.7543C59.9541 82.2302 62.7278 83.1643 64.7351 84.3789C66.7798 85.6169 67.7915 87.0106 67.5885 88.3028C67.3854 89.595 65.9929 90.6102 63.6684 91.1615C62.45 91.4498 61.0498 91.5951 59.5466 91.5951ZM52.8084 81.6972C51.3278 81.6972 49.9494 81.8382 48.7508 82.1202C46.5426 82.644 45.2255 83.5788 45.0401 84.7533C44.8547 85.9278 45.8227 87.2207 47.7637 88.3987C49.7379 89.5972 52.4791 90.5136 55.4728 90.986C58.4665 91.4583 61.3551 91.4223 63.6049 90.8894C65.8131 90.3656 67.1302 89.4308 67.3156 88.2563C67.501 87.0818 66.533 85.7889 64.592 84.6116C62.6178 83.4131 59.8766 82.4967 56.8822 82.0236C55.5348 81.8097 54.1727 81.7006 52.8084 81.6972Z" fill="#371A45"/>
<g opacity="0.3">
<path d="M114.552 91.1173C120.779 90.1379 125.501 87.2768 125.1 84.7268C124.699 82.1768 119.326 80.9035 113.099 81.8829C106.873 82.8623 102.15 85.7234 102.552 88.2734C102.953 90.8235 108.326 92.0967 114.552 91.1173Z" fill="#371A45"/>
</g>
<g opacity="0.3">
<path d="M67.4572 88.2908C67.8584 85.7408 63.136 82.8797 56.9095 81.9003C50.683 80.9209 45.3102 82.1941 44.909 84.7441C44.5078 87.2941 49.2302 90.1553 55.4567 91.1347C61.6832 92.114 67.056 90.8408 67.4572 88.2908Z" fill="#371A45"/>
</g>
<path d="M59.5443 92.3122C58.1292 92.3079 56.7165 92.1938 55.3189 91.971C52.2005 91.4775 49.3344 90.5152 47.2496 89.2526C44.9405 87.8539 43.8082 86.2029 44.0592 84.6047C44.3102 83.0065 45.8924 81.7848 48.5222 81.1602C50.894 80.5962 53.918 80.5582 57.0364 81.0488C60.1549 81.5395 63.021 82.5046 65.1058 83.7679C67.4142 85.1666 68.5472 86.8169 68.2962 88.4158C68.0452 90.0147 66.463 91.2357 63.8332 91.8596C62.562 92.1613 61.1039 92.3122 59.5443 92.3122ZM52.8061 82.415C51.384 82.415 50.0621 82.5511 48.9163 82.8225C47.0642 83.2617 45.8797 84.0266 45.7436 84.8669C45.6075 85.7073 46.5036 86.8021 48.1309 87.7884C50.0346 88.9389 52.6764 89.8243 55.5805 90.2804C58.4846 90.7366 61.2745 90.7034 63.4355 90.1944C65.287 89.7559 66.4715 88.9903 66.6048 88.15C66.738 87.3097 65.8447 86.2149 64.2167 85.2293C62.3173 84.0781 59.6719 83.1933 56.7678 82.7365C55.4575 82.5274 54.133 82.4199 52.8061 82.415Z" fill="#371A45"/>
<path d="M84.9993 89.5128C113.24 89.5128 136.133 83.7412 136.133 76.6216C136.133 69.502 113.24 63.7305 84.9993 63.7305C56.7587 63.7305 33.8652 69.502 33.8652 76.6216C33.8652 83.7412 56.7587 89.5128 84.9993 89.5128Z" fill="#999999"/>
<path d="M85.0011 89.6504C71.3315 89.6504 58.479 88.311 48.8106 85.8704C39.0851 83.4185 33.7295 80.134 33.7295 76.6211C33.7295 73.1082 39.0879 69.8238 48.8106 67.3719C58.479 64.9341 71.3315 63.5918 85.0011 63.5918C98.6707 63.5918 111.523 64.9312 121.192 67.3719C130.917 69.8238 136.273 73.1082 136.273 76.6211C136.273 80.134 130.914 83.4185 121.192 85.8704C111.523 88.3082 98.6707 89.6504 85.0011 89.6504ZM85.0011 63.8681C56.8821 63.8681 34.0052 69.589 34.0052 76.6211C34.0052 83.6532 56.8821 89.3748 85.0011 89.3748C113.12 89.3748 135.998 83.6532 135.998 76.6211C135.998 69.589 113.12 63.8681 85.0011 63.8681Z" fill="#371A45"/>
<path d="M136.003 77.545C135.715 78.5742 134.945 79.5718 133.754 80.52C127.197 85.7368 107.85 89.514 84.9993 89.514C62.1484 89.514 42.7982 85.734 36.2447 80.52C35.0525 79.5718 34.284 78.5742 33.9956 77.545C35.8774 73.4209 57.9935 70.166 84.9993 70.166C112.005 70.166 134.121 73.4209 136.003 77.545Z" fill="white"/>
<path d="M84.9985 89.691C62.5615 89.691 42.9244 86.0611 36.1326 80.6589C34.8938 79.672 34.1168 78.6413 33.8228 77.5916L33.8052 77.5295L33.8327 77.4696C35.7793 73.2038 57.7756 69.9863 84.9985 69.9863C112.221 69.9863 134.218 73.2038 136.164 77.4696L136.192 77.5295L136.174 77.5916C135.88 78.6413 135.103 79.6727 133.864 80.6589C127.073 86.0611 107.435 89.691 84.9985 89.691ZM34.1859 77.5599C34.4729 78.5137 35.2026 79.4633 36.3554 80.3797C43.0886 85.7375 62.637 89.3329 84.9992 89.3329C107.361 89.3329 126.91 85.7375 133.643 80.3797C134.796 79.4633 135.526 78.5137 135.812 77.5599C133.768 73.5077 111.52 70.343 84.9992 70.343C58.4786 70.343 36.2306 73.5077 34.1859 77.5599Z" fill="#371A45"/>
<g opacity="0.3">
<path d="M136.004 77.545C135.716 78.5742 134.947 79.5718 133.755 80.52C127.198 83.7368 107.852 86.0667 85.0007 86.0667C62.1499 86.0667 42.7997 83.7403 36.2462 80.52C35.0539 79.5718 34.2854 78.5742 33.9971 77.545C35.8789 73.4209 57.995 70.166 85.0007 70.166C112.006 70.166 134.123 73.4209 136.004 77.545Z" fill="#371A45"/>
</g>
<path d="M85.0006 90.3669C71.2739 90.3669 58.3587 89.0169 48.6346 86.565C41.5079 84.7687 33.0127 81.585 33.0127 76.6249C33.0127 71.6647 41.5079 68.4775 48.6346 66.6847C58.3587 64.2328 71.2739 62.8828 85.0006 62.8828C98.7273 62.8828 111.643 64.2328 121.367 66.6847C128.493 68.481 136.989 71.6647 136.989 76.6249C136.989 81.585 128.493 84.7722 121.367 86.565C111.643 89.0169 98.7273 90.3669 85.0006 90.3669ZM85.0006 64.5846C54.9244 64.5846 34.7211 70.8081 34.7211 76.6213C34.7211 82.4345 54.9244 88.6581 85.0006 88.6581C115.077 88.6581 135.28 82.4345 135.28 76.6213C135.28 70.8081 115.076 64.5846 85.0006 64.5846Z" fill="#371A45"/>
<path d="M169.145 61.3926V66.3048C169.145 75.4462 131.472 82.8576 85 82.8576C38.5277 82.8576 0.854492 75.4462 0.854492 66.3048V61.3926" fill="#945CC6"/>
<path d="M85.0005 82.9926C62.5155 82.9926 41.3752 81.2696 25.4741 78.1417C9.50883 75.001 0.716797 70.7958 0.716797 66.3016V61.3887H0.993177V66.3016C0.993177 75.3528 38.6784 82.7162 85.0005 82.7162C131.323 82.7162 169.008 75.3528 169.008 66.3016V61.3887H169.284V66.3016C169.284 70.7958 160.491 75.001 144.527 78.1417C128.626 81.2696 107.485 82.9926 85.0005 82.9926Z" fill="#371A45"/>
<g opacity="0.3">
<path d="M169.146 64.0234V66.3026C169.146 75.4433 131.473 82.8547 84.9997 82.8547C38.5267 82.8547 0.853516 75.4433 0.853516 66.3026V64.0234C0.853516 73.1648 38.526 80.5755 84.9997 80.5755C131.473 80.5755 169.146 73.1648 169.146 64.0234Z" fill="#371A45"/>
</g>
<path d="M85 83.7117C62.47 83.7117 41.281 81.9838 25.3354 78.8474C13.7775 76.5738 0 72.5527 0 66.3052V61.3922C0 61.1656 0.0900302 60.9483 0.250285 60.7881C0.41054 60.6278 0.627892 60.5378 0.854526 60.5378C1.08116 60.5378 1.29851 60.6278 1.45877 60.7881C1.61902 60.9483 1.70905 61.1656 1.70905 61.3922V66.3052C1.70905 73.8865 35.1773 82.0035 85 82.0035C134.823 82.0035 168.289 73.8858 168.289 66.3045V61.3915C168.289 61.1649 168.379 60.9476 168.539 60.7874C168.699 60.6271 168.917 60.5371 169.143 60.5371C169.37 60.5371 169.587 60.6271 169.748 60.7874C169.908 60.9476 169.998 61.1649 169.998 61.3915V66.3045C169.998 72.552 156.22 76.5731 144.662 78.8467C128.719 81.9838 107.529 83.7117 85 83.7117Z" fill="#371A45"/>
<path d="M84.9023 77.9434C131.375 77.9434 169.048 70.5325 169.048 61.3907C169.048 52.2488 131.375 44.8379 84.9023 44.8379C38.43 44.8379 0.756836 52.2488 0.756836 61.3907C0.756836 70.5325 38.43 77.9434 84.9023 77.9434Z" fill="#B8C5D3"/>
<g opacity="0.5">
<path d="M86.1039 74.3034C83.13 74.3034 80.7998 72.6065 80.7998 70.4401C80.7998 68.2737 83.13 66.5762 86.1039 66.5762C89.0779 66.5762 91.4074 68.273 91.4074 70.4401C91.4074 72.6072 89.0779 74.3034 86.1039 74.3034ZM86.1039 68.285C84.1552 68.285 82.5082 69.272 82.5082 70.4401C82.5082 71.6083 84.1545 72.5952 86.1039 72.5952C88.0534 72.5952 89.6997 71.6083 89.6997 70.4401C89.6997 69.272 88.0534 68.285 86.1039 68.285Z" fill="white"/>
</g>
<g opacity="0.5">
<path d="M119.11 73.2549C117.879 73.2549 116.713 72.9511 115.786 72.3857C114.688 71.7139 114.029 70.7093 113.98 69.6307C113.931 68.5521 114.494 67.4911 115.527 66.7212C116.476 66.0163 117.744 65.5933 119.101 65.5277C122.068 65.391 124.476 66.98 124.576 69.1442C124.675 71.3085 122.425 73.1104 119.455 73.2472C119.339 73.2521 119.224 73.2549 119.11 73.2549ZM119.443 67.2288C119.355 67.2288 119.267 67.2288 119.178 67.2345C118.175 67.281 117.216 67.5926 116.548 68.091C116.213 68.3406 115.655 68.8665 115.687 69.5524C115.719 70.2384 116.322 70.71 116.678 70.9285C117.39 71.3635 118.37 71.5856 119.377 71.5405C121.323 71.4509 122.922 70.3892 122.869 69.2225C122.817 68.1086 121.275 67.2288 119.443 67.2288Z" fill="white"/>
</g>
<g opacity="0.5">
<path d="M147.253 68.474C144.449 68.474 142.231 66.9287 142.134 64.8518C142.084 63.7725 142.647 62.7122 143.679 61.9417C144.628 61.2367 145.897 60.8095 147.253 60.7432C148.608 60.677 149.911 60.985 150.919 61.6019C152.018 62.2737 152.677 63.2776 152.728 64.3569C152.777 65.4362 152.214 66.4965 151.182 67.267C150.234 67.972 148.964 68.3992 147.609 68.4655C147.488 68.4711 147.372 68.474 147.253 68.474ZM147.595 62.4471C147.507 62.4471 147.42 62.4471 147.332 62.4535C146.328 62.5 145.369 62.8123 144.702 63.3107C144.367 63.561 143.809 64.0862 143.842 64.7728C143.895 65.9396 145.592 66.8511 147.532 66.7588C148.536 66.7122 149.494 66.3999 150.162 65.9015C150.497 65.6512 151.055 65.126 151.023 64.4394C150.991 63.7499 150.388 63.2818 150.031 63.0633C149.381 62.6671 148.506 62.4471 147.595 62.4471Z" fill="white"/>
</g>
<g opacity="0.5">
<path d="M53.9241 73.255C53.8063 73.255 53.6886 73.255 53.5716 73.2473C50.6012 73.1105 48.3542 71.3086 48.4508 69.1443C48.5502 66.9801 50.9579 65.3903 53.9255 65.5278C55.282 65.5898 56.5511 66.0135 57.4994 66.7213C58.5323 67.4905 59.0964 68.5543 59.0505 69.6308C58.949 71.7083 56.7295 73.255 53.9241 73.255ZM50.1556 69.2226C50.102 70.3893 51.7018 71.451 53.6477 71.5405C55.5937 71.6301 57.2837 70.7192 57.3373 69.5525C57.369 68.863 56.812 68.3407 56.4764 68.0911C55.808 67.5927 54.8491 67.2811 53.8458 67.2345C51.8992 67.1471 50.2099 68.0558 50.1556 69.2226Z" fill="white"/>
</g>
<g opacity="0.5">
<path d="M25.771 68.4732C25.6525 68.4732 25.5334 68.4732 25.4128 68.4647C24.057 68.402 22.7879 67.9776 21.8396 67.2663C20.8074 66.4957 20.244 65.4333 20.2941 64.3561C20.3441 63.2789 21.0034 62.2729 22.1026 61.6011C23.1122 60.9842 24.4158 60.6797 25.7688 60.7424C27.1218 60.8052 28.3938 61.2296 29.3421 61.9409C30.3743 62.7114 30.9376 63.7738 30.8875 64.851C30.7931 66.9272 28.5743 68.4732 25.771 68.4732ZM25.429 62.4464C24.5181 62.4464 23.6424 62.6663 22.993 63.0625C22.6363 63.2811 22.0328 63.7492 22.001 64.4386C21.9693 65.1281 22.5263 65.6505 22.8619 65.9007C23.5296 66.3991 24.4885 66.7115 25.4918 66.758C27.4363 66.8475 29.1284 65.9388 29.1827 64.7721C29.2144 64.0826 28.6575 63.5602 28.3226 63.31C27.6542 62.8115 26.696 62.4992 25.692 62.4527C25.6046 62.4485 25.5157 62.4464 25.429 62.4464Z" fill="white"/>
</g>
<g opacity="0.5">
<path d="M134.29 53.9942C134.29 58.2677 112.406 64.3284 85.4095 64.3284C58.413 64.3284 36.5288 58.2656 36.5288 53.9942C36.5288 49.7228 58.4137 46.2578 85.4095 46.2578C112.405 46.2578 134.29 49.7242 134.29 53.9942Z" fill="white"/>
</g>
<g opacity="0.3">
<path d="M119.715 56.4466C119.715 56.4466 132.842 63.0557 135.258 66.4516C137.674 69.8474 142.248 73.5217 142.248 73.5217C142.248 73.5217 184.579 65.2108 162.882 55.5449C162.882 55.5449 168.366 59.0768 166.865 61.6824C164.694 65.4533 155.291 68.8393 149.087 70.1703C147.455 70.5234 145.762 70.478 144.152 70.0378C142.541 69.5976 141.06 68.7756 139.835 67.6416C136.544 64.5841 130.858 60.1082 122.67 56.4445C119.855 55.1868 119.715 56.4466 119.715 56.4466Z" fill="#371A45"/>
</g>
<g opacity="0.3">
<path d="M51.0991 56.4466C51.0991 56.4466 37.9724 63.0557 35.5561 66.4516C33.1399 69.8474 28.5655 73.5217 28.5655 73.5217C28.5655 73.5217 -13.7653 65.2108 7.93209 55.5449C7.93209 55.5449 2.31844 59.1558 3.94853 61.6824C6.68908 65.9299 15.1363 68.7251 21.3302 70.0843C23.0748 70.4653 24.8854 70.4208 26.6092 69.9546C28.3329 69.4883 29.919 68.6139 31.2334 67.4054C34.5592 64.3564 40.1644 60.0145 48.1442 56.4431C50.9588 55.1868 51.0991 56.4466 51.0991 56.4466Z" fill="#371A45"/>
</g>
<g opacity="0.3">
<path d="M50.6236 56.8823C50.6236 56.8823 31.6315 66.907 28.7358 73.698C28.7358 73.698 51.8511 77.9427 84.9992 77.9427C118.147 77.9427 141.574 73.1735 141.574 73.1735C141.574 73.1735 127.666 57.325 118.41 56.6391C109.153 55.9531 115.73 57.3088 115.73 57.3088C115.73 57.3088 128.713 63.0445 135.454 69.5204C136.483 70.5073 135.932 72.2451 134.519 72.4418C127.049 73.4816 107.156 75.918 84.7108 75.918C62.5496 75.918 43.456 73.6282 36.0325 72.6046C34.6153 72.4086 34.0583 70.6575 35.099 69.679C36.6237 68.2587 38.2307 66.9294 39.9117 65.698C43.3248 63.184 52.4504 57.8946 52.4504 57.8946L50.6236 56.8823Z" fill="#371A45"/>
</g>
<path d="M130.341 52.3201C130.341 57.2458 110.042 61.2395 85.0008 61.2395C59.9601 61.2395 39.6602 57.2458 39.6602 52.3201C39.6602 47.3945 85.0008 47.1738 85.0008 47.1738C85.0008 47.1738 130.341 47.3938 130.341 52.3201Z" fill="#102770"/>
<path d="M85 61.4181C59.477 61.4181 39.481 57.4216 39.481 52.324C39.481 47.3638 80.3403 47.0226 84.9993 47C89.6597 47.0226 130.518 47.3638 130.518 52.324C130.518 57.4216 110.524 61.4181 85 61.4181ZM85 47.3525C72.4394 47.4138 39.8384 48.4248 39.8384 52.3204C39.8384 54.5764 44.6264 56.8097 52.9743 58.4537C61.5273 60.1358 72.9013 61.0621 85.0007 61.0621C97.1002 61.0621 108.474 60.1351 117.026 58.4537C125.375 56.8111 130.163 54.5764 130.163 52.3204C130.162 48.4248 97.5606 47.4138 84.9993 47.3525H85Z" fill="#371A45"/>
<path d="M79.9202 61.3014C80.2445 61.3136 80.5702 61.3242 80.8974 61.3331H80.9213C82.2548 61.3707 83.6149 61.3897 85.0015 61.3902C87.3803 61.3902 89.6922 61.3331 91.904 61.2267C104.622 60.6176 114.062 58.3623 114.062 55.6729C114.062 53.393 98.908 52.6859 90.4861 52.4695L90.1569 52.4617C89.4624 52.4441 88.8172 52.4307 88.237 52.4201C86.2523 52.3813 85.0001 52.375 85.0001 52.375C85.0001 52.375 84.0405 52.3799 82.4711 52.4067L82.1651 52.411C81.283 52.4272 80.2311 52.4497 79.0628 52.4815C70.5627 52.7113 55.937 53.4332 55.937 55.6729C55.937 58.2968 64.9229 60.5083 77.169 61.1808C77.217 61.1808 77.2635 61.1851 77.31 61.1879L79.9202 61.3014Z" fill="#102770"/>
<path d="M85.0007 61.5704C83.6371 61.5704 82.2629 61.5514 80.9156 61.514C80.563 61.5049 80.238 61.4943 79.913 61.4823L77.3043 61.3688C77.2429 61.3653 77.2042 61.3625 77.1633 61.3618C66.5064 60.7766 55.7578 58.7914 55.7578 55.6754C55.7578 53.858 63.5973 52.7244 79.0585 52.3057C80.226 52.2739 81.2787 52.2514 82.1607 52.2352L82.4681 52.2309C84.0383 52.2042 84.9978 52.1992 84.9978 52.1992C85.0126 52.1992 86.2761 52.2056 88.2411 52.2443C88.8221 52.2549 89.4672 52.2683 90.1624 52.2866L90.4916 52.2937C101.326 52.5757 114.241 53.385 114.241 55.6776C114.241 58.8979 103.03 60.8774 91.913 61.4097C89.6547 61.5161 87.3295 61.5704 85.0007 61.5704ZM79.9243 61.1263C80.2476 61.138 80.5724 61.1484 80.8987 61.1573C84.603 61.2588 88.3229 61.2229 91.8919 61.0516C104.634 60.4411 113.881 58.1802 113.881 55.6754C113.881 54.1576 105.133 53.0269 90.4789 52.6504L90.1497 52.6426C89.4559 52.625 88.8101 52.6116 88.2312 52.6011C86.2712 52.5623 85.0091 52.5559 84.9964 52.5559C84.9964 52.5559 84.0397 52.5609 82.4723 52.5877L82.1656 52.5919C81.285 52.6081 80.2331 52.6307 79.0634 52.6624C64.6901 53.0515 56.1096 54.1781 56.1096 55.6761C56.1096 58.0942 64.9679 60.336 77.1731 61.0057L77.2979 61.0121L79.9243 61.1263Z" fill="#371A45"/>
<path d="M130.341 52.3182C130.341 52.8906 130.067 53.4504 129.546 53.9932C123.496 50.1074 85.0008 49.922 85.0008 49.922C85.0008 49.922 46.5048 50.1074 40.4562 53.9932C39.9344 53.4504 39.6602 52.8906 39.6602 52.3182C39.6602 47.3939 85.0008 47.1719 85.0008 47.1719C85.0008 47.1719 130.341 47.3968 130.341 52.3182Z" fill="#7A7A7A"/>
<path d="M40.4286 54.2249L40.327 54.1191C39.763 53.5347 39.481 52.9299 39.481 52.3201C39.481 47.3613 80.3403 47.0194 84.9993 46.9961C89.6597 47.0194 130.519 47.3613 130.519 52.3201C130.519 52.9299 130.237 53.5347 129.673 54.1191L129.571 54.2249L129.448 54.1452C123.51 50.3313 85.3821 50.1043 84.9986 50.1022C84.615 50.1001 46.4885 50.3313 40.5505 54.1452L40.4286 54.2249ZM85 49.7455C86.5645 49.7532 123.113 49.9725 129.514 53.7638C129.945 53.283 130.163 52.7966 130.163 52.3172C130.163 48.423 97.562 47.4113 85 47.35C72.4395 47.4113 39.8384 48.423 39.8384 52.3172C39.8384 52.7966 40.0563 53.283 40.4871 53.7638C46.8883 49.9725 83.4369 49.7532 85 49.7455Z" fill="#371A45"/>
<path d="M85 78.7981C62.47 78.7981 41.281 77.0702 25.3354 73.9338C13.7775 71.6602 0 67.6391 0 61.3909C0 55.1427 13.7775 51.1222 25.3354 48.8487C41.281 45.7116 62.47 43.9844 85 43.9844C107.53 43.9844 128.719 45.7123 144.665 48.8487C156.223 51.1222 170 55.1434 170 61.3909C170 67.6383 156.223 71.6602 144.665 73.9338C128.719 77.0702 107.529 78.7981 85 78.7981ZM85 45.6918C35.1773 45.6918 1.70905 53.8089 1.70905 61.3902C1.70905 68.9715 35.1745 77.0892 85 77.0892C134.826 77.0892 168.289 68.9707 168.289 61.3902C168.289 53.8096 134.823 45.6918 85 45.6918Z" fill="#371A45"/>
<path d="M129.734 53.1173C129.734 57.9774 109.706 61.9175 84.9992 61.9175C60.2927 61.9175 40.2642 57.9774 40.2642 53.1173C40.2642 36.0866 49.0421 1.15234 84.9992 1.15234C120.956 1.15234 129.734 36.0866 129.734 53.1173Z" fill="#00C9FF"/>
<g opacity="0.5">
<path d="M41.9223 54.7733C41.9223 37.7426 50.7002 2.80833 86.6573 2.80833C99.3025 2.80833 108.585 7.13193 115.305 13.4746C108.477 6.23943 98.7187 1.15234 85.0011 1.15234C49.0433 1.15234 40.2661 36.0866 40.2661 53.1173C40.2661 53.9957 40.9232 54.8431 42.1394 55.6433C42.0001 55.3742 41.9257 55.0763 41.9223 54.7733Z" fill="white"/>
</g>
<path d="M85.0001 63.0704C66.5544 63.0704 39.1123 60.4204 39.1123 53.1176C39.1123 48.8321 39.7652 33.788 48.1673 20.1439C56.2825 6.96584 69.0186 0 85.0001 0C121.297 0 130.888 34.7453 130.888 53.1176C130.888 60.4204 103.446 63.0704 85.0001 63.0704ZM85.0001 2.30526C50.5264 2.30526 41.4178 35.5426 41.4178 53.1176C41.4178 54.1194 43.9814 56.3196 53.5906 58.2097C61.9688 59.8579 73.1206 60.7652 85.0001 60.7652C96.8796 60.7652 108.031 59.8579 116.41 58.2097C126.019 56.3196 128.582 54.1208 128.582 53.1176C128.582 44.6016 126.293 31.7844 119.87 21.3529C112.087 8.71418 100.355 2.30526 85.0001 2.30526Z" fill="#371A45"/>
<path d="M84.9992 73.1753C87.4562 73.1753 89.4481 71.8279 89.4481 70.1658C89.4481 68.5037 87.4562 67.1562 84.9992 67.1562C82.5421 67.1562 80.5503 68.5037 80.5503 70.1658C80.5503 71.8279 82.5421 73.1753 84.9992 73.1753Z" fill="#FFCE00"/>
<path d="M84.9993 73.3516C82.4477 73.3516 80.3721 71.9212 80.3721 70.1637C80.3721 68.4062 82.4477 66.9766 84.9993 66.9766C87.5509 66.9766 89.6266 68.4062 89.6266 70.1637C89.6266 71.9212 87.5509 73.3516 84.9993 73.3516ZM84.9993 67.3326C82.6445 67.3326 80.7281 68.6015 80.7281 70.1637C80.7281 71.726 82.6445 72.9949 84.9993 72.9949C87.3542 72.9949 89.2699 71.726 89.2699 70.1637C89.2699 68.6015 87.3542 67.3326 84.9993 67.3326Z" fill="#371A45"/>
<g opacity="0.3">
<path d="M89.4506 70.1638C89.4501 70.4834 89.3778 70.7988 89.2391 71.0866C88.6624 69.8755 86.9829 68.9999 85.0031 68.9999C83.0234 68.9999 81.3439 69.8755 80.7672 71.0866C80.6281 70.7989 80.5558 70.4834 80.5557 70.1638C80.5557 68.5022 82.5489 67.1543 85.0053 67.1543C87.4617 67.1543 89.4506 68.5022 89.4506 70.1638Z" fill="#102770"/>
<path d="M89.2363 71.5023L89.0755 71.1654C88.5115 69.9775 86.8729 69.1801 85.001 69.1801C83.1291 69.1801 81.492 69.9775 80.9265 71.1654L80.7658 71.5023L80.6043 71.1654C80.4532 70.8537 80.3741 70.512 80.373 70.1657C80.373 68.4082 82.4494 66.9785 85.001 66.9785C87.5526 66.9785 89.629 68.4082 89.629 70.1657C89.6278 70.512 89.5487 70.8537 89.3977 71.1654L89.2363 71.5023ZM85.001 67.3345C82.6461 67.3345 80.7298 68.6035 80.7298 70.1657C80.7307 70.3366 80.7545 70.5066 80.8003 70.6712C81.5477 69.5524 83.1763 68.8234 85.0031 68.8234C86.8299 68.8234 88.4579 69.5524 89.206 70.6712C89.2518 70.5066 89.2755 70.3366 89.2765 70.1657C89.2723 68.6049 87.3559 67.3345 85.001 67.3345Z" fill="#371A45"/>
</g>
<path d="M84.9997 74.0299C82.0258 74.0299 79.6963 72.3324 79.6963 70.166C79.6963 67.9996 82.023 66.3027 84.9997 66.3027C87.9764 66.3027 90.3031 67.9996 90.3031 70.166C90.3031 72.3324 87.9736 74.0299 84.9997 74.0299ZM84.9997 68.0109C83.0509 68.0109 81.4039 68.9978 81.4039 70.166C81.4039 71.3341 83.0502 72.3211 84.9997 72.3211C86.9492 72.3211 88.5955 71.3341 88.5955 70.166C88.5955 68.9978 86.9485 68.0109 84.9997 68.0109Z" fill="#371A45"/>
<path d="M118.315 72.1074C120.77 71.9947 122.698 70.5573 122.621 68.8969C122.545 67.2366 120.493 65.982 118.039 66.0947C115.584 66.2074 113.657 67.6448 113.733 69.3052C113.809 70.9656 115.861 72.2202 118.315 72.1074Z" fill="#FFCE00"/>
<path d="M118.005 72.3023C116.898 72.3023 115.854 72.033 115.036 71.5325C114.119 70.9685 113.591 70.1867 113.552 69.3224C113.512 68.4581 113.965 67.6305 114.827 66.9861C115.669 66.3587 116.806 65.9822 118.028 65.9287C119.251 65.8751 120.417 66.1401 121.312 66.6907C122.229 67.2547 122.757 68.0365 122.796 68.9008C122.836 69.7651 122.383 70.5928 121.521 71.2378C120.679 71.8652 119.543 72.2417 118.32 72.2953C118.214 72.2995 118.109 72.3023 118.005 72.3023ZM118.344 66.2755C118.245 66.2755 118.144 66.2755 118.044 66.2825C116.892 66.3354 115.826 66.6865 115.04 67.2695C114.276 67.8391 113.874 68.5617 113.908 69.3034C113.942 70.045 114.408 70.7281 115.222 71.2258C116.057 71.7362 117.152 71.9893 118.304 71.9357C119.456 71.8822 120.523 71.5318 121.308 70.9488C122.072 70.3792 122.474 69.6565 122.44 68.9149C122.406 68.1726 121.94 67.4902 121.126 66.9932C120.363 66.5265 119.385 66.2755 118.344 66.2755Z" fill="#371A45"/>
<g opacity="0.3">
<path d="M122.618 69.1179C122.647 69.763 122.374 70.3735 121.885 70.8881C121.885 70.8585 121.885 70.8282 121.885 70.7986C121.81 69.1391 119.757 67.8856 117.302 67.9963C115.803 68.0668 114.498 68.6308 113.729 69.4359C113.723 67.8144 115.626 66.4242 118.037 66.3135C120.49 66.2021 122.543 67.4563 122.618 69.1179Z" fill="#102770"/>
<path d="M121.707 71.3348V70.8885C121.707 70.8632 121.707 70.8371 121.707 70.811C121.674 70.0658 121.207 69.3834 120.393 68.8857C119.558 68.3753 118.464 68.1236 117.312 68.1751C115.914 68.2385 114.624 68.756 113.857 69.559L113.551 69.8804V69.437C113.544 67.7021 115.511 66.2519 118.029 66.1356C119.253 66.082 120.418 66.3513 121.313 66.8991C122.23 67.4631 122.758 68.2456 122.798 69.1099C122.828 69.7831 122.558 70.4409 122.016 71.0133L121.707 71.3348ZM117.604 67.8099C118.713 67.8099 119.758 68.0799 120.577 68.5805C121.372 69.0662 121.874 69.7197 122.019 70.4465C122.306 70.0668 122.456 69.6006 122.442 69.1247C122.409 68.3824 121.942 67.6992 121.129 67.2022C120.294 66.6911 119.199 66.4394 118.047 66.4902C115.991 66.5854 114.283 67.6612 113.963 68.9795C114.801 68.3027 116.007 67.8762 117.296 67.817C117.397 67.8141 117.501 67.8113 117.604 67.8113V67.8099Z" fill="#371A45"/>
</g>
<path d="M118.005 72.9779C116.774 72.9779 115.608 72.6734 114.682 72.1087C113.583 71.4368 112.924 70.4322 112.875 69.3529C112.826 68.2736 113.389 67.2133 114.422 66.4435C115.371 65.7385 116.64 65.3155 117.996 65.2507C119.352 65.1858 120.654 65.4939 121.662 66.1115C122.761 66.7833 123.42 67.7879 123.469 68.8672C123.519 69.9465 122.955 71.0075 121.922 71.7773C120.973 72.4823 119.704 72.9053 118.348 72.9701C118.235 72.9751 118.119 72.9779 118.005 72.9779ZM118.334 66.9511C118.248 66.9511 118.161 66.9511 118.074 66.9574C117.07 67.0033 116.111 67.3156 115.444 67.8133C115.108 68.0635 114.55 68.5887 114.582 69.2747C114.614 69.9606 115.217 70.4329 115.573 70.6508C116.285 71.0858 117.27 71.3085 118.272 71.2627C119.273 71.2169 120.234 70.9046 120.902 70.4069C121.238 70.1566 121.795 69.6349 121.764 68.9455C121.732 68.256 121.129 67.7872 120.772 67.5693C120.122 67.1717 119.246 66.9511 118.334 66.9511Z" fill="#371A45"/>
<path d="M146.472 67.3257C148.926 67.2116 150.853 65.7733 150.776 64.1129C150.699 62.4526 148.647 61.1991 146.192 61.3131C143.738 61.4271 141.811 62.8655 141.888 64.5258C141.965 66.1862 144.017 67.4397 146.472 67.3257Z" fill="#FFCE00"/>
<path d="M146.158 67.5199C145.053 67.5199 144.01 67.2513 143.192 66.7522C142.276 66.1882 141.747 65.4071 141.707 64.5428C141.666 63.6785 142.119 62.8509 142.981 62.2058C143.822 61.5777 144.959 61.2012 146.182 61.1441C148.728 61.025 150.87 62.3581 150.952 64.1142C150.991 64.9778 150.539 65.8061 149.677 66.4512C148.836 67.0786 147.7 67.4557 146.477 67.5128C146.37 67.5178 146.264 67.5199 146.158 67.5199ZM146.499 61.4931C146.399 61.4931 146.299 61.4931 146.198 61.5001C145.046 61.5537 143.98 61.9055 143.194 62.4913C142.431 63.0616 142.029 63.7842 142.066 64.5266C142.104 65.2689 142.567 65.9506 143.381 66.4476C144.217 66.958 145.309 67.2111 146.464 67.1526C147.618 67.0941 148.682 66.7473 149.466 66.1614C150.231 65.5918 150.633 64.8685 150.598 64.1269C150.526 62.638 148.716 61.4931 146.502 61.4931H146.499Z" fill="#371A45"/>
<g opacity="0.3">
<path d="M150.774 64.1221C150.827 65.2797 149.905 66.3308 148.508 66.899C148.86 66.4422 149.051 65.9226 149.024 65.3805C148.948 63.721 146.895 62.4668 144.442 62.5803C143.74 62.6088 143.049 62.7568 142.397 63.0181C143.119 62.0763 144.535 61.3967 146.188 61.3262C148.644 61.2071 150.698 62.4605 150.774 64.1221Z" fill="#102770"/>
<path d="M147.963 67.3133L148.366 66.7909C148.703 66.3538 148.869 65.8695 148.846 65.3894C148.776 63.8307 146.801 62.6485 144.449 62.7592C143.769 62.7869 143.098 62.9299 142.466 63.1822L141.855 63.4324L142.257 62.9086C143.032 61.8963 144.537 61.2167 146.181 61.1462C147.403 61.0891 148.57 61.3577 149.466 61.9062C150.382 62.4702 150.911 63.2513 150.951 64.1163C151.007 65.3147 150.096 66.4469 148.575 67.0659L147.963 67.3133ZM144.744 62.3954C147.153 62.3954 149.124 63.6898 149.202 65.3725C149.218 65.7554 149.139 66.1362 148.973 66.4814C150.027 65.9005 150.637 65.0334 150.595 64.1311C150.56 63.3887 150.093 62.7056 149.279 62.2086C148.443 61.6982 147.348 61.4458 146.197 61.5036C144.956 61.5614 143.807 61.976 143.033 62.6203C143.49 62.499 143.959 62.427 144.431 62.4053C144.537 62.3975 144.641 62.3954 144.744 62.3954Z" fill="#371A45"/>
</g>
<path d="M146.16 68.1968C144.931 68.1968 143.762 67.8937 142.84 67.3297C141.74 66.6586 141.081 65.654 141.032 64.5754C140.982 63.4968 141.544 62.4351 142.577 61.6646C143.526 60.9596 144.794 60.5324 146.15 60.4696C149.118 60.3286 151.527 61.9191 151.627 64.0833C151.677 65.1626 151.114 66.2236 150.081 66.9935C149.133 67.6984 147.864 68.1256 146.509 68.1919C146.392 68.1952 146.275 68.1968 146.16 68.1968ZM146.496 62.17C146.408 62.17 146.319 62.1721 146.229 62.1764C145.225 62.2229 144.267 62.5359 143.599 63.0343C143.264 63.2846 142.706 63.8098 142.738 64.4957C142.77 65.1817 143.373 65.654 143.731 65.8718C144.442 66.3061 145.428 66.5282 146.429 66.4816C147.43 66.4351 148.391 66.1228 149.06 65.6244C149.394 65.3741 149.952 64.8489 149.92 64.1623C149.868 63.0505 148.328 62.1707 146.496 62.1707V62.17Z" fill="#371A45"/>
<path d="M57.0924 69.3198C57.1687 67.6595 55.2408 66.2221 52.7863 66.1094C50.3319 65.9966 48.2803 67.2512 48.204 68.9116C48.1278 70.572 50.0557 72.0094 52.5101 72.1221C54.9646 72.2348 57.0162 70.9802 57.0924 69.3198Z" fill="#FFCE00"/>
<path d="M52.8137 72.3008C52.7093 72.3008 52.6022 72.3008 52.4978 72.293C51.276 72.2373 50.1394 71.8609 49.2976 71.2355C48.4353 70.5926 47.9819 69.7629 48.0214 68.8986C48.0609 68.0343 48.5855 67.2503 49.5063 66.6892C50.4017 66.1414 51.5693 65.8714 52.7904 65.9271C54.0116 65.9828 55.1495 66.3592 55.9914 66.9846C56.8529 67.6275 57.3063 68.4572 57.2668 69.3208C57.2273 70.1844 56.7028 70.9698 55.7862 71.5309C54.9641 72.0315 53.9199 72.3008 52.8137 72.3008ZM52.4745 66.2739C51.4332 66.2739 50.4546 66.5249 49.6924 66.9916C48.8788 67.4851 48.412 68.171 48.3782 68.9134C48.3436 69.655 48.7462 70.3776 49.5105 70.9472C50.2959 71.533 51.3627 71.8841 52.514 71.9342C53.6654 71.9842 54.761 71.7347 55.5965 71.2243C56.4095 70.7266 56.8762 70.0441 56.9108 69.3018C56.9453 68.5595 56.5427 67.8376 55.7777 67.268C54.993 66.6821 53.9263 66.331 52.7742 66.281C52.6741 66.2761 52.5733 66.2739 52.4745 66.2739Z" fill="#371A45"/>
<g opacity="0.3">
<path d="M57.0887 69.3124C57.0527 70.0879 56.5867 70.7731 55.852 71.2708C55.8992 71.1119 55.9271 70.9479 55.9352 70.7823C56.0107 69.1228 54.0837 67.6854 51.6295 67.5719C50.3202 67.5119 49.1237 67.8412 48.2847 68.4136C48.6964 67.0036 50.5761 66.0019 52.7808 66.1027C55.2372 66.2155 57.1634 67.6529 57.0887 69.3124Z" fill="#102770"/>
<path d="M55.5395 71.6984L55.6805 71.2197C55.7235 71.0742 55.7491 70.9242 55.7567 70.7727C55.8272 69.2147 53.9715 67.8584 51.6201 67.7498C50.4011 67.692 49.2229 67.9895 48.3839 68.5605L47.9722 68.8425L48.1132 68.3645C48.5567 66.8481 50.5238 65.8203 52.7884 65.9253C55.3372 66.0431 57.3459 67.5665 57.2669 69.3219C57.2295 70.1263 56.7621 70.8728 55.952 71.4199L55.5395 71.6984ZM51.3318 67.3867C51.4333 67.3867 51.5355 67.3867 51.6377 67.3931C54.1851 67.5108 56.1931 69.0343 56.1141 70.7897C56.1141 70.808 56.1141 70.8263 56.1141 70.8453C56.6077 70.404 56.8897 69.8683 56.9151 69.3043C56.9856 67.7449 55.1285 66.3885 52.7764 66.2806C50.9644 66.1953 49.3216 66.906 48.673 67.981C49.4302 67.5961 50.3637 67.3867 51.3318 67.3867Z" fill="#371A45"/>
</g>
<path d="M52.8114 72.9773C52.6965 72.9773 52.5816 72.9773 52.466 72.9688C51.1101 72.9068 49.841 72.4831 48.8927 71.776C47.8598 71.0062 47.2958 69.9431 47.3458 68.8659C47.3959 67.7887 48.0509 66.7827 49.1522 66.1108C50.1618 65.4933 51.4662 65.188 52.8185 65.2501C54.1708 65.3121 55.4434 65.7358 56.3924 66.4429C57.4246 67.2127 57.9886 68.2758 57.9393 69.3523C57.8899 70.4288 57.2342 71.4362 56.1322 72.1081C55.2107 72.6727 54.0418 72.9766 52.8114 72.9773ZM52.4829 66.9505C51.5705 66.9505 50.6934 67.1711 50.0441 67.5687C49.6873 67.7866 49.0838 68.2554 49.0528 68.9448C49.0211 69.6343 49.5788 70.156 49.9137 70.4063C50.582 70.904 51.5409 71.2163 52.5442 71.2621C53.5475 71.3079 54.5318 71.0851 55.2425 70.6502C55.5992 70.4323 56.2027 69.9635 56.2345 69.2741C56.2662 68.5846 55.7085 68.0629 55.3729 67.8127C54.7045 67.3149 53.7456 67.0026 52.7423 66.9568C52.6556 66.9526 52.5689 66.9505 52.4829 66.9505Z" fill="#371A45"/>
<path d="M28.9346 64.5394C29.0118 62.8791 27.0846 61.4407 24.6302 61.3267C22.1758 61.2127 20.1236 62.4662 20.0464 64.1265C19.9693 65.7868 21.8964 67.2252 24.3508 67.3393C26.8052 67.4533 28.8575 66.1997 28.9346 64.5394Z" fill="#FFF5A4"/>
<path d="M24.654 67.4819C24.5504 67.4819 24.4425 67.4819 24.341 67.4741C23.1268 67.4184 21.9981 67.0441 21.1633 66.4209C20.3123 65.7864 19.8653 64.9679 19.9048 64.1177C19.9851 62.3842 22.1095 61.0737 24.6328 61.1865C25.8477 61.2429 26.9757 61.6172 27.8112 62.2439C28.6615 62.8784 29.1085 63.6969 29.0691 64.5464C28.9922 66.2044 27.0406 67.4819 24.654 67.4819ZM24.3177 61.455C22.0784 61.455 20.2509 62.6168 20.1804 64.1339C20.1452 64.8897 20.5534 65.625 21.3283 66.203C22.1193 66.7938 23.1938 67.1484 24.3536 67.202C26.7247 67.3148 28.7201 66.1156 28.7955 64.5337C28.8307 63.7779 28.4232 63.0433 27.6477 62.4653C26.8566 61.8745 25.7821 61.5199 24.6223 61.4656C24.5186 61.4579 24.4178 61.455 24.3163 61.455H24.3177Z" fill="#371A45"/>
<path d="M24.6684 68.1945C24.55 68.1945 24.4308 68.1945 24.3103 68.186C22.9544 68.1233 21.6853 67.6989 20.737 66.9876C19.7048 66.2178 19.1415 65.1547 19.1916 64.0775C19.2924 61.9132 21.7023 60.3228 24.6684 60.4638C26.0242 60.5265 27.2933 60.9516 28.2416 61.6587C29.2738 62.4292 29.8372 63.4916 29.7871 64.5695C29.6877 66.6499 27.4689 68.1945 24.6684 68.1945ZM24.3229 62.1677C22.4898 62.1677 20.9507 63.0468 20.8985 64.1599C20.8668 64.8494 21.4245 65.3718 21.7594 65.6221C22.427 66.1205 23.3859 66.4328 24.3892 66.4793C26.3359 66.5688 28.0259 65.6601 28.0802 64.4934C28.1126 63.8046 27.5549 63.2823 27.22 63.032C26.5516 62.5336 25.5935 62.2206 24.5895 62.174C24.4983 62.1703 24.4085 62.1684 24.3201 62.1684L24.3229 62.1677Z" fill="#371A45"/>
<path d="M28.9346 64.5394C29.0118 62.8791 27.0846 61.4407 24.6302 61.3267C22.1758 61.2127 20.1236 62.4662 20.0464 64.1265C19.9693 65.7868 21.8964 67.2252 24.3508 67.3393C26.8052 67.4533 28.8575 66.1997 28.9346 64.5394Z" fill="#FFCE00"/>
<path d="M24.654 67.5215C24.5503 67.5215 24.4425 67.5215 24.3395 67.5145C23.1177 67.4574 21.9811 67.0802 21.14 66.4528C20.2777 65.8092 19.8251 64.9794 19.8653 64.1158C19.947 62.3597 22.0862 61.0294 24.6357 61.1458C25.8582 61.2029 26.9941 61.5793 27.8359 62.2074C28.6975 62.8504 29.1501 63.6808 29.1099 64.5444C29.0324 66.2272 27.0625 67.5215 24.654 67.5215ZM24.3177 61.4947C22.1003 61.4947 20.2911 62.6396 20.2213 64.132C20.1868 64.8737 20.5886 65.597 21.3494 66.1666C22.1341 66.7524 23.2009 67.1049 24.3529 67.1578C26.705 67.2706 28.6777 66.0876 28.7504 64.5282C28.7849 63.7859 28.383 63.0633 27.6223 62.493C26.8375 61.9071 25.7708 61.5553 24.6187 61.5018C24.5179 61.4997 24.4171 61.4947 24.317 61.4947H24.3177Z" fill="#371A45"/>
<g opacity="0.3">
<path d="M28.9315 64.5349C28.8758 65.7461 27.7668 66.7394 26.2185 67.1433C26.6711 66.7013 26.9447 66.1655 26.9722 65.5804C27.0497 63.9209 25.1228 62.4785 22.6714 62.3678C22.0401 62.3362 21.4076 62.4011 20.7959 62.5603C21.6201 61.7489 23.0408 61.249 24.63 61.3238C27.0815 61.4359 29.0084 62.8733 28.9315 64.5349Z" fill="#102770"/>
<path d="M25.6136 67.4858L26.0944 67.0163C26.5281 66.5933 26.7706 66.0935 26.7953 65.5725C26.8298 64.8309 26.4279 64.1083 25.6637 63.5373C24.8789 62.9514 23.8122 62.5997 22.6608 62.5468C22.0478 62.5151 21.4336 62.5779 20.8397 62.7329L20.1875 62.9077L20.6683 62.434C21.5638 61.5528 23.0465 61.0727 24.6364 61.146C25.8583 61.2024 26.9948 61.5789 27.8359 62.2035C28.6975 62.8471 29.1502 63.6769 29.11 64.5419C29.0529 65.7897 27.936 66.8781 26.2644 67.3138L25.6136 67.4858ZM22.3626 62.183C22.4669 62.183 22.5741 62.183 22.677 62.1901C23.8996 62.2465 25.0355 62.6236 25.8773 63.2518C26.7389 63.8954 27.1915 64.7252 27.1513 65.5887C27.1284 66.0175 26.989 66.4318 26.748 66.7872C27.9424 66.3212 28.7102 65.4738 28.7539 64.5313C28.7885 63.7889 28.3866 63.0664 27.6258 62.496C26.8411 61.9102 25.7751 61.5591 24.623 61.5091C23.4315 61.4527 22.3118 61.7206 21.4876 62.2486C21.7775 62.2071 22.0698 62.1852 22.3626 62.183Z" fill="#371A45"/>
</g>
<path d="M24.6684 68.1945C24.55 68.1945 24.4308 68.1945 24.3103 68.186C22.9544 68.1233 21.6853 67.6989 20.737 66.9876C19.7048 66.2178 19.1415 65.1547 19.1916 64.0775C19.2924 61.9132 21.7023 60.3228 24.6684 60.4638C26.0242 60.5265 27.2933 60.9516 28.2416 61.6587C29.2738 62.4292 29.8372 63.4916 29.7871 64.5695C29.6877 66.6499 27.4689 68.1945 24.6684 68.1945ZM24.3229 62.1677C22.4898 62.1677 20.9507 63.0468 20.8985 64.1599C20.8668 64.8494 21.4245 65.3718 21.7594 65.6221C22.427 66.1205 23.3859 66.4328 24.3892 66.4793C26.3359 66.5688 28.0259 65.6601 28.0802 64.4934C28.1126 63.8046 27.5549 63.2823 27.22 63.032C26.5516 62.5336 25.5935 62.2206 24.5895 62.174C24.4983 62.1703 24.4085 62.1684 24.3201 62.1684L24.3229 62.1677Z" fill="#371A45"/>
<path d="M141.861 74.4477C141.72 74.448 141.582 74.4134 141.458 74.3471C141.333 74.2808 141.228 74.1848 141.15 74.0677C134.448 64.0402 121.108 59.1223 120.974 59.0751C120.765 58.9944 120.597 58.8355 120.505 58.6323C120.412 58.4291 120.403 58.1977 120.479 57.9877C120.555 57.7778 120.71 57.6058 120.911 57.5088C121.112 57.4117 121.343 57.3972 121.555 57.4684C122.123 57.6736 135.551 62.6147 142.57 73.1188C142.656 73.2475 142.705 73.3969 142.713 73.5513C142.721 73.7058 142.686 73.8593 142.613 73.9957C142.541 74.1322 142.432 74.2463 142.3 74.326C142.167 74.4057 142.016 74.448 141.861 74.4484V74.4477Z" fill="#371A45"/>
<path d="M28.8891 74.4463C28.7345 74.4459 28.5829 74.4036 28.4504 74.3239C28.3179 74.2442 28.2095 74.13 28.1368 73.9936C28.064 73.8572 28.0296 73.7036 28.0372 73.5492C28.0447 73.3948 28.0941 73.2453 28.1798 73.1167C34.6114 63.4931 46.5402 58.4956 48.8661 57.5918C49.0764 57.5143 49.3086 57.5225 49.5128 57.6145C49.7171 57.7066 49.877 57.8752 49.9582 58.084C50.0393 58.2928 50.0352 58.5251 49.9468 58.7309C49.8583 58.9367 49.6925 59.0995 49.4852 59.1843C47.2431 60.0557 35.7472 64.8685 29.6026 74.0663C29.5244 74.1837 29.4182 74.2798 29.2937 74.3461C29.1692 74.4124 29.0302 74.4468 28.8891 74.4463Z" fill="#371A45"/>
<g opacity="0.5">
<path d="M47.674 43.2388C47.674 43.2388 46.4628 35.7407 52.8534 27.1654C58.3119 19.8386 62.0642 24.2948 59.7241 28.6043C56.5126 34.5155 55.1067 40.1595 53.9377 46.1644C53.2687 49.5998 47.9913 51.1662 47.674 43.2388Z" fill="white"/>
</g>
<g opacity="0.5">
<path d="M63.5027 21.202C62.2047 21.8048 58.1831 22.2771 58.9756 17.9196C59.768 13.5622 64.4835 12.3179 66.1819 13.8245C67.1732 14.7036 67.0957 19.5326 63.5027 21.202Z" fill="white"/>
</g>
<g opacity="0.5">
<path d="M14.5733 55.6537C18.7648 53.1927 25.3528 51.5205 31.3698 51.8173C36.8163 52.0866 26.8835 54.0154 23.3914 54.8367C20.875 55.4274 16.1956 57.2174 13.9852 57.6312C11.7749 58.045 11.9222 57.211 14.5733 55.6537Z" fill="white"/>
</g>
<g opacity="0.3">
<path d="M126.356 53.8848C126.356 39.1269 119.661 10.7404 93.9678 4.08756L93.9402 4.06641C94.7771 4.71851 97.9175 7.23879 101.685 11.1866C116.759 26.9661 107.14 53.1763 85.4352 55.459C72.245 56.8471 56.602 56.79 41.468 52.6109C41.0604 52.4981 40.6663 52.3952 40.2694 52.2915C40.2694 52.4727 40.2651 52.6546 40.2651 52.8315C40.2651 57.6253 60.0067 61.5069 84.3642 61.5069C102.001 61.5069 117.22 59.4703 124.27 56.527C125.624 55.6916 126.356 54.8012 126.356 53.8848Z" fill="#371A45"/>
</g>
</svg>
