<svg width="62" height="45" viewBox="0 0 62 45" fill="none" xmlns="http://www.w3.org/2000/svg">
<path d="M17.3727 16.2119C17.907 16.3576 18.319 16.4599 18.7257 16.5795C24.8946 18.4 29.1484 24.2221 28.9899 30.6234C28.8175 37.3436 24.3568 42.9976 18.0087 44.5407C9.23377 46.6733 1.68434 40.6257 0.308893 32.6554C-0.418472 28.4422 0.212358 24.2759 1.39476 20.2257C4.23355 10.5025 10.754 4.42202 20.1822 1.28903C21.3887 0.888519 22.5125 0.890255 23.5139 1.75196C24.8325 2.8876 24.8928 4.72544 23.7897 6.1697C22.3057 8.12371 20.832 10.0951 19.4807 12.1461C18.6706 13.398 18.0949 14.8075 17.3727 16.2119Z" fill="#77578E"/>
<path d="M50.3146 16.1366C51.4315 16.5163 52.3433 16.7677 53.2102 17.1283C58.8689 19.4793 62.5316 25.5407 61.9369 31.5311C61.2768 38.1958 56.6609 43.4354 50.4214 44.6785C41.7534 46.4123 34.8107 40.3822 33.3266 32.9909C32.7389 30.059 33.0267 27.1289 33.4748 24.2178C34.2608 19.1066 36.112 14.4357 39.4093 10.4098C43.2012 5.77357 48.0894 2.81395 53.7652 1.11482C55.02 0.738583 56.3507 1.3038 57.0746 2.42558C57.7985 3.54736 57.7244 4.90493 56.9022 5.99896C55.6767 7.6114 54.3616 9.16663 53.2602 10.8536C52.1588 12.5406 51.2988 14.3455 50.3146 16.1366Z" fill="#77578E"/>
</svg>
