<svg width="17" height="16" viewBox="0 0 17 16" fill="none" xmlns="http://www.w3.org/2000/svg">
<g clip-path="url(#clip0_2744_89121)">
<path d="M8.5 16C4.08875 16 0.5 12.4113 0.5 8C0.5 3.58875 4.08875 0 8.5 0C12.9113 0 16.5 3.58875 16.5 8C16.5 12.4113 12.9113 16 8.5 16ZM8.5 0.533312C4.38294 0.533312 1.03331 3.88294 1.03331 8C1.03331 12.1171 4.38294 15.4667 8.5 15.4667C12.6171 15.4667 15.9667 12.1171 15.9667 8C15.9667 3.88294 12.6171 0.533312 8.5 0.533312Z" fill="black"/>
<path d="M9.40491 13.7086C9.0425 13.7086 8.70144 13.4905 8.56006 13.1368L8.26784 12.4062C8.25257 12.3682 8.23992 12.3292 8.23 12.2894L7.72438 10.2667C7.71763 10.2402 7.70806 10.2144 7.69581 10.1899L7.42435 9.64733C7.3451 9.48864 7.16994 9.40917 6.99747 9.4508L6.73928 9.51527C6.46547 9.58361 6.17078 9.51952 5.95069 9.34327L5.10672 8.66833C4.88991 8.49448 4.76563 8.23583 4.76563 7.95848V7.67286C4.76531 7.48345 4.82459 7.29874 4.93506 7.14489L5.95656 5.7147C6.04076 5.59704 6.15178 5.50114 6.28042 5.43493C6.40907 5.36872 6.55163 5.33412 6.69631 5.33398H7.25453C7.41941 5.33392 7.58118 5.37882 7.72244 5.46386L8.68972 6.04405C8.76965 6.09258 8.86495 6.10915 8.95656 6.09045L9.53506 5.97448C9.95447 5.89048 10.3806 6.11498 10.5488 6.50805L11.0617 7.70461C11.0927 7.77661 11.1465 7.83848 11.2134 7.87817L11.7388 8.1937C11.8499 8.26041 11.9455 8.3501 12.0191 8.45676C12.0927 8.56342 12.1427 8.68459 12.1657 8.81214C12.1886 8.93977 12.184 9.07082 12.1521 9.19651C12.1202 9.3222 12.0618 9.43962 11.9808 9.54089L11.5142 10.1244C11.4611 10.1911 11.432 10.2738 11.4318 10.359V11.2009C11.4318 11.4403 11.3347 11.6748 11.1654 11.8439L10.8763 12.1329C10.8545 12.1548 10.8356 12.1791 10.8198 12.2052L10.1828 13.2671C10.0711 13.4529 9.89671 13.5927 9.69106 13.6614C9.59895 13.6928 9.50225 13.7088 9.40491 13.7086ZM7.09231 8.90567C7.42994 8.90567 7.74403 9.0938 7.90163 9.40895L8.17313 9.95155C8.20283 10.0109 8.22592 10.0733 8.24197 10.1377L8.7476 12.1604C8.7516 12.1767 8.75685 12.1924 8.76306 12.2079L9.05556 12.9394C9.12941 13.1233 9.33425 13.2185 9.52334 13.1561C9.60834 13.1275 9.6804 13.0695 9.72669 12.9927L10.3636 11.931C10.4018 11.8675 10.4477 11.8088 10.5001 11.7564L10.7894 11.4668C10.8597 11.3963 10.8993 11.3008 10.8996 11.2012V10.3593C10.8996 10.1537 10.9702 9.95239 11.0988 9.79164L11.5657 9.20814C11.6345 9.1222 11.6614 9.0153 11.6423 8.90702C11.6227 8.79873 11.5601 8.70792 11.4657 8.65127L10.9406 8.33608C10.7761 8.2377 10.6489 8.09208 10.5729 7.91508L10.0598 6.7183C9.99025 6.5558 9.81422 6.46364 9.64088 6.4977L9.06228 6.61367C8.83985 6.65883 8.6105 6.6183 8.41603 6.50173L7.44838 5.92117C7.39 5.88606 7.32315 5.86753 7.25503 5.86758H6.69691C6.63713 5.86768 6.57824 5.882 6.52509 5.90936C6.47194 5.93671 6.42606 5.97633 6.39125 6.02492L5.36966 7.45511C5.32398 7.51866 5.29945 7.59497 5.29956 7.67323V7.95877C5.29956 8.07352 5.35097 8.18045 5.44056 8.25233L6.28431 8.92702C6.37525 8.99989 6.49744 9.02702 6.6105 8.99833L6.86831 8.93398C6.9415 8.91519 7.01676 8.90568 7.09231 8.90567ZM12.4993 13.3337C12.4643 13.3337 12.4296 13.3268 12.3973 13.3134C12.3649 13.3 12.3356 13.2804 12.3108 13.2556L11.7774 12.7223C11.7464 12.6912 11.7235 12.653 11.7108 12.611C11.6981 12.569 11.696 12.5245 11.7046 12.4815L11.9713 11.1481C11.9817 11.0965 12.007 11.0492 12.0441 11.0118L12.8441 10.2118C12.8782 10.1776 12.921 10.1533 12.9678 10.1416C13.0147 10.1299 13.0638 10.1311 13.11 10.1451C13.1562 10.1591 13.1977 10.1854 13.2302 10.2211C13.2626 10.2569 13.2846 10.3008 13.294 10.3481L13.5605 11.6814C13.5736 11.7465 13.5619 11.8141 13.5278 11.8711L12.7278 13.2043C12.707 13.2391 12.6785 13.2686 12.6446 13.2907C12.6106 13.3127 12.5721 13.3268 12.5319 13.3318C12.5209 13.3329 12.5099 13.3337 12.4993 13.3337ZM12.2553 12.4459L12.4462 12.6372L13.0175 11.6852L12.8687 10.9414L12.4779 11.3321L12.2553 12.4459Z" fill="black"/>
<path d="M15.43 7.40857C15.011 7.40857 14.6361 7.1211 14.53 6.70056C14.4673 6.45203 14.389 6.23891 14.2974 6.06666C14.2393 5.95728 14.1348 5.88744 14.0103 5.87463C13.8739 5.8611 13.7411 5.9165 13.6529 6.02319C13.1161 6.672 12.5932 6.97203 12.0972 6.916C11.4961 6.84716 11.2044 6.2771 11.1922 6.25281C9.95633 3.781 7.74867 3.99463 7.72683 3.99866C7.71695 3.99975 7.70729 4.00022 7.69742 4.00022C7.5492 4.00022 7.38467 4.036 7.20889 4.1061C6.61951 4.34191 5.96842 4.16503 5.58839 3.66641C5.21607 3.17735 5.21829 2.54163 5.59401 2.04725L5.62489 2.00694C5.81217 1.76635 6.09854 1.61328 6.40992 1.588C7.41529 1.50635 8.16273 1.02269 8.63186 0.150159C8.68029 0.0596898 8.77686 0.00453361 8.87929 0.0101586C12.7721 0.193127 15.9489 3.13172 16.4329 6.99756C16.4502 7.13685 16.357 7.26588 16.219 7.29225C15.9976 7.33509 15.775 7.37127 15.5515 7.40075C15.5108 7.40588 15.47 7.40857 15.43 7.40857ZM13.9691 5.33922C14.0009 5.33922 14.0326 5.3411 14.0644 5.34422C14.3689 5.37525 14.6254 5.5475 14.7683 5.81628C14.8801 6.02638 14.974 6.28003 15.047 6.56981C15.0972 6.76831 15.2836 6.89844 15.4809 6.87194C15.6102 6.85471 15.7393 6.83525 15.868 6.8136C15.3225 3.38294 12.4916 0.789534 9.01686 0.552034C8.60733 1.23572 7.84217 2.00635 6.45339 2.11953C6.29058 2.13281 6.14198 2.21119 6.04567 2.33497L6.01929 2.36903C5.74354 2.73169 5.83558 3.10988 6.01295 3.34313C6.19264 3.57922 6.56167 3.79125 7.01101 3.61094C7.24514 3.51735 7.47158 3.46913 7.68411 3.46691C7.79192 3.45703 8.39798 3.41941 9.15151 3.68191C9.89773 3.94166 10.9403 4.55675 11.6692 6.01441C11.67 6.01625 11.8475 6.35303 12.1609 6.38672C12.4619 6.42431 12.8347 6.17603 13.242 5.68347C13.4236 5.464 13.69 5.33922 13.9691 5.33922ZM1.45498 7.46669H0.80545C0.76815 7.4667 0.731264 7.45888 0.69718 7.44372C0.663096 7.42857 0.632575 7.40643 0.607593 7.37873C0.582611 7.35103 0.563725 7.3184 0.552159 7.28294C0.540592 7.24747 0.536604 7.20998 0.54045 7.17288C0.69445 5.67378 1.27051 4.25228 2.20676 3.06125C2.24468 3.01297 2.29812 2.97928 2.35803 2.96588C2.41794 2.95249 2.48064 2.96021 2.53551 2.98775L3.53661 3.48825C3.95495 3.69763 4.25098 4.09813 4.32776 4.55966L4.34839 4.68163C4.4547 5.321 4.13683 5.94553 3.55714 6.23544L3.03551 6.49625C2.89025 6.56917 2.76638 6.67853 2.67601 6.81363C2.54214 7.01475 2.36058 7.17964 2.14754 7.29359C1.93449 7.40754 1.69656 7.46702 1.45495 7.46672L1.45498 7.46669ZM1.1067 6.93335H1.45498C1.76811 6.93335 2.05873 6.77785 2.23233 6.51735C2.37407 6.30487 2.56874 6.13301 2.79714 6.01869L3.31873 5.75781C3.68789 5.5736 3.89029 5.17578 3.82254 4.76882L3.80201 4.64697V4.6466C3.75295 4.35278 3.56461 4.09816 3.29826 3.96485L2.49451 3.56297C1.75723 4.55872 1.28139 5.71435 1.1067 6.93335ZM3.75954 14.3763C3.70028 14.3763 3.64269 14.3566 3.59586 14.3203C1.84864 12.9629 0.731825 10.9266 0.532357 8.73366C0.52723 8.67755 0.540002 8.62126 0.568841 8.57285C0.597679 8.52445 0.641104 8.48642 0.692888 8.46422L0.972075 8.34447C1.53079 8.1051 2.16945 8.22828 2.59926 8.6581L3.09342 9.15222C3.22517 9.28425 3.39315 9.3742 3.57608 9.41066C4.26467 9.5486 4.76404 10.1578 4.76404 10.86V10.9338C4.76404 11.3357 4.64651 11.7245 4.42361 12.0583C4.29151 12.2562 4.20814 12.4861 4.18167 12.7222L4.02433 14.1392C4.01909 14.1863 4.00142 14.2311 3.97312 14.2691C3.94482 14.3071 3.90692 14.3369 3.86329 14.3555C3.83043 14.3692 3.79516 14.3762 3.75954 14.3762V14.3763ZM1.08351 8.87703C1.29689 10.6902 2.18142 12.3748 3.5492 13.5885L3.65189 12.6629C3.68808 12.3408 3.80052 12.032 3.97989 11.7621C4.14378 11.5169 4.23109 11.2285 4.23073 10.9336V10.8597C4.23073 10.4108 3.91151 10.0213 3.47136 9.93331C3.18505 9.87652 2.92212 9.73578 2.71608 9.52903L2.22195 9.03488C1.94704 8.76047 1.53908 8.68163 1.18201 8.83431L1.08351 8.87703Z" fill="black"/>
</g>
<defs>
<clipPath id="clip0_2744_89121">
<rect width="16" height="16" fill="white" transform="translate(0.5)"/>
</clipPath>
</defs>
</svg>
