<svg width="21" height="20" viewBox="0 0 21 20" fill="none" xmlns="http://www.w3.org/2000/svg">
<path d="M7.7263 11.667H3.83464C2.91797 11.667 2.16797 12.417 2.16797 13.3337V18.3337H7.7263V11.667Z" stroke="#292D32" stroke-width="1.3" stroke-miterlimit="10" stroke-linecap="round" stroke-linejoin="round"/>
<path d="M11.6065 8.33301H9.38151C8.46484 8.33301 7.71484 9.08301 7.71484 9.99967V18.333H13.2732V9.99967C13.2732 9.08301 12.5315 8.33301 11.6065 8.33301Z" stroke="#292D32" stroke-width="1.3" stroke-miterlimit="10" stroke-linecap="round" stroke-linejoin="round"/>
<path d="M17.1651 14.167H13.2734V18.3337H18.8318V15.8337C18.8318 14.917 18.0818 14.167 17.1651 14.167Z" stroke="#292D32" stroke-width="1.3" stroke-miterlimit="10" stroke-linecap="round" stroke-linejoin="round"/>
<path d="M10.9345 1.72534L11.3762 2.60867C11.4345 2.73367 11.5928 2.85034 11.7262 2.867L12.5262 3.00034C13.0345 3.08367 13.1595 3.45866 12.7928 3.81699L12.1678 4.44199C12.0595 4.55032 12.0012 4.75033 12.0345 4.892L12.2095 5.65868C12.3512 6.26701 12.0262 6.50035 11.4928 6.18368L10.7428 5.74201C10.6095 5.65868 10.3845 5.65868 10.2512 5.74201L9.50117 6.18368C8.96783 6.50035 8.64283 6.26701 8.7845 5.65868L8.9595 4.892C8.99284 4.75033 8.9345 4.54199 8.82617 4.44199L8.2095 3.82533C7.84283 3.45866 7.9595 3.09199 8.47617 3.00866L9.27617 2.87534C9.4095 2.85034 9.56784 2.73368 9.62617 2.61701L10.0678 1.73366C10.3095 1.25032 10.6928 1.25034 10.9345 1.72534Z" stroke="#292D32" stroke-width="1.3" stroke-linecap="round" stroke-linejoin="round"/>
</svg>
