<svg width="198" height="201" viewBox="0 0 198 201" fill="none" xmlns="http://www.w3.org/2000/svg">
<g clip-path="url(#clip0_116_9075)">
<path d="M22.6391 102.168C23.1294 101.965 23.3622 101.403 23.1591 100.912C22.9561 100.422 22.394 100.189 21.9038 100.392C21.4135 100.595 21.1807 101.157 21.3838 101.648C21.5869 102.138 22.1489 102.371 22.6391 102.168Z" fill="white"/>
<path d="M148.065 73.6318C148.065 73.6318 167.406 69.8074 170.204 72.3107C173.002 74.814 192.666 118.802 192.666 118.802C192.666 118.802 178.702 116.656 176.031 115.581C173.36 114.507 139.498 91.26 139.498 91.26" fill="white"/>
<path d="M195.399 120.885L192.416 120.427C190.966 120.205 178.188 118.22 175.418 117.111C172.716 116.025 144.247 96.5203 138.567 92.6219C138.209 92.3745 137.963 91.995 137.884 91.5666C137.805 91.1383 137.899 90.696 138.145 90.3369C138.392 89.9777 138.77 89.731 139.198 89.6509C139.626 89.5707 140.069 89.6636 140.428 89.9093C153.409 98.8225 174.721 113.256 176.646 114.058C178.17 114.671 184.613 115.838 189.922 116.702C182.411 99.9971 171.082 75.6059 169.109 73.54C168.902 73.4018 167.196 72.5444 158.089 73.6906C153.096 74.3187 148.43 75.237 148.384 75.246C148.171 75.2913 147.951 75.2938 147.737 75.2534C147.523 75.2129 147.319 75.1303 147.137 75.0102C146.955 74.8902 146.798 74.7352 146.677 74.5542C146.555 74.3733 146.471 74.1699 146.429 73.9561C146.386 73.7422 146.387 73.522 146.431 73.3084C146.474 73.0948 146.56 72.8919 146.682 72.7116C146.805 72.5314 146.962 72.3772 147.144 72.2583C147.327 72.1393 147.532 72.0578 147.746 72.0185C147.795 72.0089 152.698 71.0436 157.882 70.4003C167.673 69.1857 170.159 70.0645 171.3 71.0851C171.899 71.6206 173.303 72.8746 183.976 95.801C189.186 106.994 194.118 118.021 194.167 118.131L195.399 120.885Z" fill="#371A45"/>
<path d="M195.862 132.95C195.805 133.343 195.744 133.736 195.68 134.13C195.68 134.13 179.259 151.082 178.783 152.287C178.307 153.492 174.928 161.091 155.31 160.047C152.663 159.393 122.205 160.047 118.925 160.047C117.051 160.405 111.987 160.682 111.987 160.682L101.532 143.743C96.9173 157.419 71.9387 165.287 65.9294 152.287C59.9201 139.286 67.0912 112.633 67.0912 112.633C67.0912 112.633 63.3378 108.521 57.8852 101.279C52.4326 94.0369 55.3827 92.9873 55.3827 92.9873C55.3827 92.9873 51.7219 89.7399 48.0541 82.1298C44.3864 74.5197 54.3715 75.2894 54.3715 75.2894L137.609 89.2983C137.609 89.2983 142.346 88.7725 148.274 88.5383C152.8 88.3593 158.019 88.3483 162.352 88.8706C163.315 88.9853 164.233 89.1284 165.091 89.2997C166.22 89.525 167.397 89.9147 168.609 90.4439C177.89 94.4887 189.077 106.712 194.453 116.838C196.699 121.066 196.724 127.064 195.862 132.95Z" fill="white"/>
<path d="M125.194 167.94C122.619 167.94 114.58 167.153 107.8 158.04C103.087 151.708 101.047 147.001 100.167 144.167C99.8608 143.162 99.9061 142.082 100.295 141.105C100.684 140.128 101.394 139.313 102.308 138.794C118.886 129.471 139.556 121.642 147.676 118.708C148.837 118.286 150.107 118.264 151.282 118.648C152.458 119.032 153.47 119.798 154.159 120.824C155.498 122.812 156.987 125.423 158.586 128.584C158.758 128.924 158.787 129.317 158.668 129.677C158.55 130.038 158.293 130.337 157.954 130.508C157.615 130.68 157.222 130.709 156.861 130.591C156.501 130.472 156.202 130.215 156.031 129.876C154.486 126.819 153.061 124.312 151.785 122.423C151.451 121.926 150.961 121.555 150.393 121.369C149.824 121.184 149.209 121.194 148.647 121.398C140.597 124.308 120.1 132.07 103.712 141.288C103.363 141.481 103.092 141.789 102.944 142.16C102.796 142.53 102.781 142.941 102.902 143.321C103.715 145.938 105.625 150.323 110.097 156.332C116.647 165.134 124.304 165.136 125.569 165.072C136.7 160.901 158.069 152.328 163.967 148.012C163.394 146.526 162.193 143.469 160.656 139.875C160.582 139.702 160.543 139.516 160.541 139.328C160.538 139.141 160.573 138.954 160.643 138.78C160.713 138.605 160.816 138.446 160.948 138.312C161.079 138.178 161.235 138.07 161.408 137.997C161.581 137.923 161.766 137.884 161.954 137.881C162.142 137.879 162.328 137.914 162.502 137.984C162.677 138.054 162.836 138.157 162.97 138.289C163.104 138.42 163.211 138.576 163.285 138.749C165.478 143.877 166.999 147.932 167.015 147.973C167.116 148.242 167.133 148.536 167.065 148.815C166.996 149.095 166.845 149.347 166.631 149.539C160.536 155.01 127.77 167.303 126.379 167.824C126.264 167.867 126.145 167.895 126.024 167.907C125.954 167.914 125.666 167.94 125.194 167.94Z" fill="#371A45"/>
<path d="M77.8574 160.565C71.5338 160.565 66.6815 157.841 64.4359 152.98C58.8024 140.782 64.0712 117.891 65.2786 113.076C64.007 111.631 60.8138 107.907 56.5713 102.272C53.6206 98.3519 52.4864 95.4486 53.1046 93.3944C53.1336 93.2969 53.1667 93.2037 53.202 93.1139C51.7791 91.5406 49.1681 88.2427 46.571 82.8484C45.3222 80.2532 45.2711 78.085 46.4198 76.4046C48.55 73.2885 53.8927 73.6077 54.4957 73.654C54.9289 73.6895 55.3304 73.8952 55.6125 74.226C55.8946 74.5568 56.0343 74.9859 56.0011 75.4194C55.9678 75.8529 55.7644 76.2557 55.4352 76.5396C55.106 76.8235 54.6778 76.9655 54.2443 76.9346C52.9319 76.8386 49.9687 77.0369 49.1329 78.2633C48.5914 79.0593 49.0521 80.4198 49.5335 81.4209C52.9816 88.5847 56.4408 91.734 56.4746 91.7651C56.6648 91.936 56.8126 92.1488 56.9063 92.3867C57.0001 92.6246 57.0372 92.881 57.0148 93.1358C56.9923 93.3905 56.9109 93.6365 56.777 93.8543C56.6431 94.0721 56.4604 94.2558 56.2432 94.3907C56.1928 94.7162 56.1804 96.2818 59.1975 100.289C64.5305 107.374 68.2667 111.483 68.304 111.525C68.4902 111.729 68.6221 111.977 68.6874 112.245C68.7527 112.513 68.7494 112.794 68.6777 113.061C68.6086 113.321 61.7359 139.291 67.4198 151.597C69.8761 156.917 75.6678 157.416 78.9052 157.243C86.9059 156.814 97.2356 151.329 99.9723 143.217C100.038 143.009 100.145 142.816 100.287 142.649C100.428 142.482 100.602 142.346 100.796 142.247C100.991 142.148 101.204 142.089 101.422 142.073C101.64 142.058 101.859 142.086 102.066 142.155C102.273 142.225 102.464 142.336 102.628 142.481C102.792 142.625 102.926 142.801 103.021 142.998C103.116 143.195 103.171 143.409 103.182 143.627C103.194 143.845 103.162 144.064 103.088 144.27C99.8673 153.813 88.3522 160.031 79.08 160.528C78.6683 160.553 78.2608 160.565 77.8574 160.565Z" fill="#371A45"/>
<path d="M195.682 135.56C195.474 135.56 195.269 135.515 195.08 135.428C194.892 135.341 194.724 135.214 194.59 135.055C194.456 134.897 194.357 134.711 194.302 134.511C194.246 134.311 194.235 134.101 194.269 133.896C195.472 126.635 195.11 121.121 193.19 117.506C187.257 106.333 174.142 92.5764 164.81 90.7005C155.357 88.8004 137.941 90.7005 137.768 90.7191C137.581 90.7399 137.392 90.7236 137.212 90.6713C137.032 90.6191 136.863 90.5317 136.717 90.4144C136.57 90.297 136.448 90.152 136.357 89.9874C136.267 89.8229 136.21 89.6421 136.189 89.4554C136.168 89.2687 136.184 89.0798 136.237 88.8993C136.289 88.7189 136.376 88.5506 136.494 88.4039C136.611 88.2572 136.756 88.1351 136.92 88.0445C137.085 87.9539 137.266 87.8966 137.452 87.8759C138.184 87.795 155.484 85.9074 165.373 87.8952C175.64 89.9591 189.351 104.178 195.716 116.164C197.937 120.347 198.399 126.47 197.091 134.364C197.035 134.698 196.863 135.001 196.605 135.22C196.347 135.439 196.02 135.56 195.682 135.56Z" fill="#371A45"/>
<path d="M168.953 129.746C167.952 128.321 166.987 126.795 166.045 125.292C165.104 123.79 164.18 122.247 163.154 120.787C162.911 120.409 162.643 120.056 162.388 119.689C162.133 119.321 161.871 118.958 161.596 118.608C161.32 118.258 161.064 117.886 160.786 117.536L159.937 116.498C158.78 115.131 157.546 113.823 156.138 112.633C157.83 113.356 159.4 114.388 160.874 115.525C162.346 116.674 163.686 117.97 164.978 119.312L165.922 120.34L166.835 121.394C167.144 121.743 167.432 122.106 167.723 122.469C168.014 122.832 168.298 123.199 168.568 123.575C169.121 124.322 169.64 125.091 170.124 125.883C170.62 126.68 171.064 127.507 171.453 128.361C171.602 128.687 171.624 129.058 171.514 129.4C171.404 129.742 171.169 130.03 170.857 130.207C170.545 130.385 170.177 130.439 169.827 130.358C169.477 130.278 169.17 130.07 168.966 129.774L168.953 129.746Z" fill="#371A45"/>
<path d="M157.823 150.985C157.599 150.985 157.38 150.925 157.187 150.812C156.994 150.698 156.836 150.535 156.727 150.339C156.669 150.235 150.921 139.819 146.835 130.668C144.283 124.954 142.436 124.008 141.931 123.854C141.835 123.819 141.733 123.806 141.632 123.816C141.672 123.793 141.713 123.771 141.755 123.752L140.424 121.632C140.866 121.356 141.686 121.163 142.659 121.459C144.812 122.114 146.987 124.869 149.12 129.646C153.163 138.702 158.859 149.024 158.917 149.127C159.023 149.318 159.077 149.532 159.074 149.75C159.071 149.968 159.011 150.181 158.901 150.369C158.79 150.556 158.633 150.712 158.444 150.82C158.255 150.928 158.041 150.985 157.823 150.985Z" fill="#371A45"/>
<path d="M130.102 149.727C129.881 149.727 129.663 149.668 129.472 149.556C129.28 149.445 129.122 149.284 129.013 149.091L127.351 146.152L117.809 144.81C117.599 144.78 117.4 144.697 117.231 144.568C117.062 144.44 116.928 144.271 116.842 144.077L112.962 135.315C112.896 135.165 112.859 135.003 112.855 134.838C112.851 134.674 112.88 134.511 112.939 134.357C112.998 134.204 113.087 134.064 113.2 133.945C113.314 133.826 113.449 133.73 113.599 133.664C113.75 133.597 113.911 133.561 114.076 133.557C114.24 133.553 114.403 133.581 114.557 133.641C114.71 133.7 114.85 133.789 114.969 133.902C115.088 134.015 115.183 134.151 115.25 134.301L118.849 142.427L128.311 143.761C128.501 143.788 128.682 143.858 128.841 143.966C129 144.073 129.131 144.216 129.226 144.383L131.192 147.858C131.299 148.049 131.355 148.264 131.353 148.482C131.351 148.7 131.292 148.914 131.182 149.103C131.072 149.292 130.915 149.448 130.726 149.557C130.537 149.666 130.322 149.723 130.104 149.724L130.102 149.727Z" fill="#371A45"/>
<path d="M143.38 132.616C141.07 130.045 137.281 129.687 134.921 131.811C134.51 132.179 132.176 134.182 131.912 134.635L140.68 143.467C141.163 143.249 142.882 141.485 143.294 141.113C145.654 138.988 145.693 135.183 143.38 132.616Z" fill="#5AB5FF"/>
<path d="M140.929 143.256C143.289 141.131 143.329 137.325 141.017 134.756C138.706 132.187 134.918 131.827 132.558 133.953C130.197 136.078 130.158 139.883 132.469 142.453C134.781 145.022 138.569 145.381 140.929 143.256Z" fill="#5AB5FF"/>
<g opacity="0.7">
<path d="M134.314 136.99C136.594 134.938 140.195 135.208 142.522 137.538C142.254 136.498 141.737 135.539 141.017 134.741C138.705 132.173 134.918 131.813 132.558 133.939C130.198 136.064 130.158 139.869 132.47 142.437C132.55 142.527 132.637 142.608 132.721 142.692C132.19 140.624 132.722 138.424 134.314 136.99Z" fill="white"/>
</g>
<path d="M137.259 145.662C137.035 145.662 136.81 145.651 136.584 145.63C134.727 145.453 132.992 144.565 131.7 143.129C129.01 140.14 129.084 135.667 131.865 133.166C134.646 130.665 139.097 131.057 141.787 134.046C144.477 137.036 144.404 141.505 141.623 144.009C140.425 145.085 138.869 145.675 137.259 145.662ZM136.239 133.588C135.139 133.576 134.073 133.975 133.251 134.707C131.317 136.446 131.317 139.602 133.24 141.743C134.184 142.791 135.441 143.439 136.779 143.566C138.086 143.69 139.313 143.3 140.236 142.469C142.17 140.729 142.17 137.573 140.247 135.433C139.154 134.218 137.67 133.588 136.239 133.588Z" fill="#371A45"/>
<path d="M140.68 144.504C140.445 144.504 140.218 144.425 140.034 144.278C139.85 144.132 139.722 143.928 139.669 143.699C139.617 143.47 139.644 143.23 139.745 143.018C139.847 142.807 140.018 142.636 140.229 142.534C140.54 142.344 141.632 141.279 142.045 140.876C142.289 140.637 142.488 140.443 142.598 140.344C143.522 139.515 144.038 138.331 144.052 137.02C144.065 135.675 143.553 134.357 142.609 133.309C141.664 132.261 140.409 131.611 139.069 131.484C137.765 131.361 136.536 131.75 135.616 132.581C135.547 132.644 135.429 132.747 135.277 132.88C133.816 134.16 132.981 134.934 132.793 135.182C132.649 135.411 132.42 135.574 132.157 135.636C131.893 135.698 131.616 135.655 131.384 135.515C131.152 135.376 130.984 135.151 130.916 134.889C130.848 134.628 130.884 134.349 131.018 134.114C131.248 133.719 131.978 133.014 133.912 131.321C134.055 131.194 134.168 131.096 134.232 131.039C135.589 129.816 137.382 129.242 139.269 129.421C141.127 129.597 142.861 130.485 144.152 131.923C145.444 133.361 146.146 135.175 146.127 137.041C146.107 138.94 145.348 140.659 143.986 141.883C143.889 141.971 143.71 142.146 143.491 142.36C142.205 143.614 141.557 144.208 141.106 144.411C140.972 144.472 140.827 144.504 140.68 144.504ZM140.253 142.522L140.24 142.528L140.253 142.522ZM132.807 135.157C132.804 135.162 132.801 135.167 132.798 135.172C132.801 135.167 132.804 135.162 132.807 135.157Z" fill="#371A45"/>
<path d="M159.976 141.348C159.383 141.349 158.802 141.182 158.301 140.865C157.8 140.548 157.398 140.096 157.144 139.56L153.89 132.671C153.709 132.289 153.608 131.874 153.592 131.452C153.577 131.029 153.647 130.608 153.799 130.214C153.951 129.82 154.181 129.46 154.475 129.157C154.77 128.854 155.123 128.614 155.513 128.452C162.447 125.562 165.276 122.251 165.304 122.219C165.546 121.928 165.894 121.746 166.27 121.711C166.647 121.676 167.022 121.792 167.313 122.034C167.605 122.275 167.789 122.622 167.825 122.998C167.861 123.375 167.747 123.751 167.507 124.043C167.378 124.199 164.27 127.901 156.612 131.091C156.58 131.104 156.55 131.124 156.525 131.15C156.5 131.175 156.48 131.205 156.467 131.239C156.454 131.272 156.448 131.307 156.45 131.343C156.451 131.379 156.459 131.414 156.474 131.446L159.729 138.335C159.757 138.394 159.805 138.441 159.865 138.467C159.925 138.492 159.992 138.495 160.054 138.473C161.787 137.905 165.107 136.631 167.859 134.477C168.158 134.243 168.537 134.138 168.913 134.184C169.29 134.23 169.632 134.423 169.866 134.722C170.1 135.021 170.205 135.4 170.159 135.777C170.113 136.154 169.92 136.496 169.621 136.73C166.524 139.154 162.852 140.566 160.942 141.192C160.63 141.295 160.304 141.348 159.976 141.348Z" fill="#371A45"/>
<path d="M95.4237 108.162C95.602 109.619 95.68 111.037 95.7353 112.474C95.7905 113.911 95.7919 115.341 95.7656 116.774C95.7021 119.64 95.5025 122.5 95.1668 125.355C94.9686 126.779 94.8076 128.204 94.5341 129.617C94.3089 131.034 93.9884 132.439 93.6769 133.839C92.9862 136.629 92.1311 139.385 90.9575 141.992C91.412 139.165 91.7512 136.371 91.9984 133.567C92.2043 130.758 92.3516 127.952 92.4405 125.152C92.4999 122.345 92.5333 119.54 92.5407 116.736C92.5496 113.938 92.5407 111.112 92.569 108.34V108.319C92.5735 107.956 92.7157 107.608 92.9668 107.346C93.218 107.084 93.5593 106.927 93.9218 106.907C94.2843 106.886 94.641 107.005 94.9197 107.237C95.1983 107.47 95.3783 107.8 95.4231 108.161L95.4237 108.162Z" fill="#371A45"/>
<path d="M68.3863 111.568C68.3739 111.58 68.4195 111.659 68.4464 111.712C68.4733 111.765 68.5155 111.834 68.5493 111.895C68.6239 112.019 68.7013 112.146 68.7869 112.272C68.9541 112.525 69.1399 112.776 69.3326 113.025C69.7293 113.53 70.1519 114.014 70.5987 114.476C71.0546 114.942 71.5339 115.399 72.0389 115.833C72.5438 116.267 73.0749 116.684 73.6151 117.091C72.9568 116.939 72.293 116.772 71.6362 116.569C70.9793 116.366 70.3238 116.135 69.6711 115.874C69.0114 115.605 68.3658 115.303 67.737 114.968C67.4179 114.796 67.1002 114.616 66.7838 114.415C66.625 114.317 66.4675 114.208 66.3086 114.1C66.2278 114.041 66.1497 113.989 66.0669 113.924C65.9717 113.854 65.881 113.778 65.7954 113.697L68.3863 111.568Z" fill="#371A45"/>
<path d="M65.1236 96.898C64.7991 96.898 64.4843 96.7873 64.2312 96.5843C59.3312 92.6632 56.1835 94.1874 56.0523 94.2537C55.8883 94.3443 55.7081 94.4016 55.5219 94.4222C55.3357 94.4427 55.1473 94.4263 54.9675 94.3736C54.7877 94.321 54.6201 94.2334 54.4744 94.1157C54.3286 93.998 54.2076 93.8526 54.1183 93.6879C53.9368 93.3533 53.895 92.9604 54.002 92.5951C54.109 92.2298 54.3562 91.9217 54.6895 91.738C54.8836 91.6309 59.5342 89.1635 66.0174 94.3505C66.2492 94.5358 66.4177 94.7888 66.4993 95.0742C66.581 95.3596 66.5718 95.6634 66.4732 95.9433C66.3745 96.2233 66.1911 96.4657 65.9486 96.6367C65.706 96.8078 65.4162 96.8991 65.1194 96.898H65.1236Z" fill="#371A45"/>
<path d="M191.772 159.839C192.487 164.935 189.806 172.356 182.298 169.137C174.79 165.919 171.079 160.687 169.249 157.783C167.418 154.879 165.227 156.309 161.473 156.084C157.719 155.859 154.949 154.833 157.183 150.898C157.87 149.69 159.038 148.566 160.325 147.59C163.226 145.384 166.749 143.925 166.749 143.925C168.09 138.829 170.206 129.055 170.206 129.055C170.206 129.055 179.959 125.811 188.94 129.545C191.478 130.593 193.774 132.154 195.683 134.129C194.084 143.733 190.345 152.686 190.345 152.686C190.345 152.686 191.057 154.743 191.772 159.839Z" fill="white"/>
<path d="M185.693 171.352C184.561 171.352 183.246 171.1 181.735 170.453C173.253 166.817 169.329 160.592 168.039 158.547C167.237 157.275 166.644 157.266 164.506 157.434C163.605 157.503 162.584 157.585 161.388 157.513C159.146 157.375 156.435 156.971 155.364 154.995C154.666 153.71 154.86 152.093 155.94 150.193C157.993 146.577 163.596 143.781 165.536 142.896C166.857 137.742 168.786 128.846 168.806 128.753C168.859 128.51 168.973 128.285 169.139 128.1C169.305 127.915 169.517 127.777 169.752 127.698C170.423 127.476 186.288 122.363 196.707 133.136C196.863 133.297 196.978 133.491 197.045 133.705C197.111 133.918 197.127 134.145 197.09 134.365C195.675 142.869 192.662 150.746 191.858 152.757C192.12 153.687 192.657 155.858 193.188 159.641C193.661 163.012 192.796 167.69 189.779 169.997C188.858 170.699 187.514 171.352 185.693 171.352ZM165.863 154.498C167.513 154.498 169.126 154.906 170.459 157.019C172.493 160.247 175.992 164.877 182.862 167.822C185.009 168.743 186.752 168.709 188.042 167.722C190.053 166.185 190.728 162.693 190.355 160.038C189.676 155.197 188.996 153.172 188.989 153.153C188.876 152.821 188.888 152.459 189.021 152.135C189.057 152.049 192.53 143.665 194.143 134.619C186.191 127.006 174.498 129.39 171.418 130.197C170.874 132.684 169.233 140.095 168.129 144.292C168.073 144.505 167.969 144.702 167.824 144.868C167.679 145.034 167.498 145.164 167.295 145.249C165.381 146.045 160.056 148.74 158.426 151.606C157.899 152.534 157.694 153.291 157.878 153.63C157.984 153.826 158.563 154.477 161.559 154.656C162.559 154.717 163.434 154.647 164.282 154.581C164.807 154.539 165.337 154.498 165.863 154.498Z" fill="#371A45"/>
<path d="M188.877 153.027L187.778 148.436L191.325 151.549L188.877 153.027Z" fill="#371A45"/>
<g opacity="0.25">
<path d="M191.772 159.841C192.487 164.937 189.807 172.358 182.298 169.139C174.79 165.921 171.08 160.689 169.249 157.785C167.419 154.881 165.228 156.311 161.474 156.086C157.72 155.861 154.949 154.835 157.184 150.9C157.87 149.692 159.039 148.569 160.326 147.592C160.264 148.023 160.139 148.442 159.954 148.836C157.334 154.668 168.177 151.586 172.52 155.638C176.864 159.689 184.623 165.412 185.934 160.047C187.246 154.683 184.383 145.985 184.383 145.985L188.938 129.549C191.476 130.598 193.771 132.158 195.68 134.133C194.082 143.737 190.343 152.691 190.343 152.691C190.343 152.691 191.057 154.745 191.772 159.841Z" fill="#371A45"/>
</g>
<path d="M101.071 141.036C100.373 138.679 99.7094 136.33 99.0677 133.966C98.426 131.603 97.8244 129.235 97.3057 126.85C98.2727 129.087 99.3295 131.279 100.406 133.461C101.482 135.642 102.59 137.814 103.716 139.956L101.071 141.036Z" fill="#371A45"/>
<path d="M85.6845 137.968C74.4437 137.968 63.8487 134.293 63.3154 134.106L64.1443 131.744C64.2963 131.797 79.4425 137.044 92.1877 134.974L92.589 137.444C90.3052 137.804 87.9963 137.979 85.6845 137.968Z" fill="#371A45"/>
<path d="M171.329 73.5109C170.438 74.1707 169.52 74.9011 168.635 75.6273C167.749 76.3534 166.86 77.1066 165.991 77.8728C165.123 78.6391 164.265 79.4192 163.422 80.2221C162.579 81.0249 161.755 81.8458 160.939 82.6832C161.537 81.6807 162.145 80.6795 162.789 79.6963C163.433 78.713 164.087 77.7374 164.767 76.7756C165.446 75.8138 166.141 74.8596 166.856 73.9179C167.572 72.9761 168.292 72.0523 169.08 71.1119C169.23 70.9312 169.416 70.7844 169.627 70.6811C169.838 70.5778 170.068 70.5203 170.302 70.5126C170.537 70.5049 170.77 70.547 170.987 70.6363C171.204 70.7255 171.4 70.8598 171.561 71.0302C171.722 71.2007 171.845 71.4034 171.922 71.6251C172 71.8467 172.029 72.0822 172.008 72.3159C171.987 72.5497 171.917 72.7764 171.803 72.9811C171.688 73.1858 171.531 73.3638 171.342 73.5033L171.329 73.5109Z" fill="#371A45"/>
<g opacity="0.25">
<path d="M80.5869 105.691C80.5869 105.691 89.1671 112.843 82.9706 118.804C82.9706 118.804 88.6415 142.987 78.0596 148.836L94.0533 153.301L96.1945 149.735L103.01 140.043L99.8975 134.132C99.8975 134.132 90.7406 148.856 93.5884 127.751L93.3384 111.279L84.5199 108.674" fill="#371A45"/>
</g>
<g opacity="0.25">
<path d="M195.154 132.952L188.23 129.547C188.23 109.524 166.944 93.8563 154.315 93.9779C148.79 105.207 121.392 116.061 102.24 112.012C120.774 112.081 135.333 105.644 146.287 88.2485L152.929 88.5249C152.929 88.5249 156.957 87.7082 161.644 88.8704C163.592 89.354 165.734 89.893 167.9 90.4437C177.181 94.4885 188.368 106.712 193.745 116.838C195.993 121.068 196.016 127.065 195.154 132.952Z" fill="#371A45"/>
</g>
<g opacity="0.25">
<path d="M93.3652 129.545C95.1963 119.77 99.923 112.285 113.716 111.975L95.0244 111.41L93.3804 114.039" fill="#371A45"/>
</g>
<g opacity="0.25">
<path d="M161.883 71.4629C161.883 71.4629 169.249 72.2105 164.065 78.818L167.938 75.1401C167.938 75.1401 175.803 85.7807 167.938 89.4787L184.797 101.492L171.156 72.9084L165.67 72.3128" fill="#371A45"/>
</g>
<g opacity="0.3">
<path d="M152.535 87.8672C152.535 87.8672 159.235 79.9096 159.418 72.3105L154.323 73.6316L148.245 87.8652" fill="#4D146E"/>
</g>
<g opacity="0.25">
<path d="M168.094 135.162L161.966 139.307L163.739 143.567L157.645 150.19C157.645 150.19 154.86 152.055 143.151 148.831C140.069 147.984 136.466 147.791 132.833 147.969C144.885 143.367 148.309 135.066 143.244 123.129L145.086 121.177L149.466 119.807L151.761 120.44L154.414 123.909L157.092 129.541C157.092 139.916 168.765 132.95 164.331 125.327L166.995 123.538L169.205 128.399L168.094 135.162Z" fill="#371A45"/>
</g>
<g opacity="0.3">
<path d="M166.998 137.459L162.754 139.919L164.876 144.803L166.508 143.158" fill="#4D146E"/>
</g>
<g opacity="0.25">
<path d="M158.21 114.076C158.21 114.076 163.617 119.88 157.182 127.208L157.821 128.46L165.67 123.135L163.171 118.969" fill="#371A45"/>
</g>
<path d="M128.007 164.522L127.996 164.427C128.731 164.276 129.458 164.088 130.174 163.861C129.674 164.091 128.954 164.31 128.007 164.522Z" fill="#FF9100"/>
<path d="M127.983 164.332L127.996 164.426C127.98 164.43 127.963 164.433 127.947 164.437L127.983 164.332Z" fill="#FF9100"/>
<path d="M127.996 164.427C128.731 164.276 129.458 164.088 130.174 163.861C129.674 164.091 128.954 164.31 128.007 164.522L127.996 164.427Z" fill="#FFEC90"/>
<path d="M127.983 164.331L127.959 164.142L128.052 164.121C128.03 164.192 128.007 164.261 127.983 164.331Z" fill="#FFEC90"/>
<path d="M127.866 164.646L127.848 164.456L127.947 164.436C127.921 164.506 127.894 164.576 127.866 164.646Z" fill="#FFEC90"/>
<path d="M66.8108 96.2605C73.5299 102.864 81.8436 107.614 90.9426 110.048C92.8635 110.564 94.8104 110.977 96.7751 111.285C97.7421 111.44 98.7209 111.565 99.7107 111.673C108.103 112.548 116.585 111.521 124.526 108.667C125.533 108.302 126.528 107.91 127.51 107.493C145.473 99.8472 158.97 83.1076 161.381 62.5395C164.939 32.2393 143.094 5.11341 112.595 1.94334C106.866 1.34542 101.08 1.6344 95.4386 2.80011C94.7941 2.92794 94.1497 3.07649 93.5101 3.23472C91.7952 3.64929 90.1105 4.14285 88.456 4.71542C80.8588 7.35091 73.9065 11.5677 68.0576 17.0875C67.1366 17.9572 66.2435 18.8584 65.3783 19.7912C64.0812 21.1931 62.8567 22.6605 61.7098 24.1877C55.7869 32.0309 52.0641 41.3134 50.9255 51.0767C48.8775 68.5093 55.237 84.8854 66.8108 96.2605Z" fill="white"/>
<path d="M105.525 112.139C103.578 112.139 101.631 112.039 99.694 111.838C98.6075 111.719 97.644 111.592 96.7488 111.449C94.7786 111.139 92.8261 110.725 90.8997 110.209C81.7765 107.758 73.4395 102.995 66.6947 96.3788C54.5828 84.4751 48.7752 67.9573 50.7611 51.0602C52.1609 39.3324 57.2352 28.3486 65.2573 19.6822C66.1062 18.7632 67.0103 17.8505 67.9442 16.9695C73.8104 11.4338 80.7829 7.20488 88.4021 4.56145C90.0536 3.99142 91.7597 3.49186 93.4706 3.0766C94.1427 2.9087 94.794 2.76153 95.4046 2.64061C101.062 1.47147 106.866 1.18225 112.612 1.78315C127.467 3.32604 140.74 10.5368 149.986 22.0873C159.159 33.5474 163.265 47.9205 161.545 62.5603C159.214 82.4431 146.198 99.7202 127.575 107.65C126.595 108.064 125.589 108.459 124.583 108.824C119.432 110.676 114.038 111.766 108.573 112.058C107.561 112.112 106.546 112.139 105.525 112.139ZM66.9268 96.1425C73.6308 102.718 81.9173 107.453 90.9854 109.889C92.9007 110.402 94.8418 110.814 96.8006 111.122C97.6909 111.265 98.649 111.391 99.7286 111.508C108.096 112.38 116.553 111.356 124.47 108.512C125.47 108.148 126.473 107.752 127.446 107.343C145.957 99.4604 158.899 82.2855 161.217 62.5203C162.925 47.9696 158.845 33.6828 149.728 22.2933C140.537 10.8118 127.344 3.64456 112.578 2.11066C106.866 1.51467 101.096 1.80295 95.4723 2.96536C94.8638 3.08558 94.218 3.23137 93.55 3.39789C91.8474 3.81246 90.1524 4.30787 88.5078 4.87514C80.9327 7.50232 74.0007 11.7066 68.1694 17.2106C67.2411 18.0868 66.3424 18.994 65.4977 19.9053C64.2037 21.3033 62.9818 22.7663 61.8368 24.2887C55.9405 32.1137 52.2294 41.3658 51.0836 51.0975C49.1164 67.8931 54.8888 84.3114 66.9268 96.1425Z" fill="#371A45"/>
<g opacity="0.25">
<path d="M161.379 62.5379C158.97 83.1068 145.471 99.8484 127.508 107.497C126.527 107.912 125.533 108.303 124.527 108.672C116.584 111.521 108.103 112.549 99.7096 111.68C98.7211 111.568 97.741 111.445 96.774 111.293C94.8097 110.982 92.8631 110.568 90.9422 110.053C83.9564 108.182 77.4117 104.942 71.6884 100.52C65.9651 96.0976 61.1773 90.5819 57.603 84.2931C64.1596 90.4447 72.1348 94.8793 80.819 97.2021C82.7396 97.7195 84.6865 98.1335 86.6514 98.4424C87.6184 98.5964 88.5951 98.7188 89.587 98.8293C97.9792 99.7042 106.461 98.6757 114.401 95.8202C115.41 95.4517 116.405 95.0602 117.386 94.6456C135.349 87.0003 148.845 70.2627 151.257 49.6891C152.667 37.6887 150.088 26.1871 144.569 16.4766C156.73 27.8738 163.481 44.6534 161.379 62.5379Z" fill="#371A45"/>
</g>
<path d="M105.526 113.249C103.54 113.249 101.555 113.146 99.5794 112.941C98.4687 112.821 97.4879 112.691 96.5733 112.545C94.5658 112.229 92.5762 111.806 90.6131 111.28C81.3046 108.78 72.7984 103.92 65.9169 97.1699C53.5592 85.0244 47.6335 68.1708 49.6594 50.931C51.0878 38.9708 56.2618 27.7691 64.4409 18.929C65.3077 17.9914 66.2298 17.0634 67.1817 16.1652C73.1618 10.5194 80.2707 6.20632 88.0394 3.5105C89.7248 2.92803 91.4641 2.4188 93.2095 1.99525C93.8913 1.82459 94.5613 1.67396 95.1912 1.54959C100.957 0.359708 106.871 0.0655983 112.726 0.677612C127.878 2.25159 141.419 9.60812 150.854 21.3929C160.213 33.0831 164.401 47.7512 162.647 62.6888C160.27 82.9654 146.998 100.584 128.01 108.669C127.009 109.092 125.985 109.494 124.961 109.866C119.707 111.755 114.206 112.866 108.631 113.164C107.601 113.221 106.564 113.249 105.526 113.249ZM67.7038 95.3534C74.2716 101.796 82.3897 106.434 91.2734 108.82C93.1503 109.323 95.0525 109.726 96.9719 110.028C97.8477 110.167 98.7878 110.292 99.8494 110.408C108.049 111.262 116.335 110.257 124.094 107.47C125.072 107.115 126.055 106.729 127.011 106.324C145.158 98.5974 157.842 81.7645 160.113 62.3938C161.787 48.1395 157.79 34.1458 148.86 22.9897C139.855 11.7418 126.929 4.71966 112.459 3.21754C106.863 2.63267 101.21 2.91396 95.6996 4.05151C95.0993 4.17036 94.4708 4.312 93.8208 4.47437C92.1451 4.88134 90.4832 5.36777 88.8738 5.92536C81.4477 8.50065 74.6519 12.6218 68.9347 18.017C68.0243 18.8765 67.1437 19.7657 66.3162 20.6605C65.0491 22.0302 63.8528 23.4637 62.732 24.9555C56.9533 32.6238 53.3163 41.6909 52.1936 51.2281C50.2596 67.6795 55.9146 83.7614 67.7059 95.3506L67.7038 95.3534Z" fill="#371A45"/>
<path d="M105.526 113.62C103.527 113.62 101.529 113.516 99.5412 113.31C98.4222 113.188 97.4352 113.058 96.5145 112.91C94.4943 112.592 92.4923 112.168 90.5169 111.638C81.1471 109.122 72.5848 104.229 65.6577 97.4345C53.2178 85.2082 47.2527 68.2427 49.2917 50.8881C50.475 40.8384 54.3074 31.2839 60.3965 23.2032C61.5766 21.6326 62.8361 20.1232 64.1699 18.681C65.043 17.7371 65.9713 16.8002 66.9287 15.8964C72.9472 10.2164 80.1013 5.87737 87.9191 3.16571C89.6155 2.57979 91.3658 2.06711 93.1223 1.64079C93.8075 1.46944 94.4837 1.31743 95.1192 1.19167C100.921 -0.00703747 106.872 -0.303715 112.764 0.312099C128.016 1.89575 141.644 9.30133 151.14 21.1635C160.563 32.9345 164.78 47.6959 163.014 62.7337C160.622 83.1423 147.265 100.874 128.154 109.011C127.148 109.437 126.117 109.841 125.087 110.216C119.798 112.117 114.26 113.234 108.648 113.532C107.613 113.59 106.573 113.62 105.526 113.62ZM67.9627 95.0881C74.4849 101.485 82.5466 106.091 91.3686 108.461C93.2341 108.96 95.1247 109.361 97.0325 109.661C97.9028 109.799 98.8367 109.923 99.8921 110.038C108.036 110.886 116.267 109.889 123.974 107.12C124.945 106.767 125.922 106.384 126.875 105.981C144.898 98.3072 157.497 81.5904 159.753 62.3489C161.416 48.1934 157.447 34.2964 148.578 23.2184C139.629 12.0485 126.794 5.07549 112.425 3.58028C106.865 2.99898 101.248 3.27864 95.7726 4.40942C95.174 4.52826 94.5523 4.6683 93.9077 4.82952C92.241 5.23856 90.588 5.72222 88.9925 6.27498C81.6162 8.83422 74.866 12.9282 69.1867 18.2871C68.2818 19.1411 67.4073 20.0242 66.5854 20.9127C58.8249 29.2991 53.9149 39.926 52.5582 51.273C50.6386 67.6098 56.2535 83.5803 67.9613 95.0888L67.9627 95.0881Z" fill="#371A45"/>
<path d="M78.0824 104.772C115.777 116.809 153.666 88.4514 144.764 50.5253C138.707 24.7225 108.49 10.9885 83.8099 18.6422C65.8511 24.2147 50.6738 37.4215 51.4357 67.3402C51.4357 67.3402 53.8353 80.5083 59.8625 87.9222C65.8898 95.3361 73.0326 101.521 73.0326 101.521L78.0824 104.772Z" fill="#371A45"/>
<path d="M144.762 50.5265C153.666 88.4513 115.774 116.809 78.0823 104.774L77.0601 104.114C113.246 99.6827 141.409 68.8836 133.129 30.3633C138.724 35.7499 142.892 42.564 144.762 50.5265Z" fill="#220F2D"/>
<path d="M105.525 113.619C103.526 113.619 101.529 113.516 99.5412 113.31C98.4222 113.188 97.4352 113.057 96.5145 112.91C94.4943 112.592 92.4923 112.167 90.5169 111.638C81.1471 109.121 72.5848 104.229 65.6577 97.4343C53.2178 85.208 47.2527 68.2425 49.2917 50.8879C50.475 40.8382 54.3074 31.2837 60.3965 23.203L60.498 23.0648L60.6251 22.9536C66.1792 18.0782 73.1908 14.3057 81.4643 11.7388C96.357 7.11842 113.631 9.15879 127.674 17.1973C140.32 24.4384 148.985 35.6518 152.062 48.7681C155.412 63.0431 153.241 76.8109 145.785 88.5847C137.863 101.091 124.422 110.175 108.907 113.497L108.781 113.524L108.653 113.531C107.615 113.59 106.573 113.619 105.525 113.619ZM67.9627 95.0879C74.4849 101.485 82.5466 106.091 91.3686 108.46C93.2341 108.96 95.1247 109.361 97.0325 109.661C97.9028 109.799 98.8367 109.923 99.8921 110.038C102.701 110.33 105.528 110.403 108.349 110.256C122.952 107.094 135.581 98.5606 143.012 86.8269C149.984 75.8166 152.008 62.9201 148.866 49.5233C145.997 37.3018 137.892 26.836 126.042 20.053C112.78 12.4608 96.4792 10.5276 82.4416 14.8826C74.6758 17.2919 68.1105 20.802 62.9245 25.3159C57.2456 32.9035 53.6714 41.8572 52.5637 51.2707C50.6442 67.6075 56.2591 83.5781 67.9668 95.0865L67.9627 95.0879Z" fill="#371A45"/>
<path d="M95.8735 108.614C89.7263 108.607 83.6172 107.648 77.7634 105.771L77.6315 105.729L72.353 102.316C72.2839 102.253 65.0755 95.9854 59.0572 88.5861C52.927 81.0506 50.5088 68.0801 50.4087 67.5315L50.3921 67.3698C49.7304 41.3964 60.8704 24.6692 83.5026 17.6457C96.6457 13.5691 111.891 15.3698 124.283 22.4637C135.436 28.8474 143.071 38.7286 145.785 50.2868C149.722 67.0527 144.867 83.245 132.465 94.7148C122.642 103.795 109.531 108.614 95.8735 108.614ZM78.5315 103.816C97.3751 109.785 117.483 105.713 131.04 93.1753C142.872 82.2335 147.502 66.7756 143.743 50.765C141.164 39.7789 133.883 30.373 123.239 24.2809C111.341 17.4702 96.7155 15.738 84.1201 19.6453C62.5164 26.3475 51.8716 42.3589 52.4801 67.2316C52.6874 68.3143 55.1242 80.4363 60.6777 87.2636C66.3029 94.1786 72.994 100.095 73.6633 100.684L78.5315 103.816Z" fill="#371A45"/>
<path d="M167.713 40.9876C171.462 51.1681 168.518 61.9703 161.137 65.1148C153.756 68.2593 144.733 62.5542 140.986 52.3738C140.961 52.3109 140.937 52.2425 140.916 52.1775C137.275 42.0551 140.232 31.3689 147.562 28.2472C153.264 25.8179 159.945 28.6701 164.416 34.785C165.797 36.6897 166.907 38.7772 167.713 40.9876Z" fill="white"/>
<g opacity="0.25">
<path d="M167.713 40.9878C171.462 51.1682 168.519 61.9705 161.137 65.115C153.756 68.2595 144.733 62.5544 140.986 52.3739C140.961 52.3111 140.937 52.2426 140.917 52.1777C142.113 52.8762 143.755 53.3675 145.337 52.2917C148.11 50.4061 151.078 41.5689 151.078 41.5689C151.078 41.5689 156.843 38.5895 164.417 34.7852C165.798 36.69 166.907 38.7775 167.713 40.9878Z" fill="#371A45"/>
</g>
<path d="M156.883 67.6318C155.018 67.6318 153.112 67.2221 151.219 66.404C146.064 64.1771 141.771 59.2713 139.442 52.9415C135.401 41.9672 138.755 30.2094 146.919 26.7325C150.226 25.3237 153.879 25.4017 157.482 26.9584C162.636 29.1847 166.928 34.0911 169.258 40.4188C173.299 51.3924 169.945 63.151 161.781 66.6272C160.233 67.2904 158.567 67.6322 156.883 67.6318ZM151.817 29.0292C150.576 29.0264 149.348 29.2758 148.207 29.7623C141.631 32.5634 139.084 42.4523 142.529 51.807C144.519 57.2123 148.255 61.5404 152.522 63.3838C155.277 64.5737 158.033 64.6497 160.493 63.6029C167.069 60.8018 169.615 50.9129 166.172 41.5582C164.181 36.1529 160.445 31.8248 156.177 29.9813C154.709 29.3443 153.24 29.0264 151.817 29.0264V29.0292Z" fill="#371A45"/>
<path d="M163.406 62.7983C169.729 61.1683 173.107 53.0648 170.951 44.6987C168.796 36.3325 161.923 30.8717 155.6 32.5017C149.278 34.1317 145.9 42.2353 148.056 50.6014C150.211 58.9676 157.084 64.4284 163.406 62.7983Z" fill="white"/>
<path d="M160.994 62.1611C160.589 62.1609 160.185 62.1357 159.783 62.0858C153.046 61.2608 147.333 53.6473 147.048 45.1141C146.89 40.3576 148.43 36.1317 151.279 33.5275C153.397 31.5881 156 30.7451 158.804 31.0885C165.541 31.9135 171.254 39.527 171.539 48.0603C171.697 52.8174 170.157 57.0426 167.307 59.6475C165.497 61.3037 163.334 62.1611 160.994 62.1611ZM157.596 31.3566C155.34 31.3566 153.256 32.1857 151.512 33.7797C148.738 36.3183 147.237 40.4453 147.392 45.1016C147.668 53.4725 153.248 60.9375 159.825 61.7431C162.525 62.0741 165.033 61.2594 167.078 59.3939C169.85 56.8553 171.352 52.729 171.197 48.072C170.921 39.7012 165.341 32.2355 158.764 31.4305C158.377 31.382 157.987 31.3573 157.596 31.3566Z" fill="#371A45"/>
<g opacity="0.26">
<path d="M151.126 56.6881C149.45 54.2518 148.447 51.3429 148.109 48.3863C152.406 53.6161 158.841 54.0051 162.95 49.069C165.607 45.8809 166.68 41.1998 166.152 36.625C166.429 36.9532 166.688 37.307 166.943 37.6759C171.209 43.882 171.126 53.1684 166.757 58.4182C162.388 63.668 155.39 62.8893 151.126 56.6881Z" fill="#371A45"/>
</g>
<path d="M161.651 63.5103C160.258 63.5103 158.827 63.2042 157.401 62.5913C153.226 60.7949 149.565 56.511 147.605 51.1216C144.239 41.867 146.644 32.4225 153.08 29.6214C155.546 28.5483 158.291 28.6008 161.02 29.7734C165.195 31.5698 168.857 35.8537 170.815 41.2431C174.182 50.5018 171.777 59.9422 165.341 62.7433C164.177 63.2511 162.921 63.5123 161.651 63.5103ZM156.77 32.1516C155.952 32.1484 155.142 32.3149 154.392 32.6408C149.708 34.6791 148.015 42.6284 150.696 49.9988C152.35 54.5487 155.343 58.1257 158.699 59.5684C160.573 60.3734 162.416 60.428 164.029 59.7253C168.713 57.687 170.406 49.7376 167.725 42.3673C166.067 37.8181 163.079 34.2403 159.722 32.7983C158.719 32.3672 157.727 32.1516 156.77 32.1516Z" fill="#371A45"/>
<g opacity="0.5">
<path d="M99.8741 24.6781C99.8741 24.6781 76.4744 30.3943 67.6124 47.7834L67.5848 47.838C65.7198 51.5 65.228 58.6437 65.476 62.7141C65.8034 68.0973 66.825 71.7503 67.85 74.9301C70.9707 84.5985 74.2641 88.5286 74.2641 88.5286C67.0495 85.2466 62.0383 80.477 59.361 72.4495C59.0986 71.6577 58.8575 70.8327 58.6378 69.9746C58.5867 69.7777 58.5404 69.5807 58.4997 69.3817C58.4949 69.3817 58.4956 69.3769 58.4997 69.3693C58.0923 67.1279 57.8213 64.8639 57.6881 62.5897C57.2156 54.5284 58.356 43.4373 66.3346 35.8445C81.248 21.6476 100.354 23.404 99.8741 24.6781Z" fill="white"/>
</g>
<g opacity="0.5">
<path d="M129.803 49.6735C133.233 47.3957 133.893 42.3542 131.277 38.413C128.662 34.4717 123.761 33.1233 120.331 35.4011C116.901 37.6789 116.241 42.7204 118.857 46.6616C121.472 50.6028 126.373 51.9513 129.803 49.6735Z" fill="white"/>
</g>
<g opacity="0.5">
<path d="M135.783 58.3369C137.106 57.2691 137.183 55.1708 135.956 53.6502C134.729 52.1296 132.662 51.7625 131.34 52.8303C130.017 53.8981 129.94 55.9964 131.167 57.517C132.394 59.0376 134.461 59.4047 135.783 58.3369Z" fill="white"/>
</g>
<rect x="103.813" y="160.273" width="49.0454" height="10.6304" fill="#221827"/>
<path d="M178.876 21.0447C177.633 17.696 178.437 18.4973 175.088 17.2567C178.437 16.0134 177.636 16.8174 178.876 13.4688C180.12 16.8174 179.316 16.0162 182.664 17.2567C179.316 18.4973 180.117 17.696 178.876 21.0447Z" fill="white"/>
</g>
<defs>
<clipPath id="clip0_116_9075">
<rect width="197.816" height="200.342" fill="white"/>
</clipPath>
</defs>
</svg>
