<svg width="21" height="20" viewBox="0 0 21 20" fill="none" xmlns="http://www.w3.org/2000/svg">
<path d="M2.22537 3.8334C2.89204 0.950065 7.23371 0.950065 7.89204 3.8334C8.28371 5.52507 7.20871 6.9584 6.27537 7.85007C5.59204 8.50007 4.51704 8.49173 3.83371 7.85007C2.90871 6.9584 1.83371 5.52507 2.22537 3.8334Z" stroke="#292D32" stroke-width="1.5"/>
<path d="M13.0593 13.8334C13.726 10.9501 18.0926 10.9501 18.7593 13.8334C19.151 15.5251 18.076 16.9584 17.1343 17.8501C16.451 18.5001 15.3676 18.4917 14.6843 17.8501C13.7426 16.9584 12.6676 15.5251 13.0593 13.8334Z" stroke="#292D32" stroke-width="1.5"/>
<path d="M10.4994 4.16699H12.7328C14.2744 4.16699 14.9911 6.07533 13.8328 7.09199L7.17443 12.917C6.01609 13.9253 6.73276 15.8337 8.26609 15.8337H10.4994" stroke="#292D32" stroke-width="1.5" stroke-linecap="round" stroke-linejoin="round"/>
<path d="M5.07111 4.58366H5.08074" stroke="#292D32" stroke-width="2" stroke-linecap="round" stroke-linejoin="round"/>
<path d="M15.9051 14.5837H15.9147" stroke="#292D32" stroke-width="2" stroke-linecap="round" stroke-linejoin="round"/>
</svg>
