<svg width="42" height="42" viewBox="0 0 42 42" fill="none" xmlns="http://www.w3.org/2000/svg">
<path d="M20.9997 39.8296C19.0922 39.8296 17.2022 39.2696 15.7147 38.1671L8.1897 32.5496C6.1947 31.0621 4.63721 27.9646 4.63721 25.4796V12.4771C4.63721 9.7821 6.61474 6.9121 9.15224 5.9671L17.8847 2.69461C19.6172 2.04711 22.3472 2.04711 24.0797 2.69461L32.8297 5.9671C35.3672 6.9121 37.3447 9.7821 37.3447 12.4771V25.4796C37.3447 27.9646 35.7872 31.0621 33.7922 32.5496L26.2672 38.1671C24.7972 39.2696 22.9072 39.8296 20.9997 39.8296ZM18.8122 5.1446L10.0797 8.41709C8.57473 8.97709 7.26221 10.8671 7.26221 12.4771V25.4796C7.26221 27.1421 8.43473 29.4696 9.74723 30.4496L17.2722 36.0671C19.2847 37.5721 22.6972 37.5721 24.7097 36.0671L32.2347 30.4496C33.5647 29.4521 34.7197 27.1246 34.7197 25.4796V12.4771C34.7197 10.8846 33.4072 8.99459 31.9022 8.41709L23.1697 5.1446C22.0147 4.7071 19.9847 4.7071 18.8122 5.1446Z" fill="#3A3A3A"/>
<path d="M20.9998 20.4218C20.9648 20.4218 20.9298 20.4218 20.8773 20.4218C18.3398 20.3518 16.4849 18.4093 16.4849 16.0468C16.4849 13.6318 18.4623 11.6543 20.8773 11.6543C23.2923 11.6543 25.2698 13.6318 25.2698 16.0468C25.2523 18.4268 23.3973 20.3518 21.0348 20.4393C21.0173 20.4218 21.0173 20.4218 20.9998 20.4218ZM20.8773 14.2793C19.8973 14.2793 19.1099 15.0668 19.1099 16.0468C19.1099 17.0093 19.8624 17.7793 20.8074 17.8143C20.8074 17.8143 20.8948 17.8143 20.9998 17.8143C21.9273 17.7618 22.6448 16.9918 22.6448 16.0468C22.6623 15.0668 21.8573 14.2793 20.8773 14.2793Z" fill="#3A3A3A"/>
<path d="M20.9994 30.3622C19.4944 30.3622 17.9719 29.9597 16.7994 29.1722C15.6269 28.4022 14.9619 27.2647 14.9619 26.0572C14.9619 24.8497 15.6269 23.7122 16.7994 22.9247C19.1619 21.3497 22.8544 21.3672 25.1994 22.9247C26.3719 23.6947 27.037 24.8322 27.037 26.0397C27.037 27.2472 26.3719 28.3847 25.1994 29.1722C24.0269 29.9597 22.5044 30.3622 20.9994 30.3622ZM18.2519 25.0947C17.8144 25.3747 17.5694 25.7247 17.5869 26.0397C17.5869 26.3547 17.8319 26.7047 18.2519 26.9847C19.7219 27.9647 22.2769 27.9647 23.7469 26.9847C24.1844 26.7047 24.4294 26.3547 24.4294 26.0397C24.4294 25.7247 24.1844 25.3747 23.7644 25.0947C22.2944 24.1322 19.7219 24.1322 18.2519 25.0947Z" fill="#3A3A3A"/>
</svg>
