<svg width="159" height="141" viewBox="0 0 159 141" fill="none" xmlns="http://www.w3.org/2000/svg">
<path d="M144.764 124.846C146.358 124.538 147.616 124.054 148.51 123.387L148.36 123.186C148.916 122.771 149.315 122.288 149.56 121.737C149.805 121.185 149.896 120.565 149.832 119.875L150.081 119.851C149.977 118.741 149.493 117.483 148.652 116.094L148.438 116.223C147.831 115.218 147.031 114.138 146.046 112.99L146.236 112.827C145.426 111.882 144.495 110.895 143.447 109.867L143.272 110.046C142.365 109.157 141.371 108.238 140.291 107.291L140.456 107.103C139.484 106.25 138.443 105.374 137.336 104.477L137.179 104.671C136.172 103.855 135.111 103.022 133.997 102.173L134.148 101.974C133.107 101.18 132.019 100.372 130.887 99.5507L130.74 99.7531C129.675 98.9808 128.571 98.1968 127.428 97.4021L127.571 97.1969C126.485 96.4418 125.365 95.677 124.212 94.9034L124.072 95.111C122.972 94.3727 121.84 93.6261 120.68 92.872L120.816 92.6624C119.7 91.9375 118.557 91.2057 117.388 90.4675L117.255 90.6789C116.127 89.9671 114.975 89.2494 113.8 88.5262L113.931 88.3133C112.791 87.6123 111.629 86.9062 110.446 86.1955L110.317 86.4098C109.176 85.7242 108.014 85.0344 106.833 84.3405L106.96 84.125C105.808 83.4485 104.638 82.7682 103.45 82.0846L103.326 82.3013C102.165 81.6336 100.988 80.9628 99.7938 80.289L99.9167 80.0713C98.7468 79.4112 97.5611 78.7484 96.3599 78.0832L96.2387 78.3019C95.0641 77.6513 93.8747 76.9985 92.671 76.3437L92.7905 76.1241C91.614 75.484 90.4239 74.8421 89.2206 74.1985L89.1027 74.419C87.9183 73.7855 86.721 73.1505 85.5114 72.5141L85.6278 72.2929C84.4348 71.6653 83.2297 71.0364 82.013 70.4065L81.8981 70.6285C80.7057 70.0112 79.5021 69.3929 78.2876 68.7739L78.4012 68.5512C77.2031 67.9406 75.9946 67.3292 74.7759 66.7174L74.6637 66.9409C73.4584 66.3358 72.2431 65.7303 71.0183 65.1245L71.1291 64.9004C69.9219 64.3034 68.7055 63.7062 67.48 63.109L67.3705 63.3337C66.1607 62.7442 64.9422 62.1546 63.7152 61.5652L63.8235 61.3399C62.6059 60.755 61.3801 60.1704 60.1462 59.5862L60.0393 59.8122C58.8215 59.2356 57.5959 58.6594 56.3629 58.0838L56.4686 57.8573C55.2468 57.2869 54.0176 56.7172 52.7814 56.1482L52.6769 56.3753C51.4487 55.81 50.2135 55.2455 48.9716 54.682L49.075 54.4543C47.8475 53.8973 46.6135 53.3413 45.3733 52.7863L45.2712 53.0145C44.6513 52.7372 44.0299 52.4601 43.4069 52.1833C42.7839 51.9065 42.1617 51.631 41.5403 51.3569L41.6412 51.1282C40.3981 50.5798 39.1584 50.0368 37.9223 49.4993L37.8226 49.7285C36.572 49.1847 35.3251 48.6464 34.0824 48.1139L34.1809 47.8841C32.93 47.3481 31.6833 46.8178 30.4411 46.2934L30.3438 46.5237C29.0902 45.9944 27.8411 45.4712 26.597 44.9539L26.6929 44.7231C25.4324 44.199 24.1769 43.6812 22.9268 43.1697L22.8321 43.4011C21.5723 42.8856 20.318 42.3765 19.0696 41.8739L19.1629 41.6419C17.8984 41.1328 16.6398 40.6304 15.3876 40.1347L15.2956 40.3672C14.0251 39.8642 12.7611 39.3683 11.5042 38.8794L11.5948 38.6464C10.3239 38.1521 9.06018 37.665 7.80402 37.1852L7.71482 37.4188C6.44143 36.9324 5.17583 36.4537 3.91846 35.9825L4.00617 35.7484C2.7232 35.2677 1.44877 34.795 0.183364 34.3303L0.0971953 34.565C-1.18585 34.0939 -2.4596 33.6311 -3.7236 33.1767L-3.63902 32.9414C-4.92318 32.4798 -6.19729 32.0269 -7.46082 31.5829L-7.54372 31.8187C-8.8365 31.3644 -10.1182 30.9193 -11.3883 30.4837L-11.3072 30.2472C-12.606 29.8017 -13.8927 29.366 -15.1667 28.9403L-15.2459 29.1774C-16.5462 28.7429 -17.8333 28.3188 -19.1065 27.9053L-19.0292 27.6675C-20.3329 27.2441 -21.622 26.8317 -22.896 26.4306L-22.9711 26.669C-24.2776 26.2576 -25.5681 25.8581 -26.8419 25.4706L-26.7692 25.2314C-28.0898 24.8296 -29.3926 24.4407 -30.6766 24.0649L-30.7468 24.3049C-32.0715 23.9172 -33.3761 23.5435 -34.66 23.184L-34.5926 22.9432C-35.9241 22.5704 -37.2332 22.2128 -38.5191 21.8707L-38.5833 22.1123C-39.9209 21.7564 -41.2331 21.4173 -42.5189 21.0953L-42.4582 20.8528C-43.8054 20.5155 -45.1237 20.1968 -46.4119 19.8972L-46.4685 20.1407C-47.8241 19.8255 -49.1461 19.5314 -50.4331 19.2588L-50.3813 19.0142C-51.7494 18.7244 -53.0781 18.4589 -54.3657 18.2181L-54.4116 18.4639C-55.7889 18.2063 -57.1187 17.9772 -58.3989 17.7769L-58.3602 17.5299C-59.7674 17.3099 -61.1151 17.1246 -62.4004 16.975L-62.4293 17.2233C-63.8559 17.0572 -65.2045 16.9352 -66.4714 16.8581L-66.4562 16.6086C-67.9212 16.5195 -69.2784 16.4902 -70.522 16.5223L-70.5155 16.7722C-72.0275 16.8112 -73.3649 16.9415 -74.5184 17.1643L-74.5658 16.9188C-76.1602 17.2268 -77.4182 17.7107 -78.3117 18.3778L-78.1622 18.5781C-78.718 18.9931 -79.1171 19.4761 -79.3622 20.0276C-79.6073 20.5792 -79.6982 21.1992 -79.6335 21.8898L-79.8825 21.9131C-79.7785 23.0234 -79.2945 24.2813 -78.4542 25.6709L-78.2403 25.5415C-77.6324 26.5469 -76.8327 27.6267 -75.8482 28.7748L-76.038 28.9376C-75.2283 29.8819 -74.2968 30.8695 -73.2488 31.8969L-73.0737 31.7184C-72.1674 32.6069 -71.1728 33.526 -70.0934 34.4733L-70.2583 34.6612C-69.2857 35.5147 -68.2449 36.3906 -67.1383 37.2874L-66.9809 37.0932C-65.9743 37.909 -64.9129 38.7422 -63.7986 39.5917L-63.9501 39.7905C-62.9084 40.5846 -61.8208 41.3926 -60.6887 42.2137L-60.5419 42.0113C-59.477 42.7837 -58.3726 43.5676 -57.23 44.3623L-57.3727 44.5675C-56.287 45.3226 -55.1669 46.0874 -54.0135 46.861L-53.8742 46.6534C-52.7734 47.3918 -51.6423 48.1383 -50.4816 48.8924L-50.6178 49.102C-49.5021 49.8269 -48.3592 50.5587 -47.19 51.2969L-47.0565 51.0855C-45.9292 51.7973 -44.7773 52.515 -43.6017 53.2382L-43.7327 53.4511C-42.5932 54.1521 -41.4314 54.8582 -40.248 55.569L-40.1193 55.3547C-38.9779 56.0402 -37.8164 56.7301 -36.6353 57.4239L-36.762 57.6394C-35.6104 58.316 -34.4402 58.9962 -33.2522 59.6799L-33.1275 59.4632C-31.9672 60.1308 -30.7898 60.8017 -29.5957 61.4754L-29.7186 61.6931C-28.5487 62.3532 -27.363 63.016 -26.1618 63.6813L-26.0406 63.4626C-24.866 64.1131 -23.6766 64.7659 -22.4729 65.4207L-22.5924 65.6404C-21.4159 66.2804 -20.2258 66.9223 -19.0225 67.5659L-18.9046 67.3454C-17.7202 67.9789 -16.5229 68.614 -15.3133 69.2503L-15.4297 69.4716C-14.2367 70.0992 -13.0316 70.728 -11.8149 71.3579L-11.7 71.1359C-10.5076 71.7532 -9.30397 72.3715 -8.08953 72.9905L-8.20305 73.2132C-7.00503 73.8239 -5.79649 74.4352 -4.57779 75.047L-4.46563 74.8236C-3.26031 75.4286 -2.04505 76.0342 -0.820182 76.6399L-0.931008 76.864C0.276145 77.461 1.49262 78.0582 2.71807 78.6554L2.82759 78.4307C4.03737 79.0203 5.2559 79.6098 6.48287 80.1992L6.37463 80.4245C7.59217 81.0094 8.81802 81.594 10.0518 82.1782L10.1588 81.9522C11.3766 82.5288 12.6022 83.105 13.8352 83.6806L13.7295 83.9071C14.9513 84.4775 16.1805 85.0472 17.4167 85.6162L17.5212 85.3891C18.7494 85.9544 19.9846 86.5189 21.2265 87.0824L21.1231 87.3101C22.3506 87.8671 23.5846 88.4231 24.8248 88.9781L24.9269 88.7499C25.5468 89.0272 26.1682 89.3043 26.7912 89.5811C27.4142 89.8579 28.0364 90.1334 28.6578 90.4075L28.5569 90.6362C29.8 91.1846 31.0397 91.7276 32.2758 92.2652L32.3755 92.0359C33.6261 92.5798 34.873 93.118 36.1157 93.6505L36.0172 93.8803C37.2681 94.4164 38.5148 94.9466 39.757 95.471L39.8543 95.2407C41.1079 95.77 42.357 96.2932 43.6011 96.8105L43.5052 97.0413C44.7657 97.5654 46.0212 98.0832 47.2713 98.5947L47.366 98.3634C48.6258 98.8789 49.8801 99.388 51.1285 99.8906L51.0351 100.122C52.2997 100.632 53.5583 101.134 54.8105 101.63L54.9025 101.397C56.173 101.9 57.437 102.396 58.6939 102.885L58.6033 103.118C59.8742 103.612 61.1379 104.099 62.3941 104.579L62.4833 104.346C63.7567 104.832 65.0223 105.311 66.2796 105.782L66.1919 106.016C67.4749 106.497 68.7493 106.969 70.0147 107.434L70.1009 107.199C71.3839 107.671 72.6577 108.133 73.9217 108.588L73.8371 108.823C75.1213 109.285 76.3954 109.737 77.6589 110.182L77.7418 109.946C79.0346 110.4 80.3163 110.845 81.5864 111.281L81.5053 111.517C82.8041 111.963 84.0908 112.398 85.3648 112.824L85.444 112.587C86.7443 113.021 88.0314 113.446 89.3046 113.859L89.2273 114.097C90.531 114.52 91.8201 114.933 93.0941 115.334L93.1692 115.095C94.4757 115.507 95.7662 115.906 97.04 116.294L96.9673 116.533C98.2879 116.935 99.5907 117.324 100.875 117.7L100.945 117.46C102.27 117.847 103.574 118.221 104.858 118.58L104.791 118.821C106.122 119.194 107.431 119.552 108.717 119.894L108.781 119.652C110.119 120.008 111.431 120.347 112.717 120.669L112.656 120.912C114.004 121.249 115.322 121.568 116.61 121.867L116.667 121.624C118.022 121.939 119.344 122.233 120.631 122.506L120.579 122.75C121.948 123.04 123.276 123.306 124.564 123.546L124.61 123.301C125.987 123.558 127.317 123.787 128.597 123.987L128.558 124.234C129.966 124.455 131.313 124.64 132.599 124.789L132.627 124.541C134.054 124.707 135.403 124.829 136.67 124.906L136.654 125.156C138.119 125.245 139.477 125.274 140.72 125.242L140.714 124.992C142.226 124.953 143.563 124.823 144.716 124.6L144.764 124.846Z" stroke="white" stroke-width="0.5" stroke-dasharray="4 4"/>
<path d="M74.5 99C71.0536 108.282 73.2823 106.061 64 109.5C73.2823 112.946 71.0613 110.718 74.5 120C77.9464 110.718 75.7177 112.939 85 109.5C75.7177 106.061 77.9387 108.282 74.5 99Z" fill="white"/>
</svg>
