<svg width="42" height="42" viewBox="0 0 42 42" fill="none" xmlns="http://www.w3.org/2000/svg">
<path d="M21.0176 29.7502C19.5301 29.7502 18.0251 29.3652 16.8526 28.6127L6.31756 21.7352C4.35756 20.4577 3.18506 18.3052 3.18506 15.9602C3.18506 13.6152 4.35756 11.4627 6.31756 10.1852L16.8701 3.32524C19.2151 1.80274 22.8726 1.80274 25.2001 3.34274L35.6826 10.2202C37.6251 11.4977 38.7976 13.6502 38.7976 15.9777C38.7976 18.3052 37.6251 20.4577 35.6826 21.7352L25.2001 28.6127C24.0276 29.3827 22.5226 29.7502 21.0176 29.7502ZM21.0176 4.81274C20.0201 4.81274 19.0226 5.04024 18.3051 5.53024L7.77006 12.3902C6.54506 13.1952 5.82756 14.4902 5.82756 15.9602C5.82756 17.4302 6.52756 18.7252 7.77006 19.5302L18.3051 26.4077C19.7576 27.3527 22.3126 27.3527 23.7651 26.4077L34.2476 19.5302C35.4726 18.7252 36.1726 17.4302 36.1726 15.9602C36.1726 14.4902 35.4726 13.1952 34.2476 12.3902L23.7651 5.51274C23.0301 5.05774 22.0326 4.81274 21.0176 4.81274Z" fill="#3A3A3A"/>
<path d="M21.0001 39.8131C20.2301 39.8131 19.4426 39.7081 18.8126 39.4981L13.2301 37.6431C10.5876 36.7681 8.50507 33.8806 8.52257 31.0981L8.54007 22.8906C8.54007 22.1731 9.13507 21.5781 9.85257 21.5781C10.5701 21.5781 11.1651 22.1731 11.1651 22.8906L11.1476 31.0981C11.1476 32.7431 12.5126 34.6331 14.0701 35.1581L19.6526 37.0131C20.3526 37.2406 21.6476 37.2406 22.3476 37.0131L27.9301 35.1581C29.4876 34.6331 30.8526 32.7431 30.8526 31.1156V22.9956C30.8526 22.2781 31.4476 21.6831 32.1651 21.6831C32.8826 21.6831 33.4776 22.2781 33.4776 22.9956V31.1156C33.4776 33.8981 31.4126 36.7681 28.7701 37.6606L23.1876 39.5156C22.5576 39.7081 21.7701 39.8131 21.0001 39.8131Z" fill="#3A3A3A"/>
<path d="M37.4502 27.5625C36.7327 27.5625 36.1377 26.9675 36.1377 26.25V15.75C36.1377 15.0325 36.7327 14.4375 37.4502 14.4375C38.1677 14.4375 38.7627 15.0325 38.7627 15.75V26.25C38.7627 26.9675 38.1677 27.5625 37.4502 27.5625Z" fill="#3A3A3A"/>
</svg>
