<svg width="42" height="42" viewBox="0 0 42 42" fill="none" xmlns="http://www.w3.org/2000/svg">
<path d="M21 39.8125C11.83 39.8125 4.375 32.3575 4.375 23.1875C4.375 14.0175 11.83 6.5625 21 6.5625C30.17 6.5625 37.625 14.0175 37.625 23.1875C37.625 32.3575 30.17 39.8125 21 39.8125ZM21 9.1875C13.2825 9.1875 7 15.47 7 23.1875C7 30.905 13.2825 37.1875 21 37.1875C28.7175 37.1875 35 30.905 35 23.1875C35 15.47 28.7175 9.1875 21 9.1875Z" fill="#3A3A3A"/>
<path d="M21 24.0625C20.2825 24.0625 19.6875 23.4675 19.6875 22.75V14C19.6875 13.2825 20.2825 12.6875 21 12.6875C21.7175 12.6875 22.3125 13.2825 22.3125 14V22.75C22.3125 23.4675 21.7175 24.0625 21 24.0625Z" fill="#3A3A3A"/>
<path d="M26.25 4.8125H15.75C15.0325 4.8125 14.4375 4.2175 14.4375 3.5C14.4375 2.7825 15.0325 2.1875 15.75 2.1875H26.25C26.9675 2.1875 27.5625 2.7825 27.5625 3.5C27.5625 4.2175 26.9675 4.8125 26.25 4.8125Z" fill="#3A3A3A"/>
</svg>
