<svg width="19" height="7" viewBox="0 0 19 7" fill="none" xmlns="http://www.w3.org/2000/svg">
<rect width="18.5888" height="6.63" rx="3.315" fill="#508BCC"/>
<path d="M4.33151 2C4.70565 2 5.02477 2.12838 5.28887 2.38515C5.55297 2.64191 5.68502 2.95736 5.68502 3.33151C5.68502 3.69831 5.55297 4.00643 5.28887 4.25586C5.03211 4.50529 4.71298 4.63 4.33151 4.63C3.95736 4.63 3.64191 4.50529 3.38515 4.25586C3.12838 4.00643 3 3.69831 3 3.33151C3 2.95736 3.12838 2.64191 3.38515 2.38515C3.64191 2.12838 3.95736 2 4.33151 2Z" fill="white"/>
<path d="M9.28339 2C9.65753 2 9.97665 2.12838 10.2408 2.38515C10.5049 2.64191 10.6369 2.95736 10.6369 3.33151C10.6369 3.69831 10.5049 4.00643 10.2408 4.25586C9.98399 4.50529 9.66487 4.63 9.28339 4.63C8.90925 4.63 8.59379 4.50529 8.33703 4.25586C8.08027 4.00643 7.95188 3.69831 7.95188 3.33151C7.95188 2.95736 8.08027 2.64191 8.33703 2.38515C8.59379 2.12838 8.90925 2 9.28339 2Z" fill="white"/>
<path d="M14.2353 2C14.6094 2 14.9285 2.12838 15.1926 2.38515C15.4567 2.64191 15.5888 2.95736 15.5888 3.33151C15.5888 3.69831 15.4567 4.00643 15.1926 4.25586C14.9359 4.50529 14.6168 4.63 14.2353 4.63C13.8611 4.63 13.5457 4.50529 13.2889 4.25586C13.0321 4.00643 12.9038 3.69831 12.9038 3.33151C12.9038 2.95736 13.0321 2.64191 13.2889 2.38515C13.5457 2.12838 13.8611 2 14.2353 2Z" fill="white"/>
</svg>
