<svg width="16" height="14" viewBox="0 0 16 14" fill="none" xmlns="http://www.w3.org/2000/svg">
<path d="M0 12.2922C1.79334 12.453 3.378 12.0222 4.81832 10.9446C3.31838 10.8096 2.31934 10.0552 1.75686 8.65753C2.25579 8.71349 2.71903 8.72758 3.21757 8.59063C2.43112 8.39772 1.80981 8.01466 1.33167 7.41364C0.853521 6.81263 0.618176 6.13023 0.619353 5.33984C1.07592 5.56874 1.53642 5.7186 2.04594 5.73112C0.606408 4.51814 0.272609 3.07861 1.07279 1.34874C2.86612 3.45502 5.11015 4.60774 7.83585 4.79204C7.82408 4.4661 7.79662 4.15581 7.80447 3.84709C7.84369 2.49833 8.87843 1.21766 10.1897 0.885459C11.4033 0.57791 12.4675 0.852851 13.3822 1.71029C13.4091 1.74032 13.4441 1.76198 13.4831 1.77266C13.5221 1.78335 13.5633 1.78261 13.6018 1.77054C14.2899 1.61769 14.9499 1.35909 15.5583 1.00402C15.3006 1.77915 14.8409 2.34299 14.2055 2.78123C14.8209 2.72841 15.3995 2.54646 16 2.30621C15.5799 2.92209 15.1124 3.43741 14.5452 3.8553C14.4016 3.96134 14.3643 4.07247 14.3679 4.24659C14.3993 5.75186 14.0651 7.18122 13.4112 8.53193C12.6267 10.1554 11.4861 11.4697 9.94376 12.4225C8.84548 13.1006 7.65031 13.504 6.37121 13.6746C5.25711 13.8261 4.12513 13.7841 3.02537 13.5505C1.97816 13.3266 0.978464 12.9211 0.07178 12.3524C0.058836 12.3387 0.0474615 12.3278 0 12.2922Z" fill="white"/>
</svg>
