<svg width="24" height="24" viewBox="0 0 24 24" fill="none" xmlns="http://www.w3.org/2000/svg">
<g clip-path="url(#clip0_1493_6)">
<path d="M22.1643 5.65495C21.4008 5.99264 20.5912 6.21442 19.7623 6.31295C20.636 5.79038 21.29 4.96796 21.6023 3.99895C20.7823 4.48695 19.8833 4.82895 18.9463 5.01395C18.3169 4.34053 17.4826 3.89391 16.5732 3.74353C15.6638 3.59316 14.7302 3.74744 13.9175 4.1824C13.1048 4.61737 12.4586 5.30863 12.0794 6.14874C11.7001 6.98885 11.609 7.93073 11.8202 8.82795C10.1574 8.7446 8.53058 8.31247 7.04554 7.55961C5.56049 6.80675 4.25038 5.75 3.20025 4.45795C2.82854 5.0964 2.63321 5.82218 2.63425 6.56095C2.63425 8.01095 3.37225 9.29195 4.49425 10.042C3.83026 10.021 3.18088 9.84173 2.60025 9.51895V9.57095C2.60045 10.5367 2.93462 11.4726 3.5461 12.22C4.15758 12.9675 5.00873 13.4804 5.95525 13.672C5.33886 13.839 4.69256 13.8636 4.06525 13.7439C4.33212 14.5752 4.85226 15.3021 5.55284 15.8231C6.25343 16.344 7.09938 16.6327 7.97225 16.6489C7.10473 17.3303 6.11143 17.8339 5.04913 18.1311C3.98683 18.4283 2.87638 18.5132 1.78125 18.3809C3.69295 19.6104 5.91835 20.2631 8.19125 20.2609C15.8842 20.2609 20.0913 13.888 20.0913 8.36095C20.0913 8.18095 20.0863 7.99895 20.0783 7.82095C20.8971 7.22912 21.6038 6.49597 22.1653 5.65595L22.1643 5.65495Z" fill="#FEFEFE"/>
</g>
<defs>
<clipPath id="clip0_1493_6">
<rect width="24" height="24" fill="white"/>
</clipPath>
</defs>
</svg>
