<svg width="1143" height="1024" viewBox="0 0 1143 1024" fill="none" xmlns="http://www.w3.org/2000/svg">
<path fill-rule="evenodd" clip-rule="evenodd" d="M3.02946 265L3.02944 0H4.02944L4.02946 265H3.02946ZM230.217 265V0H231.217V265H230.217ZM457.402 265V0H458.402V265H457.402ZM684.59 0L684.59 265H685.59L685.59 0H684.59ZM684.59 267V270H681.561V271H684.59V274H685.59V271H688.629V270H685.59V267H684.59ZM684.59 276L684.59 541H685.59L685.59 276H684.59ZM684.59 546V543H685.59V546H688.629V547H685.59V550H684.59V547H681.561V546H684.59ZM684.59 817L684.59 552H685.59L685.59 817H684.59ZM684.59 819V822H681.561V823H684.59V826H685.59V823H688.629V822H685.59V819H684.59ZM684.59 828V1024H685.59V828H684.59ZM457.402 267V270H454.374V271H457.402V274H458.402V271H461.442V270H458.402V267H457.402ZM457.402 276V541H458.402V276H457.402ZM457.402 546V543H458.402V546H461.442V547H458.402V550H457.402V547H454.374V546H457.402ZM457.402 817V552H458.402V817H457.402ZM457.402 819V822H454.374V823H457.402V826H458.402V823H461.442V822H458.402V819H457.402ZM457.402 828V1024H458.402V828H457.402ZM230.217 267V270H227.188V271H230.217V274H231.217V271H234.256V270H231.217V267H230.217ZM230.217 276V541H231.217V276H230.217ZM230.217 546V543H231.217V546H234.256V547H231.217V550H230.217V547H227.188V546H230.217ZM230.217 817V552H231.217V817H230.217ZM230.217 819V822H227.188V823H230.217V826H231.217V823H234.256V822H231.217V819H230.217ZM230.217 828V1024H231.217V828H230.217ZM3.02944 267V270H0.000488281V271H3.02944V274H4.02944V271H7.06851V270H4.02944V267H3.02944ZM3.02944 276L3.02946 541H4.02946L4.02944 276H3.02944ZM3.02944 546V543H4.02944V546H7.06851V547H4.02944V550H3.02944V547H0.000488281V546H3.02944ZM3.02946 817L3.02944 552H4.02944L4.02946 817H3.02946ZM3.02944 819V822H0.000488281V823H3.02944V826H4.02944V823H7.06851V822H4.02944V819H3.02944ZM3.02944 828V1024H4.02944V828H3.02944ZM1138.96 265V0H1139.96V265H1138.96ZM1138.96 267V270H1135.93V271H1138.96V274H1139.96V271H1143V270H1139.96V267H1138.96ZM1138.96 276V541H1139.96V276H1138.96ZM1138.96 546V543H1139.96V546H1143V547H1139.96V550H1138.96V547H1135.93V546H1138.96ZM1138.96 817V552H1139.96V817H1138.96ZM1138.96 819V822H1135.93V823H1138.96V826H1139.96V823H1143V822H1139.96V819H1138.96ZM1138.96 828V1024H1139.96V828H1138.96ZM911.776 265L911.776 0H912.776L912.776 265H911.776ZM911.776 267V270H908.747V271H911.776V274H912.776V271H915.815V270H912.776V267H911.776ZM911.776 276L911.776 541H912.776L912.776 276H911.776ZM911.776 546V543H912.776V546H915.815V547H912.776V550H911.776V547H908.747V546H911.776ZM911.776 817L911.776 552H912.776L912.776 817H911.776ZM911.776 819V822H908.747V823H911.776V826H912.776V823H915.815V822H912.776V819H911.776ZM911.776 828V1024H912.776V828H911.776Z" fill="url(#paint0_linear_116_7378)" fill-opacity="0.1"/>
<defs>
<linearGradient id="paint0_linear_116_7378" x1="571.5" y1="0" x2="571.5" y2="1024" gradientUnits="userSpaceOnUse">
<stop stop-color="white"/>
<stop offset="1" stop-color="white" stop-opacity="0"/>
</linearGradient>
</defs>
</svg>
