<svg width="26" height="26" viewBox="0 0 26 26" fill="none" xmlns="http://www.w3.org/2000/svg">
<path d="M13.0005 0.0644531C16.5716 0.0644531 19.807 1.51258 22.147 3.85266L22.2066 3.91719C24.5112 6.25289 25.9352 9.46086 25.9352 12.9986C25.9352 16.5702 24.486 19.805 22.1459 22.1451L22.0814 22.2047C19.7446 24.5103 16.5361 25.9338 13.0005 25.9338C9.43328 25.9338 6.19906 24.4841 3.85789 22.1423C1.51508 19.805 0.0664062 16.5702 0.0664062 12.9986C0.0664062 9.42695 1.51453 6.19273 3.85461 3.85266C6.19469 1.51258 9.42945 0.0644531 13.0005 0.0644531Z" fill="white"/>
<path d="M13.0004 1.16406C19.5366 1.16406 24.8353 6.46273 24.8353 12.9984C24.8353 19.5347 19.5366 24.8339 13.0004 24.8339C6.46469 24.8339 1.16602 19.5347 1.16602 12.9984C1.16602 6.46273 6.46469 1.16406 13.0004 1.16406Z" fill="#F3F3F3"/>
<path d="M9.0343 8.81789V1.84523C6.77461 2.64914 4.83156 4.12078 3.44141 6.02062L9.0343 8.81789ZM9.0343 17.1796V24.1523C6.7757 23.3484 4.8332 21.8778 3.44195 19.9769L9.0343 17.1796ZM16.9394 17.1796V24.1616C19.2062 23.3615 21.1552 21.8898 22.5509 19.9867L16.9394 17.1796ZM16.9394 8.81789V1.83594C19.2062 2.63602 21.1563 4.10766 22.5514 6.01133L16.9394 8.81789Z" fill="#012169"/>
<path d="M23.5168 16.9452H20.8858L23.5846 18.2971C23.7602 17.9466 23.9188 17.5862 24.0598 17.217L23.5168 16.9452ZM23.006 6.67711L18.2799 9.04672H20.9109L23.5879 7.70687C23.4113 7.35359 23.2166 7.00961 23.006 6.67711ZM10.6166 15.3648V24.5933C11.3866 24.7502 12.1839 24.8339 13.0004 24.8339C13.8076 24.8339 14.5967 24.7524 15.3591 24.5987V15.3648H24.598C24.7527 14.6002 24.8353 13.8095 24.8353 12.9984C24.8353 12.1847 24.7527 11.3895 24.5963 10.6212H15.3591V1.39977C14.5827 1.24282 13.7925 1.16386 13.0004 1.16406C12.1839 1.16406 11.3866 1.24828 10.6166 1.40469V10.6212H1.405C1.24585 11.4036 1.16579 12.2 1.16602 12.9984C1.16602 13.8095 1.24859 14.6002 1.40336 15.3648H10.6166ZM2.45227 9.05273H5.08328L2.40961 7.71398C2.23461 8.06453 2.07547 8.42602 1.93492 8.79461L2.45227 9.05273ZM7.69516 16.9513H5.06414L2.40797 18.2807C2.58538 18.6355 2.7805 18.9812 2.99258 19.3165L7.71922 16.9513H7.69516Z" fill="#C8102E"/>
</svg>
