<svg width="42" height="42" viewBox="0 0 42 42" fill="none" xmlns="http://www.w3.org/2000/svg">
<g clip-path="url(#clip0_1047_41287)">
<path d="M34.7094 3.28125V3.68125H35.1094H37.0781C39.5711 3.68125 41.6 5.71012 41.6 8.20312V37.0781C41.6 39.5711 39.5711 41.6 37.0781 41.6H4.92188C2.42887 41.6 0.4 39.5711 0.4 37.0781V8.20312C0.4 5.71012 2.42887 3.68125 4.92188 3.68125H6.89062H7.29063V3.28125V0.4H9.77188V3.28125V3.68125H10.1719H31.8281H32.2281V3.28125V0.4H34.7094V3.28125ZM3.28125 15.0219H2.88125V15.4219V37.0781C2.88125 38.2037 3.79632 39.1188 4.92188 39.1188H37.0781C38.2037 39.1188 39.1188 38.2037 39.1188 37.0781V15.4219V15.0219H38.7188H3.28125ZM38.7188 12.5406H39.1188V12.1406V8.20312C39.1188 7.07757 38.2037 6.1625 37.0781 6.1625H35.1094H34.7094V6.5625V9.44375H32.2281V6.5625V6.1625H31.8281H10.1719H9.77188V6.5625V9.44375H7.29063V6.5625V6.1625H6.89062H4.92188C3.79632 6.1625 2.88125 7.07757 2.88125 8.20312V12.1406V12.5406H3.28125H38.7188Z" fill="black" stroke="white" stroke-width="0.8"/>
<path d="M6.23438 18.8672H9.51562V22.1484H6.23438V18.8672ZM12.7969 18.8672H16.0781V22.1484H12.7969V18.8672ZM19.3594 18.8672H22.6406V22.1484H19.3594V18.8672ZM25.9219 18.8672H29.2031V22.1484H25.9219V18.8672ZM32.4844 18.8672H35.7656V22.1484H32.4844V18.8672ZM6.23438 25.4297H9.51562V28.7109H6.23438V25.4297ZM12.7969 25.4297H16.0781V28.7109H12.7969V25.4297ZM19.3594 25.4297H22.6406V28.7109H19.3594V25.4297ZM25.9219 25.4297H29.2031V28.7109H25.9219V25.4297ZM6.23438 31.9922H9.51562V35.2734H6.23438V31.9922ZM12.7969 31.9922H16.0781V35.2734H12.7969V31.9922ZM19.3594 31.9922H22.6406V35.2734H19.3594V31.9922ZM25.9219 31.9922H29.2031V35.2734H25.9219V31.9922ZM32.4844 25.4297H35.7656V28.7109H32.4844V25.4297Z" fill="black"/>
</g>
<defs>
<clipPath id="clip0_1047_41287">
<rect width="42" height="42" fill="white"/>
</clipPath>
</defs>
</svg>
