<svg width="44" height="44" viewBox="0 0 44 44" fill="none" xmlns="http://www.w3.org/2000/svg">
<g clip-path="url(#clip0_1047_41052)">
<path d="M42.9327 35.9344C42.466 35.7344 42.1327 35.401 42.1327 35.0677C42.1327 34.7344 42.466 34.401 42.9327 34.201C43.1994 34.0677 43.3993 33.7344 43.3327 33.4677C43.1327 32.601 42.7994 31.801 42.3327 31.0677C42.1327 30.801 41.7994 30.6677 41.5327 30.801C41.066 31.001 40.5993 30.9344 40.3993 30.7344C40.1993 30.5344 40.1327 30.0677 40.3327 29.5344C40.466 29.2677 40.3327 28.9344 40.066 28.7344C39.3327 28.2677 38.5327 27.9344 37.666 27.7344C37.3327 27.6677 36.9994 27.801 36.9327 28.1344C36.7327 28.601 36.3993 28.9344 36.066 28.9344C35.7327 28.9344 35.466 28.6677 35.266 28.2677V4.73438C35.266 2.53438 33.466 0.734375 31.266 0.734375H4.66602C2.46602 0.734375 0.666016 2.53438 0.666016 4.73438V39.3344C0.666016 41.5344 2.46602 43.3344 4.66602 43.3344H32.1327C32.9327 43.3344 33.7327 43.001 34.266 42.401H34.3327C34.666 42.4677 34.9327 42.3344 35.066 42.001C35.266 41.5344 35.5993 41.201 35.9327 41.201C36.266 41.201 36.5993 41.5344 36.7994 42.001C36.9327 42.2677 37.1327 42.401 37.3993 42.401H37.5327C38.3993 42.201 39.1994 41.8677 39.9327 41.401C40.1994 41.201 40.3327 40.8677 40.1993 40.601C39.9994 40.0677 40.066 39.6677 40.266 39.401C40.466 39.1344 40.9327 39.1344 41.3993 39.3344C41.666 39.4677 42.066 39.3344 42.1993 39.0677C42.666 38.3344 42.9994 37.5344 43.1994 36.6677C43.3994 36.401 43.1994 36.0677 42.9327 35.9344ZM32.1327 41.9344H4.66602C3.19935 41.9344 1.99935 40.7344 1.99935 39.2677V4.73438C1.99935 3.26771 3.19935 2.06771 4.66602 2.06771H31.1993C32.666 2.06771 33.866 3.26771 33.866 4.73438V27.9344C33.1993 28.1344 32.5993 28.401 31.9993 28.801C31.7327 28.9344 31.5993 29.3344 31.7327 29.601C31.9327 30.1344 31.866 30.5344 31.666 30.801C31.466 31.001 30.9993 31.0677 30.5327 30.8677C30.266 30.7344 29.9327 30.8677 29.7327 31.1344C29.266 31.8677 28.9327 32.6677 28.7327 33.5344C28.666 33.8677 28.7994 34.1344 29.1327 34.2677C29.5993 34.4677 29.9327 34.801 29.9327 35.1344C29.9327 35.4677 29.5993 35.801 29.1327 36.001C28.866 36.1344 28.666 36.4677 28.7327 36.7344C28.9327 37.601 29.266 38.401 29.7327 39.1344C29.866 39.401 30.266 39.5344 30.5327 39.401C30.9993 39.201 31.466 39.201 31.666 39.4677C31.866 39.6677 31.9327 40.1344 31.7327 40.6677C31.5993 40.9344 31.7327 41.2677 31.9993 41.4677C32.266 41.601 32.5327 41.801 32.7994 41.8677C32.5993 41.8677 32.3994 41.9344 32.1327 41.9344ZM35.9994 38.5344C34.1327 38.5344 32.5993 37.001 32.5993 35.0677C32.5993 33.1344 34.1327 31.601 35.9994 31.601C37.866 31.601 39.3993 33.1344 39.3993 35.0677C39.3993 37.001 37.9327 38.5344 35.9994 38.5344Z" fill="black"/>
<path d="M11.0654 9.2651C11.0654 10.8651 9.7987 12.1984 8.1987 12.1984C6.5987 12.1984 5.33203 10.8651 5.33203 9.2651C5.33203 7.6651 6.5987 6.39844 8.1987 6.39844C9.7987 6.39844 11.0654 7.6651 11.0654 9.2651ZM15.132 7.73177H29.8654C30.1987 7.73177 30.532 7.4651 30.532 7.0651C30.532 6.6651 30.1987 6.39844 29.8654 6.39844H15.132C14.7987 6.39844 14.4654 6.6651 14.4654 7.0651C14.4654 7.4651 14.7987 7.73177 15.132 7.73177ZM15.132 11.3318H29.8654C30.1987 11.3318 30.532 10.9984 30.532 10.6651C30.532 10.3318 30.1987 9.99844 29.8654 9.99844H15.132C14.7987 9.99844 14.4654 10.2651 14.4654 10.6651C14.4654 10.9984 14.7987 11.3318 15.132 11.3318ZM11.0654 17.7318C11.0654 19.3318 9.7987 20.6651 8.1987 20.6651C6.5987 20.6651 5.33203 19.3318 5.33203 17.7318C5.33203 16.1318 6.5987 14.8651 8.1987 14.8651C9.7987 14.8651 11.0654 16.1318 11.0654 17.7318ZM29.9987 14.9318H19.7987C19.4654 14.9318 19.132 15.2651 19.132 15.5984C19.132 15.9318 19.4654 16.2651 19.7987 16.2651H29.9987C30.332 16.2651 30.6654 15.9318 30.6654 15.5984C30.6654 15.2651 30.3987 14.9318 29.9987 14.9318ZM29.9987 18.4651H19.7987C19.4654 18.4651 19.132 18.7984 19.132 19.1318C19.132 19.4651 19.4654 19.7984 19.7987 19.7984H29.9987C30.332 19.7984 30.6654 19.4651 30.6654 19.1318C30.6654 18.7984 30.3987 18.4651 29.9987 18.4651ZM11.0654 26.2651C11.0654 27.8651 9.7987 29.1318 8.1987 29.1318C6.5987 29.1318 5.33203 27.7984 5.33203 26.2651C5.33203 24.6651 6.5987 23.3984 8.1987 23.3984C9.7987 23.3318 11.0654 24.6651 11.0654 26.2651ZM29.8654 23.3984H15.132C14.7987 23.3984 14.4654 23.7318 14.4654 24.0651C14.4654 24.3984 14.7987 24.7318 15.132 24.7318H29.8654C30.1987 24.7318 30.532 24.3984 30.532 24.0651C30.532 23.7318 30.2654 23.3984 29.8654 23.3984ZM29.8654 26.9984H15.132C14.7987 26.9984 14.4654 27.3318 14.4654 27.6651C14.4654 27.9984 14.7987 28.3318 15.132 28.3318H29.8654C30.1987 28.3318 30.532 27.9984 30.532 27.6651C30.532 27.3318 30.2654 26.9984 29.8654 26.9984ZM11.0654 34.7318C11.0654 36.3318 9.7987 37.5984 8.1987 37.5984C6.5987 37.5984 5.33203 36.2651 5.33203 34.7318C5.33203 33.1318 6.5987 31.8651 8.1987 31.8651C9.7987 31.8651 11.0654 33.1984 11.0654 34.7318ZM26.3987 31.9318H15.132C14.7987 31.9318 14.4654 32.2651 14.4654 32.5984C14.4654 32.9318 14.7987 33.2651 15.132 33.2651H26.3987C26.732 33.2651 27.0654 32.9318 27.0654 32.5984C27.0654 32.2651 26.732 31.9318 26.3987 31.9318ZM26.3987 35.5318H15.132C14.7987 35.5318 14.4654 35.8651 14.4654 36.1984C14.4654 36.5318 14.7987 36.8651 15.132 36.8651H26.3987C26.732 36.8651 27.0654 36.5318 27.0654 36.1984C27.0654 35.8651 26.732 35.5318 26.3987 35.5318ZM18.0654 16.5318C18.332 16.2651 18.332 15.8651 18.0654 15.5984C17.7987 15.3318 17.3987 15.3318 17.132 15.5984L14.332 18.4651L13.1987 17.3318C12.932 17.0651 12.532 17.0651 12.2654 17.3318C11.9987 17.5984 11.9987 17.9984 12.2654 18.2651L13.8654 19.8651C13.9987 19.9984 14.132 20.0651 14.332 20.0651C14.532 20.0651 14.6654 19.9984 14.7987 19.8651L18.0654 16.5318Z" fill="black"/>
</g>
<defs>
<clipPath id="clip0_1047_41052">
<rect width="44" height="44" fill="white"/>
</clipPath>
</defs>
</svg>
