<svg width="42" height="42" viewBox="0 0 42 42" fill="none" xmlns="http://www.w3.org/2000/svg">
<g clip-path="url(#clip0_1047_41027)">
<path d="M32.9355 28.3563L32.9363 28.3567L37.2934 30.5287L37.5792 30.6711L37.7035 30.377C38.5284 28.4267 38.9655 26.3334 38.9655 24.2305C38.9655 23.4571 38.9077 22.6966 38.7984 21.9514L38.7546 21.653L38.4564 21.6984L34.2473 22.3387C34.2016 22.3457 34.1547 22.3492 34.108 22.3492C33.6636 22.3492 33.2745 22.0147 33.2073 21.5731L33.2073 21.573C33.1315 21.0756 33.4752 20.6085 33.9728 20.5328L38.0036 19.9196L38.3496 19.8669L38.2447 19.5331C37.3656 16.7341 35.7225 14.2394 33.5441 12.2569L33.3295 12.0615L33.1271 12.2696L30.2119 15.2675C30.2119 15.2676 30.2119 15.2676 30.2119 15.2676C30.0378 15.4465 29.8064 15.5443 29.5569 15.5443L29.5563 15.5443C29.3188 15.5447 29.0906 15.452 28.9207 15.2861L28.9197 15.285C28.8336 15.2018 28.7649 15.1023 28.7176 14.9924C28.6702 14.8824 28.6452 14.7642 28.6438 14.6445L28.6438 14.6427C28.6418 14.523 28.6635 14.4041 28.7078 14.2929C28.752 14.1816 28.8179 14.0802 28.9016 13.9946L28.9021 13.9941L31.6428 11.1758L31.8914 10.9201L31.5969 10.7189C28.9342 8.90043 25.7175 7.74888 22.2322 7.52765L21.9132 7.5074V7.82705V11.9431C21.9132 12.4465 21.5032 12.8565 21 12.8565C20.4967 12.8565 20.0866 12.4465 20.0866 11.9431V7.82695V7.50731L19.7676 7.52756C16.2823 7.74878 13.0658 8.90034 10.4031 10.7188L10.1086 10.92L10.3572 11.1757L13.0978 13.9939L13.0983 13.9944C13.182 14.0801 13.2479 14.1814 13.2922 14.2927C13.3364 14.404 13.3582 14.5229 13.3562 14.6426L13.3562 14.6443C13.3548 14.764 13.3298 14.8823 13.2824 14.9923C13.235 15.1023 13.1663 15.2017 13.0802 15.285L13.0791 15.2861C12.9093 15.452 12.6811 15.5447 12.4437 15.5442L12.4421 15.5442C12.3202 15.5446 12.1995 15.5204 12.0873 15.4729C11.975 15.4255 11.8735 15.3558 11.7889 15.2682L11.7881 15.2674L8.8728 12.2694L8.67045 12.0613L8.45579 12.2567C6.27739 14.2393 4.6344 16.734 3.75512 19.533L3.65024 19.8668L3.99621 19.9195L8.02703 20.5326C8.02705 20.5326 8.02708 20.5326 8.0271 20.5326C8.52475 20.6085 8.86838 21.0755 8.79273 21.573C8.72546 22.0148 8.33632 22.3491 7.89196 22.3491C7.84507 22.3491 7.7984 22.3456 7.75315 22.3386L7.75238 22.3385L3.54355 21.6983L3.24537 21.6529L3.20161 21.9513C3.09233 22.6965 3.03454 23.4571 3.03454 24.2303C3.03454 26.3328 3.47139 28.4255 4.29579 30.3754L4.42011 30.6695L4.70586 30.5271L9.06398 28.3565L8.93023 28.0879L9.06398 28.3565C9.19302 28.2922 9.32875 28.2602 9.4697 28.2602L9.47082 28.2602C9.64075 28.2596 9.80745 28.3066 9.95196 28.396C10.0965 28.4855 10.213 28.6136 10.2883 28.766L10.2891 28.7676C10.3428 28.8746 10.3747 28.9912 10.383 29.1106C10.3913 29.23 10.3758 29.3499 10.3375 29.4633L10.3369 29.465C10.2992 29.5786 10.2394 29.6836 10.1608 29.7739C10.0823 29.8643 9.98654 29.9381 9.87923 29.9912L9.87855 29.9915L5.54918 32.1463L5.25554 32.2925L5.42724 32.572C5.77424 33.1368 6.10648 33.6186 6.55915 34.1885L6.55926 34.1886L6.7262 34.3986L6.81628 34.5118H6.96101H35.0391H35.1839L35.2739 34.3985L35.4408 34.1886L35.4409 34.1884C35.85 33.6729 36.2277 33.1334 36.5723 32.5728L36.744 32.2934L36.4504 32.1472L32.1217 29.9916L32.1209 29.9912C32.0136 29.9382 31.9179 29.8644 31.8393 29.774C31.7607 29.6837 31.7009 29.5787 31.6632 29.4651L31.6626 29.4634C31.6243 29.35 31.6088 29.2301 31.6171 29.1107C31.6255 28.9913 31.6574 28.8746 31.711 28.7676L31.7113 28.767C31.8673 28.454 32.18 28.2605 32.5305 28.2605H32.5306C32.6712 28.2604 32.8099 28.2932 32.9355 28.3563ZM0.3 24.2305C0.3 13.5076 9.569 4.75313 21 4.75313C32.4311 4.75313 41.7 13.5075 41.7001 24.2305C41.7001 28.8234 39.9682 33.2851 36.8192 36.7926C36.6909 36.9353 36.5339 37.0496 36.3586 37.1278C36.1833 37.206 35.9934 37.2464 35.8014 37.2466H6.19863C6.00666 37.2465 5.81686 37.206 5.64154 37.1278C5.46627 37.0496 5.3094 36.9354 5.18109 36.7927C2.03207 33.2851 0.3 28.8236 0.3 24.2305Z" fill="black" stroke="white" stroke-width="0.6"/>
<path d="M21.5081 23.7785L21.5493 23.8699L21.6471 23.8916C22.3988 24.0584 23.0474 24.6008 23.3146 25.3818L23.3146 25.3818C23.723 26.5747 23.0871 27.8728 21.894 28.2813C20.7012 28.6896 19.403 28.0536 18.9947 26.8607C18.7274 26.0797 18.9075 25.2537 19.3993 24.6611L19.4633 24.584L19.4398 24.4866L17.2687 15.4746C17.2687 15.4746 17.2687 15.4745 17.2687 15.4744C17.2556 15.419 17.2635 15.3607 17.291 15.3109C17.3185 15.2609 17.3636 15.223 17.4176 15.2046C17.4715 15.1861 17.5304 15.1884 17.5827 15.2109C17.635 15.2335 17.677 15.2747 17.7006 15.3264C17.7006 15.3265 17.7007 15.3266 17.7007 15.3267L21.5081 23.7785Z" fill="black" stroke="white" stroke-width="0.4"/>
</g>
<defs>
<clipPath id="clip0_1047_41027">
<rect width="42" height="42" fill="white"/>
</clipPath>
</defs>
</svg>
