<svg width="24" height="24" viewBox="0 0 24 24" fill="none" xmlns="http://www.w3.org/2000/svg">
<path d="M22.5457 6.51093C22.4235 6.02294 22.1783 5.5773 21.8353 5.21957C21.4922 4.86183 21.0637 4.6048 20.5933 4.47476C17.7417 4.12646 14.8713 3.96951 12 4.00488C9.12878 3.96951 6.25835 4.12646 3.40669 4.47476C2.93635 4.6048 2.50777 4.86183 2.16476 5.21957C1.82172 5.5773 1.57656 6.02294 1.45429 6.51093C1.14192 8.32488 0.990043 10.1646 1.00056 12.0071C0.989521 13.8592 1.1414 15.7084 1.45429 17.5318C1.5829 18.0119 1.83088 18.4486 2.17349 18.7985C2.51608 19.1483 2.9413 19.3989 3.40669 19.5252C6.25835 19.8735 9.12878 20.0306 12 19.9951C14.8713 20.0306 17.7417 19.8735 20.5933 19.5252C21.0587 19.3989 21.484 19.1483 21.8265 18.7985C22.1691 18.4486 22.4172 18.0119 22.5457 17.5318C22.8587 15.7084 23.0104 13.8592 22.9994 12.0071C23.01 10.1646 22.8581 8.32488 22.5457 6.51093ZM9.74511 15.4102V8.63251L15.5061 12.0071L9.74511 15.396V15.4102Z" fill="white"/>
</svg>
