<svg width="40" height="40" viewBox="0 0 40 40" fill="none" xmlns="http://www.w3.org/2000/svg">
<path d="M32.7814 13.5641C32.6332 12.9929 32.3361 12.4712 31.9202 12.0525C31.5044 11.6338 30.9849 11.3329 30.4147 11.1807C26.9581 10.773 23.4786 10.5893 19.9981 10.6307C16.5176 10.5893 13.0381 10.773 9.58141 11.1807C9.01128 11.3329 8.49176 11.6338 8.07596 12.0525C7.66014 12.4712 7.36296 12.9929 7.21474 13.5641C6.83609 15.6873 6.65199 17.8407 6.66474 19.9974C6.65136 22.1652 6.83546 24.3297 7.21474 26.464C7.37064 27.026 7.67124 27.5372 8.08654 27.9467C8.50183 28.3562 9.01728 28.6495 9.58141 28.7974C13.0381 29.205 16.5176 29.3889 19.9981 29.3474C23.4786 29.3889 26.9581 29.205 30.4147 28.7974C30.9789 28.6495 31.4944 28.3562 31.9096 27.9467C32.3249 27.5372 32.6256 27.026 32.7814 26.464C33.1607 24.3297 33.3447 22.1652 33.3314 19.9974C33.3442 17.8407 33.1601 15.6873 32.7814 13.5641ZM17.2647 23.9807V16.0474L24.2481 19.9974L17.2647 23.964V23.9807Z" fill="white"/>
</svg>
