<svg width="144" height="249" viewBox="0 0 144 249" fill="none" xmlns="http://www.w3.org/2000/svg">
<path fill-rule="evenodd" clip-rule="evenodd" d="M137.775 68.6327C137.775 106.371 107.148 136.965 69.3674 136.965C31.5867 136.965 0.959473 106.371 0.959473 68.6327C0.959473 32.7226 28.6907 3.28224 63.9287 0.513586H64.3105L143.499 0.300781C143.499 0.300781 141.944 12.1125 138.061 18.0271C135.016 22.6653 132.02 24.4492 127.185 27.1761C126.309 27.6699 125.498 28.0975 124.721 28.4746C132.932 39.7476 137.775 53.6251 137.775 68.6327ZM108.008 68.9184C108.008 90.0773 90.8359 107.23 69.6534 107.23C48.471 107.23 31.2992 90.0773 31.2992 68.9184C31.2992 47.7595 48.471 30.6068 69.6534 30.6068C90.8359 30.6068 108.008 47.7595 108.008 68.9184Z" fill="#411E52"/>
<path fill-rule="evenodd" clip-rule="evenodd" d="M16.6034 159.81C16.12 159.81 15.7298 160.193 15.7457 160.678C15.8677 164.344 16.9562 178.58 26.4383 183.567C30.531 185.72 34.9609 187.192 39.3896 188.178H100.512C109.291 188.178 116.409 195.322 116.409 204.135C116.409 212.948 109.291 220.092 100.512 220.092V248.426C124.08 247.495 142.903 228.021 142.903 204.135C142.903 179.655 123.133 159.81 98.7458 159.81H16.6034Z" fill="#411E52"/>
</svg>
