<svg width="18" height="17" viewBox="0 0 18 17" fill="none" xmlns="http://www.w3.org/2000/svg">
<path d="M12.333 5.66602C13.6591 5.66602 14.9309 6.1928 15.8685 7.13048C16.8062 8.06816 17.333 9.33993 17.333 10.666V16.4993H13.9997V10.666C13.9997 10.224 13.8241 9.80007 13.5115 9.4875C13.199 9.17494 12.775 8.99935 12.333 8.99935C11.891 8.99935 11.4671 9.17494 11.1545 9.4875C10.8419 9.80007 10.6663 10.224 10.6663 10.666V16.4993H7.33301V10.666C7.33301 9.33993 7.85979 8.06816 8.79747 7.13048C9.73516 6.1928 11.0069 5.66602 12.333 5.66602Z" fill="black"/>
<path d="M4.00033 6.5H0.666992V16.5H4.00033V6.5Z" fill="black"/>
<path d="M2.33366 3.99935C3.25413 3.99935 4.00033 3.25316 4.00033 2.33268C4.00033 1.41221 3.25413 0.666016 2.33366 0.666016C1.41318 0.666016 0.666992 1.41221 0.666992 2.33268C0.666992 3.25316 1.41318 3.99935 2.33366 3.99935Z" fill="black"/>
</svg>
