<svg width="14" height="14" viewBox="0 0 14 14" fill="none" xmlns="http://www.w3.org/2000/svg">
<path d="M13.9741 4.12946V9.76605C13.9658 9.82868 13.957 9.8913 13.9496 9.95393C13.9131 10.261 13.8983 10.5728 13.8367 10.8749C13.5588 12.2131 12.8029 13.1638 11.5163 13.6645C10.9002 13.9046 10.2509 13.9699 9.59714 13.9765C8.11554 13.9916 6.63367 14.0057 5.1518 13.9977C4.42392 13.9938 3.69218 13.9908 2.97638 13.8172C1.81698 13.5357 0.955874 12.8781 0.443881 11.7926C0.128829 11.1246 0.0318703 10.4058 0.0247288 9.67761C0.00879763 8.16415 -0.00795752 6.65015 0.00412817 5.13669C0.00571612 4.49877 0.0516056 3.86173 0.141465 3.23017C0.286219 2.25013 0.758383 1.43655 1.56016 0.83501C2.24684 0.319446 3.0434 0.114539 3.88418 0.0549349C4.21983 0.0313129 4.55658 0.0175792 4.89279 0H9.0791C9.40596 0.0181285 9.73283 0.0351583 10.0597 0.0549349C10.6316 0.0887199 11.1916 0.187053 11.7163 0.423274C13.0023 1.00009 13.6807 2.03177 13.8917 3.39992C13.929 3.64163 13.9466 3.88637 13.9741 4.12946ZM6.99487 12.7702V12.7485C7.36431 12.7485 7.73402 12.7595 8.10291 12.7463C8.89946 12.7174 9.70234 12.7273 10.4907 12.6279C11.5679 12.4906 12.2961 11.8698 12.559 10.7977C12.6655 10.364 12.7001 9.90559 12.7092 9.45732C12.7348 8.16287 12.7428 6.86796 12.7331 5.5726C12.7276 4.89443 12.7056 4.21241 12.6265 3.54001C12.4933 2.40999 11.7849 1.64805 10.6659 1.42501C10.1871 1.32915 9.68915 1.30113 9.19913 1.29399C7.89516 1.27476 6.5911 1.27229 5.28694 1.28658C4.66865 1.29399 4.04486 1.31597 3.43426 1.40441C2.36303 1.5596 1.63542 2.2559 1.42035 3.30845C1.32696 3.76496 1.29482 4.23905 1.28466 4.70627C1.26076 5.83656 1.25197 6.96795 1.26434 8.09851C1.27285 8.8816 1.2918 9.66772 1.36899 10.4464C1.44754 11.2482 1.82852 11.9005 2.54651 12.3142C2.98599 12.5683 3.47272 12.6743 3.97317 12.6922C4.98013 12.727 5.98764 12.7443 6.99487 12.7702Z" fill="black"/>
<path d="M3.39649 7.00449C3.39347 5.02107 5.01322 3.40296 6.99857 3.40626C7.95105 3.40618 8.86462 3.78416 9.53862 4.45718C10.2126 5.1302 10.5919 6.04322 10.5932 6.9957C10.6034 8.97775 8.98804 10.5992 7.00022 10.6027C5.0124 10.6063 3.39896 8.99176 3.39649 7.00449ZM4.66439 6.99131C4.662 7.29744 4.72008 7.60104 4.83531 7.88467C4.95053 8.16831 5.12063 8.4264 5.33584 8.64413C5.55105 8.86187 5.80714 9.03497 6.08941 9.1535C6.37168 9.27202 6.67457 9.33365 6.98072 9.33483C7.28684 9.33776 7.59052 9.2802 7.87433 9.16545C8.15815 9.0507 8.4165 8.88102 8.63456 8.66615C8.85262 8.45129 9.02609 8.19546 9.14501 7.91337C9.26393 7.63128 9.32596 7.32847 9.32754 7.02235C9.33088 6.71506 9.27328 6.41016 9.15806 6.12527C9.04285 5.84037 8.87232 5.58114 8.65631 5.36256C8.44031 5.14398 8.18312 4.97038 7.89962 4.85179C7.61612 4.73321 7.31192 4.67199 7.00461 4.67168C6.69849 4.66976 6.39499 4.7283 6.11154 4.84394C5.82809 4.95958 5.57026 5.13004 5.35284 5.34555C5.13541 5.56106 4.96268 5.81738 4.84454 6.09979C4.7264 6.38221 4.66518 6.68518 4.66439 6.99131Z" fill="black"/>
<path d="M11.574 3.25717C11.5754 3.36678 11.5552 3.47559 11.5146 3.57739C11.4739 3.67919 11.4136 3.77199 11.3371 3.85048C11.2606 3.92896 11.1693 3.9916 11.0686 4.03482C10.9678 4.07804 10.8596 4.10098 10.75 4.10234C10.6393 4.10387 10.5293 4.08348 10.4265 4.04237C10.3237 4.00125 10.23 3.94021 10.1509 3.86276C10.0718 3.78531 10.0087 3.69298 9.9654 3.59107C9.92208 3.48917 9.89934 3.37971 9.89848 3.26898C9.89736 3.15937 9.91784 3.05062 9.95876 2.94893C9.99967 2.84724 10.0602 2.75461 10.137 2.67632C10.2137 2.59804 10.3051 2.53564 10.4059 2.49269C10.5068 2.44974 10.6151 2.42708 10.7247 2.426C10.8354 2.42344 10.9455 2.44305 11.0485 2.48368C11.1515 2.52432 11.2454 2.58515 11.3245 2.6626C11.4037 2.74006 11.4665 2.83256 11.5093 2.93467C11.5522 3.03678 11.5742 3.14643 11.574 3.25717Z" fill="black"/>
</svg>
