<svg width="177" height="121" viewBox="0 0 177 121" fill="none" xmlns="http://www.w3.org/2000/svg">
<path fill-rule="evenodd" clip-rule="evenodd" d="M169.487 44.3628L173.904 48.7867C174.172 49.0551 174.536 49.2058 174.915 49.2058C175.294 49.2058 175.658 49.0551 175.926 48.7867C176.194 48.5183 176.345 48.1544 176.345 47.7748C176.345 47.3953 176.194 47.0313 175.926 46.7629L171.508 42.341C171.24 42.0727 170.877 41.9219 170.498 41.9219C170.118 41.9219 169.755 42.0727 169.487 42.341C169.218 42.6094 169.068 42.9734 169.068 43.3529C169.068 43.7324 169.218 44.0964 169.487 44.3648V44.3628Z" fill="#C3AFCD"/>
<path fill-rule="evenodd" clip-rule="evenodd" d="M173.904 42.343L169.487 46.7629C169.218 47.0313 169.068 47.3953 169.068 47.7748C169.068 48.1544 169.218 48.5183 169.487 48.7867C169.755 49.0551 170.118 49.2058 170.498 49.2058C170.877 49.2058 171.24 49.0551 171.508 48.7867L175.926 44.3648C176.194 44.0964 176.345 43.7324 176.345 43.3529C176.345 42.9734 176.194 42.6094 175.926 42.341C175.658 42.0727 175.294 41.9219 174.915 41.9219C174.536 41.9219 174.172 42.0727 173.904 42.341V42.343Z" fill="#C3AFCD"/>
<path d="M88.9338 120.155C120.462 120.155 146.021 117.383 146.021 113.964C146.021 110.545 120.462 107.773 88.9338 107.773C57.4055 107.773 31.8467 110.545 31.8467 113.964C31.8467 117.383 57.4055 120.155 88.9338 120.155Z" fill="#C3AFCD"/>
<path fill-rule="evenodd" clip-rule="evenodd" d="M14.058 2.4429L18.4778 6.86482C18.7459 7.13319 19.1096 7.28396 19.4887 7.28396C19.8679 7.28396 20.2316 7.13319 20.4997 6.86482C20.7678 6.59645 20.9184 6.23247 20.9184 5.85294C20.9184 5.47341 20.7678 5.10942 20.4997 4.84105L16.0758 0.419131C15.9431 0.286249 15.7855 0.180836 15.612 0.108921C15.4386 0.0370053 15.2527 0 15.0649 0C14.8772 0 14.6912 0.0370053 14.5178 0.108921C14.3443 0.180836 14.1867 0.286249 14.054 0.419131C13.9212 0.552013 13.8159 0.709765 13.7441 0.883384C13.6722 1.057 13.6353 1.24309 13.6353 1.43101C13.6353 1.61894 13.6722 1.80502 13.7441 1.97864C13.8159 2.15226 13.9212 2.31001 14.054 2.4429H14.058Z" fill="#C3AFCD"/>
<path fill-rule="evenodd" clip-rule="evenodd" d="M18.4782 0.419131L14.0584 4.84308C13.9257 4.97596 13.8203 5.13371 13.7485 5.30733C13.6766 5.48095 13.6396 5.66704 13.6396 5.85496C13.6396 6.04289 13.6766 6.22897 13.7485 6.40259C13.8203 6.57621 13.9257 6.73396 14.0584 6.86684C14.1912 6.99973 14.3488 7.10514 14.5222 7.17705C14.6957 7.24897 14.8816 7.28599 15.0693 7.28599C15.2571 7.28599 15.443 7.24897 15.6164 7.17705C15.7899 7.10514 15.9475 6.99973 16.0803 6.86684L20.496 2.4429C20.7641 2.17453 20.9147 1.81054 20.9147 1.43101C20.9147 1.05148 20.7641 0.687499 20.496 0.419131C20.2279 0.150763 19.8642 2.24443e-08 19.4851 0C19.1059 -2.24443e-08 18.7423 0.150763 18.4741 0.419131H18.4782Z" fill="#C3AFCD"/>
<path fill-rule="evenodd" clip-rule="evenodd" d="M0.42076 86.8902L4.83851 91.3121C5.10663 91.5805 5.47027 91.7312 5.84944 91.7312C6.22862 91.7312 6.59226 91.5805 6.86037 91.3121C7.12849 91.0437 7.27913 90.6797 7.27913 90.3002C7.27913 89.9207 7.12849 89.5567 6.86037 89.2883L2.44059 84.8664C2.17248 84.598 1.80884 84.4473 1.42966 84.4473C1.05049 84.4473 0.686851 84.598 0.418736 84.8664C0.150621 85.1348 0 85.4987 0 85.8783C0 86.2578 0.150621 86.6218 0.418736 86.8902H0.42076Z" fill="#C3AFCD"/>
<path fill-rule="evenodd" clip-rule="evenodd" d="M4.83844 84.8703L0.420689 89.2923C0.152574 89.5606 0.0019531 89.9246 0.00195312 90.3041C0.00195315 90.6837 0.152574 91.0476 0.420689 91.316C0.688804 91.5844 1.05245 91.7351 1.43162 91.7351C1.81079 91.7351 2.17443 91.5844 2.44255 91.316L6.86233 86.8941C7.13044 86.6257 7.28109 86.2617 7.28109 85.8822C7.28109 85.5027 7.13044 85.1387 6.86233 84.8703C6.59421 84.602 6.23057 84.4512 5.8514 84.4512C5.47222 84.4512 5.10858 84.602 4.84047 84.8703H4.83844Z" fill="#C3AFCD"/>
<path d="M87.2858 110.677C116.314 110.677 139.846 87.1224 139.846 58.0668C139.846 29.0112 116.314 5.45703 87.2858 5.45703C58.2576 5.45703 34.7256 29.0112 34.7256 58.0668C34.7256 87.1224 58.2576 110.677 87.2858 110.677Z" fill="#C3AFCD"/>
<path fill-rule="evenodd" clip-rule="evenodd" d="M133.997 78.9179C126.015 96.7837 108.097 109.248 87.292 109.248C59.0688 109.248 36.1571 86.3148 36.1571 58.067C36.1485 50.5841 37.7859 43.191 40.953 36.4127C41.1071 36.0707 41.1207 35.6818 40.9907 35.3299C40.8608 34.978 40.5977 34.6914 40.2584 34.5319C39.9192 34.3725 39.5308 34.353 39.1773 34.4777C38.8238 34.6025 38.5335 34.8613 38.3691 35.1985C35.0229 42.3564 33.2929 50.1642 33.3023 58.067C33.3023 87.8913 57.4938 112.102 87.2859 112.102C109.249 112.102 128.168 98.9471 136.595 80.0836C136.672 79.9123 136.714 79.7276 136.719 79.54C136.724 79.3524 136.693 79.1656 136.626 78.9903C136.559 78.8149 136.458 78.6545 136.329 78.5181C136.201 78.3817 136.046 78.2721 135.875 78.1954C135.704 78.1187 135.52 78.0765 135.332 78.0713C135.145 78.066 134.958 78.0977 134.783 78.1646C134.608 78.2315 134.447 78.3323 134.311 78.4612C134.175 78.5901 134.065 78.7446 133.989 78.9159L133.997 78.9179Z" fill="#50395C"/>
<path fill-rule="evenodd" clip-rule="evenodd" d="M59.1215 15.3523C67.4738 9.81453 77.2736 6.86823 87.292 6.88282C115.511 6.88282 138.423 29.8182 138.423 58.0659C138.423 58.4448 138.573 58.8082 138.841 59.0762C139.109 59.3441 139.472 59.4947 139.85 59.4947C140.229 59.4947 140.592 59.3441 140.86 59.0762C141.127 58.8082 141.278 58.4448 141.278 58.0659C141.278 28.2396 117.088 4.03133 87.2941 4.03133C76.7155 4.01266 66.367 7.12093 57.5465 12.9663C57.2306 13.1753 57.0107 13.5014 56.935 13.8728C56.8594 14.2441 56.9342 14.6304 57.1431 14.9465C57.352 15.2626 57.6777 15.4828 58.0488 15.5585C58.4198 15.6342 58.8057 15.5593 59.1215 15.3503V15.3523Z" fill="#50395C"/>
<path d="M87.2857 101.068C111.013 101.068 130.248 81.8154 130.248 58.0655C130.248 34.3156 111.013 15.0625 87.2857 15.0625C63.5582 15.0625 44.3232 34.3156 44.3232 58.0655C44.3232 81.8154 63.5582 101.068 87.2857 101.068Z" fill="white"/>
<path d="M110.876 81.6796C123.905 68.6384 123.905 47.4944 110.876 34.4532C97.8475 21.4119 76.7234 21.4119 63.6945 34.4532C50.6656 47.4944 50.6655 68.6384 63.6945 81.6796C76.7234 94.7209 97.8475 94.7209 110.876 81.6796Z" fill="#C3AFCD"/>
<path d="M104.09 74.8866C113.371 65.5971 113.371 50.5358 104.09 41.2462C94.809 31.9567 79.7619 31.9567 70.4811 41.2462C61.2003 50.5358 61.2003 65.5971 70.4811 74.8866C79.7619 84.1761 94.809 84.1761 104.09 74.8866Z" fill="white"/>
<path d="M73.1206 58.0652C73.1206 60.8692 73.9512 63.6102 75.5074 65.9417C77.0637 68.2733 79.2756 70.0905 81.8636 71.1639C84.4515 72.2372 87.2994 72.5183 90.047 71.9717C92.7946 71.4251 95.3186 70.0754 97.2999 68.0931C99.2811 66.1108 100.631 63.585 101.178 60.835C101.725 58.0851 101.446 55.2344 100.374 52.6436C99.3032 50.0527 97.4885 47.8379 95.1599 46.2792C92.8312 44.7205 90.0931 43.8879 87.2918 43.8867C85.4311 43.8859 83.5885 44.2521 81.8692 44.9643C80.1499 45.6764 78.5876 46.7207 77.2716 48.0374C75.9556 49.354 74.9117 50.9173 74.1994 52.6379C73.4872 54.3586 73.1206 56.2028 73.1206 58.0652Z" fill="#C3AFCD"/>
<path d="M89.0435 62.2586C91.3723 61.2883 92.4743 58.6121 91.5049 56.2811C90.5356 53.9501 87.8618 52.847 85.533 53.8173C83.2043 54.7876 82.1022 57.4639 83.0716 59.7948C84.041 62.1258 86.7147 63.2289 89.0435 62.2586Z" fill="white"/>
<path d="M156.304 56.6797H87.2856V59.7032H156.304V56.6797Z" fill="#9F80AF"/>
<path d="M156.304 56.6799L162.622 48.2347C163.453 47.1257 162.998 46.2109 161.611 46.2109H145.869C144.482 46.2109 142.669 47.1196 141.842 48.2347L135.523 56.6799H156.304Z" fill="#9F80AF"/>
<path d="M156.304 59.7031L162.622 68.1483C163.453 69.2573 162.999 70.1721 161.612 70.1721H145.869C144.482 70.1721 142.669 69.2614 141.842 68.1483L135.521 59.7031H156.304Z" fill="#9F80AF"/>
</svg>
