<svg width="149" height="122" viewBox="0 0 149 122" fill="none" xmlns="http://www.w3.org/2000/svg">
<path fill-rule="evenodd" clip-rule="evenodd" d="M131.419 2.44492L135.837 6.86686C136.105 7.13522 136.468 7.28599 136.847 7.28599C137.227 7.28599 137.59 7.13522 137.858 6.86686C138.126 6.59849 138.277 6.2345 138.277 5.85497C138.277 5.47544 138.126 5.11146 137.858 4.84309L133.441 0.419143C133.308 0.286261 133.15 0.180848 132.977 0.108933C132.803 0.0370176 132.617 0 132.43 0C132.242 0 132.056 0.0370176 131.883 0.108933C131.709 0.180848 131.552 0.286261 131.419 0.419143C131.286 0.552026 131.181 0.709777 131.109 0.883396C131.037 1.05702 131 1.2431 131 1.43103C131 1.61895 131.037 1.80502 131.109 1.97864C131.181 2.15226 131.286 2.31003 131.419 2.44291V2.44492Z" fill="#C3AFCD"/>
<path fill-rule="evenodd" clip-rule="evenodd" d="M135.837 0.422965L131.419 4.84691C131.151 5.11528 131 5.47927 131 5.8588C131 6.23833 131.151 6.60231 131.419 6.87068C131.687 7.13905 132.051 7.28982 132.43 7.28982C132.809 7.28982 133.172 7.13905 133.441 6.87068L137.858 2.44876C138.126 2.18039 138.277 1.8164 138.277 1.43687C138.277 1.05734 138.126 0.693358 137.858 0.42499C137.59 0.156622 137.227 0.00585938 136.847 0.00585938C136.468 0.00585938 136.105 0.156622 135.837 0.42499V0.422965Z" fill="#C3AFCD"/>
<path d="M79.0872 121.155C110.616 121.155 136.174 118.383 136.174 114.964C136.174 111.545 110.616 108.773 79.0872 108.773C47.5588 108.773 22 111.545 22 114.964C22 118.383 47.5588 121.155 79.0872 121.155Z" fill="#C3AFCD"/>
<path fill-rule="evenodd" clip-rule="evenodd" d="M141.805 88.3159L146.222 92.7399C146.49 93.0083 146.854 93.159 147.233 93.159C147.612 93.159 147.976 93.0083 148.244 92.7399C148.512 92.4715 148.663 92.1075 148.663 91.728C148.663 91.3485 148.512 90.9845 148.244 90.7161L143.824 86.2922C143.556 86.0238 143.193 85.873 142.813 85.873C142.434 85.873 142.071 86.0238 141.803 86.2922C141.534 86.5605 141.384 86.9245 141.384 87.3041C141.384 87.6836 141.534 88.0476 141.803 88.3159H141.805Z" fill="#C3AFCD"/>
<path fill-rule="evenodd" clip-rule="evenodd" d="M146.222 86.4191L141.804 90.8431C141.536 91.1114 141.386 91.4754 141.386 91.855C141.386 92.2345 141.536 92.5985 141.804 92.8668C142.073 93.1352 142.436 93.286 142.815 93.286C143.195 93.286 143.558 93.1352 143.826 92.8668L148.244 88.4429C148.377 88.31 148.482 88.1523 148.554 87.9786C148.626 87.805 148.663 87.6189 148.663 87.431C148.663 87.2431 148.626 87.057 148.554 86.8834C148.482 86.7098 148.377 86.552 148.244 86.4191C148.111 86.2862 147.954 86.1808 147.78 86.1089C147.607 86.037 147.421 86 147.233 86C147.045 86 146.86 86.037 146.686 86.1089C146.513 86.1808 146.355 86.2862 146.222 86.4191Z" fill="#C3AFCD"/>
<path fill-rule="evenodd" clip-rule="evenodd" d="M0.763713 28.8139L5.18147 33.2359C5.31423 33.3687 5.47183 33.4741 5.64529 33.5461C5.81875 33.618 6.00466 33.655 6.1924 33.655C6.38015 33.655 6.56605 33.618 6.73951 33.5461C6.91297 33.4741 7.07057 33.3687 7.20333 33.2359C7.33609 33.103 7.4414 32.9452 7.51324 32.7716C7.58509 32.598 7.62207 32.4119 7.62207 32.224C7.62207 32.036 7.58509 31.85 7.51324 31.6763C7.4414 31.5027 7.33609 31.345 7.20333 31.2121L2.78557 26.7922C2.51746 26.5238 2.15381 26.373 1.77464 26.373C1.39547 26.373 1.03183 26.5238 0.763713 26.7922C0.495598 27.0605 0.344971 27.4245 0.344971 27.8041C0.344971 28.1836 0.495598 28.5476 0.763713 28.8159V28.8139Z" fill="#C3AFCD"/>
<path fill-rule="evenodd" clip-rule="evenodd" d="M5.17541 26.7921L0.763713 31.2161C0.495598 31.4844 0.344971 31.8484 0.344971 32.2279C0.344971 32.6075 0.495598 32.9715 0.763713 33.2398C1.03183 33.5082 1.39547 33.659 1.77464 33.659C2.15381 33.659 2.51746 33.5082 2.78557 33.2398L7.20333 28.8179C7.33609 28.685 7.4414 28.5273 7.51324 28.3536C7.58509 28.18 7.62207 27.9939 7.62207 27.806C7.62207 27.6181 7.58509 27.432 7.51324 27.2584C7.4414 27.0848 7.33609 26.927 7.20333 26.7941C7.07057 26.6612 6.91297 26.5558 6.73951 26.4839C6.56605 26.412 6.38015 26.375 6.1924 26.375C6.00466 26.375 5.81875 26.412 5.64529 26.4839C5.47183 26.5558 5.31423 26.6612 5.18147 26.7941L5.17541 26.7921Z" fill="#C3AFCD"/>
<path d="M94.5621 92.968H63.4399C63.1386 92.969 62.8401 92.9105 62.5614 92.7959C62.2828 92.6813 62.0295 92.5128 61.8161 92.3001C61.6027 92.0874 61.4333 91.8346 61.3178 91.5563C61.2023 91.2781 61.1428 90.9797 61.1428 90.6784C61.1433 90.0715 61.3848 89.4896 61.8141 89.0606C62.2434 88.6316 62.8255 88.3907 63.4324 88.3907H94.5546C94.8563 88.3887 95.1555 88.4464 95.4349 88.5604C95.7143 88.6745 95.9684 88.8427 96.1826 89.0553C96.3968 89.2679 96.5668 89.5207 96.6829 89.7993C96.7991 90.0778 96.859 90.3766 96.8592 90.6784C96.8592 90.9797 96.7997 91.2781 96.6842 91.5563C96.5687 91.8346 96.3993 92.0874 96.1859 92.3001C95.9725 92.5128 95.7192 92.6813 95.4406 92.7959C95.1619 92.9105 94.8634 92.969 94.5621 92.968Z" fill="#9F80AF"/>
<path d="M96.7654 99.7043H61.237C60.6302 99.7043 60.0483 99.4633 59.6193 99.0342C59.1903 98.6052 58.9492 98.0233 58.9492 97.4166C58.949 97.116 59.008 96.8183 59.1228 96.5405C59.2377 96.2627 59.4062 96.0103 59.6186 95.7977C59.8311 95.585 60.0834 95.4164 60.3611 95.3013C60.6387 95.1862 60.9364 95.127 61.237 95.127H96.7654C97.0659 95.127 97.3636 95.1862 97.6413 95.3013C97.9189 95.4164 98.1712 95.585 98.3837 95.7977C98.5961 96.0103 98.7646 96.2627 98.8795 96.5405C98.9943 96.8183 99.0533 97.116 99.0531 97.4166C99.0531 97.717 98.9939 98.0145 98.8789 98.292C98.764 98.5696 98.5955 98.8218 98.383 99.0342C98.1706 99.2467 97.9184 99.4152 97.6408 99.5301C97.3633 99.6451 97.0658 99.7043 96.7654 99.7043Z" fill="#9F80AF"/>
<path d="M94.5643 101.863H63.4403C62.1768 101.863 61.1526 102.888 61.1526 104.151V104.153C61.1526 105.416 62.1768 106.441 63.4403 106.441H94.5643C95.8278 106.441 96.8521 105.416 96.8521 104.153V104.151C96.8521 102.888 95.8278 101.863 94.5643 101.863Z" fill="#9F80AF"/>
<path d="M85.5823 108.598H72.4218C71.1583 108.598 70.134 109.622 70.134 110.885V110.887C70.134 112.151 71.1583 113.175 72.4218 113.175H85.5823C86.8458 113.175 87.87 112.151 87.87 110.887V110.885C87.87 109.622 86.8458 108.598 85.5823 108.598Z" fill="#9F80AF"/>
<path d="M122 45.0006C122 21.253 102.749 2 79.0012 2C69.4264 2.00071 60.1257 5.19676 52.5729 11.0817C45.0201 16.9666 39.6472 25.2038 37.3057 34.4879C34.9643 43.772 35.7881 53.572 39.6467 62.3349C43.5053 71.0978 50.1779 78.3224 58.6072 82.8638C60.3161 83.7809 62.2263 84.259 64.1658 84.2548H93.8348C95.8051 84.2514 97.7435 83.7565 99.4743 82.8149C106.288 79.1269 111.979 73.6659 115.944 67.0094C119.909 60.353 122.002 52.7486 122 45.0006Z" fill="#C3AFCD"/>
<path d="M122 45.001C122.002 52.749 119.909 60.3534 115.944 67.0098C111.979 73.6662 106.288 79.1273 99.4742 82.8152C97.7435 83.7569 95.8051 84.2518 93.8348 84.2552H64.1658C62.2263 84.2593 60.3161 83.7813 58.6072 82.8641C50.1779 78.3227 43.5053 71.0981 39.6467 62.3352C35.7881 53.5723 34.9643 43.7723 37.3057 34.4882C39.6472 25.2041 45.0201 16.967 52.5729 11.082" stroke="#50395C" stroke-width="3"/>
<path d="M72.0609 77.1447C71.8684 77.1908 71.6688 77.1985 71.4734 77.1673C71.2779 77.1361 71.0906 77.0667 70.9221 76.9629C70.7536 76.8592 70.6072 76.7232 70.4913 76.5628C70.3754 76.4024 70.2924 76.2207 70.2469 76.0281L60.8666 36.5521C60.8205 36.3597 60.8128 36.16 60.844 35.9646C60.8752 35.7692 60.9446 35.5818 61.0484 35.4133C61.1521 35.2448 61.2881 35.0984 61.4485 34.9825C61.6089 34.8667 61.7906 34.7836 61.9832 34.7381C62.1764 34.6921 62.3768 34.6849 62.5728 34.7168C62.7688 34.7487 62.9566 34.8191 63.1253 34.924C63.2939 35.0289 63.4401 35.1661 63.5555 35.3278C63.6708 35.4894 63.753 35.6724 63.7972 35.866L73.1775 75.342C73.2673 75.729 73.2002 76.1359 72.991 76.4736C72.7818 76.8114 72.4474 77.0527 72.0609 77.1447Z" fill="white"/>
<path d="M84.7667 77.1447C84.9592 77.1908 85.1588 77.1985 85.3542 77.1673C85.5496 77.1361 85.737 77.0667 85.9055 76.9629C86.074 76.8592 86.2204 76.7232 86.3363 76.5628C86.4521 76.4024 86.5352 76.2207 86.5807 76.0281L95.9628 36.5521C96.0088 36.3589 96.016 36.1585 95.9841 35.9625C95.9522 35.7665 95.8818 35.5787 95.7769 35.4101C95.6721 35.2414 95.5348 35.0952 95.3732 34.9798C95.2115 34.8645 95.0286 34.7823 94.835 34.7381C94.6417 34.6921 94.4414 34.6849 94.2453 34.7168C94.0493 34.7487 93.8616 34.8191 93.6929 34.924C93.5243 35.0289 93.378 35.1661 93.2627 35.3278C93.1474 35.4894 93.0652 35.6724 93.0209 35.866L83.6407 75.342C83.5512 75.7303 83.6195 76.1383 83.8307 76.4763C84.0418 76.8144 84.3785 77.0547 84.7667 77.1447Z" fill="white"/>
<path d="M74.514 42.6424C74.3883 42.6424 74.265 42.6086 74.1568 42.5446L66.1789 37.8451C66.099 37.7982 66.0292 37.736 65.9734 37.6622C65.9175 37.5883 65.8768 37.5041 65.8535 37.4145C65.8302 37.3248 65.8248 37.2315 65.8376 37.1397C65.8503 37.048 65.881 36.9597 65.9279 36.8798C65.9748 36.8 66.037 36.7301 66.1109 36.6743C66.1848 36.6185 66.269 36.5778 66.3586 36.5544C66.4482 36.5311 66.5416 36.5257 66.6333 36.5385C66.7251 36.5513 66.8134 36.582 66.8932 36.6289L74.4256 41.0615L78.5274 37.3488C78.6499 37.2377 78.8077 37.1733 78.973 37.1668C79.1383 37.1602 79.3006 37.212 79.4316 37.3131L84.3059 41.0521L90.3401 36.6665C90.415 36.6119 90.4999 36.5727 90.59 36.5509C90.6801 36.5292 90.7736 36.5254 90.8652 36.5398C90.9568 36.5542 91.0446 36.5865 91.1236 36.6349C91.2027 36.6832 91.2715 36.7466 91.326 36.8216C91.3806 36.8965 91.4199 36.9814 91.4416 37.0715C91.4633 37.1616 91.4671 37.2551 91.4527 37.3467C91.4383 37.4382 91.406 37.526 91.3577 37.6051C91.3093 37.6842 91.2459 37.753 91.171 37.8075L84.7101 42.507C84.5878 42.598 84.4395 42.6471 84.2871 42.6471C84.1347 42.6471 83.9864 42.598 83.8641 42.507L79.0387 38.8038L74.9896 42.4694C74.8578 42.5838 74.6884 42.6454 74.514 42.6424Z" fill="white"/>
</svg>
